G04 (created by PCBNEW-RS274X (2010-03-14)-final) date Fri 27 Jul 2012 10:12:24 MSK*
G01*
G70*
G90*
%MOIN*%
G04 Gerber Fmt 3.4, Leading zero omitted, Abs format*
%FSLAX34Y34*%
G04 APERTURE LIST*
%ADD10C,0.001000*%
%ADD11C,0.015000*%
%ADD12R,0.044000X0.055000*%
%ADD13R,0.045000X0.065000*%
%ADD14R,0.065000X0.045000*%
%ADD15R,0.106600X0.090900*%
%ADD16R,0.075000X0.075000*%
%ADD17C,0.075000*%
%ADD18C,0.180000*%
%ADD19R,0.177400X0.110500*%
%ADD20R,0.177400X0.220700*%
%ADD21C,0.065000*%
%ADD22R,0.039600X0.120000*%
%ADD23R,0.098700X0.118400*%
%ADD24R,0.037000X0.100000*%
%ADD25C,0.055400*%
G04 APERTURE END LIST*
G54D10*
G54D11*
X45400Y-39699D02*
X51305Y-29331D01*
X51305Y-50000D02*
X45400Y-39699D01*
X63116Y-50000D02*
X51305Y-50000D01*
X69022Y-39699D02*
X63116Y-50000D01*
X63116Y-29331D02*
X69022Y-39699D01*
X51305Y-29331D02*
X63116Y-29331D01*
G54D12*
X51749Y-35000D03*
X50999Y-35000D03*
X50999Y-34000D03*
X51374Y-34000D03*
X51749Y-34000D03*
G54D13*
X51074Y-33000D03*
X51674Y-33000D03*
G54D14*
X52638Y-34739D03*
X52638Y-35339D03*
G54D13*
X51674Y-32250D03*
X51074Y-32250D03*
G54D14*
X57087Y-45418D03*
X57087Y-44818D03*
G54D15*
X58228Y-33777D03*
X58228Y-35357D03*
G54D16*
X60409Y-31496D03*
G54D17*
X59409Y-31496D03*
X58409Y-31496D03*
G54D12*
X53641Y-34342D03*
X54391Y-34342D03*
X54016Y-35342D03*
X55373Y-34342D03*
X56123Y-34342D03*
X55748Y-35342D03*
G54D14*
X54134Y-45418D03*
X54134Y-44818D03*
X56338Y-45418D03*
X56338Y-44818D03*
G54D18*
X62520Y-30354D03*
X46614Y-39685D03*
X62520Y-49016D03*
G54D19*
X66535Y-37795D03*
G54D20*
X61968Y-37795D03*
G54D19*
X47953Y-37795D03*
G54D20*
X52520Y-37795D03*
G54D19*
X47953Y-41732D03*
G54D20*
X52520Y-41732D03*
G54D19*
X66535Y-41732D03*
G54D20*
X61968Y-41732D03*
G54D21*
X62250Y-44000D03*
X52000Y-44000D03*
X49250Y-35500D03*
X65250Y-35500D03*
G54D22*
X54966Y-32774D03*
X55280Y-32774D03*
X54337Y-32774D03*
G54D23*
X56737Y-30569D03*
X56737Y-32734D03*
X53195Y-30569D03*
X53234Y-32734D03*
G54D24*
X54652Y-32750D03*
G54D25*
X55855Y-31875D03*
X54102Y-31875D03*
G54D22*
X55595Y-32774D03*
M02*
