G04 (created by PCBNEW-RS274X (2010-03-14)-final) date Fri 27 Jul 2012 10:12:24 MSK*
G01*
G70*
G90*
%MOIN*%
G04 Gerber Fmt 3.4, Leading zero omitted, Abs format*
%FSLAX34Y34*%
G04 APERTURE LIST*
%ADD10C,0.001000*%
%ADD11C,0.006300*%
%ADD12C,0.013100*%
%ADD13C,0.019700*%
%ADD14C,0.015000*%
%ADD15C,0.006000*%
%ADD16C,0.005000*%
%ADD17C,0.008000*%
%ADD18C,0.004200*%
%ADD19C,0.004000*%
%ADD20C,0.006700*%
G04 APERTURE END LIST*
G54D10*
G54D11*
X61505Y-46655D02*
X61636Y-47049D01*
X61767Y-46655D01*
X62049Y-47031D02*
X62011Y-47049D01*
X61936Y-47049D01*
X61899Y-47031D01*
X61880Y-46993D01*
X61880Y-46843D01*
X61899Y-46806D01*
X61936Y-46787D01*
X62011Y-46787D01*
X62049Y-46806D01*
X62068Y-46843D01*
X62068Y-46881D01*
X61880Y-46918D01*
X62237Y-47049D02*
X62237Y-46787D01*
X62237Y-46862D02*
X62256Y-46824D01*
X62274Y-46806D01*
X62312Y-46787D01*
X62349Y-46787D01*
X62462Y-47031D02*
X62500Y-47049D01*
X62575Y-47049D01*
X62612Y-47031D01*
X62631Y-46993D01*
X62631Y-46974D01*
X62612Y-46937D01*
X62575Y-46918D01*
X62518Y-46918D01*
X62481Y-46899D01*
X62462Y-46862D01*
X62462Y-46843D01*
X62481Y-46806D01*
X62518Y-46787D01*
X62575Y-46787D01*
X62612Y-46806D01*
X62800Y-47049D02*
X62800Y-46787D01*
X62800Y-46655D02*
X62781Y-46674D01*
X62800Y-46693D01*
X62819Y-46674D01*
X62800Y-46655D01*
X62800Y-46693D01*
X63044Y-47049D02*
X63007Y-47031D01*
X62988Y-47012D01*
X62969Y-46974D01*
X62969Y-46862D01*
X62988Y-46824D01*
X63007Y-46806D01*
X63044Y-46787D01*
X63100Y-46787D01*
X63138Y-46806D01*
X63157Y-46824D01*
X63175Y-46862D01*
X63175Y-46974D01*
X63157Y-47012D01*
X63138Y-47031D01*
X63100Y-47049D01*
X63044Y-47049D01*
X63344Y-46787D02*
X63344Y-47049D01*
X63344Y-46824D02*
X63363Y-46806D01*
X63400Y-46787D01*
X63456Y-46787D01*
X63494Y-46806D01*
X63513Y-46843D01*
X63513Y-47049D01*
X64206Y-47049D02*
X63981Y-47049D01*
X64094Y-47049D02*
X64094Y-46655D01*
X64056Y-46712D01*
X64019Y-46749D01*
X63981Y-46768D01*
G54D12*
X58396Y-48310D02*
X58846Y-48310D01*
X58621Y-49097D02*
X58621Y-48310D01*
X59108Y-49097D02*
X59108Y-48310D01*
X59108Y-48685D02*
X59558Y-48685D01*
X59558Y-49097D02*
X59558Y-48310D01*
X59895Y-48872D02*
X60270Y-48872D01*
X59820Y-49097D02*
X60082Y-48310D01*
X60345Y-49097D01*
X60607Y-49097D02*
X60607Y-48310D01*
X60907Y-48310D01*
X60982Y-48348D01*
X61020Y-48385D01*
X61057Y-48460D01*
X61057Y-48572D01*
X61020Y-48647D01*
X60982Y-48685D01*
X60907Y-48722D01*
X60607Y-48722D01*
G54D13*
X51953Y-47182D02*
X51559Y-47182D01*
X51559Y-47801D02*
X51559Y-46620D01*
X52122Y-46620D01*
X52740Y-47801D02*
X52627Y-47744D01*
X52571Y-47632D01*
X52571Y-46620D01*
X53640Y-47744D02*
X53528Y-47801D01*
X53303Y-47801D01*
X53190Y-47744D01*
X53134Y-47632D01*
X53134Y-47182D01*
X53190Y-47069D01*
X53303Y-47013D01*
X53528Y-47013D01*
X53640Y-47069D01*
X53696Y-47182D01*
X53696Y-47294D01*
X53134Y-47407D01*
X54090Y-47801D02*
X54708Y-47013D01*
X54090Y-47013D02*
X54708Y-47801D01*
X55158Y-47801D02*
X55158Y-47013D01*
X55158Y-46620D02*
X55102Y-46676D01*
X55158Y-46732D01*
X55214Y-46676D01*
X55158Y-46620D01*
X55158Y-46732D01*
X55720Y-47801D02*
X55720Y-46620D01*
X55720Y-47069D02*
X55833Y-47013D01*
X56058Y-47013D01*
X56170Y-47069D01*
X56226Y-47126D01*
X56283Y-47238D01*
X56283Y-47576D01*
X56226Y-47688D01*
X56170Y-47744D01*
X56058Y-47801D01*
X55833Y-47801D01*
X55720Y-47744D01*
X56789Y-47801D02*
X56789Y-47013D01*
X56789Y-46620D02*
X56733Y-46676D01*
X56789Y-46732D01*
X56845Y-46676D01*
X56789Y-46620D01*
X56789Y-46732D01*
X57182Y-47013D02*
X57632Y-47013D01*
X57351Y-46620D02*
X57351Y-47632D01*
X57407Y-47744D01*
X57520Y-47801D01*
X57632Y-47801D01*
X57914Y-47013D02*
X58195Y-47801D01*
X58476Y-47013D02*
X58195Y-47801D01*
X58082Y-48082D01*
X58026Y-48138D01*
X57914Y-48194D01*
G54D14*
X45400Y-39699D02*
X51305Y-29331D01*
X51305Y-50000D02*
X45400Y-39699D01*
X63116Y-50000D02*
X51305Y-50000D01*
X69022Y-39699D02*
X63116Y-50000D01*
X63116Y-29331D02*
X69022Y-39699D01*
X51305Y-29331D02*
X63116Y-29331D01*
G54D15*
X51965Y-34854D02*
X51886Y-34854D01*
X51965Y-34854D02*
X51965Y-34146D01*
X51965Y-34146D02*
X51886Y-34146D01*
X50783Y-34146D02*
X50862Y-34146D01*
X50783Y-34854D02*
X50862Y-34854D01*
X50783Y-34146D02*
X50783Y-34854D01*
X51824Y-33250D02*
X51574Y-33250D01*
X50924Y-33250D02*
X51174Y-33250D01*
X50924Y-32750D02*
X50924Y-33250D01*
X51824Y-32750D02*
X51824Y-33250D01*
X50924Y-32750D02*
X51174Y-32750D01*
X51824Y-32750D02*
X51574Y-32750D01*
X52388Y-35489D02*
X52388Y-35239D01*
X52388Y-34589D02*
X52388Y-34839D01*
X52888Y-34589D02*
X52388Y-34589D01*
X52888Y-35489D02*
X52388Y-35489D01*
X52888Y-34589D02*
X52888Y-34839D01*
X52888Y-35489D02*
X52888Y-35239D01*
X50924Y-32000D02*
X51174Y-32000D01*
X51824Y-32000D02*
X51574Y-32000D01*
X51824Y-32500D02*
X51824Y-32000D01*
X50924Y-32500D02*
X50924Y-32000D01*
X51824Y-32500D02*
X51574Y-32500D01*
X50924Y-32500D02*
X51174Y-32500D01*
X57337Y-44668D02*
X57337Y-44918D01*
X57337Y-45568D02*
X57337Y-45318D01*
X56837Y-45568D02*
X57337Y-45568D01*
X56837Y-44668D02*
X57337Y-44668D01*
X56837Y-45568D02*
X56837Y-45318D01*
X56837Y-44668D02*
X56837Y-44918D01*
G54D16*
X58228Y-34267D02*
X58228Y-34187D01*
X58978Y-33667D02*
X58978Y-35467D01*
X58978Y-35467D02*
X58728Y-35467D01*
X57478Y-34827D02*
X58978Y-34827D01*
X57478Y-34957D02*
X58978Y-34957D01*
X57728Y-33667D02*
X57478Y-33667D01*
X57478Y-33667D02*
X57478Y-35467D01*
X57478Y-35467D02*
X57728Y-35467D01*
X58728Y-33667D02*
X58978Y-33667D01*
X58228Y-34517D02*
X58415Y-34267D01*
X58415Y-34267D02*
X58228Y-34267D01*
X58228Y-34267D02*
X58041Y-34267D01*
X58041Y-34267D02*
X58228Y-34517D01*
X58228Y-34517D02*
X58353Y-34517D01*
X58353Y-34517D02*
X58415Y-34455D01*
X58228Y-34517D02*
X58103Y-34517D01*
X58103Y-34517D02*
X58041Y-34579D01*
X58228Y-34517D02*
X58228Y-34954D01*
G54D17*
X57409Y-28796D02*
X61409Y-28796D01*
X61409Y-30996D02*
X57409Y-30996D01*
X59209Y-28596D02*
X59209Y-27796D01*
X60009Y-28596D02*
X60009Y-27796D01*
X60809Y-28796D02*
X60809Y-28596D01*
X60809Y-28596D02*
X58609Y-28596D01*
X58609Y-28596D02*
X58609Y-28796D01*
X60009Y-27796D02*
X59209Y-27796D01*
X58409Y-31496D02*
X58409Y-30996D01*
X59409Y-31496D02*
X59409Y-30996D01*
X60409Y-31496D02*
X60409Y-30996D01*
X57409Y-30996D02*
X57409Y-28796D01*
X61409Y-30996D02*
X61409Y-28796D01*
G54D15*
X54252Y-34488D02*
X53780Y-34488D01*
X54528Y-35196D02*
X54134Y-35196D01*
X53504Y-35196D02*
X53898Y-35196D01*
X54607Y-35196D02*
X54528Y-35196D01*
X54607Y-35196D02*
X54607Y-34488D01*
X54607Y-34488D02*
X54528Y-34488D01*
X53425Y-34488D02*
X53504Y-34488D01*
X53425Y-35196D02*
X53504Y-35196D01*
X53425Y-34488D02*
X53425Y-35196D01*
X55984Y-34488D02*
X55512Y-34488D01*
X56260Y-35196D02*
X55866Y-35196D01*
X55236Y-35196D02*
X55630Y-35196D01*
X56339Y-35196D02*
X56260Y-35196D01*
X56339Y-35196D02*
X56339Y-34488D01*
X56339Y-34488D02*
X56260Y-34488D01*
X55157Y-34488D02*
X55236Y-34488D01*
X55157Y-35196D02*
X55236Y-35196D01*
X55157Y-34488D02*
X55157Y-35196D01*
X54384Y-44668D02*
X54384Y-44918D01*
X54384Y-45568D02*
X54384Y-45318D01*
X53884Y-45568D02*
X54384Y-45568D01*
X53884Y-44668D02*
X54384Y-44668D01*
X53884Y-45568D02*
X53884Y-45318D01*
X53884Y-44668D02*
X53884Y-44918D01*
X56588Y-44668D02*
X56588Y-44918D01*
X56588Y-45568D02*
X56588Y-45318D01*
X56088Y-45568D02*
X56588Y-45568D01*
X56088Y-44668D02*
X56588Y-44668D01*
X56088Y-45568D02*
X56088Y-45318D01*
X56088Y-44668D02*
X56088Y-44918D01*
G54D14*
X63420Y-30354D02*
X63402Y-30528D01*
X63352Y-30696D01*
X63269Y-30852D01*
X63158Y-30988D01*
X63023Y-31100D01*
X62868Y-31183D01*
X62700Y-31235D01*
X62526Y-31253D01*
X62352Y-31238D01*
X62183Y-31188D01*
X62028Y-31107D01*
X61891Y-30997D01*
X61778Y-30862D01*
X61693Y-30708D01*
X61640Y-30541D01*
X61621Y-30366D01*
X61635Y-30192D01*
X61684Y-30023D01*
X61764Y-29867D01*
X61873Y-29729D01*
X62007Y-29615D01*
X62160Y-29530D01*
X62327Y-29475D01*
X62502Y-29455D01*
X62676Y-29468D01*
X62845Y-29515D01*
X63002Y-29595D01*
X63140Y-29703D01*
X63255Y-29836D01*
X63342Y-29988D01*
X63397Y-30155D01*
X63419Y-30329D01*
X63420Y-30354D01*
X47514Y-39685D02*
X47496Y-39859D01*
X47446Y-40027D01*
X47363Y-40183D01*
X47252Y-40319D01*
X47117Y-40431D01*
X46962Y-40514D01*
X46794Y-40566D01*
X46620Y-40584D01*
X46446Y-40569D01*
X46277Y-40519D01*
X46122Y-40438D01*
X45985Y-40328D01*
X45872Y-40193D01*
X45787Y-40039D01*
X45734Y-39872D01*
X45715Y-39697D01*
X45729Y-39523D01*
X45778Y-39354D01*
X45858Y-39198D01*
X45967Y-39060D01*
X46101Y-38946D01*
X46254Y-38861D01*
X46421Y-38806D01*
X46596Y-38786D01*
X46770Y-38799D01*
X46939Y-38846D01*
X47096Y-38926D01*
X47234Y-39034D01*
X47349Y-39167D01*
X47436Y-39319D01*
X47491Y-39486D01*
X47513Y-39660D01*
X47514Y-39685D01*
X63420Y-49016D02*
X63402Y-49190D01*
X63352Y-49358D01*
X63269Y-49514D01*
X63158Y-49650D01*
X63023Y-49762D01*
X62868Y-49845D01*
X62700Y-49897D01*
X62526Y-49915D01*
X62352Y-49900D01*
X62183Y-49850D01*
X62028Y-49769D01*
X61891Y-49659D01*
X61778Y-49524D01*
X61693Y-49370D01*
X61640Y-49203D01*
X61621Y-49028D01*
X61635Y-48854D01*
X61684Y-48685D01*
X61764Y-48529D01*
X61873Y-48391D01*
X62007Y-48277D01*
X62160Y-48192D01*
X62327Y-48137D01*
X62502Y-48117D01*
X62676Y-48130D01*
X62845Y-48177D01*
X63002Y-48257D01*
X63140Y-48365D01*
X63255Y-48498D01*
X63342Y-48650D01*
X63397Y-48817D01*
X63419Y-48991D01*
X63420Y-49016D01*
G54D17*
X60744Y-37795D02*
X59744Y-37795D01*
X54244Y-37295D02*
X54244Y-38295D01*
X53744Y-37795D02*
X54744Y-37795D01*
X48594Y-35845D02*
X48594Y-37095D01*
X65894Y-38495D02*
X65894Y-39795D01*
X65894Y-39795D02*
X48594Y-39795D01*
X48594Y-39795D02*
X48594Y-38495D01*
X48594Y-35795D02*
X65894Y-35795D01*
X65894Y-35795D02*
X65894Y-37145D01*
X53744Y-41732D02*
X54744Y-41732D01*
X60244Y-42232D02*
X60244Y-41232D01*
X60744Y-41732D02*
X59744Y-41732D01*
X65894Y-43682D02*
X65894Y-42432D01*
X48594Y-41032D02*
X48594Y-39732D01*
X48594Y-39732D02*
X65894Y-39732D01*
X65894Y-39732D02*
X65894Y-41032D01*
X65894Y-43732D02*
X48594Y-43732D01*
X48594Y-43732D02*
X48594Y-42382D01*
G54D16*
X62566Y-44000D02*
X62559Y-44061D01*
X62542Y-44120D01*
X62513Y-44174D01*
X62474Y-44222D01*
X62426Y-44261D01*
X62372Y-44291D01*
X62313Y-44309D01*
X62252Y-44315D01*
X62191Y-44310D01*
X62132Y-44292D01*
X62077Y-44264D01*
X62029Y-44225D01*
X61990Y-44178D01*
X61960Y-44124D01*
X61941Y-44065D01*
X61935Y-44004D01*
X61940Y-43943D01*
X61957Y-43884D01*
X61985Y-43829D01*
X62023Y-43781D01*
X62070Y-43741D01*
X62124Y-43711D01*
X62183Y-43692D01*
X62244Y-43685D01*
X62304Y-43689D01*
X62364Y-43706D01*
X62419Y-43734D01*
X62467Y-43772D01*
X62508Y-43818D01*
X62538Y-43872D01*
X62558Y-43930D01*
X62565Y-43992D01*
X62566Y-44000D01*
X52316Y-44000D02*
X52309Y-44061D01*
X52292Y-44120D01*
X52263Y-44174D01*
X52224Y-44222D01*
X52176Y-44261D01*
X52122Y-44291D01*
X52063Y-44309D01*
X52002Y-44315D01*
X51941Y-44310D01*
X51882Y-44292D01*
X51827Y-44264D01*
X51779Y-44225D01*
X51740Y-44178D01*
X51710Y-44124D01*
X51691Y-44065D01*
X51685Y-44004D01*
X51690Y-43943D01*
X51707Y-43884D01*
X51735Y-43829D01*
X51773Y-43781D01*
X51820Y-43741D01*
X51874Y-43711D01*
X51933Y-43692D01*
X51994Y-43685D01*
X52054Y-43689D01*
X52114Y-43706D01*
X52169Y-43734D01*
X52217Y-43772D01*
X52258Y-43818D01*
X52288Y-43872D01*
X52308Y-43930D01*
X52315Y-43992D01*
X52316Y-44000D01*
X49566Y-35500D02*
X49559Y-35561D01*
X49542Y-35620D01*
X49513Y-35674D01*
X49474Y-35722D01*
X49426Y-35761D01*
X49372Y-35791D01*
X49313Y-35809D01*
X49252Y-35815D01*
X49191Y-35810D01*
X49132Y-35792D01*
X49077Y-35764D01*
X49029Y-35725D01*
X48990Y-35678D01*
X48960Y-35624D01*
X48941Y-35565D01*
X48935Y-35504D01*
X48940Y-35443D01*
X48957Y-35384D01*
X48985Y-35329D01*
X49023Y-35281D01*
X49070Y-35241D01*
X49124Y-35211D01*
X49183Y-35192D01*
X49244Y-35185D01*
X49304Y-35189D01*
X49364Y-35206D01*
X49419Y-35234D01*
X49467Y-35272D01*
X49508Y-35318D01*
X49538Y-35372D01*
X49558Y-35430D01*
X49565Y-35492D01*
X49566Y-35500D01*
X65566Y-35500D02*
X65559Y-35561D01*
X65542Y-35620D01*
X65513Y-35674D01*
X65474Y-35722D01*
X65426Y-35761D01*
X65372Y-35791D01*
X65313Y-35809D01*
X65252Y-35815D01*
X65191Y-35810D01*
X65132Y-35792D01*
X65077Y-35764D01*
X65029Y-35725D01*
X64990Y-35678D01*
X64960Y-35624D01*
X64941Y-35565D01*
X64935Y-35504D01*
X64940Y-35443D01*
X64957Y-35384D01*
X64985Y-35329D01*
X65023Y-35281D01*
X65070Y-35241D01*
X65124Y-35211D01*
X65183Y-35192D01*
X65244Y-35185D01*
X65304Y-35189D01*
X65364Y-35206D01*
X65419Y-35234D01*
X65467Y-35272D01*
X65508Y-35318D01*
X65538Y-35372D01*
X65558Y-35430D01*
X65565Y-35492D01*
X65566Y-35500D01*
G54D17*
X56580Y-29289D02*
X56580Y-30077D01*
X53391Y-30077D02*
X53391Y-29289D01*
X56580Y-29289D02*
X53391Y-29289D01*
X53391Y-31110D02*
X53391Y-32193D01*
X56580Y-32193D02*
X56580Y-31110D01*
X54066Y-33050D02*
X53766Y-33050D01*
X56216Y-33050D02*
X55866Y-33050D01*
G54D16*
X55466Y-29934D02*
X55216Y-31184D01*
X55216Y-31184D02*
X54716Y-31184D01*
X54716Y-31184D02*
X54466Y-29934D01*
X53716Y-30934D02*
X53841Y-29934D01*
X53841Y-29934D02*
X54091Y-29934D01*
X54091Y-29934D02*
X54216Y-30934D01*
X56216Y-30934D02*
X56091Y-29934D01*
X56091Y-29934D02*
X55841Y-29934D01*
X55841Y-29934D02*
X55716Y-30934D01*
G54D18*
X51184Y-35351D02*
X51184Y-35554D01*
X51195Y-35577D01*
X51207Y-35589D01*
X51231Y-35601D01*
X51279Y-35601D01*
X51303Y-35589D01*
X51314Y-35577D01*
X51326Y-35554D01*
X51326Y-35351D01*
X51434Y-35375D02*
X51446Y-35363D01*
X51469Y-35351D01*
X51529Y-35351D01*
X51553Y-35363D01*
X51565Y-35375D01*
X51576Y-35399D01*
X51576Y-35423D01*
X51565Y-35458D01*
X51422Y-35601D01*
X51576Y-35601D01*
X52201Y-33042D02*
X52213Y-33054D01*
X52225Y-33089D01*
X52225Y-33113D01*
X52213Y-33149D01*
X52189Y-33173D01*
X52166Y-33184D01*
X52118Y-33196D01*
X52082Y-33196D01*
X52035Y-33184D01*
X52011Y-33173D01*
X51987Y-33149D01*
X51975Y-33113D01*
X51975Y-33089D01*
X51987Y-33054D01*
X51999Y-33042D01*
X52225Y-32804D02*
X52225Y-32946D01*
X52225Y-32875D02*
X51975Y-32875D01*
X52011Y-32899D01*
X52035Y-32923D01*
X52047Y-32946D01*
X50770Y-33615D02*
X50770Y-33757D01*
X50770Y-33686D02*
X50520Y-33686D01*
X50556Y-33710D01*
X50580Y-33734D01*
X50592Y-33757D01*
X50520Y-33460D02*
X50520Y-33436D01*
X50532Y-33412D01*
X50544Y-33400D01*
X50568Y-33388D01*
X50615Y-33377D01*
X50675Y-33377D01*
X50723Y-33388D01*
X50746Y-33400D01*
X50758Y-33412D01*
X50770Y-33436D01*
X50770Y-33460D01*
X50758Y-33484D01*
X50746Y-33496D01*
X50723Y-33507D01*
X50675Y-33519D01*
X50615Y-33519D01*
X50568Y-33507D01*
X50544Y-33496D01*
X50532Y-33484D01*
X50520Y-33460D01*
X50520Y-33222D02*
X50520Y-33198D01*
X50532Y-33174D01*
X50544Y-33162D01*
X50568Y-33150D01*
X50615Y-33139D01*
X50675Y-33139D01*
X50723Y-33150D01*
X50746Y-33162D01*
X50758Y-33174D01*
X50770Y-33198D01*
X50770Y-33222D01*
X50758Y-33246D01*
X50746Y-33258D01*
X50723Y-33269D01*
X50675Y-33281D01*
X50615Y-33281D01*
X50568Y-33269D01*
X50544Y-33258D01*
X50532Y-33246D01*
X50520Y-33222D01*
X50604Y-33031D02*
X50770Y-33031D01*
X50627Y-33031D02*
X50615Y-33020D01*
X50604Y-32996D01*
X50604Y-32960D01*
X50615Y-32936D01*
X50639Y-32924D01*
X50770Y-32924D01*
X50639Y-32722D02*
X50639Y-32805D01*
X50770Y-32805D02*
X50520Y-32805D01*
X50520Y-32686D01*
X52596Y-33999D02*
X52513Y-33880D01*
X52454Y-33999D02*
X52454Y-33749D01*
X52549Y-33749D01*
X52573Y-33761D01*
X52584Y-33773D01*
X52596Y-33797D01*
X52596Y-33833D01*
X52584Y-33856D01*
X52573Y-33868D01*
X52549Y-33880D01*
X52454Y-33880D01*
X52692Y-33773D02*
X52704Y-33761D01*
X52727Y-33749D01*
X52787Y-33749D01*
X52811Y-33761D01*
X52823Y-33773D01*
X52834Y-33797D01*
X52834Y-33821D01*
X52823Y-33856D01*
X52680Y-33999D01*
X52834Y-33999D01*
X52385Y-34392D02*
X52243Y-34392D01*
X52314Y-34392D02*
X52314Y-34142D01*
X52290Y-34178D01*
X52266Y-34202D01*
X52243Y-34214D01*
X52540Y-34142D02*
X52564Y-34142D01*
X52588Y-34154D01*
X52600Y-34166D01*
X52612Y-34190D01*
X52623Y-34237D01*
X52623Y-34297D01*
X52612Y-34345D01*
X52600Y-34368D01*
X52588Y-34380D01*
X52564Y-34392D01*
X52540Y-34392D01*
X52516Y-34380D01*
X52504Y-34368D01*
X52493Y-34345D01*
X52481Y-34297D01*
X52481Y-34237D01*
X52493Y-34190D01*
X52504Y-34166D01*
X52516Y-34154D01*
X52540Y-34142D01*
X52778Y-34142D02*
X52802Y-34142D01*
X52826Y-34154D01*
X52838Y-34166D01*
X52850Y-34190D01*
X52861Y-34237D01*
X52861Y-34297D01*
X52850Y-34345D01*
X52838Y-34368D01*
X52826Y-34380D01*
X52802Y-34392D01*
X52778Y-34392D01*
X52754Y-34380D01*
X52742Y-34368D01*
X52731Y-34345D01*
X52719Y-34297D01*
X52719Y-34237D01*
X52731Y-34190D01*
X52742Y-34166D01*
X52754Y-34154D01*
X52778Y-34142D01*
X52969Y-34392D02*
X52969Y-34142D01*
X53111Y-34392D02*
X53004Y-34249D01*
X53111Y-34142D02*
X52969Y-34285D01*
X52225Y-32292D02*
X52106Y-32375D01*
X52225Y-32434D02*
X51975Y-32434D01*
X51975Y-32339D01*
X51987Y-32315D01*
X51999Y-32304D01*
X52023Y-32292D01*
X52059Y-32292D01*
X52082Y-32304D01*
X52094Y-32315D01*
X52106Y-32339D01*
X52106Y-32434D01*
X52225Y-32054D02*
X52225Y-32196D01*
X52225Y-32125D02*
X51975Y-32125D01*
X52011Y-32149D01*
X52035Y-32173D01*
X52047Y-32196D01*
X50770Y-32339D02*
X50770Y-32481D01*
X50770Y-32410D02*
X50520Y-32410D01*
X50556Y-32434D01*
X50580Y-32458D01*
X50592Y-32481D01*
X50520Y-32184D02*
X50520Y-32160D01*
X50532Y-32136D01*
X50544Y-32124D01*
X50568Y-32112D01*
X50615Y-32101D01*
X50675Y-32101D01*
X50723Y-32112D01*
X50746Y-32124D01*
X50758Y-32136D01*
X50770Y-32160D01*
X50770Y-32184D01*
X50758Y-32208D01*
X50746Y-32220D01*
X50723Y-32231D01*
X50675Y-32243D01*
X50615Y-32243D01*
X50568Y-32231D01*
X50544Y-32220D01*
X50532Y-32208D01*
X50520Y-32184D01*
X50520Y-31946D02*
X50520Y-31922D01*
X50532Y-31898D01*
X50544Y-31886D01*
X50568Y-31874D01*
X50615Y-31863D01*
X50675Y-31863D01*
X50723Y-31874D01*
X50746Y-31886D01*
X50758Y-31898D01*
X50770Y-31922D01*
X50770Y-31946D01*
X50758Y-31970D01*
X50746Y-31982D01*
X50723Y-31993D01*
X50675Y-32005D01*
X50615Y-32005D01*
X50568Y-31993D01*
X50544Y-31982D01*
X50532Y-31970D01*
X50520Y-31946D01*
X50770Y-31755D02*
X50520Y-31755D01*
X50770Y-31613D02*
X50627Y-31720D01*
X50520Y-31613D02*
X50663Y-31755D01*
G54D19*
X57047Y-44483D02*
X57036Y-44495D01*
X57002Y-44506D01*
X56979Y-44506D01*
X56944Y-44495D01*
X56922Y-44472D01*
X56910Y-44449D01*
X56899Y-44403D01*
X56899Y-44369D01*
X56910Y-44323D01*
X56922Y-44300D01*
X56944Y-44278D01*
X56979Y-44266D01*
X57002Y-44266D01*
X57036Y-44278D01*
X57047Y-44289D01*
X57127Y-44266D02*
X57276Y-44266D01*
X57196Y-44358D01*
X57230Y-44358D01*
X57253Y-44369D01*
X57264Y-44380D01*
X57276Y-44403D01*
X57276Y-44460D01*
X57264Y-44483D01*
X57253Y-44495D01*
X57230Y-44506D01*
X57162Y-44506D01*
X57139Y-44495D01*
X57127Y-44483D01*
X56944Y-45965D02*
X56807Y-45965D01*
X56875Y-45965D02*
X56875Y-45725D01*
X56852Y-45759D01*
X56830Y-45782D01*
X56807Y-45794D01*
X57150Y-45805D02*
X57150Y-45965D01*
X57047Y-45805D02*
X57047Y-45931D01*
X57059Y-45954D01*
X57081Y-45965D01*
X57116Y-45965D01*
X57139Y-45954D01*
X57150Y-45942D01*
X57344Y-45839D02*
X57264Y-45839D01*
X57264Y-45965D02*
X57264Y-45725D01*
X57378Y-45725D01*
X58051Y-33207D02*
X58051Y-32967D01*
X58108Y-32967D01*
X58143Y-32979D01*
X58165Y-33001D01*
X58177Y-33024D01*
X58188Y-33070D01*
X58188Y-33104D01*
X58177Y-33150D01*
X58165Y-33173D01*
X58143Y-33196D01*
X58108Y-33207D01*
X58051Y-33207D01*
X58417Y-33207D02*
X58280Y-33207D01*
X58348Y-33207D02*
X58348Y-32967D01*
X58325Y-33001D01*
X58303Y-33024D01*
X58280Y-33036D01*
G54D20*
X58876Y-32623D02*
X58933Y-32642D01*
X59029Y-32642D01*
X59067Y-32623D01*
X59086Y-32604D01*
X59105Y-32566D01*
X59105Y-32528D01*
X59086Y-32490D01*
X59067Y-32470D01*
X59029Y-32451D01*
X58952Y-32432D01*
X58914Y-32413D01*
X58895Y-32394D01*
X58876Y-32356D01*
X58876Y-32318D01*
X58895Y-32280D01*
X58914Y-32261D01*
X58952Y-32242D01*
X59048Y-32242D01*
X59105Y-32261D01*
X59238Y-32242D02*
X59333Y-32642D01*
X59410Y-32356D01*
X59486Y-32642D01*
X59581Y-32242D01*
X59943Y-32642D02*
X59714Y-32642D01*
X59828Y-32642D02*
X59828Y-32242D01*
X59790Y-32299D01*
X59752Y-32337D01*
X59714Y-32356D01*
G54D19*
X53833Y-33755D02*
X53833Y-33949D01*
X53845Y-33972D01*
X53856Y-33984D01*
X53879Y-33995D01*
X53925Y-33995D01*
X53947Y-33984D01*
X53959Y-33972D01*
X53970Y-33949D01*
X53970Y-33755D01*
X54187Y-33835D02*
X54187Y-33995D01*
X54130Y-33744D02*
X54073Y-33915D01*
X54221Y-33915D01*
X55725Y-33978D02*
X55702Y-33967D01*
X55679Y-33944D01*
X55645Y-33909D01*
X55622Y-33898D01*
X55599Y-33898D01*
X55611Y-33955D02*
X55588Y-33944D01*
X55565Y-33921D01*
X55554Y-33875D01*
X55554Y-33795D01*
X55565Y-33749D01*
X55588Y-33727D01*
X55611Y-33715D01*
X55657Y-33715D01*
X55679Y-33727D01*
X55702Y-33749D01*
X55714Y-33795D01*
X55714Y-33875D01*
X55702Y-33921D01*
X55679Y-33944D01*
X55657Y-33955D01*
X55611Y-33955D01*
X55942Y-33955D02*
X55805Y-33955D01*
X55873Y-33955D02*
X55873Y-33715D01*
X55850Y-33749D01*
X55828Y-33772D01*
X55805Y-33784D01*
X54094Y-44483D02*
X54083Y-44495D01*
X54049Y-44506D01*
X54026Y-44506D01*
X53991Y-44495D01*
X53969Y-44472D01*
X53957Y-44449D01*
X53946Y-44403D01*
X53946Y-44369D01*
X53957Y-44323D01*
X53969Y-44300D01*
X53991Y-44278D01*
X54026Y-44266D01*
X54049Y-44266D01*
X54083Y-44278D01*
X54094Y-44289D01*
X54186Y-44289D02*
X54197Y-44278D01*
X54220Y-44266D01*
X54277Y-44266D01*
X54300Y-44278D01*
X54311Y-44289D01*
X54323Y-44312D01*
X54323Y-44335D01*
X54311Y-44369D01*
X54174Y-44506D01*
X54323Y-44506D01*
X53723Y-45963D02*
X53586Y-45963D01*
X53654Y-45963D02*
X53654Y-45723D01*
X53631Y-45757D01*
X53609Y-45780D01*
X53586Y-45792D01*
X53872Y-45723D02*
X53895Y-45723D01*
X53918Y-45735D01*
X53929Y-45746D01*
X53940Y-45769D01*
X53952Y-45815D01*
X53952Y-45872D01*
X53940Y-45917D01*
X53929Y-45940D01*
X53918Y-45952D01*
X53895Y-45963D01*
X53872Y-45963D01*
X53849Y-45952D01*
X53838Y-45940D01*
X53826Y-45917D01*
X53815Y-45872D01*
X53815Y-45815D01*
X53826Y-45769D01*
X53838Y-45746D01*
X53849Y-45735D01*
X53872Y-45723D01*
X54101Y-45723D02*
X54124Y-45723D01*
X54147Y-45735D01*
X54158Y-45746D01*
X54169Y-45769D01*
X54181Y-45815D01*
X54181Y-45872D01*
X54169Y-45917D01*
X54158Y-45940D01*
X54147Y-45952D01*
X54124Y-45963D01*
X54101Y-45963D01*
X54078Y-45952D01*
X54067Y-45940D01*
X54055Y-45917D01*
X54044Y-45872D01*
X54044Y-45815D01*
X54055Y-45769D01*
X54067Y-45746D01*
X54078Y-45735D01*
X54101Y-45723D01*
X54284Y-45803D02*
X54284Y-45963D01*
X54284Y-45826D02*
X54296Y-45815D01*
X54318Y-45803D01*
X54353Y-45803D01*
X54376Y-45815D01*
X54387Y-45837D01*
X54387Y-45963D01*
X54581Y-45837D02*
X54501Y-45837D01*
X54501Y-45963D02*
X54501Y-45723D01*
X54615Y-45723D01*
X56298Y-44483D02*
X56287Y-44495D01*
X56253Y-44506D01*
X56230Y-44506D01*
X56195Y-44495D01*
X56173Y-44472D01*
X56161Y-44449D01*
X56150Y-44403D01*
X56150Y-44369D01*
X56161Y-44323D01*
X56173Y-44300D01*
X56195Y-44278D01*
X56230Y-44266D01*
X56253Y-44266D01*
X56287Y-44278D01*
X56298Y-44289D01*
X56504Y-44346D02*
X56504Y-44506D01*
X56447Y-44255D02*
X56390Y-44426D01*
X56538Y-44426D01*
X56195Y-45963D02*
X56058Y-45963D01*
X56126Y-45963D02*
X56126Y-45723D01*
X56103Y-45757D01*
X56081Y-45780D01*
X56058Y-45792D01*
X56401Y-45803D02*
X56401Y-45963D01*
X56298Y-45803D02*
X56298Y-45929D01*
X56310Y-45952D01*
X56332Y-45963D01*
X56367Y-45963D01*
X56390Y-45952D01*
X56401Y-45940D01*
X56595Y-45837D02*
X56515Y-45837D01*
X56515Y-45963D02*
X56515Y-45723D01*
X56629Y-45723D01*
M02*
