G04 (created by PCBNEW-RS274X (2010-03-14)-final) date Fri 27 Jul 2012 10:12:24 MSK*
G01*
G70*
G90*
%MOIN*%
G04 Gerber Fmt 3.4, Leading zero omitted, Abs format*
%FSLAX34Y34*%
G04 APERTURE LIST*
%ADD10C,0.001000*%
%ADD11C,0.015000*%
%ADD12R,0.065000X0.045000*%
%ADD13R,0.075000X0.075000*%
%ADD14C,0.075000*%
%ADD15C,0.180000*%
%ADD16R,0.079000X0.039600*%
%ADD17R,0.051400X0.035700*%
%ADD18R,0.079000X0.114400*%
%ADD19C,0.065000*%
%ADD20C,0.055400*%
G04 APERTURE END LIST*
G54D10*
G54D11*
X45400Y-39699D02*
X51305Y-29331D01*
X51305Y-50000D02*
X45400Y-39699D01*
X63116Y-50000D02*
X51305Y-50000D01*
X69022Y-39699D02*
X63116Y-50000D01*
X63116Y-29331D02*
X69022Y-39699D01*
X51305Y-29331D02*
X63116Y-29331D01*
G54D12*
X60315Y-44582D03*
X60315Y-45182D03*
X60354Y-43213D03*
X60354Y-42613D03*
G54D13*
X60409Y-31496D03*
G54D14*
X59409Y-31496D03*
X58409Y-31496D03*
G54D15*
X62520Y-30354D03*
X46614Y-39685D03*
X62520Y-49016D03*
G54D10*
G36*
X64221Y-38305D02*
X65212Y-38877D01*
X64963Y-39309D01*
X63972Y-38737D01*
X64221Y-38305D01*
X64221Y-38305D01*
G37*
G36*
X65491Y-39038D02*
X66482Y-39610D01*
X66233Y-40042D01*
X65242Y-39470D01*
X65491Y-39038D01*
X65491Y-39038D01*
G37*
G36*
X63971Y-38738D02*
X64962Y-39310D01*
X64713Y-39742D01*
X63722Y-39170D01*
X63971Y-38738D01*
X63971Y-38738D01*
G37*
G36*
X65241Y-39471D02*
X66232Y-40043D01*
X65983Y-40475D01*
X64992Y-39903D01*
X65241Y-39471D01*
X65241Y-39471D01*
G37*
G36*
X63721Y-39171D02*
X64712Y-39743D01*
X64463Y-40175D01*
X63472Y-39603D01*
X63721Y-39171D01*
X63721Y-39171D01*
G37*
G36*
X64991Y-39904D02*
X65982Y-40476D01*
X65733Y-40908D01*
X64742Y-40336D01*
X64991Y-39904D01*
X64991Y-39904D01*
G37*
G36*
X63471Y-39604D02*
X64462Y-40176D01*
X64213Y-40608D01*
X63222Y-40036D01*
X63471Y-39604D01*
X63471Y-39604D01*
G37*
G36*
X64741Y-40337D02*
X65732Y-40909D01*
X65483Y-41341D01*
X64492Y-40769D01*
X64741Y-40337D01*
X64741Y-40337D01*
G37*
G36*
X63221Y-40037D02*
X64212Y-40609D01*
X63963Y-41041D01*
X62972Y-40469D01*
X63221Y-40037D01*
X63221Y-40037D01*
G37*
G36*
X64491Y-40770D02*
X65482Y-41342D01*
X65233Y-41774D01*
X64242Y-41202D01*
X64491Y-40770D01*
X64491Y-40770D01*
G37*
G36*
X62971Y-40470D02*
X63962Y-41042D01*
X63713Y-41474D01*
X62722Y-40902D01*
X62971Y-40470D01*
X62971Y-40470D01*
G37*
G36*
X64241Y-41204D02*
X65232Y-41776D01*
X64983Y-42208D01*
X63992Y-41636D01*
X64241Y-41204D01*
X64241Y-41204D01*
G37*
G36*
X62721Y-40904D02*
X63712Y-41476D01*
X63463Y-41908D01*
X62472Y-41336D01*
X62721Y-40904D01*
X62721Y-40904D01*
G37*
G36*
X63991Y-41637D02*
X64982Y-42209D01*
X64733Y-42641D01*
X63742Y-42069D01*
X63991Y-41637D01*
X63991Y-41637D01*
G37*
G36*
X62471Y-41337D02*
X63462Y-41909D01*
X63213Y-42341D01*
X62222Y-41769D01*
X62471Y-41337D01*
X62471Y-41337D01*
G37*
G36*
X63741Y-42070D02*
X64732Y-42642D01*
X64483Y-43074D01*
X63492Y-42502D01*
X63741Y-42070D01*
X63741Y-42070D01*
G37*
G36*
X62221Y-41770D02*
X63212Y-42342D01*
X62963Y-42774D01*
X61972Y-42202D01*
X62221Y-41770D01*
X62221Y-41770D01*
G37*
G36*
X63491Y-42503D02*
X64482Y-43075D01*
X64233Y-43507D01*
X63242Y-42935D01*
X63491Y-42503D01*
X63491Y-42503D01*
G37*
G36*
X61971Y-42203D02*
X62962Y-42775D01*
X62713Y-43207D01*
X61722Y-42635D01*
X61971Y-42203D01*
X61971Y-42203D01*
G37*
G36*
X63241Y-42936D02*
X64232Y-43508D01*
X63983Y-43940D01*
X62992Y-43368D01*
X63241Y-42936D01*
X63241Y-42936D01*
G37*
G36*
X61721Y-42636D02*
X62712Y-43208D01*
X62463Y-43640D01*
X61472Y-43068D01*
X61721Y-42636D01*
X61721Y-42636D01*
G37*
G36*
X62991Y-43369D02*
X63982Y-43941D01*
X63733Y-44373D01*
X62742Y-43801D01*
X62991Y-43369D01*
X62991Y-43369D01*
G37*
G36*
X47889Y-39610D02*
X48880Y-39038D01*
X49129Y-39470D01*
X48138Y-40042D01*
X47889Y-39610D01*
X47889Y-39610D01*
G37*
G36*
X49159Y-38877D02*
X50150Y-38305D01*
X50399Y-38737D01*
X49408Y-39309D01*
X49159Y-38877D01*
X49159Y-38877D01*
G37*
G36*
X48139Y-40043D02*
X49130Y-39471D01*
X49379Y-39903D01*
X48388Y-40475D01*
X48139Y-40043D01*
X48139Y-40043D01*
G37*
G36*
X49409Y-39310D02*
X50400Y-38738D01*
X50649Y-39170D01*
X49658Y-39742D01*
X49409Y-39310D01*
X49409Y-39310D01*
G37*
G36*
X48389Y-40476D02*
X49380Y-39904D01*
X49629Y-40336D01*
X48638Y-40908D01*
X48389Y-40476D01*
X48389Y-40476D01*
G37*
G36*
X49659Y-39743D02*
X50650Y-39171D01*
X50899Y-39603D01*
X49908Y-40175D01*
X49659Y-39743D01*
X49659Y-39743D01*
G37*
G36*
X48639Y-40909D02*
X49630Y-40337D01*
X49879Y-40769D01*
X48888Y-41341D01*
X48639Y-40909D01*
X48639Y-40909D01*
G37*
G36*
X49909Y-40176D02*
X50900Y-39604D01*
X51149Y-40036D01*
X50158Y-40608D01*
X49909Y-40176D01*
X49909Y-40176D01*
G37*
G36*
X48889Y-41342D02*
X49880Y-40770D01*
X50129Y-41202D01*
X49138Y-41774D01*
X48889Y-41342D01*
X48889Y-41342D01*
G37*
G36*
X50159Y-40609D02*
X51150Y-40037D01*
X51399Y-40469D01*
X50408Y-41041D01*
X50159Y-40609D01*
X50159Y-40609D01*
G37*
G36*
X49139Y-41776D02*
X50130Y-41204D01*
X50379Y-41636D01*
X49388Y-42208D01*
X49139Y-41776D01*
X49139Y-41776D01*
G37*
G36*
X50409Y-41042D02*
X51400Y-40470D01*
X51649Y-40902D01*
X50658Y-41474D01*
X50409Y-41042D01*
X50409Y-41042D01*
G37*
G36*
X49389Y-42209D02*
X50380Y-41637D01*
X50629Y-42069D01*
X49638Y-42641D01*
X49389Y-42209D01*
X49389Y-42209D01*
G37*
G36*
X50659Y-41476D02*
X51650Y-40904D01*
X51899Y-41336D01*
X50908Y-41908D01*
X50659Y-41476D01*
X50659Y-41476D01*
G37*
G36*
X49639Y-42642D02*
X50630Y-42070D01*
X50879Y-42502D01*
X49888Y-43074D01*
X49639Y-42642D01*
X49639Y-42642D01*
G37*
G36*
X50909Y-41909D02*
X51900Y-41337D01*
X52149Y-41769D01*
X51158Y-42341D01*
X50909Y-41909D01*
X50909Y-41909D01*
G37*
G36*
X49889Y-43075D02*
X50880Y-42503D01*
X51129Y-42935D01*
X50138Y-43507D01*
X49889Y-43075D01*
X49889Y-43075D01*
G37*
G36*
X51159Y-42342D02*
X52150Y-41770D01*
X52399Y-42202D01*
X51408Y-42774D01*
X51159Y-42342D01*
X51159Y-42342D01*
G37*
G36*
X50139Y-43508D02*
X51130Y-42936D01*
X51379Y-43368D01*
X50388Y-43940D01*
X50139Y-43508D01*
X50139Y-43508D01*
G37*
G36*
X51409Y-42775D02*
X52400Y-42203D01*
X52649Y-42635D01*
X51658Y-43207D01*
X51409Y-42775D01*
X51409Y-42775D01*
G37*
G36*
X50389Y-43941D02*
X51380Y-43369D01*
X51629Y-43801D01*
X50638Y-44373D01*
X50389Y-43941D01*
X50389Y-43941D01*
G37*
G36*
X51659Y-43208D02*
X52650Y-42636D01*
X52899Y-43068D01*
X51908Y-43640D01*
X51659Y-43208D01*
X51659Y-43208D01*
G37*
G54D16*
X58213Y-45187D03*
X58213Y-44695D03*
X58213Y-44203D03*
X58213Y-43711D03*
X59189Y-43711D03*
X59189Y-44203D03*
X59189Y-44695D03*
X59189Y-45187D03*
G54D17*
X55984Y-43859D03*
X55984Y-44252D03*
X55984Y-44645D03*
X54804Y-44645D03*
X54804Y-44252D03*
X54804Y-43859D03*
G54D18*
X55394Y-44252D03*
G54D19*
X62250Y-44000D03*
X52000Y-44000D03*
X49250Y-35500D03*
X65250Y-35500D03*
G54D20*
X55855Y-31875D03*
X54102Y-31875D03*
M02*
