G04 (created by PCBNEW-RS274X (2010-03-14)-final) date Fri 27 Jul 2012 10:12:24 MSK*
G01*
G70*
G90*
%MOIN*%
G04 Gerber Fmt 3.4, Leading zero omitted, Abs format*
%FSLAX34Y34*%
G04 APERTURE LIST*
%ADD10C,0.001000*%
%ADD11C,0.015000*%
%ADD12R,0.024000X0.035000*%
%ADD13R,0.025000X0.045000*%
%ADD14R,0.045000X0.025000*%
%ADD15R,0.086600X0.070900*%
%ADD16R,0.055000X0.055000*%
%ADD17C,0.055000*%
%ADD18C,0.160000*%
%ADD19R,0.157400X0.090500*%
%ADD20R,0.157400X0.200700*%
%ADD21C,0.045000*%
%ADD22R,0.019600X0.100000*%
%ADD23R,0.078700X0.098400*%
%ADD24R,0.017000X0.080000*%
%ADD25C,0.035400*%
%ADD26C,0.035000*%
%ADD27C,0.008000*%
%ADD28C,0.005000*%
G04 APERTURE END LIST*
G54D10*
G54D11*
X45400Y-39699D02*
X51305Y-29331D01*
X51305Y-50000D02*
X45400Y-39699D01*
X63116Y-50000D02*
X51305Y-50000D01*
X69022Y-39699D02*
X63116Y-50000D01*
X63116Y-29331D02*
X69022Y-39699D01*
X51305Y-29331D02*
X63116Y-29331D01*
G54D12*
X51749Y-35000D03*
X50999Y-35000D03*
X50999Y-34000D03*
X51374Y-34000D03*
X51749Y-34000D03*
G54D13*
X51074Y-33000D03*
X51674Y-33000D03*
G54D14*
X52638Y-34739D03*
X52638Y-35339D03*
G54D13*
X51674Y-32250D03*
X51074Y-32250D03*
G54D14*
X57087Y-45418D03*
X57087Y-44818D03*
G54D15*
X58228Y-33777D03*
X58228Y-35357D03*
G54D16*
X60409Y-31496D03*
G54D17*
X59409Y-31496D03*
X58409Y-31496D03*
G54D12*
X53641Y-34342D03*
X54391Y-34342D03*
X54016Y-35342D03*
X55373Y-34342D03*
X56123Y-34342D03*
X55748Y-35342D03*
G54D14*
X54134Y-45418D03*
X54134Y-44818D03*
X56338Y-45418D03*
X56338Y-44818D03*
G54D18*
X62520Y-30354D03*
X46614Y-39685D03*
X62520Y-49016D03*
G54D19*
X66535Y-37795D03*
G54D20*
X61968Y-37795D03*
G54D19*
X47953Y-37795D03*
G54D20*
X52520Y-37795D03*
G54D19*
X47953Y-41732D03*
G54D20*
X52520Y-41732D03*
G54D19*
X66535Y-41732D03*
G54D20*
X61968Y-41732D03*
G54D21*
X62250Y-44000D03*
X52000Y-44000D03*
X49250Y-35500D03*
X65250Y-35500D03*
G54D22*
X54966Y-32774D03*
X55280Y-32774D03*
X54337Y-32774D03*
G54D23*
X56737Y-30569D03*
X56737Y-32734D03*
X53195Y-30569D03*
X53234Y-32734D03*
G54D24*
X54652Y-32750D03*
G54D25*
X55855Y-31875D03*
X54102Y-31875D03*
G54D22*
X55595Y-32774D03*
G54D26*
X59527Y-42441D03*
X53504Y-43504D03*
X60157Y-43858D03*
X54291Y-44252D03*
X57716Y-45433D03*
X57598Y-32716D03*
X55709Y-45433D03*
X54764Y-45433D03*
X57638Y-44370D03*
X57480Y-43661D03*
X53976Y-43504D03*
X49213Y-42598D03*
X58701Y-43189D03*
G54D27*
X59567Y-42481D02*
X59567Y-43582D01*
X59527Y-42441D02*
X59567Y-42481D01*
X54095Y-44252D02*
X54291Y-44252D01*
X53504Y-43504D02*
X54095Y-44252D01*
X54291Y-44252D02*
X56377Y-44252D01*
X56377Y-44252D02*
X56574Y-44055D01*
X56574Y-44055D02*
X59094Y-44055D01*
X60157Y-43858D02*
X59881Y-43582D01*
X59881Y-43582D02*
X59567Y-43582D01*
X59567Y-43582D02*
X59094Y-44055D01*
X59094Y-44055D02*
X57716Y-45433D01*
X54291Y-44252D02*
X54134Y-44409D01*
X54134Y-44409D02*
X54134Y-44818D01*
X57716Y-45433D02*
X57701Y-45418D01*
X57701Y-45418D02*
X57087Y-45418D01*
X47953Y-41732D02*
X52520Y-41732D01*
X56755Y-32716D02*
X57598Y-32716D01*
X56755Y-32716D02*
X56737Y-32734D01*
X54337Y-32774D02*
X53274Y-32774D01*
X53274Y-32774D02*
X53188Y-32688D01*
X53188Y-32688D02*
X53188Y-30576D01*
X53188Y-30576D02*
X53195Y-30569D01*
X53195Y-30569D02*
X56737Y-30569D01*
X56737Y-30569D02*
X56737Y-32734D01*
X56338Y-45418D02*
X55724Y-45418D01*
X55724Y-45418D02*
X55709Y-45433D01*
X57087Y-44818D02*
X56938Y-44818D01*
X56938Y-44818D02*
X56338Y-45418D01*
X54764Y-45433D02*
X54749Y-45418D01*
X54749Y-45418D02*
X54134Y-45418D01*
X57638Y-44370D02*
X56653Y-44370D01*
X56653Y-44370D02*
X56338Y-44685D01*
X56338Y-44685D02*
X56338Y-44818D01*
X51063Y-33543D02*
X55394Y-33543D01*
X55595Y-33342D02*
X55394Y-33543D01*
X55595Y-33342D02*
X55595Y-32774D01*
X50999Y-34000D02*
X50999Y-33607D01*
X50999Y-33607D02*
X51063Y-33543D01*
X51063Y-33543D02*
X51074Y-33532D01*
X51074Y-33532D02*
X51074Y-33000D01*
X51749Y-34000D02*
X51749Y-34314D01*
X50999Y-34306D02*
X50999Y-34000D01*
X51181Y-34488D02*
X50999Y-34306D01*
X51575Y-34488D02*
X51181Y-34488D01*
X51749Y-34314D02*
X51575Y-34488D01*
X51074Y-32250D02*
X51074Y-33000D01*
X57480Y-43661D02*
X57323Y-43504D01*
X57323Y-43504D02*
X53976Y-43504D01*
X49213Y-42598D02*
X49567Y-43189D01*
X49567Y-43189D02*
X58701Y-43189D01*
X61968Y-41732D02*
X66535Y-41732D01*
X66535Y-41732D02*
X66535Y-37795D01*
X66535Y-37795D02*
X61968Y-37795D01*
X53641Y-34342D02*
X53641Y-34350D01*
X53641Y-34350D02*
X54015Y-34724D01*
X54015Y-34724D02*
X55741Y-34724D01*
X55741Y-34724D02*
X56123Y-34342D01*
X58228Y-33777D02*
X58228Y-33677D01*
X58228Y-33677D02*
X60409Y-31496D01*
X55373Y-34342D02*
X55373Y-34193D01*
X55373Y-34193D02*
X55789Y-33777D01*
X55789Y-33777D02*
X58228Y-33777D01*
X47953Y-37795D02*
X52520Y-37795D01*
X52520Y-37795D02*
X53858Y-37795D01*
X55748Y-35342D02*
X55748Y-35905D01*
X55748Y-35905D02*
X53858Y-37795D01*
X54016Y-35342D02*
X54016Y-35276D01*
X54016Y-35276D02*
X54371Y-34921D01*
X54371Y-34921D02*
X57047Y-34921D01*
X57047Y-34921D02*
X57483Y-35357D01*
X57483Y-35357D02*
X58228Y-35357D01*
X52638Y-35339D02*
X54013Y-35339D01*
X54013Y-35339D02*
X54016Y-35342D01*
X51749Y-35000D02*
X51749Y-35017D01*
X51749Y-35017D02*
X52071Y-35339D01*
X52071Y-35339D02*
X52638Y-35339D01*
G54D10*
G36*
X65241Y-46038D02*
X68878Y-39686D01*
X63347Y-29990D01*
X63424Y-30175D01*
X63424Y-30535D01*
X63286Y-30867D01*
X63031Y-31121D01*
X62699Y-31258D01*
X62339Y-31258D01*
X62007Y-31120D01*
X61753Y-30865D01*
X61616Y-30533D01*
X61616Y-30173D01*
X61754Y-29841D01*
X62009Y-29587D01*
X62326Y-29456D01*
X51386Y-29456D01*
X45543Y-39699D01*
X46433Y-41252D01*
X46433Y-40589D01*
X46101Y-40451D01*
X45847Y-40196D01*
X45710Y-39864D01*
X45710Y-39504D01*
X45848Y-39172D01*
X46103Y-38918D01*
X46435Y-38781D01*
X46795Y-38781D01*
X47127Y-38919D01*
X47381Y-39174D01*
X47518Y-39506D01*
X47518Y-39866D01*
X47380Y-40198D01*
X47125Y-40452D01*
X46793Y-40589D01*
X46433Y-40589D01*
X46433Y-41252D01*
X47141Y-42488D01*
X47141Y-42309D01*
X47095Y-42290D01*
X47060Y-42255D01*
X47041Y-42209D01*
X47041Y-41788D01*
X47072Y-41757D01*
X47072Y-41707D01*
X47041Y-41676D01*
X47041Y-41255D01*
X47060Y-41209D01*
X47095Y-41174D01*
X47141Y-41155D01*
X47897Y-41155D01*
X47928Y-41186D01*
X47928Y-41707D01*
X47072Y-41707D01*
X47072Y-41757D01*
X47928Y-41757D01*
X47928Y-42278D01*
X47897Y-42309D01*
X47141Y-42309D01*
X47141Y-42488D01*
X48009Y-44003D01*
X48009Y-42309D01*
X47978Y-42278D01*
X47978Y-41757D01*
X47978Y-41707D01*
X47978Y-41186D01*
X48009Y-41155D01*
X48765Y-41155D01*
X48811Y-41174D01*
X48846Y-41209D01*
X48865Y-41255D01*
X48865Y-41676D01*
X48834Y-41707D01*
X47978Y-41707D01*
X47978Y-41757D01*
X48834Y-41757D01*
X48865Y-41788D01*
X48865Y-42209D01*
X48846Y-42255D01*
X48811Y-42290D01*
X48765Y-42309D01*
X48009Y-42309D01*
X48009Y-44003D01*
X49174Y-46038D01*
X51757Y-46038D01*
X51757Y-44207D01*
X51703Y-44185D01*
X51658Y-44078D01*
X51655Y-43942D01*
X51703Y-43815D01*
X51757Y-43793D01*
X51965Y-44000D01*
X51757Y-44207D01*
X51757Y-46038D01*
X51942Y-46038D01*
X51942Y-44345D01*
X51815Y-44297D01*
X51793Y-44243D01*
X52000Y-44035D01*
X52000Y-43965D01*
X51793Y-43757D01*
X51815Y-43703D01*
X51922Y-43658D01*
X52058Y-43655D01*
X52185Y-43703D01*
X52207Y-43757D01*
X52000Y-43965D01*
X52000Y-44035D01*
X52207Y-44243D01*
X52185Y-44297D01*
X52078Y-44342D01*
X51942Y-44345D01*
X51942Y-46038D01*
X52243Y-46038D01*
X52243Y-44207D01*
X52035Y-44000D01*
X52243Y-43793D01*
X52297Y-43815D01*
X52342Y-43922D01*
X52345Y-44058D01*
X52297Y-44185D01*
X52243Y-44207D01*
X52243Y-46038D01*
X53884Y-46038D01*
X53884Y-45668D01*
X53838Y-45649D01*
X53803Y-45614D01*
X53784Y-45568D01*
X53784Y-45474D01*
X53815Y-45443D01*
X53815Y-45393D01*
X53784Y-45362D01*
X53784Y-45268D01*
X53803Y-45222D01*
X53838Y-45187D01*
X53884Y-45168D01*
X54078Y-45168D01*
X54109Y-45199D01*
X54109Y-45393D01*
X53815Y-45393D01*
X53815Y-45443D01*
X54109Y-45443D01*
X54109Y-45637D01*
X54078Y-45668D01*
X53884Y-45668D01*
X53884Y-46038D01*
X54190Y-46038D01*
X54190Y-45668D01*
X54159Y-45637D01*
X54159Y-45443D01*
X54159Y-45393D01*
X54159Y-45199D01*
X54190Y-45168D01*
X54384Y-45168D01*
X54430Y-45187D01*
X54465Y-45222D01*
X54484Y-45268D01*
X54484Y-45362D01*
X54453Y-45393D01*
X54159Y-45393D01*
X54159Y-45443D01*
X54453Y-45443D01*
X54484Y-45474D01*
X54484Y-45568D01*
X54465Y-45614D01*
X54430Y-45649D01*
X54384Y-45668D01*
X54190Y-45668D01*
X54190Y-46038D01*
X56088Y-46038D01*
X56088Y-45668D01*
X56042Y-45649D01*
X56007Y-45614D01*
X55988Y-45568D01*
X55988Y-45474D01*
X56019Y-45443D01*
X56019Y-45393D01*
X55988Y-45362D01*
X55988Y-45268D01*
X56007Y-45222D01*
X56042Y-45187D01*
X56088Y-45168D01*
X56282Y-45168D01*
X56313Y-45199D01*
X56313Y-45393D01*
X56019Y-45393D01*
X56019Y-45443D01*
X56313Y-45443D01*
X56313Y-45637D01*
X56282Y-45668D01*
X56088Y-45668D01*
X56088Y-46038D01*
X56394Y-46038D01*
X56394Y-45668D01*
X56363Y-45637D01*
X56363Y-45443D01*
X56363Y-45393D01*
X56363Y-45199D01*
X56394Y-45168D01*
X56588Y-45168D01*
X56634Y-45187D01*
X56669Y-45222D01*
X56688Y-45268D01*
X56688Y-45362D01*
X56657Y-45393D01*
X56363Y-45393D01*
X56363Y-45443D01*
X56657Y-45443D01*
X56688Y-45474D01*
X56688Y-45568D01*
X56669Y-45614D01*
X56634Y-45649D01*
X56588Y-45668D01*
X56394Y-45668D01*
X56394Y-46038D01*
X57660Y-46038D01*
X57660Y-45713D01*
X57557Y-45670D01*
X57478Y-45591D01*
X57466Y-45563D01*
X57417Y-45563D01*
X57417Y-45564D01*
X57401Y-45602D01*
X57372Y-45632D01*
X57333Y-45648D01*
X56841Y-45648D01*
X56803Y-45632D01*
X56773Y-45603D01*
X56757Y-45564D01*
X56757Y-45272D01*
X56773Y-45234D01*
X56802Y-45204D01*
X56837Y-45189D01*
X56837Y-45068D01*
X56791Y-45049D01*
X56756Y-45014D01*
X56737Y-44968D01*
X56737Y-44874D01*
X56768Y-44843D01*
X56768Y-44793D01*
X56737Y-44762D01*
X56737Y-44668D01*
X56756Y-44622D01*
X56791Y-44587D01*
X56837Y-44568D01*
X57031Y-44568D01*
X57062Y-44599D01*
X57062Y-44793D01*
X56768Y-44793D01*
X56768Y-44843D01*
X57062Y-44843D01*
X57062Y-45037D01*
X57031Y-45068D01*
X56837Y-45068D01*
X56837Y-45189D01*
X56841Y-45188D01*
X57143Y-45188D01*
X57143Y-45068D01*
X57112Y-45037D01*
X57112Y-44843D01*
X57112Y-44793D01*
X57112Y-44599D01*
X57143Y-44568D01*
X57337Y-44568D01*
X57383Y-44587D01*
X57418Y-44622D01*
X57437Y-44668D01*
X57437Y-44762D01*
X57406Y-44793D01*
X57112Y-44793D01*
X57112Y-44843D01*
X57406Y-44843D01*
X57437Y-44874D01*
X57437Y-44968D01*
X57418Y-45014D01*
X57383Y-45049D01*
X57337Y-45068D01*
X57143Y-45068D01*
X57143Y-45188D01*
X57333Y-45188D01*
X57371Y-45204D01*
X57401Y-45233D01*
X57417Y-45272D01*
X57417Y-45273D01*
X57479Y-45273D01*
X57558Y-45195D01*
X57661Y-45153D01*
X57772Y-45153D01*
X57784Y-45158D01*
X58743Y-44200D01*
X57864Y-44199D01*
X57876Y-44212D01*
X57918Y-44315D01*
X57918Y-44426D01*
X57875Y-44529D01*
X57796Y-44608D01*
X57693Y-44650D01*
X57582Y-44650D01*
X57479Y-44607D01*
X57400Y-44528D01*
X57394Y-44515D01*
X56713Y-44515D01*
X56623Y-44605D01*
X56652Y-44633D01*
X56668Y-44672D01*
X56668Y-44964D01*
X56652Y-45002D01*
X56623Y-45032D01*
X56584Y-45048D01*
X56092Y-45048D01*
X56054Y-45032D01*
X56024Y-45003D01*
X56008Y-44964D01*
X56008Y-44672D01*
X56024Y-44634D01*
X56053Y-44604D01*
X56092Y-44588D01*
X56231Y-44588D01*
X56235Y-44582D01*
X56431Y-44386D01*
X56377Y-44398D01*
X56372Y-44397D01*
X54533Y-44397D01*
X54528Y-44411D01*
X54449Y-44490D01*
X54346Y-44532D01*
X54279Y-44532D01*
X54279Y-44588D01*
X54380Y-44588D01*
X54418Y-44604D01*
X54448Y-44633D01*
X54464Y-44672D01*
X54464Y-44964D01*
X54448Y-45002D01*
X54419Y-45032D01*
X54380Y-45048D01*
X53888Y-45048D01*
X53850Y-45032D01*
X53820Y-45003D01*
X53804Y-44964D01*
X53804Y-44672D01*
X53820Y-44634D01*
X53849Y-44604D01*
X53888Y-44588D01*
X53989Y-44588D01*
X53989Y-44413D01*
X53988Y-44409D01*
X53998Y-44359D01*
X53992Y-44355D01*
X53986Y-44346D01*
X53981Y-44342D01*
X53540Y-43784D01*
X53448Y-43784D01*
X53345Y-43741D01*
X53266Y-43662D01*
X53224Y-43559D01*
X53224Y-43448D01*
X53267Y-43345D01*
X53278Y-43333D01*
X49567Y-43334D01*
X49550Y-43330D01*
X49531Y-43330D01*
X49520Y-43324D01*
X49512Y-43323D01*
X49492Y-43310D01*
X49480Y-43304D01*
X49476Y-43299D01*
X49464Y-43292D01*
X49452Y-43274D01*
X49442Y-43263D01*
X49212Y-42878D01*
X49157Y-42878D01*
X49054Y-42835D01*
X48975Y-42756D01*
X48933Y-42653D01*
X48933Y-42542D01*
X48976Y-42439D01*
X49055Y-42360D01*
X49158Y-42318D01*
X49269Y-42318D01*
X49372Y-42361D01*
X49451Y-42440D01*
X49493Y-42543D01*
X49493Y-42654D01*
X49460Y-42730D01*
X49649Y-43044D01*
X51712Y-43044D01*
X51712Y-42860D01*
X51708Y-42860D01*
X51662Y-42841D01*
X51627Y-42806D01*
X51608Y-42760D01*
X51608Y-41788D01*
X51639Y-41757D01*
X51712Y-41757D01*
X51712Y-41707D01*
X51639Y-41707D01*
X51608Y-41676D01*
X51608Y-40704D01*
X51627Y-40658D01*
X51662Y-40623D01*
X51708Y-40604D01*
X51712Y-40604D01*
X51712Y-38903D01*
X51674Y-38887D01*
X51644Y-38858D01*
X51628Y-38819D01*
X51628Y-37940D01*
X48845Y-37940D01*
X48845Y-38268D01*
X48829Y-38306D01*
X48800Y-38336D01*
X48761Y-38352D01*
X47145Y-38352D01*
X47107Y-38336D01*
X47077Y-38307D01*
X47061Y-38268D01*
X47061Y-37322D01*
X47077Y-37284D01*
X47106Y-37254D01*
X47145Y-37238D01*
X48761Y-37238D01*
X48799Y-37254D01*
X48829Y-37283D01*
X48845Y-37322D01*
X48845Y-37650D01*
X49007Y-37650D01*
X49007Y-35707D01*
X48953Y-35685D01*
X48908Y-35578D01*
X48905Y-35442D01*
X48953Y-35315D01*
X49007Y-35293D01*
X49215Y-35500D01*
X49007Y-35707D01*
X49007Y-37650D01*
X49192Y-37650D01*
X49192Y-35845D01*
X49065Y-35797D01*
X49043Y-35743D01*
X49250Y-35535D01*
X49250Y-35465D01*
X49043Y-35257D01*
X49065Y-35203D01*
X49172Y-35158D01*
X49308Y-35155D01*
X49435Y-35203D01*
X49457Y-35257D01*
X49250Y-35465D01*
X49250Y-35535D01*
X49457Y-35743D01*
X49435Y-35797D01*
X49328Y-35842D01*
X49192Y-35845D01*
X49192Y-37650D01*
X49493Y-37650D01*
X49493Y-35707D01*
X49285Y-35500D01*
X49493Y-35293D01*
X49547Y-35315D01*
X49592Y-35422D01*
X49595Y-35558D01*
X49547Y-35685D01*
X49493Y-35707D01*
X49493Y-37650D01*
X50858Y-37650D01*
X50858Y-35280D01*
X50820Y-35264D01*
X50790Y-35235D01*
X50774Y-35196D01*
X50774Y-34804D01*
X50790Y-34766D01*
X50819Y-34736D01*
X50858Y-34720D01*
X51140Y-34720D01*
X51178Y-34736D01*
X51208Y-34765D01*
X51224Y-34804D01*
X51224Y-35196D01*
X51208Y-35234D01*
X51179Y-35264D01*
X51140Y-35280D01*
X50858Y-35280D01*
X50858Y-37650D01*
X51628Y-37650D01*
X51628Y-36771D01*
X51644Y-36733D01*
X51673Y-36703D01*
X51712Y-36687D01*
X53328Y-36687D01*
X53366Y-36703D01*
X53396Y-36732D01*
X53412Y-36771D01*
X53412Y-37650D01*
X53797Y-37650D01*
X55603Y-35844D01*
X55603Y-35620D01*
X55569Y-35606D01*
X55539Y-35577D01*
X55523Y-35538D01*
X55523Y-35146D01*
X55539Y-35108D01*
X55568Y-35078D01*
X55597Y-35066D01*
X54431Y-35066D01*
X54241Y-35256D01*
X54241Y-35538D01*
X54225Y-35576D01*
X54196Y-35606D01*
X54157Y-35622D01*
X53875Y-35622D01*
X53837Y-35606D01*
X53807Y-35577D01*
X53791Y-35538D01*
X53791Y-35484D01*
X52968Y-35484D01*
X52968Y-35485D01*
X52952Y-35523D01*
X52923Y-35553D01*
X52884Y-35569D01*
X52392Y-35569D01*
X52354Y-35553D01*
X52324Y-35524D01*
X52308Y-35485D01*
X52308Y-35484D01*
X52071Y-35484D01*
X52016Y-35473D01*
X51968Y-35442D01*
X51966Y-35439D01*
X51806Y-35280D01*
X51608Y-35280D01*
X51570Y-35264D01*
X51540Y-35235D01*
X51524Y-35196D01*
X51524Y-34804D01*
X51540Y-34766D01*
X51569Y-34736D01*
X51575Y-34733D01*
X51575Y-34634D01*
X51570Y-34633D01*
X51181Y-34633D01*
X51126Y-34622D01*
X51078Y-34591D01*
X51076Y-34588D01*
X50896Y-34409D01*
X50865Y-34362D01*
X50853Y-34306D01*
X50854Y-34301D01*
X50854Y-34278D01*
X50820Y-34264D01*
X50790Y-34235D01*
X50774Y-34196D01*
X50774Y-33804D01*
X50790Y-33766D01*
X50819Y-33736D01*
X50854Y-33721D01*
X50854Y-33611D01*
X50853Y-33607D01*
X50865Y-33551D01*
X50896Y-33504D01*
X50929Y-33471D01*
X50929Y-33330D01*
X50928Y-33330D01*
X50890Y-33314D01*
X50860Y-33285D01*
X50844Y-33246D01*
X50844Y-32754D01*
X50860Y-32716D01*
X50889Y-32686D01*
X50928Y-32670D01*
X50929Y-32670D01*
X50929Y-32580D01*
X50928Y-32580D01*
X50890Y-32564D01*
X50860Y-32535D01*
X50844Y-32496D01*
X50844Y-32004D01*
X50860Y-31966D01*
X50889Y-31936D01*
X50928Y-31920D01*
X51220Y-31920D01*
X51258Y-31936D01*
X51288Y-31965D01*
X51304Y-32004D01*
X51304Y-32496D01*
X51288Y-32534D01*
X51259Y-32564D01*
X51220Y-32580D01*
X51219Y-32580D01*
X51219Y-32670D01*
X51220Y-32670D01*
X51258Y-32686D01*
X51288Y-32715D01*
X51304Y-32754D01*
X51304Y-33246D01*
X51288Y-33284D01*
X51259Y-33314D01*
X51220Y-33330D01*
X51219Y-33330D01*
X51219Y-33398D01*
X51524Y-33398D01*
X51524Y-33350D01*
X51478Y-33331D01*
X51443Y-33296D01*
X51424Y-33250D01*
X51424Y-33056D01*
X51455Y-33025D01*
X51455Y-32975D01*
X51424Y-32944D01*
X51424Y-32750D01*
X51443Y-32704D01*
X51478Y-32669D01*
X51524Y-32650D01*
X51524Y-32600D01*
X51478Y-32581D01*
X51443Y-32546D01*
X51424Y-32500D01*
X51424Y-32306D01*
X51455Y-32275D01*
X51455Y-32225D01*
X51424Y-32194D01*
X51424Y-32000D01*
X51443Y-31954D01*
X51478Y-31919D01*
X51524Y-31900D01*
X51618Y-31900D01*
X51649Y-31931D01*
X51649Y-32225D01*
X51455Y-32225D01*
X51455Y-32275D01*
X51649Y-32275D01*
X51649Y-32569D01*
X51618Y-32600D01*
X51524Y-32600D01*
X51524Y-32650D01*
X51618Y-32650D01*
X51649Y-32681D01*
X51649Y-32975D01*
X51455Y-32975D01*
X51455Y-33025D01*
X51649Y-33025D01*
X51649Y-33319D01*
X51618Y-33350D01*
X51524Y-33350D01*
X51524Y-33398D01*
X51730Y-33398D01*
X51730Y-33350D01*
X51699Y-33319D01*
X51699Y-33025D01*
X51699Y-32975D01*
X51699Y-32681D01*
X51730Y-32650D01*
X51730Y-32600D01*
X51699Y-32569D01*
X51699Y-32275D01*
X51699Y-32225D01*
X51699Y-31931D01*
X51730Y-31900D01*
X51824Y-31900D01*
X51870Y-31919D01*
X51905Y-31954D01*
X51924Y-32000D01*
X51924Y-32194D01*
X51893Y-32225D01*
X51699Y-32225D01*
X51699Y-32275D01*
X51893Y-32275D01*
X51924Y-32306D01*
X51924Y-32500D01*
X51905Y-32546D01*
X51870Y-32581D01*
X51824Y-32600D01*
X51730Y-32600D01*
X51730Y-32650D01*
X51824Y-32650D01*
X51870Y-32669D01*
X51905Y-32704D01*
X51924Y-32750D01*
X51924Y-32944D01*
X51893Y-32975D01*
X51699Y-32975D01*
X51699Y-33025D01*
X51893Y-33025D01*
X51924Y-33056D01*
X51924Y-33250D01*
X51905Y-33296D01*
X51870Y-33331D01*
X51824Y-33350D01*
X51730Y-33350D01*
X51730Y-33398D01*
X52816Y-33398D01*
X52816Y-33351D01*
X52770Y-33332D01*
X52735Y-33297D01*
X52716Y-33251D01*
X52716Y-32790D01*
X52747Y-32759D01*
X52747Y-32709D01*
X52716Y-32678D01*
X52716Y-32217D01*
X52735Y-32171D01*
X52770Y-32136D01*
X52777Y-32133D01*
X52777Y-31186D01*
X52731Y-31167D01*
X52696Y-31132D01*
X52677Y-31086D01*
X52677Y-30625D01*
X52708Y-30594D01*
X52708Y-30544D01*
X52677Y-30513D01*
X52677Y-30052D01*
X52696Y-30006D01*
X52731Y-29971D01*
X52777Y-29952D01*
X53139Y-29952D01*
X53170Y-29983D01*
X53170Y-30544D01*
X52708Y-30544D01*
X52708Y-30594D01*
X53170Y-30594D01*
X53170Y-31155D01*
X53139Y-31186D01*
X52777Y-31186D01*
X52777Y-32133D01*
X52816Y-32117D01*
X53178Y-32117D01*
X53209Y-32148D01*
X53209Y-32709D01*
X52747Y-32709D01*
X52747Y-32759D01*
X53209Y-32759D01*
X53209Y-33320D01*
X53178Y-33351D01*
X52816Y-33351D01*
X52816Y-33398D01*
X53251Y-33398D01*
X53251Y-31186D01*
X53220Y-31155D01*
X53220Y-30594D01*
X53220Y-30544D01*
X53220Y-29983D01*
X53251Y-29952D01*
X53613Y-29952D01*
X53659Y-29971D01*
X53694Y-30006D01*
X53713Y-30052D01*
X53713Y-30513D01*
X53682Y-30544D01*
X53220Y-30544D01*
X53220Y-30594D01*
X53682Y-30594D01*
X53713Y-30625D01*
X53713Y-31086D01*
X53694Y-31132D01*
X53659Y-31167D01*
X53613Y-31186D01*
X53251Y-31186D01*
X53251Y-33398D01*
X53290Y-33398D01*
X53290Y-33351D01*
X53259Y-33320D01*
X53259Y-32759D01*
X53259Y-32709D01*
X53259Y-32148D01*
X53290Y-32117D01*
X53652Y-32117D01*
X53698Y-32136D01*
X53733Y-32171D01*
X53752Y-32217D01*
X53752Y-32678D01*
X53721Y-32709D01*
X53259Y-32709D01*
X53259Y-32759D01*
X53721Y-32759D01*
X53752Y-32790D01*
X53752Y-33251D01*
X53733Y-33297D01*
X53698Y-33332D01*
X53652Y-33351D01*
X53290Y-33351D01*
X53290Y-33398D01*
X54046Y-33398D01*
X54046Y-32157D01*
X53942Y-32114D01*
X53863Y-32035D01*
X53820Y-31931D01*
X53820Y-31819D01*
X53863Y-31715D01*
X53942Y-31636D01*
X54046Y-31593D01*
X54158Y-31593D01*
X54262Y-31636D01*
X54341Y-31715D01*
X54384Y-31819D01*
X54384Y-31931D01*
X54341Y-32035D01*
X54262Y-32114D01*
X54158Y-32157D01*
X54046Y-32157D01*
X54046Y-33398D01*
X54211Y-33398D01*
X54168Y-33380D01*
X54133Y-33345D01*
X54114Y-33299D01*
X54114Y-32830D01*
X54145Y-32799D01*
X54145Y-32749D01*
X54114Y-32718D01*
X54114Y-32249D01*
X54133Y-32203D01*
X54168Y-32168D01*
X54214Y-32149D01*
X54281Y-32149D01*
X54312Y-32180D01*
X54312Y-32749D01*
X54145Y-32749D01*
X54145Y-32799D01*
X54312Y-32799D01*
X54362Y-32799D01*
X54362Y-32749D01*
X54362Y-32180D01*
X54393Y-32149D01*
X54460Y-32149D01*
X54506Y-32168D01*
X54541Y-32203D01*
X54558Y-32245D01*
X54758Y-32245D01*
X54765Y-32247D01*
X54779Y-32215D01*
X54808Y-32185D01*
X54847Y-32169D01*
X55085Y-32169D01*
X55122Y-32184D01*
X55161Y-32169D01*
X55399Y-32169D01*
X55437Y-32185D01*
X55476Y-32169D01*
X55714Y-32169D01*
X55752Y-32185D01*
X55782Y-32214D01*
X55798Y-32253D01*
X55798Y-33295D01*
X55782Y-33333D01*
X55753Y-33363D01*
X55734Y-33370D01*
X55729Y-33397D01*
X55698Y-33445D01*
X55695Y-33446D01*
X55497Y-33646D01*
X55450Y-33677D01*
X55394Y-33689D01*
X55389Y-33688D01*
X51144Y-33688D01*
X51144Y-33721D01*
X51169Y-33732D01*
X51183Y-33719D01*
X51229Y-33700D01*
X51318Y-33700D01*
X51349Y-33731D01*
X51349Y-33975D01*
X51349Y-34025D01*
X51349Y-34269D01*
X51318Y-34300D01*
X51229Y-34300D01*
X51183Y-34281D01*
X51169Y-34267D01*
X51167Y-34268D01*
X51241Y-34343D01*
X51514Y-34343D01*
X51586Y-34271D01*
X51578Y-34267D01*
X51565Y-34281D01*
X51519Y-34300D01*
X51430Y-34300D01*
X51399Y-34269D01*
X51399Y-34025D01*
X51399Y-33975D01*
X51399Y-33731D01*
X51430Y-33700D01*
X51519Y-33700D01*
X51565Y-33719D01*
X51578Y-33732D01*
X51608Y-33720D01*
X51890Y-33720D01*
X51928Y-33736D01*
X51958Y-33765D01*
X51974Y-33804D01*
X51974Y-34196D01*
X51958Y-34234D01*
X51929Y-34264D01*
X51894Y-34278D01*
X51894Y-34309D01*
X51895Y-34314D01*
X51883Y-34370D01*
X51870Y-34388D01*
X51852Y-34417D01*
X51849Y-34418D01*
X51678Y-34591D01*
X51631Y-34622D01*
X51575Y-34634D01*
X51575Y-34733D01*
X51608Y-34720D01*
X51890Y-34720D01*
X51928Y-34736D01*
X51958Y-34765D01*
X51974Y-34804D01*
X51974Y-35036D01*
X52131Y-35194D01*
X52308Y-35194D01*
X52308Y-35193D01*
X52324Y-35155D01*
X52353Y-35125D01*
X52388Y-35110D01*
X52388Y-34989D01*
X52342Y-34970D01*
X52307Y-34935D01*
X52288Y-34889D01*
X52288Y-34795D01*
X52319Y-34764D01*
X52319Y-34714D01*
X52288Y-34683D01*
X52288Y-34589D01*
X52307Y-34543D01*
X52342Y-34508D01*
X52388Y-34489D01*
X52582Y-34489D01*
X52613Y-34520D01*
X52613Y-34714D01*
X52319Y-34714D01*
X52319Y-34764D01*
X52613Y-34764D01*
X52613Y-34958D01*
X52582Y-34989D01*
X52388Y-34989D01*
X52388Y-35110D01*
X52392Y-35109D01*
X52694Y-35109D01*
X52694Y-34989D01*
X52663Y-34958D01*
X52663Y-34764D01*
X52663Y-34714D01*
X52663Y-34520D01*
X52694Y-34489D01*
X52888Y-34489D01*
X52934Y-34508D01*
X52969Y-34543D01*
X52988Y-34589D01*
X52988Y-34683D01*
X52957Y-34714D01*
X52663Y-34714D01*
X52663Y-34764D01*
X52957Y-34764D01*
X52988Y-34795D01*
X52988Y-34889D01*
X52969Y-34935D01*
X52934Y-34970D01*
X52888Y-34989D01*
X52694Y-34989D01*
X52694Y-35109D01*
X52884Y-35109D01*
X52922Y-35125D01*
X52952Y-35154D01*
X52968Y-35193D01*
X52968Y-35194D01*
X53791Y-35194D01*
X53791Y-35146D01*
X53807Y-35108D01*
X53836Y-35078D01*
X53875Y-35062D01*
X54024Y-35062D01*
X54217Y-34869D01*
X54015Y-34869D01*
X54014Y-34868D01*
X54014Y-34869D01*
X54000Y-34866D01*
X53960Y-34858D01*
X53958Y-34857D01*
X53947Y-34850D01*
X53912Y-34827D01*
X53910Y-34824D01*
X53707Y-34622D01*
X53500Y-34622D01*
X53462Y-34606D01*
X53432Y-34577D01*
X53416Y-34538D01*
X53416Y-34146D01*
X53432Y-34108D01*
X53461Y-34078D01*
X53500Y-34062D01*
X53782Y-34062D01*
X53820Y-34078D01*
X53850Y-34107D01*
X53866Y-34146D01*
X53866Y-34369D01*
X54075Y-34579D01*
X54161Y-34579D01*
X54146Y-34542D01*
X54146Y-34398D01*
X54177Y-34367D01*
X54177Y-34317D01*
X54146Y-34286D01*
X54146Y-34142D01*
X54165Y-34096D01*
X54200Y-34061D01*
X54246Y-34042D01*
X54335Y-34042D01*
X54366Y-34073D01*
X54366Y-34317D01*
X54177Y-34317D01*
X54177Y-34367D01*
X54366Y-34367D01*
X54416Y-34367D01*
X54416Y-34317D01*
X54416Y-34073D01*
X54447Y-34042D01*
X54536Y-34042D01*
X54582Y-34061D01*
X54617Y-34096D01*
X54636Y-34142D01*
X54636Y-34286D01*
X54605Y-34317D01*
X54416Y-34317D01*
X54416Y-34367D01*
X54605Y-34367D01*
X54636Y-34398D01*
X54636Y-34542D01*
X54620Y-34579D01*
X55166Y-34579D01*
X55164Y-34577D01*
X55148Y-34538D01*
X55148Y-34146D01*
X55164Y-34108D01*
X55193Y-34078D01*
X55232Y-34062D01*
X55298Y-34062D01*
X55686Y-33674D01*
X55734Y-33643D01*
X55789Y-33632D01*
X55799Y-33632D01*
X55799Y-32157D01*
X55695Y-32114D01*
X55616Y-32035D01*
X55573Y-31931D01*
X55573Y-31819D01*
X55616Y-31715D01*
X55695Y-31636D01*
X55799Y-31593D01*
X55911Y-31593D01*
X56015Y-31636D01*
X56094Y-31715D01*
X56137Y-31819D01*
X56137Y-31931D01*
X56094Y-32035D01*
X56015Y-32114D01*
X55911Y-32157D01*
X55799Y-32157D01*
X55799Y-33632D01*
X56319Y-33632D01*
X56319Y-33351D01*
X56273Y-33332D01*
X56238Y-33297D01*
X56219Y-33251D01*
X56219Y-32790D01*
X56250Y-32759D01*
X56250Y-32709D01*
X56219Y-32678D01*
X56219Y-32217D01*
X56238Y-32171D01*
X56273Y-32136D01*
X56319Y-32117D01*
X56319Y-31186D01*
X56273Y-31167D01*
X56238Y-31132D01*
X56219Y-31086D01*
X56219Y-30625D01*
X56250Y-30594D01*
X56250Y-30544D01*
X56219Y-30513D01*
X56219Y-30052D01*
X56238Y-30006D01*
X56273Y-29971D01*
X56319Y-29952D01*
X56681Y-29952D01*
X56712Y-29983D01*
X56712Y-30544D01*
X56250Y-30544D01*
X56250Y-30594D01*
X56712Y-30594D01*
X56712Y-31155D01*
X56681Y-31186D01*
X56319Y-31186D01*
X56319Y-32117D01*
X56681Y-32117D01*
X56712Y-32148D01*
X56712Y-32709D01*
X56250Y-32709D01*
X56250Y-32759D01*
X56712Y-32759D01*
X56712Y-33320D01*
X56681Y-33351D01*
X56319Y-33351D01*
X56319Y-33632D01*
X56793Y-33632D01*
X56793Y-33351D01*
X56762Y-33320D01*
X56762Y-32759D01*
X56762Y-32709D01*
X56762Y-32148D01*
X56793Y-32117D01*
X56793Y-31186D01*
X56762Y-31155D01*
X56762Y-30594D01*
X56762Y-30544D01*
X56762Y-29983D01*
X56793Y-29952D01*
X57155Y-29952D01*
X57201Y-29971D01*
X57236Y-30006D01*
X57255Y-30052D01*
X57255Y-30513D01*
X57224Y-30544D01*
X56762Y-30544D01*
X56762Y-30594D01*
X57224Y-30594D01*
X57255Y-30625D01*
X57255Y-31086D01*
X57236Y-31132D01*
X57201Y-31167D01*
X57155Y-31186D01*
X56793Y-31186D01*
X56793Y-32117D01*
X57155Y-32117D01*
X57201Y-32136D01*
X57236Y-32171D01*
X57255Y-32217D01*
X57255Y-32678D01*
X57224Y-32709D01*
X56762Y-32709D01*
X56762Y-32759D01*
X57224Y-32759D01*
X57255Y-32790D01*
X57255Y-33251D01*
X57236Y-33297D01*
X57201Y-33332D01*
X57155Y-33351D01*
X56793Y-33351D01*
X56793Y-33632D01*
X57690Y-33632D01*
X57690Y-33402D01*
X57706Y-33364D01*
X57735Y-33334D01*
X57774Y-33318D01*
X58333Y-33318D01*
X58333Y-31876D01*
X58193Y-31818D01*
X58087Y-31711D01*
X58029Y-31571D01*
X58029Y-31420D01*
X58087Y-31280D01*
X58194Y-31174D01*
X58334Y-31116D01*
X58485Y-31116D01*
X58625Y-31174D01*
X58731Y-31281D01*
X58789Y-31421D01*
X58789Y-31572D01*
X58731Y-31712D01*
X58624Y-31818D01*
X58484Y-31876D01*
X58333Y-31876D01*
X58333Y-33318D01*
X58381Y-33318D01*
X59333Y-32366D01*
X59333Y-31876D01*
X59193Y-31818D01*
X59087Y-31711D01*
X59029Y-31571D01*
X59029Y-31420D01*
X59087Y-31280D01*
X59194Y-31174D01*
X59334Y-31116D01*
X59485Y-31116D01*
X59625Y-31174D01*
X59731Y-31281D01*
X59789Y-31421D01*
X59789Y-31572D01*
X59731Y-31712D01*
X59624Y-31818D01*
X59484Y-31876D01*
X59333Y-31876D01*
X59333Y-32366D01*
X60029Y-31670D01*
X60029Y-31200D01*
X60045Y-31162D01*
X60074Y-31132D01*
X60113Y-31116D01*
X60705Y-31116D01*
X60743Y-31132D01*
X60773Y-31161D01*
X60789Y-31200D01*
X60789Y-31792D01*
X60773Y-31830D01*
X60744Y-31860D01*
X60705Y-31876D01*
X60234Y-31876D01*
X58748Y-33361D01*
X58750Y-33363D01*
X58766Y-33402D01*
X58766Y-34152D01*
X58750Y-34190D01*
X58721Y-34220D01*
X58682Y-34236D01*
X57774Y-34236D01*
X57736Y-34220D01*
X57706Y-34191D01*
X57690Y-34152D01*
X57690Y-33922D01*
X55849Y-33922D01*
X55598Y-34173D01*
X55598Y-34538D01*
X55582Y-34576D01*
X55579Y-34579D01*
X55680Y-34579D01*
X55898Y-34361D01*
X55898Y-34146D01*
X55914Y-34108D01*
X55943Y-34078D01*
X55982Y-34062D01*
X56264Y-34062D01*
X56302Y-34078D01*
X56332Y-34107D01*
X56348Y-34146D01*
X56348Y-34538D01*
X56332Y-34576D01*
X56303Y-34606D01*
X56264Y-34622D01*
X56048Y-34622D01*
X55894Y-34776D01*
X57042Y-34776D01*
X57047Y-34775D01*
X57103Y-34787D01*
X57150Y-34818D01*
X57543Y-35212D01*
X57690Y-35212D01*
X57690Y-34982D01*
X57706Y-34944D01*
X57735Y-34914D01*
X57774Y-34898D01*
X58682Y-34898D01*
X58720Y-34914D01*
X58750Y-34943D01*
X58766Y-34982D01*
X58766Y-35732D01*
X58750Y-35770D01*
X58721Y-35800D01*
X58682Y-35816D01*
X57774Y-35816D01*
X57736Y-35800D01*
X57706Y-35771D01*
X57690Y-35732D01*
X57690Y-35502D01*
X57483Y-35502D01*
X57428Y-35491D01*
X57380Y-35460D01*
X57378Y-35457D01*
X56986Y-35066D01*
X55898Y-35066D01*
X55927Y-35078D01*
X55957Y-35107D01*
X55973Y-35146D01*
X55973Y-35538D01*
X55957Y-35576D01*
X55928Y-35606D01*
X55893Y-35620D01*
X55893Y-35905D01*
X55892Y-35905D01*
X55893Y-35906D01*
X55890Y-35917D01*
X55882Y-35960D01*
X55851Y-36008D01*
X55848Y-36009D01*
X53961Y-37898D01*
X53914Y-37929D01*
X53858Y-37941D01*
X53853Y-37940D01*
X53412Y-37940D01*
X53412Y-38819D01*
X53396Y-38857D01*
X53367Y-38887D01*
X53328Y-38903D01*
X51712Y-38903D01*
X51712Y-40604D01*
X52464Y-40604D01*
X52495Y-40635D01*
X52495Y-41707D01*
X51712Y-41707D01*
X51712Y-41757D01*
X52495Y-41757D01*
X52495Y-42829D01*
X52464Y-42860D01*
X51712Y-42860D01*
X51712Y-43044D01*
X52576Y-43044D01*
X52576Y-42860D01*
X52545Y-42829D01*
X52545Y-41757D01*
X52545Y-41707D01*
X52545Y-40635D01*
X52576Y-40604D01*
X53332Y-40604D01*
X53378Y-40623D01*
X53413Y-40658D01*
X53432Y-40704D01*
X53432Y-41676D01*
X53401Y-41707D01*
X52545Y-41707D01*
X52545Y-41757D01*
X53401Y-41757D01*
X53432Y-41788D01*
X53432Y-42760D01*
X53413Y-42806D01*
X53378Y-42841D01*
X53332Y-42860D01*
X52576Y-42860D01*
X52576Y-43044D01*
X58458Y-43044D01*
X58464Y-43030D01*
X58543Y-42951D01*
X58646Y-42909D01*
X58757Y-42909D01*
X58860Y-42952D01*
X58939Y-43031D01*
X58981Y-43134D01*
X58981Y-43245D01*
X58938Y-43348D01*
X58859Y-43427D01*
X58756Y-43469D01*
X58645Y-43469D01*
X58542Y-43426D01*
X58463Y-43347D01*
X58457Y-43334D01*
X54202Y-43333D01*
X54214Y-43346D01*
X54219Y-43359D01*
X57318Y-43359D01*
X57323Y-43358D01*
X57379Y-43370D01*
X57406Y-43388D01*
X57425Y-43381D01*
X57536Y-43381D01*
X57639Y-43424D01*
X57718Y-43503D01*
X57760Y-43606D01*
X57760Y-43717D01*
X57717Y-43820D01*
X57638Y-43899D01*
X57611Y-43910D01*
X59033Y-43910D01*
X59422Y-43521D01*
X59422Y-42700D01*
X59368Y-42678D01*
X59289Y-42599D01*
X59247Y-42496D01*
X59247Y-42385D01*
X59290Y-42282D01*
X59369Y-42203D01*
X59472Y-42161D01*
X59583Y-42161D01*
X59686Y-42204D01*
X59765Y-42283D01*
X59807Y-42386D01*
X59807Y-42497D01*
X59764Y-42600D01*
X59712Y-42652D01*
X59712Y-43437D01*
X59876Y-43437D01*
X59881Y-43436D01*
X59937Y-43448D01*
X59984Y-43479D01*
X60088Y-43583D01*
X60102Y-43578D01*
X60213Y-43578D01*
X60316Y-43621D01*
X60395Y-43700D01*
X60437Y-43803D01*
X60437Y-43914D01*
X60394Y-44017D01*
X60315Y-44096D01*
X60212Y-44138D01*
X60101Y-44138D01*
X59998Y-44095D01*
X59919Y-44016D01*
X59877Y-43913D01*
X59877Y-43802D01*
X59882Y-43789D01*
X59820Y-43726D01*
X59627Y-43727D01*
X59197Y-44158D01*
X59194Y-44159D01*
X57990Y-45364D01*
X57996Y-45378D01*
X57996Y-45489D01*
X57953Y-45592D01*
X57874Y-45671D01*
X57771Y-45713D01*
X57660Y-45713D01*
X57660Y-46038D01*
X61160Y-46038D01*
X61160Y-42840D01*
X61122Y-42824D01*
X61092Y-42795D01*
X61076Y-42756D01*
X61076Y-40708D01*
X61092Y-40670D01*
X61121Y-40640D01*
X61160Y-40624D01*
X62776Y-40624D01*
X62814Y-40640D01*
X62844Y-40669D01*
X62860Y-40708D01*
X62860Y-41587D01*
X65643Y-41587D01*
X65643Y-41259D01*
X65659Y-41221D01*
X65688Y-41191D01*
X65727Y-41175D01*
X66390Y-41175D01*
X66390Y-38352D01*
X65727Y-38352D01*
X65689Y-38336D01*
X65659Y-38307D01*
X65643Y-38268D01*
X65643Y-37940D01*
X62860Y-37940D01*
X62860Y-38819D01*
X62844Y-38857D01*
X62815Y-38887D01*
X62776Y-38903D01*
X61160Y-38903D01*
X61122Y-38887D01*
X61092Y-38858D01*
X61076Y-38819D01*
X61076Y-36771D01*
X61092Y-36733D01*
X61121Y-36703D01*
X61160Y-36687D01*
X62776Y-36687D01*
X62814Y-36703D01*
X62844Y-36732D01*
X62860Y-36771D01*
X62860Y-37650D01*
X65007Y-37650D01*
X65007Y-35707D01*
X64953Y-35685D01*
X64908Y-35578D01*
X64905Y-35442D01*
X64953Y-35315D01*
X65007Y-35293D01*
X65215Y-35500D01*
X65007Y-35707D01*
X65007Y-37650D01*
X65192Y-37650D01*
X65192Y-35845D01*
X65065Y-35797D01*
X65043Y-35743D01*
X65250Y-35535D01*
X65250Y-35465D01*
X65043Y-35257D01*
X65065Y-35203D01*
X65172Y-35158D01*
X65308Y-35155D01*
X65435Y-35203D01*
X65457Y-35257D01*
X65250Y-35465D01*
X65250Y-35535D01*
X65457Y-35743D01*
X65435Y-35797D01*
X65328Y-35842D01*
X65192Y-35845D01*
X65192Y-37650D01*
X65493Y-37650D01*
X65493Y-35707D01*
X65285Y-35500D01*
X65493Y-35293D01*
X65547Y-35315D01*
X65592Y-35422D01*
X65595Y-35558D01*
X65547Y-35685D01*
X65493Y-35707D01*
X65493Y-37650D01*
X65643Y-37650D01*
X65643Y-37322D01*
X65659Y-37284D01*
X65688Y-37254D01*
X65727Y-37238D01*
X67343Y-37238D01*
X67381Y-37254D01*
X67411Y-37283D01*
X67427Y-37322D01*
X67427Y-38268D01*
X67411Y-38306D01*
X67382Y-38336D01*
X67343Y-38352D01*
X66680Y-38352D01*
X66680Y-41175D01*
X67343Y-41175D01*
X67381Y-41191D01*
X67411Y-41220D01*
X67427Y-41259D01*
X67427Y-42205D01*
X67411Y-42243D01*
X67382Y-42273D01*
X67343Y-42289D01*
X65727Y-42289D01*
X65689Y-42273D01*
X65659Y-42244D01*
X65643Y-42205D01*
X65643Y-41877D01*
X62860Y-41877D01*
X62860Y-42756D01*
X62844Y-42794D01*
X62815Y-42824D01*
X62776Y-42840D01*
X61160Y-42840D01*
X61160Y-46038D01*
X62007Y-46038D01*
X62007Y-44207D01*
X61953Y-44185D01*
X61908Y-44078D01*
X61905Y-43942D01*
X61953Y-43815D01*
X62007Y-43793D01*
X62215Y-44000D01*
X62007Y-44207D01*
X62007Y-46038D01*
X62192Y-46038D01*
X62192Y-44345D01*
X62065Y-44297D01*
X62043Y-44243D01*
X62250Y-44035D01*
X62250Y-43965D01*
X62043Y-43757D01*
X62065Y-43703D01*
X62172Y-43658D01*
X62308Y-43655D01*
X62435Y-43703D01*
X62457Y-43757D01*
X62250Y-43965D01*
X62250Y-44035D01*
X62457Y-44243D01*
X62435Y-44297D01*
X62328Y-44342D01*
X62192Y-44345D01*
X62192Y-46038D01*
X62493Y-46038D01*
X62493Y-44207D01*
X62285Y-44000D01*
X62493Y-43793D01*
X62547Y-43815D01*
X62592Y-43922D01*
X62595Y-44058D01*
X62547Y-44185D01*
X62493Y-44207D01*
X62493Y-46038D01*
X65241Y-46038D01*
X65241Y-46038D01*
G37*
G54D28*
X65241Y-46038D02*
X68878Y-39686D01*
X63347Y-29990D01*
X63424Y-30175D01*
X63424Y-30535D01*
X63286Y-30867D01*
X63031Y-31121D01*
X62699Y-31258D01*
X62339Y-31258D01*
X62007Y-31120D01*
X61753Y-30865D01*
X61616Y-30533D01*
X61616Y-30173D01*
X61754Y-29841D01*
X62009Y-29587D01*
X62326Y-29456D01*
X51386Y-29456D01*
X45543Y-39699D01*
X46433Y-41252D01*
X46433Y-40589D01*
X46101Y-40451D01*
X45847Y-40196D01*
X45710Y-39864D01*
X45710Y-39504D01*
X45848Y-39172D01*
X46103Y-38918D01*
X46435Y-38781D01*
X46795Y-38781D01*
X47127Y-38919D01*
X47381Y-39174D01*
X47518Y-39506D01*
X47518Y-39866D01*
X47380Y-40198D01*
X47125Y-40452D01*
X46793Y-40589D01*
X46433Y-40589D01*
X46433Y-41252D01*
X47141Y-42488D01*
X47141Y-42309D01*
X47095Y-42290D01*
X47060Y-42255D01*
X47041Y-42209D01*
X47041Y-41788D01*
X47072Y-41757D01*
X47072Y-41707D01*
X47041Y-41676D01*
X47041Y-41255D01*
X47060Y-41209D01*
X47095Y-41174D01*
X47141Y-41155D01*
X47897Y-41155D01*
X47928Y-41186D01*
X47928Y-41707D01*
X47072Y-41707D01*
X47072Y-41757D01*
X47928Y-41757D01*
X47928Y-42278D01*
X47897Y-42309D01*
X47141Y-42309D01*
X47141Y-42488D01*
X48009Y-44003D01*
X48009Y-42309D01*
X47978Y-42278D01*
X47978Y-41757D01*
X47978Y-41707D01*
X47978Y-41186D01*
X48009Y-41155D01*
X48765Y-41155D01*
X48811Y-41174D01*
X48846Y-41209D01*
X48865Y-41255D01*
X48865Y-41676D01*
X48834Y-41707D01*
X47978Y-41707D01*
X47978Y-41757D01*
X48834Y-41757D01*
X48865Y-41788D01*
X48865Y-42209D01*
X48846Y-42255D01*
X48811Y-42290D01*
X48765Y-42309D01*
X48009Y-42309D01*
X48009Y-44003D01*
X49174Y-46038D01*
X51757Y-46038D01*
X51757Y-44207D01*
X51703Y-44185D01*
X51658Y-44078D01*
X51655Y-43942D01*
X51703Y-43815D01*
X51757Y-43793D01*
X51965Y-44000D01*
X51757Y-44207D01*
X51757Y-46038D01*
X51942Y-46038D01*
X51942Y-44345D01*
X51815Y-44297D01*
X51793Y-44243D01*
X52000Y-44035D01*
X52000Y-43965D01*
X51793Y-43757D01*
X51815Y-43703D01*
X51922Y-43658D01*
X52058Y-43655D01*
X52185Y-43703D01*
X52207Y-43757D01*
X52000Y-43965D01*
X52000Y-44035D01*
X52207Y-44243D01*
X52185Y-44297D01*
X52078Y-44342D01*
X51942Y-44345D01*
X51942Y-46038D01*
X52243Y-46038D01*
X52243Y-44207D01*
X52035Y-44000D01*
X52243Y-43793D01*
X52297Y-43815D01*
X52342Y-43922D01*
X52345Y-44058D01*
X52297Y-44185D01*
X52243Y-44207D01*
X52243Y-46038D01*
X53884Y-46038D01*
X53884Y-45668D01*
X53838Y-45649D01*
X53803Y-45614D01*
X53784Y-45568D01*
X53784Y-45474D01*
X53815Y-45443D01*
X53815Y-45393D01*
X53784Y-45362D01*
X53784Y-45268D01*
X53803Y-45222D01*
X53838Y-45187D01*
X53884Y-45168D01*
X54078Y-45168D01*
X54109Y-45199D01*
X54109Y-45393D01*
X53815Y-45393D01*
X53815Y-45443D01*
X54109Y-45443D01*
X54109Y-45637D01*
X54078Y-45668D01*
X53884Y-45668D01*
X53884Y-46038D01*
X54190Y-46038D01*
X54190Y-45668D01*
X54159Y-45637D01*
X54159Y-45443D01*
X54159Y-45393D01*
X54159Y-45199D01*
X54190Y-45168D01*
X54384Y-45168D01*
X54430Y-45187D01*
X54465Y-45222D01*
X54484Y-45268D01*
X54484Y-45362D01*
X54453Y-45393D01*
X54159Y-45393D01*
X54159Y-45443D01*
X54453Y-45443D01*
X54484Y-45474D01*
X54484Y-45568D01*
X54465Y-45614D01*
X54430Y-45649D01*
X54384Y-45668D01*
X54190Y-45668D01*
X54190Y-46038D01*
X56088Y-46038D01*
X56088Y-45668D01*
X56042Y-45649D01*
X56007Y-45614D01*
X55988Y-45568D01*
X55988Y-45474D01*
X56019Y-45443D01*
X56019Y-45393D01*
X55988Y-45362D01*
X55988Y-45268D01*
X56007Y-45222D01*
X56042Y-45187D01*
X56088Y-45168D01*
X56282Y-45168D01*
X56313Y-45199D01*
X56313Y-45393D01*
X56019Y-45393D01*
X56019Y-45443D01*
X56313Y-45443D01*
X56313Y-45637D01*
X56282Y-45668D01*
X56088Y-45668D01*
X56088Y-46038D01*
X56394Y-46038D01*
X56394Y-45668D01*
X56363Y-45637D01*
X56363Y-45443D01*
X56363Y-45393D01*
X56363Y-45199D01*
X56394Y-45168D01*
X56588Y-45168D01*
X56634Y-45187D01*
X56669Y-45222D01*
X56688Y-45268D01*
X56688Y-45362D01*
X56657Y-45393D01*
X56363Y-45393D01*
X56363Y-45443D01*
X56657Y-45443D01*
X56688Y-45474D01*
X56688Y-45568D01*
X56669Y-45614D01*
X56634Y-45649D01*
X56588Y-45668D01*
X56394Y-45668D01*
X56394Y-46038D01*
X57660Y-46038D01*
X57660Y-45713D01*
X57557Y-45670D01*
X57478Y-45591D01*
X57466Y-45563D01*
X57417Y-45563D01*
X57417Y-45564D01*
X57401Y-45602D01*
X57372Y-45632D01*
X57333Y-45648D01*
X56841Y-45648D01*
X56803Y-45632D01*
X56773Y-45603D01*
X56757Y-45564D01*
X56757Y-45272D01*
X56773Y-45234D01*
X56802Y-45204D01*
X56837Y-45189D01*
X56837Y-45068D01*
X56791Y-45049D01*
X56756Y-45014D01*
X56737Y-44968D01*
X56737Y-44874D01*
X56768Y-44843D01*
X56768Y-44793D01*
X56737Y-44762D01*
X56737Y-44668D01*
X56756Y-44622D01*
X56791Y-44587D01*
X56837Y-44568D01*
X57031Y-44568D01*
X57062Y-44599D01*
X57062Y-44793D01*
X56768Y-44793D01*
X56768Y-44843D01*
X57062Y-44843D01*
X57062Y-45037D01*
X57031Y-45068D01*
X56837Y-45068D01*
X56837Y-45189D01*
X56841Y-45188D01*
X57143Y-45188D01*
X57143Y-45068D01*
X57112Y-45037D01*
X57112Y-44843D01*
X57112Y-44793D01*
X57112Y-44599D01*
X57143Y-44568D01*
X57337Y-44568D01*
X57383Y-44587D01*
X57418Y-44622D01*
X57437Y-44668D01*
X57437Y-44762D01*
X57406Y-44793D01*
X57112Y-44793D01*
X57112Y-44843D01*
X57406Y-44843D01*
X57437Y-44874D01*
X57437Y-44968D01*
X57418Y-45014D01*
X57383Y-45049D01*
X57337Y-45068D01*
X57143Y-45068D01*
X57143Y-45188D01*
X57333Y-45188D01*
X57371Y-45204D01*
X57401Y-45233D01*
X57417Y-45272D01*
X57417Y-45273D01*
X57479Y-45273D01*
X57558Y-45195D01*
X57661Y-45153D01*
X57772Y-45153D01*
X57784Y-45158D01*
X58743Y-44200D01*
X57864Y-44199D01*
X57876Y-44212D01*
X57918Y-44315D01*
X57918Y-44426D01*
X57875Y-44529D01*
X57796Y-44608D01*
X57693Y-44650D01*
X57582Y-44650D01*
X57479Y-44607D01*
X57400Y-44528D01*
X57394Y-44515D01*
X56713Y-44515D01*
X56623Y-44605D01*
X56652Y-44633D01*
X56668Y-44672D01*
X56668Y-44964D01*
X56652Y-45002D01*
X56623Y-45032D01*
X56584Y-45048D01*
X56092Y-45048D01*
X56054Y-45032D01*
X56024Y-45003D01*
X56008Y-44964D01*
X56008Y-44672D01*
X56024Y-44634D01*
X56053Y-44604D01*
X56092Y-44588D01*
X56231Y-44588D01*
X56235Y-44582D01*
X56431Y-44386D01*
X56377Y-44398D01*
X56372Y-44397D01*
X54533Y-44397D01*
X54528Y-44411D01*
X54449Y-44490D01*
X54346Y-44532D01*
X54279Y-44532D01*
X54279Y-44588D01*
X54380Y-44588D01*
X54418Y-44604D01*
X54448Y-44633D01*
X54464Y-44672D01*
X54464Y-44964D01*
X54448Y-45002D01*
X54419Y-45032D01*
X54380Y-45048D01*
X53888Y-45048D01*
X53850Y-45032D01*
X53820Y-45003D01*
X53804Y-44964D01*
X53804Y-44672D01*
X53820Y-44634D01*
X53849Y-44604D01*
X53888Y-44588D01*
X53989Y-44588D01*
X53989Y-44413D01*
X53988Y-44409D01*
X53998Y-44359D01*
X53992Y-44355D01*
X53986Y-44346D01*
X53981Y-44342D01*
X53540Y-43784D01*
X53448Y-43784D01*
X53345Y-43741D01*
X53266Y-43662D01*
X53224Y-43559D01*
X53224Y-43448D01*
X53267Y-43345D01*
X53278Y-43333D01*
X49567Y-43334D01*
X49550Y-43330D01*
X49531Y-43330D01*
X49520Y-43324D01*
X49512Y-43323D01*
X49492Y-43310D01*
X49480Y-43304D01*
X49476Y-43299D01*
X49464Y-43292D01*
X49452Y-43274D01*
X49442Y-43263D01*
X49212Y-42878D01*
X49157Y-42878D01*
X49054Y-42835D01*
X48975Y-42756D01*
X48933Y-42653D01*
X48933Y-42542D01*
X48976Y-42439D01*
X49055Y-42360D01*
X49158Y-42318D01*
X49269Y-42318D01*
X49372Y-42361D01*
X49451Y-42440D01*
X49493Y-42543D01*
X49493Y-42654D01*
X49460Y-42730D01*
X49649Y-43044D01*
X51712Y-43044D01*
X51712Y-42860D01*
X51708Y-42860D01*
X51662Y-42841D01*
X51627Y-42806D01*
X51608Y-42760D01*
X51608Y-41788D01*
X51639Y-41757D01*
X51712Y-41757D01*
X51712Y-41707D01*
X51639Y-41707D01*
X51608Y-41676D01*
X51608Y-40704D01*
X51627Y-40658D01*
X51662Y-40623D01*
X51708Y-40604D01*
X51712Y-40604D01*
X51712Y-38903D01*
X51674Y-38887D01*
X51644Y-38858D01*
X51628Y-38819D01*
X51628Y-37940D01*
X48845Y-37940D01*
X48845Y-38268D01*
X48829Y-38306D01*
X48800Y-38336D01*
X48761Y-38352D01*
X47145Y-38352D01*
X47107Y-38336D01*
X47077Y-38307D01*
X47061Y-38268D01*
X47061Y-37322D01*
X47077Y-37284D01*
X47106Y-37254D01*
X47145Y-37238D01*
X48761Y-37238D01*
X48799Y-37254D01*
X48829Y-37283D01*
X48845Y-37322D01*
X48845Y-37650D01*
X49007Y-37650D01*
X49007Y-35707D01*
X48953Y-35685D01*
X48908Y-35578D01*
X48905Y-35442D01*
X48953Y-35315D01*
X49007Y-35293D01*
X49215Y-35500D01*
X49007Y-35707D01*
X49007Y-37650D01*
X49192Y-37650D01*
X49192Y-35845D01*
X49065Y-35797D01*
X49043Y-35743D01*
X49250Y-35535D01*
X49250Y-35465D01*
X49043Y-35257D01*
X49065Y-35203D01*
X49172Y-35158D01*
X49308Y-35155D01*
X49435Y-35203D01*
X49457Y-35257D01*
X49250Y-35465D01*
X49250Y-35535D01*
X49457Y-35743D01*
X49435Y-35797D01*
X49328Y-35842D01*
X49192Y-35845D01*
X49192Y-37650D01*
X49493Y-37650D01*
X49493Y-35707D01*
X49285Y-35500D01*
X49493Y-35293D01*
X49547Y-35315D01*
X49592Y-35422D01*
X49595Y-35558D01*
X49547Y-35685D01*
X49493Y-35707D01*
X49493Y-37650D01*
X50858Y-37650D01*
X50858Y-35280D01*
X50820Y-35264D01*
X50790Y-35235D01*
X50774Y-35196D01*
X50774Y-34804D01*
X50790Y-34766D01*
X50819Y-34736D01*
X50858Y-34720D01*
X51140Y-34720D01*
X51178Y-34736D01*
X51208Y-34765D01*
X51224Y-34804D01*
X51224Y-35196D01*
X51208Y-35234D01*
X51179Y-35264D01*
X51140Y-35280D01*
X50858Y-35280D01*
X50858Y-37650D01*
X51628Y-37650D01*
X51628Y-36771D01*
X51644Y-36733D01*
X51673Y-36703D01*
X51712Y-36687D01*
X53328Y-36687D01*
X53366Y-36703D01*
X53396Y-36732D01*
X53412Y-36771D01*
X53412Y-37650D01*
X53797Y-37650D01*
X55603Y-35844D01*
X55603Y-35620D01*
X55569Y-35606D01*
X55539Y-35577D01*
X55523Y-35538D01*
X55523Y-35146D01*
X55539Y-35108D01*
X55568Y-35078D01*
X55597Y-35066D01*
X54431Y-35066D01*
X54241Y-35256D01*
X54241Y-35538D01*
X54225Y-35576D01*
X54196Y-35606D01*
X54157Y-35622D01*
X53875Y-35622D01*
X53837Y-35606D01*
X53807Y-35577D01*
X53791Y-35538D01*
X53791Y-35484D01*
X52968Y-35484D01*
X52968Y-35485D01*
X52952Y-35523D01*
X52923Y-35553D01*
X52884Y-35569D01*
X52392Y-35569D01*
X52354Y-35553D01*
X52324Y-35524D01*
X52308Y-35485D01*
X52308Y-35484D01*
X52071Y-35484D01*
X52016Y-35473D01*
X51968Y-35442D01*
X51966Y-35439D01*
X51806Y-35280D01*
X51608Y-35280D01*
X51570Y-35264D01*
X51540Y-35235D01*
X51524Y-35196D01*
X51524Y-34804D01*
X51540Y-34766D01*
X51569Y-34736D01*
X51575Y-34733D01*
X51575Y-34634D01*
X51570Y-34633D01*
X51181Y-34633D01*
X51126Y-34622D01*
X51078Y-34591D01*
X51076Y-34588D01*
X50896Y-34409D01*
X50865Y-34362D01*
X50853Y-34306D01*
X50854Y-34301D01*
X50854Y-34278D01*
X50820Y-34264D01*
X50790Y-34235D01*
X50774Y-34196D01*
X50774Y-33804D01*
X50790Y-33766D01*
X50819Y-33736D01*
X50854Y-33721D01*
X50854Y-33611D01*
X50853Y-33607D01*
X50865Y-33551D01*
X50896Y-33504D01*
X50929Y-33471D01*
X50929Y-33330D01*
X50928Y-33330D01*
X50890Y-33314D01*
X50860Y-33285D01*
X50844Y-33246D01*
X50844Y-32754D01*
X50860Y-32716D01*
X50889Y-32686D01*
X50928Y-32670D01*
X50929Y-32670D01*
X50929Y-32580D01*
X50928Y-32580D01*
X50890Y-32564D01*
X50860Y-32535D01*
X50844Y-32496D01*
X50844Y-32004D01*
X50860Y-31966D01*
X50889Y-31936D01*
X50928Y-31920D01*
X51220Y-31920D01*
X51258Y-31936D01*
X51288Y-31965D01*
X51304Y-32004D01*
X51304Y-32496D01*
X51288Y-32534D01*
X51259Y-32564D01*
X51220Y-32580D01*
X51219Y-32580D01*
X51219Y-32670D01*
X51220Y-32670D01*
X51258Y-32686D01*
X51288Y-32715D01*
X51304Y-32754D01*
X51304Y-33246D01*
X51288Y-33284D01*
X51259Y-33314D01*
X51220Y-33330D01*
X51219Y-33330D01*
X51219Y-33398D01*
X51524Y-33398D01*
X51524Y-33350D01*
X51478Y-33331D01*
X51443Y-33296D01*
X51424Y-33250D01*
X51424Y-33056D01*
X51455Y-33025D01*
X51455Y-32975D01*
X51424Y-32944D01*
X51424Y-32750D01*
X51443Y-32704D01*
X51478Y-32669D01*
X51524Y-32650D01*
X51524Y-32600D01*
X51478Y-32581D01*
X51443Y-32546D01*
X51424Y-32500D01*
X51424Y-32306D01*
X51455Y-32275D01*
X51455Y-32225D01*
X51424Y-32194D01*
X51424Y-32000D01*
X51443Y-31954D01*
X51478Y-31919D01*
X51524Y-31900D01*
X51618Y-31900D01*
X51649Y-31931D01*
X51649Y-32225D01*
X51455Y-32225D01*
X51455Y-32275D01*
X51649Y-32275D01*
X51649Y-32569D01*
X51618Y-32600D01*
X51524Y-32600D01*
X51524Y-32650D01*
X51618Y-32650D01*
X51649Y-32681D01*
X51649Y-32975D01*
X51455Y-32975D01*
X51455Y-33025D01*
X51649Y-33025D01*
X51649Y-33319D01*
X51618Y-33350D01*
X51524Y-33350D01*
X51524Y-33398D01*
X51730Y-33398D01*
X51730Y-33350D01*
X51699Y-33319D01*
X51699Y-33025D01*
X51699Y-32975D01*
X51699Y-32681D01*
X51730Y-32650D01*
X51730Y-32600D01*
X51699Y-32569D01*
X51699Y-32275D01*
X51699Y-32225D01*
X51699Y-31931D01*
X51730Y-31900D01*
X51824Y-31900D01*
X51870Y-31919D01*
X51905Y-31954D01*
X51924Y-32000D01*
X51924Y-32194D01*
X51893Y-32225D01*
X51699Y-32225D01*
X51699Y-32275D01*
X51893Y-32275D01*
X51924Y-32306D01*
X51924Y-32500D01*
X51905Y-32546D01*
X51870Y-32581D01*
X51824Y-32600D01*
X51730Y-32600D01*
X51730Y-32650D01*
X51824Y-32650D01*
X51870Y-32669D01*
X51905Y-32704D01*
X51924Y-32750D01*
X51924Y-32944D01*
X51893Y-32975D01*
X51699Y-32975D01*
X51699Y-33025D01*
X51893Y-33025D01*
X51924Y-33056D01*
X51924Y-33250D01*
X51905Y-33296D01*
X51870Y-33331D01*
X51824Y-33350D01*
X51730Y-33350D01*
X51730Y-33398D01*
X52816Y-33398D01*
X52816Y-33351D01*
X52770Y-33332D01*
X52735Y-33297D01*
X52716Y-33251D01*
X52716Y-32790D01*
X52747Y-32759D01*
X52747Y-32709D01*
X52716Y-32678D01*
X52716Y-32217D01*
X52735Y-32171D01*
X52770Y-32136D01*
X52777Y-32133D01*
X52777Y-31186D01*
X52731Y-31167D01*
X52696Y-31132D01*
X52677Y-31086D01*
X52677Y-30625D01*
X52708Y-30594D01*
X52708Y-30544D01*
X52677Y-30513D01*
X52677Y-30052D01*
X52696Y-30006D01*
X52731Y-29971D01*
X52777Y-29952D01*
X53139Y-29952D01*
X53170Y-29983D01*
X53170Y-30544D01*
X52708Y-30544D01*
X52708Y-30594D01*
X53170Y-30594D01*
X53170Y-31155D01*
X53139Y-31186D01*
X52777Y-31186D01*
X52777Y-32133D01*
X52816Y-32117D01*
X53178Y-32117D01*
X53209Y-32148D01*
X53209Y-32709D01*
X52747Y-32709D01*
X52747Y-32759D01*
X53209Y-32759D01*
X53209Y-33320D01*
X53178Y-33351D01*
X52816Y-33351D01*
X52816Y-33398D01*
X53251Y-33398D01*
X53251Y-31186D01*
X53220Y-31155D01*
X53220Y-30594D01*
X53220Y-30544D01*
X53220Y-29983D01*
X53251Y-29952D01*
X53613Y-29952D01*
X53659Y-29971D01*
X53694Y-30006D01*
X53713Y-30052D01*
X53713Y-30513D01*
X53682Y-30544D01*
X53220Y-30544D01*
X53220Y-30594D01*
X53682Y-30594D01*
X53713Y-30625D01*
X53713Y-31086D01*
X53694Y-31132D01*
X53659Y-31167D01*
X53613Y-31186D01*
X53251Y-31186D01*
X53251Y-33398D01*
X53290Y-33398D01*
X53290Y-33351D01*
X53259Y-33320D01*
X53259Y-32759D01*
X53259Y-32709D01*
X53259Y-32148D01*
X53290Y-32117D01*
X53652Y-32117D01*
X53698Y-32136D01*
X53733Y-32171D01*
X53752Y-32217D01*
X53752Y-32678D01*
X53721Y-32709D01*
X53259Y-32709D01*
X53259Y-32759D01*
X53721Y-32759D01*
X53752Y-32790D01*
X53752Y-33251D01*
X53733Y-33297D01*
X53698Y-33332D01*
X53652Y-33351D01*
X53290Y-33351D01*
X53290Y-33398D01*
X54046Y-33398D01*
X54046Y-32157D01*
X53942Y-32114D01*
X53863Y-32035D01*
X53820Y-31931D01*
X53820Y-31819D01*
X53863Y-31715D01*
X53942Y-31636D01*
X54046Y-31593D01*
X54158Y-31593D01*
X54262Y-31636D01*
X54341Y-31715D01*
X54384Y-31819D01*
X54384Y-31931D01*
X54341Y-32035D01*
X54262Y-32114D01*
X54158Y-32157D01*
X54046Y-32157D01*
X54046Y-33398D01*
X54211Y-33398D01*
X54168Y-33380D01*
X54133Y-33345D01*
X54114Y-33299D01*
X54114Y-32830D01*
X54145Y-32799D01*
X54145Y-32749D01*
X54114Y-32718D01*
X54114Y-32249D01*
X54133Y-32203D01*
X54168Y-32168D01*
X54214Y-32149D01*
X54281Y-32149D01*
X54312Y-32180D01*
X54312Y-32749D01*
X54145Y-32749D01*
X54145Y-32799D01*
X54312Y-32799D01*
X54362Y-32799D01*
X54362Y-32749D01*
X54362Y-32180D01*
X54393Y-32149D01*
X54460Y-32149D01*
X54506Y-32168D01*
X54541Y-32203D01*
X54558Y-32245D01*
X54758Y-32245D01*
X54765Y-32247D01*
X54779Y-32215D01*
X54808Y-32185D01*
X54847Y-32169D01*
X55085Y-32169D01*
X55122Y-32184D01*
X55161Y-32169D01*
X55399Y-32169D01*
X55437Y-32185D01*
X55476Y-32169D01*
X55714Y-32169D01*
X55752Y-32185D01*
X55782Y-32214D01*
X55798Y-32253D01*
X55798Y-33295D01*
X55782Y-33333D01*
X55753Y-33363D01*
X55734Y-33370D01*
X55729Y-33397D01*
X55698Y-33445D01*
X55695Y-33446D01*
X55497Y-33646D01*
X55450Y-33677D01*
X55394Y-33689D01*
X55389Y-33688D01*
X51144Y-33688D01*
X51144Y-33721D01*
X51169Y-33732D01*
X51183Y-33719D01*
X51229Y-33700D01*
X51318Y-33700D01*
X51349Y-33731D01*
X51349Y-33975D01*
X51349Y-34025D01*
X51349Y-34269D01*
X51318Y-34300D01*
X51229Y-34300D01*
X51183Y-34281D01*
X51169Y-34267D01*
X51167Y-34268D01*
X51241Y-34343D01*
X51514Y-34343D01*
X51586Y-34271D01*
X51578Y-34267D01*
X51565Y-34281D01*
X51519Y-34300D01*
X51430Y-34300D01*
X51399Y-34269D01*
X51399Y-34025D01*
X51399Y-33975D01*
X51399Y-33731D01*
X51430Y-33700D01*
X51519Y-33700D01*
X51565Y-33719D01*
X51578Y-33732D01*
X51608Y-33720D01*
X51890Y-33720D01*
X51928Y-33736D01*
X51958Y-33765D01*
X51974Y-33804D01*
X51974Y-34196D01*
X51958Y-34234D01*
X51929Y-34264D01*
X51894Y-34278D01*
X51894Y-34309D01*
X51895Y-34314D01*
X51883Y-34370D01*
X51870Y-34388D01*
X51852Y-34417D01*
X51849Y-34418D01*
X51678Y-34591D01*
X51631Y-34622D01*
X51575Y-34634D01*
X51575Y-34733D01*
X51608Y-34720D01*
X51890Y-34720D01*
X51928Y-34736D01*
X51958Y-34765D01*
X51974Y-34804D01*
X51974Y-35036D01*
X52131Y-35194D01*
X52308Y-35194D01*
X52308Y-35193D01*
X52324Y-35155D01*
X52353Y-35125D01*
X52388Y-35110D01*
X52388Y-34989D01*
X52342Y-34970D01*
X52307Y-34935D01*
X52288Y-34889D01*
X52288Y-34795D01*
X52319Y-34764D01*
X52319Y-34714D01*
X52288Y-34683D01*
X52288Y-34589D01*
X52307Y-34543D01*
X52342Y-34508D01*
X52388Y-34489D01*
X52582Y-34489D01*
X52613Y-34520D01*
X52613Y-34714D01*
X52319Y-34714D01*
X52319Y-34764D01*
X52613Y-34764D01*
X52613Y-34958D01*
X52582Y-34989D01*
X52388Y-34989D01*
X52388Y-35110D01*
X52392Y-35109D01*
X52694Y-35109D01*
X52694Y-34989D01*
X52663Y-34958D01*
X52663Y-34764D01*
X52663Y-34714D01*
X52663Y-34520D01*
X52694Y-34489D01*
X52888Y-34489D01*
X52934Y-34508D01*
X52969Y-34543D01*
X52988Y-34589D01*
X52988Y-34683D01*
X52957Y-34714D01*
X52663Y-34714D01*
X52663Y-34764D01*
X52957Y-34764D01*
X52988Y-34795D01*
X52988Y-34889D01*
X52969Y-34935D01*
X52934Y-34970D01*
X52888Y-34989D01*
X52694Y-34989D01*
X52694Y-35109D01*
X52884Y-35109D01*
X52922Y-35125D01*
X52952Y-35154D01*
X52968Y-35193D01*
X52968Y-35194D01*
X53791Y-35194D01*
X53791Y-35146D01*
X53807Y-35108D01*
X53836Y-35078D01*
X53875Y-35062D01*
X54024Y-35062D01*
X54217Y-34869D01*
X54015Y-34869D01*
X54014Y-34868D01*
X54014Y-34869D01*
X54000Y-34866D01*
X53960Y-34858D01*
X53958Y-34857D01*
X53947Y-34850D01*
X53912Y-34827D01*
X53910Y-34824D01*
X53707Y-34622D01*
X53500Y-34622D01*
X53462Y-34606D01*
X53432Y-34577D01*
X53416Y-34538D01*
X53416Y-34146D01*
X53432Y-34108D01*
X53461Y-34078D01*
X53500Y-34062D01*
X53782Y-34062D01*
X53820Y-34078D01*
X53850Y-34107D01*
X53866Y-34146D01*
X53866Y-34369D01*
X54075Y-34579D01*
X54161Y-34579D01*
X54146Y-34542D01*
X54146Y-34398D01*
X54177Y-34367D01*
X54177Y-34317D01*
X54146Y-34286D01*
X54146Y-34142D01*
X54165Y-34096D01*
X54200Y-34061D01*
X54246Y-34042D01*
X54335Y-34042D01*
X54366Y-34073D01*
X54366Y-34317D01*
X54177Y-34317D01*
X54177Y-34367D01*
X54366Y-34367D01*
X54416Y-34367D01*
X54416Y-34317D01*
X54416Y-34073D01*
X54447Y-34042D01*
X54536Y-34042D01*
X54582Y-34061D01*
X54617Y-34096D01*
X54636Y-34142D01*
X54636Y-34286D01*
X54605Y-34317D01*
X54416Y-34317D01*
X54416Y-34367D01*
X54605Y-34367D01*
X54636Y-34398D01*
X54636Y-34542D01*
X54620Y-34579D01*
X55166Y-34579D01*
X55164Y-34577D01*
X55148Y-34538D01*
X55148Y-34146D01*
X55164Y-34108D01*
X55193Y-34078D01*
X55232Y-34062D01*
X55298Y-34062D01*
X55686Y-33674D01*
X55734Y-33643D01*
X55789Y-33632D01*
X55799Y-33632D01*
X55799Y-32157D01*
X55695Y-32114D01*
X55616Y-32035D01*
X55573Y-31931D01*
X55573Y-31819D01*
X55616Y-31715D01*
X55695Y-31636D01*
X55799Y-31593D01*
X55911Y-31593D01*
X56015Y-31636D01*
X56094Y-31715D01*
X56137Y-31819D01*
X56137Y-31931D01*
X56094Y-32035D01*
X56015Y-32114D01*
X55911Y-32157D01*
X55799Y-32157D01*
X55799Y-33632D01*
X56319Y-33632D01*
X56319Y-33351D01*
X56273Y-33332D01*
X56238Y-33297D01*
X56219Y-33251D01*
X56219Y-32790D01*
X56250Y-32759D01*
X56250Y-32709D01*
X56219Y-32678D01*
X56219Y-32217D01*
X56238Y-32171D01*
X56273Y-32136D01*
X56319Y-32117D01*
X56319Y-31186D01*
X56273Y-31167D01*
X56238Y-31132D01*
X56219Y-31086D01*
X56219Y-30625D01*
X56250Y-30594D01*
X56250Y-30544D01*
X56219Y-30513D01*
X56219Y-30052D01*
X56238Y-30006D01*
X56273Y-29971D01*
X56319Y-29952D01*
X56681Y-29952D01*
X56712Y-29983D01*
X56712Y-30544D01*
X56250Y-30544D01*
X56250Y-30594D01*
X56712Y-30594D01*
X56712Y-31155D01*
X56681Y-31186D01*
X56319Y-31186D01*
X56319Y-32117D01*
X56681Y-32117D01*
X56712Y-32148D01*
X56712Y-32709D01*
X56250Y-32709D01*
X56250Y-32759D01*
X56712Y-32759D01*
X56712Y-33320D01*
X56681Y-33351D01*
X56319Y-33351D01*
X56319Y-33632D01*
X56793Y-33632D01*
X56793Y-33351D01*
X56762Y-33320D01*
X56762Y-32759D01*
X56762Y-32709D01*
X56762Y-32148D01*
X56793Y-32117D01*
X56793Y-31186D01*
X56762Y-31155D01*
X56762Y-30594D01*
X56762Y-30544D01*
X56762Y-29983D01*
X56793Y-29952D01*
X57155Y-29952D01*
X57201Y-29971D01*
X57236Y-30006D01*
X57255Y-30052D01*
X57255Y-30513D01*
X57224Y-30544D01*
X56762Y-30544D01*
X56762Y-30594D01*
X57224Y-30594D01*
X57255Y-30625D01*
X57255Y-31086D01*
X57236Y-31132D01*
X57201Y-31167D01*
X57155Y-31186D01*
X56793Y-31186D01*
X56793Y-32117D01*
X57155Y-32117D01*
X57201Y-32136D01*
X57236Y-32171D01*
X57255Y-32217D01*
X57255Y-32678D01*
X57224Y-32709D01*
X56762Y-32709D01*
X56762Y-32759D01*
X57224Y-32759D01*
X57255Y-32790D01*
X57255Y-33251D01*
X57236Y-33297D01*
X57201Y-33332D01*
X57155Y-33351D01*
X56793Y-33351D01*
X56793Y-33632D01*
X57690Y-33632D01*
X57690Y-33402D01*
X57706Y-33364D01*
X57735Y-33334D01*
X57774Y-33318D01*
X58333Y-33318D01*
X58333Y-31876D01*
X58193Y-31818D01*
X58087Y-31711D01*
X58029Y-31571D01*
X58029Y-31420D01*
X58087Y-31280D01*
X58194Y-31174D01*
X58334Y-31116D01*
X58485Y-31116D01*
X58625Y-31174D01*
X58731Y-31281D01*
X58789Y-31421D01*
X58789Y-31572D01*
X58731Y-31712D01*
X58624Y-31818D01*
X58484Y-31876D01*
X58333Y-31876D01*
X58333Y-33318D01*
X58381Y-33318D01*
X59333Y-32366D01*
X59333Y-31876D01*
X59193Y-31818D01*
X59087Y-31711D01*
X59029Y-31571D01*
X59029Y-31420D01*
X59087Y-31280D01*
X59194Y-31174D01*
X59334Y-31116D01*
X59485Y-31116D01*
X59625Y-31174D01*
X59731Y-31281D01*
X59789Y-31421D01*
X59789Y-31572D01*
X59731Y-31712D01*
X59624Y-31818D01*
X59484Y-31876D01*
X59333Y-31876D01*
X59333Y-32366D01*
X60029Y-31670D01*
X60029Y-31200D01*
X60045Y-31162D01*
X60074Y-31132D01*
X60113Y-31116D01*
X60705Y-31116D01*
X60743Y-31132D01*
X60773Y-31161D01*
X60789Y-31200D01*
X60789Y-31792D01*
X60773Y-31830D01*
X60744Y-31860D01*
X60705Y-31876D01*
X60234Y-31876D01*
X58748Y-33361D01*
X58750Y-33363D01*
X58766Y-33402D01*
X58766Y-34152D01*
X58750Y-34190D01*
X58721Y-34220D01*
X58682Y-34236D01*
X57774Y-34236D01*
X57736Y-34220D01*
X57706Y-34191D01*
X57690Y-34152D01*
X57690Y-33922D01*
X55849Y-33922D01*
X55598Y-34173D01*
X55598Y-34538D01*
X55582Y-34576D01*
X55579Y-34579D01*
X55680Y-34579D01*
X55898Y-34361D01*
X55898Y-34146D01*
X55914Y-34108D01*
X55943Y-34078D01*
X55982Y-34062D01*
X56264Y-34062D01*
X56302Y-34078D01*
X56332Y-34107D01*
X56348Y-34146D01*
X56348Y-34538D01*
X56332Y-34576D01*
X56303Y-34606D01*
X56264Y-34622D01*
X56048Y-34622D01*
X55894Y-34776D01*
X57042Y-34776D01*
X57047Y-34775D01*
X57103Y-34787D01*
X57150Y-34818D01*
X57543Y-35212D01*
X57690Y-35212D01*
X57690Y-34982D01*
X57706Y-34944D01*
X57735Y-34914D01*
X57774Y-34898D01*
X58682Y-34898D01*
X58720Y-34914D01*
X58750Y-34943D01*
X58766Y-34982D01*
X58766Y-35732D01*
X58750Y-35770D01*
X58721Y-35800D01*
X58682Y-35816D01*
X57774Y-35816D01*
X57736Y-35800D01*
X57706Y-35771D01*
X57690Y-35732D01*
X57690Y-35502D01*
X57483Y-35502D01*
X57428Y-35491D01*
X57380Y-35460D01*
X57378Y-35457D01*
X56986Y-35066D01*
X55898Y-35066D01*
X55927Y-35078D01*
X55957Y-35107D01*
X55973Y-35146D01*
X55973Y-35538D01*
X55957Y-35576D01*
X55928Y-35606D01*
X55893Y-35620D01*
X55893Y-35905D01*
X55892Y-35905D01*
X55893Y-35906D01*
X55890Y-35917D01*
X55882Y-35960D01*
X55851Y-36008D01*
X55848Y-36009D01*
X53961Y-37898D01*
X53914Y-37929D01*
X53858Y-37941D01*
X53853Y-37940D01*
X53412Y-37940D01*
X53412Y-38819D01*
X53396Y-38857D01*
X53367Y-38887D01*
X53328Y-38903D01*
X51712Y-38903D01*
X51712Y-40604D01*
X52464Y-40604D01*
X52495Y-40635D01*
X52495Y-41707D01*
X51712Y-41707D01*
X51712Y-41757D01*
X52495Y-41757D01*
X52495Y-42829D01*
X52464Y-42860D01*
X51712Y-42860D01*
X51712Y-43044D01*
X52576Y-43044D01*
X52576Y-42860D01*
X52545Y-42829D01*
X52545Y-41757D01*
X52545Y-41707D01*
X52545Y-40635D01*
X52576Y-40604D01*
X53332Y-40604D01*
X53378Y-40623D01*
X53413Y-40658D01*
X53432Y-40704D01*
X53432Y-41676D01*
X53401Y-41707D01*
X52545Y-41707D01*
X52545Y-41757D01*
X53401Y-41757D01*
X53432Y-41788D01*
X53432Y-42760D01*
X53413Y-42806D01*
X53378Y-42841D01*
X53332Y-42860D01*
X52576Y-42860D01*
X52576Y-43044D01*
X58458Y-43044D01*
X58464Y-43030D01*
X58543Y-42951D01*
X58646Y-42909D01*
X58757Y-42909D01*
X58860Y-42952D01*
X58939Y-43031D01*
X58981Y-43134D01*
X58981Y-43245D01*
X58938Y-43348D01*
X58859Y-43427D01*
X58756Y-43469D01*
X58645Y-43469D01*
X58542Y-43426D01*
X58463Y-43347D01*
X58457Y-43334D01*
X54202Y-43333D01*
X54214Y-43346D01*
X54219Y-43359D01*
X57318Y-43359D01*
X57323Y-43358D01*
X57379Y-43370D01*
X57406Y-43388D01*
X57425Y-43381D01*
X57536Y-43381D01*
X57639Y-43424D01*
X57718Y-43503D01*
X57760Y-43606D01*
X57760Y-43717D01*
X57717Y-43820D01*
X57638Y-43899D01*
X57611Y-43910D01*
X59033Y-43910D01*
X59422Y-43521D01*
X59422Y-42700D01*
X59368Y-42678D01*
X59289Y-42599D01*
X59247Y-42496D01*
X59247Y-42385D01*
X59290Y-42282D01*
X59369Y-42203D01*
X59472Y-42161D01*
X59583Y-42161D01*
X59686Y-42204D01*
X59765Y-42283D01*
X59807Y-42386D01*
X59807Y-42497D01*
X59764Y-42600D01*
X59712Y-42652D01*
X59712Y-43437D01*
X59876Y-43437D01*
X59881Y-43436D01*
X59937Y-43448D01*
X59984Y-43479D01*
X60088Y-43583D01*
X60102Y-43578D01*
X60213Y-43578D01*
X60316Y-43621D01*
X60395Y-43700D01*
X60437Y-43803D01*
X60437Y-43914D01*
X60394Y-44017D01*
X60315Y-44096D01*
X60212Y-44138D01*
X60101Y-44138D01*
X59998Y-44095D01*
X59919Y-44016D01*
X59877Y-43913D01*
X59877Y-43802D01*
X59882Y-43789D01*
X59820Y-43726D01*
X59627Y-43727D01*
X59197Y-44158D01*
X59194Y-44159D01*
X57990Y-45364D01*
X57996Y-45378D01*
X57996Y-45489D01*
X57953Y-45592D01*
X57874Y-45671D01*
X57771Y-45713D01*
X57660Y-45713D01*
X57660Y-46038D01*
X61160Y-46038D01*
X61160Y-42840D01*
X61122Y-42824D01*
X61092Y-42795D01*
X61076Y-42756D01*
X61076Y-40708D01*
X61092Y-40670D01*
X61121Y-40640D01*
X61160Y-40624D01*
X62776Y-40624D01*
X62814Y-40640D01*
X62844Y-40669D01*
X62860Y-40708D01*
X62860Y-41587D01*
X65643Y-41587D01*
X65643Y-41259D01*
X65659Y-41221D01*
X65688Y-41191D01*
X65727Y-41175D01*
X66390Y-41175D01*
X66390Y-38352D01*
X65727Y-38352D01*
X65689Y-38336D01*
X65659Y-38307D01*
X65643Y-38268D01*
X65643Y-37940D01*
X62860Y-37940D01*
X62860Y-38819D01*
X62844Y-38857D01*
X62815Y-38887D01*
X62776Y-38903D01*
X61160Y-38903D01*
X61122Y-38887D01*
X61092Y-38858D01*
X61076Y-38819D01*
X61076Y-36771D01*
X61092Y-36733D01*
X61121Y-36703D01*
X61160Y-36687D01*
X62776Y-36687D01*
X62814Y-36703D01*
X62844Y-36732D01*
X62860Y-36771D01*
X62860Y-37650D01*
X65007Y-37650D01*
X65007Y-35707D01*
X64953Y-35685D01*
X64908Y-35578D01*
X64905Y-35442D01*
X64953Y-35315D01*
X65007Y-35293D01*
X65215Y-35500D01*
X65007Y-35707D01*
X65007Y-37650D01*
X65192Y-37650D01*
X65192Y-35845D01*
X65065Y-35797D01*
X65043Y-35743D01*
X65250Y-35535D01*
X65250Y-35465D01*
X65043Y-35257D01*
X65065Y-35203D01*
X65172Y-35158D01*
X65308Y-35155D01*
X65435Y-35203D01*
X65457Y-35257D01*
X65250Y-35465D01*
X65250Y-35535D01*
X65457Y-35743D01*
X65435Y-35797D01*
X65328Y-35842D01*
X65192Y-35845D01*
X65192Y-37650D01*
X65493Y-37650D01*
X65493Y-35707D01*
X65285Y-35500D01*
X65493Y-35293D01*
X65547Y-35315D01*
X65592Y-35422D01*
X65595Y-35558D01*
X65547Y-35685D01*
X65493Y-35707D01*
X65493Y-37650D01*
X65643Y-37650D01*
X65643Y-37322D01*
X65659Y-37284D01*
X65688Y-37254D01*
X65727Y-37238D01*
X67343Y-37238D01*
X67381Y-37254D01*
X67411Y-37283D01*
X67427Y-37322D01*
X67427Y-38268D01*
X67411Y-38306D01*
X67382Y-38336D01*
X67343Y-38352D01*
X66680Y-38352D01*
X66680Y-41175D01*
X67343Y-41175D01*
X67381Y-41191D01*
X67411Y-41220D01*
X67427Y-41259D01*
X67427Y-42205D01*
X67411Y-42243D01*
X67382Y-42273D01*
X67343Y-42289D01*
X65727Y-42289D01*
X65689Y-42273D01*
X65659Y-42244D01*
X65643Y-42205D01*
X65643Y-41877D01*
X62860Y-41877D01*
X62860Y-42756D01*
X62844Y-42794D01*
X62815Y-42824D01*
X62776Y-42840D01*
X61160Y-42840D01*
X61160Y-46038D01*
X62007Y-46038D01*
X62007Y-44207D01*
X61953Y-44185D01*
X61908Y-44078D01*
X61905Y-43942D01*
X61953Y-43815D01*
X62007Y-43793D01*
X62215Y-44000D01*
X62007Y-44207D01*
X62007Y-46038D01*
X62192Y-46038D01*
X62192Y-44345D01*
X62065Y-44297D01*
X62043Y-44243D01*
X62250Y-44035D01*
X62250Y-43965D01*
X62043Y-43757D01*
X62065Y-43703D01*
X62172Y-43658D01*
X62308Y-43655D01*
X62435Y-43703D01*
X62457Y-43757D01*
X62250Y-43965D01*
X62250Y-44035D01*
X62457Y-44243D01*
X62435Y-44297D01*
X62328Y-44342D01*
X62192Y-44345D01*
X62192Y-46038D01*
X62493Y-46038D01*
X62493Y-44207D01*
X62285Y-44000D01*
X62493Y-43793D01*
X62547Y-43815D01*
X62592Y-43922D01*
X62595Y-44058D01*
X62547Y-44185D01*
X62493Y-44207D01*
X62493Y-46038D01*
X65241Y-46038D01*
M02*
