M48
;DRILL file {PCBnew (2010-03-14)-final} date Fri 27 Jul 2012 10:12:13 MSK
;FORMAT={2:3/ absolute / inch / suppress leading zeros}
R,T
VER,1
FMAT,2
INCH,TZ
TCST,OFF
ICI,OFF
ATC,ON
T1C0.025
T2C0.031
T3C0.032
T4C0.120
%
M47
G05
M72
T1
X4921Y-4260
X4925Y-3550
X5200Y-4400
X5350Y-4350
X5398Y-4350
X5429Y-4425
X5476Y-4543
X5571Y-4543
X5748Y-4366
X5760Y-3272
X5764Y-4437
X5772Y-4543
X5870Y-4319
X5953Y-4244
X6016Y-4386
X6225Y-4400
X6525Y-3550
T2
X5410Y-3188
X5586Y-3188
T3
X5841Y-3150
X5941Y-3150
X6041Y-3150
T4
X4661Y-3968
X6252Y-3035
X6252Y-4902
T0
M30
