M48
;DRILL file {PCBnew (2010-03-14)-final} date Fri 27 Jul 2012 11:32:22 MSK
;FORMAT={2:3/ absolute / inch / suppress leading zeros}
R,T
VER,1
FMAT,2
INCH,TZ
TCST,OFF
ICI,OFF
ATC,ON
T1C0.025
T2C0.031
T3C0.120
%
M47
G05
M72
T1
X4945Y-4307
X5213Y-4402
X5252Y-3370
X5252Y-3898
X5268Y-3843
X5331Y-3850
X5354Y-4165
X5409Y-3906
X5409Y-4252
X5433Y-3724
X5465Y-3677
X5520Y-3740
X5551Y-4299
X5583Y-3898
X5614Y-4095
X5638Y-4299
X5661Y-3835
X5677Y-4504
X5728Y-3927
X5791Y-4364
X5795Y-3378
X5811Y-3654
X5842Y-4441
X5846Y-3878
X5862Y-4559
X5874Y-4047
X5874Y-4291
X6067Y-4559
X6110Y-4425
X6240Y-4079
X6289Y-3858
X6388Y-3760
T2
X5639Y-3188
X5814Y-3188
T3
X4661Y-3968
X6252Y-3035
X6252Y-4902
T0
M30
