M48
INCH,TZ
T1C0.025
T2C0.040
T3C0.126
%
G90
G05
T1
X49449Y-43071
X52126Y-44016
X52520Y-33701
X52520Y-38976
X52677Y-38425
X53307Y-38504
X53543Y-41654
X54094Y-39055
X54094Y-42520
X54331Y-37244
X54646Y-36772
X55197Y-37402
X55512Y-42992
X55827Y-38976
X56142Y-40945
X56378Y-42992
X56614Y-38346
X56772Y-45039
X57910Y-43644
X57953Y-33780
X58110Y-36535
X58425Y-44409
X58504Y-39213
X58740Y-40472
X58740Y-42913
X61102Y-44252
X62835Y-39764
X66142Y-40866
T2
X56561Y-31750
X57939Y-31750
T3
X46614Y-39685
X62520Y-30354
X62520Y-49016
T0
M30
