G04 (created by PCBNEW-RS274X (2011-05-25)-stable) date Sat 31 Mar 2012 14:10:29 BST*
G01*
G70*
G90*
%MOIN*%
G04 Gerber Fmt 3.4, Leading zero omitted, Abs format*
%FSLAX34Y34*%
G04 APERTURE LIST*
%ADD10C,0.006000*%
%ADD11C,0.015000*%
%ADD12R,0.024000X0.035000*%
%ADD13R,0.060000X0.080000*%
%ADD14R,0.080000X0.060000*%
%ADD15R,0.025000X0.045000*%
%ADD16R,0.045000X0.025000*%
%ADD17R,0.010500X0.055000*%
%ADD18R,0.055000X0.010500*%
%ADD19R,0.055000X0.075000*%
%ADD20R,0.019600X0.100000*%
%ADD21R,0.078700X0.098400*%
%ADD22R,0.017000X0.080000*%
%ADD23C,0.040000*%
%ADD24C,0.160000*%
%ADD25C,0.035000*%
%ADD26C,0.008000*%
%ADD27C,0.005000*%
G04 APERTURE END LIST*
G54D10*
G54D11*
X45400Y-39699D02*
X51305Y-29331D01*
X51305Y-50000D02*
X45400Y-39699D01*
X63116Y-50000D02*
X51305Y-50000D01*
X69022Y-39699D02*
X63116Y-50000D01*
X63116Y-29331D02*
X69022Y-39699D01*
X51305Y-29331D02*
X63116Y-29331D01*
G54D12*
X53875Y-35000D03*
X53125Y-35000D03*
X53125Y-34000D03*
X53500Y-34000D03*
X53875Y-34000D03*
G54D13*
X61989Y-39921D03*
X60689Y-39921D03*
G54D14*
X55750Y-34600D03*
X55750Y-35900D03*
X52500Y-36100D03*
X52500Y-37400D03*
G54D15*
X53200Y-33000D03*
X53800Y-33000D03*
G54D16*
X57250Y-43800D03*
X57250Y-43200D03*
X54750Y-42550D03*
X54750Y-41950D03*
G54D15*
X53200Y-40250D03*
X53800Y-40250D03*
G54D16*
X58110Y-35891D03*
X58110Y-35291D03*
G54D15*
X53800Y-32250D03*
X53200Y-32250D03*
G54D16*
X53500Y-37050D03*
X53500Y-36450D03*
X54750Y-35800D03*
X54750Y-35200D03*
X56000Y-43700D03*
X56000Y-44300D03*
X55250Y-43700D03*
X55250Y-44300D03*
G54D15*
X59700Y-42750D03*
X60300Y-42750D03*
G54D16*
X54500Y-43700D03*
X54500Y-44300D03*
X51500Y-37050D03*
X51500Y-36450D03*
G54D15*
X59700Y-43500D03*
X60300Y-43500D03*
X60700Y-33750D03*
X61300Y-33750D03*
G54D16*
X53750Y-43700D03*
X53750Y-44300D03*
X56750Y-36050D03*
X56750Y-35450D03*
G54D15*
X59700Y-44250D03*
X60300Y-44250D03*
X59700Y-45000D03*
X60300Y-45000D03*
X60700Y-37750D03*
X61300Y-37750D03*
G54D16*
X60500Y-40950D03*
X60500Y-41550D03*
G54D17*
X58728Y-37388D03*
G54D18*
X54888Y-38272D03*
G54D17*
X55772Y-42112D03*
G54D18*
X59612Y-41228D03*
G54D17*
X58531Y-37388D03*
G54D18*
X54888Y-38469D03*
G54D17*
X55969Y-42112D03*
G54D18*
X59612Y-41031D03*
G54D17*
X58334Y-37388D03*
G54D18*
X54888Y-38666D03*
G54D17*
X56166Y-42112D03*
G54D18*
X59612Y-40834D03*
G54D17*
X58137Y-37388D03*
G54D18*
X54888Y-38863D03*
G54D17*
X56363Y-42112D03*
G54D18*
X59612Y-40637D03*
G54D17*
X57940Y-37388D03*
G54D18*
X54888Y-39060D03*
G54D17*
X56560Y-42112D03*
G54D18*
X59612Y-40440D03*
G54D17*
X57743Y-37388D03*
G54D18*
X54888Y-39257D03*
G54D17*
X56757Y-42112D03*
G54D18*
X59612Y-40243D03*
G54D17*
X57546Y-37388D03*
G54D18*
X54888Y-39454D03*
G54D17*
X56954Y-42112D03*
G54D18*
X59612Y-40046D03*
G54D17*
X57349Y-37388D03*
G54D18*
X54888Y-39651D03*
G54D17*
X57151Y-42112D03*
G54D18*
X59612Y-39849D03*
G54D17*
X57152Y-37388D03*
G54D18*
X54888Y-39848D03*
G54D17*
X57348Y-42112D03*
G54D18*
X59612Y-39652D03*
G54D17*
X56955Y-37388D03*
G54D18*
X54888Y-40045D03*
G54D17*
X57545Y-42112D03*
G54D18*
X59612Y-39455D03*
G54D17*
X56758Y-37388D03*
G54D18*
X54888Y-40242D03*
G54D17*
X57742Y-42112D03*
G54D18*
X59612Y-39258D03*
G54D17*
X56561Y-37388D03*
G54D18*
X54888Y-40439D03*
G54D17*
X57939Y-42112D03*
G54D18*
X59612Y-39061D03*
G54D17*
X56364Y-37388D03*
G54D18*
X54888Y-40636D03*
G54D17*
X58136Y-42112D03*
G54D18*
X59612Y-38864D03*
G54D17*
X56167Y-37388D03*
G54D18*
X54888Y-40833D03*
G54D17*
X58333Y-42112D03*
G54D18*
X59612Y-38667D03*
G54D17*
X55970Y-37388D03*
G54D18*
X54888Y-41030D03*
G54D17*
X58530Y-42112D03*
G54D18*
X59612Y-38470D03*
G54D17*
X55773Y-37388D03*
G54D18*
X54888Y-41227D03*
G54D17*
X58727Y-42112D03*
G54D18*
X59612Y-38273D03*
G54D19*
X60750Y-36700D03*
X60750Y-34800D03*
X59750Y-34800D03*
X59750Y-36700D03*
G54D20*
X57250Y-32774D03*
X57564Y-32774D03*
X56621Y-32774D03*
G54D21*
X59021Y-30569D03*
X59021Y-32734D03*
X55479Y-30569D03*
X55518Y-32734D03*
G54D22*
X56936Y-32750D03*
G54D23*
X57939Y-31750D03*
X56561Y-31750D03*
G54D20*
X57879Y-32774D03*
G54D24*
X62520Y-30354D03*
X46614Y-39685D03*
X62520Y-49016D03*
G54D25*
X54094Y-42520D03*
X55512Y-42992D03*
X56142Y-40945D03*
X58740Y-40472D03*
X54646Y-36772D03*
X61102Y-44252D03*
X49449Y-43071D03*
X56772Y-45039D03*
X58425Y-44409D03*
X53543Y-41654D03*
X56378Y-42992D03*
X58740Y-42913D03*
X58110Y-36535D03*
X54331Y-37244D03*
X52520Y-33701D03*
X57953Y-33780D03*
X54094Y-39055D03*
X55827Y-38976D03*
X56614Y-38346D03*
X66142Y-40866D03*
X55197Y-37402D03*
X52677Y-38425D03*
X53307Y-38504D03*
X52520Y-38976D03*
X58504Y-39213D03*
X57910Y-43644D03*
X52126Y-44016D03*
X62835Y-39764D03*
G54D26*
X54750Y-42550D02*
X54124Y-42550D01*
X54124Y-42550D02*
X54094Y-42520D01*
X55969Y-42771D02*
X55969Y-42112D01*
X55512Y-42992D02*
X55969Y-42771D01*
X56166Y-42112D02*
X56166Y-40969D01*
X56166Y-40969D02*
X56142Y-40945D01*
X59612Y-40834D02*
X59102Y-40834D01*
X59102Y-40834D02*
X58740Y-40472D01*
X55970Y-37388D02*
X55970Y-36836D01*
X55906Y-36772D02*
X54646Y-36772D01*
X55970Y-36836D02*
X55906Y-36772D01*
X61102Y-44252D02*
X61102Y-44252D01*
X60300Y-44250D02*
X61102Y-44252D01*
X59612Y-41031D02*
X58189Y-41031D01*
X59128Y-39849D02*
X59612Y-39849D01*
X58583Y-39843D02*
X59128Y-39849D01*
X58189Y-40157D02*
X58583Y-39843D01*
X58189Y-41031D02*
X58189Y-40157D01*
X57545Y-42112D02*
X57545Y-42506D01*
X56298Y-43700D02*
X56000Y-43700D01*
X56535Y-43937D02*
X56298Y-43700D01*
X56535Y-44802D02*
X56535Y-43937D01*
X56772Y-45039D02*
X56535Y-44802D01*
X58425Y-43386D02*
X58425Y-44409D01*
X57545Y-42506D02*
X58425Y-43386D01*
X56167Y-37388D02*
X56167Y-36718D01*
X55899Y-36450D02*
X53500Y-36450D01*
X56167Y-36718D02*
X55899Y-36450D01*
X59612Y-41031D02*
X60419Y-41031D01*
X60419Y-41031D02*
X60500Y-40950D01*
X54888Y-38863D02*
X55232Y-38863D01*
X56167Y-37928D02*
X56167Y-37388D01*
X55232Y-38863D02*
X56167Y-37928D01*
X54888Y-41030D02*
X55269Y-41030D01*
X55241Y-38863D02*
X54888Y-38863D01*
X55433Y-39055D02*
X55241Y-38863D01*
X55433Y-40866D02*
X55433Y-39055D01*
X55269Y-41030D02*
X55433Y-40866D01*
X54888Y-41030D02*
X54246Y-41030D01*
X54246Y-41030D02*
X53543Y-41654D01*
X53750Y-43700D02*
X53780Y-41890D01*
X53780Y-41890D02*
X53543Y-41654D01*
X59612Y-41031D02*
X58182Y-41031D01*
X57545Y-41668D02*
X57545Y-42112D01*
X58182Y-41031D02*
X57545Y-41668D01*
X53750Y-43700D02*
X54500Y-43700D01*
X54500Y-43700D02*
X55250Y-43700D01*
X55250Y-43700D02*
X56000Y-43700D01*
X59612Y-39849D02*
X60617Y-39849D01*
X60617Y-39849D02*
X60689Y-39921D01*
X53500Y-36450D02*
X53500Y-35791D01*
X53500Y-35791D02*
X53875Y-35416D01*
X53875Y-35416D02*
X53875Y-35000D01*
X53875Y-35000D02*
X54550Y-35000D01*
X54550Y-35000D02*
X54750Y-35200D01*
X55772Y-42112D02*
X55182Y-42112D01*
X55020Y-41950D02*
X54750Y-41950D01*
X55182Y-42112D02*
X55020Y-41950D01*
X59612Y-41228D02*
X61056Y-41228D01*
X60556Y-38273D02*
X59612Y-38273D01*
X61260Y-38977D02*
X60556Y-38273D01*
X61260Y-41024D02*
X61260Y-38977D01*
X61056Y-41228D02*
X61260Y-41024D01*
X59700Y-42750D02*
X58903Y-42750D01*
X56560Y-42810D02*
X56560Y-42112D01*
X56378Y-42992D02*
X56560Y-42810D01*
X58903Y-42750D02*
X58740Y-42913D01*
X59612Y-38273D02*
X58666Y-38273D01*
X58666Y-38273D02*
X58346Y-37953D01*
X58346Y-37953D02*
X56614Y-37953D01*
X56614Y-37953D02*
X56561Y-37900D01*
X56561Y-37900D02*
X56561Y-37388D01*
X59700Y-45000D02*
X59700Y-44250D01*
X59700Y-44250D02*
X59700Y-43500D01*
X59700Y-43500D02*
X59700Y-42750D01*
X59700Y-42750D02*
X59685Y-42735D01*
X59685Y-42735D02*
X59685Y-41301D01*
X59685Y-41301D02*
X59612Y-41228D01*
X57151Y-42112D02*
X57151Y-43101D01*
X57151Y-43101D02*
X57250Y-43200D01*
X53500Y-37050D02*
X54137Y-37050D01*
X58137Y-36562D02*
X58137Y-37388D01*
X58110Y-36535D02*
X58137Y-36562D01*
X54137Y-37050D02*
X54331Y-37244D01*
X53500Y-37050D02*
X53500Y-37052D01*
X53152Y-37400D02*
X52500Y-37400D01*
X53500Y-37052D02*
X53152Y-37400D01*
X51500Y-37050D02*
X51538Y-37050D01*
X51888Y-37400D02*
X52500Y-37400D01*
X51538Y-37050D02*
X51888Y-37400D01*
X54888Y-40439D02*
X53989Y-40439D01*
X53989Y-40439D02*
X53800Y-40250D01*
X54750Y-35800D02*
X55650Y-35800D01*
X55650Y-35800D02*
X55750Y-35900D01*
X56750Y-36050D02*
X55900Y-36050D01*
X55900Y-36050D02*
X55750Y-35900D01*
X57152Y-37388D02*
X57152Y-36452D01*
X57152Y-36452D02*
X56750Y-36050D01*
X57743Y-37388D02*
X57743Y-36258D01*
X57743Y-36258D02*
X58110Y-35891D01*
X57879Y-32774D02*
X57879Y-33706D01*
X52819Y-34000D02*
X53125Y-34000D01*
X52520Y-33701D02*
X52819Y-34000D01*
X57879Y-33706D02*
X57953Y-33780D01*
X53875Y-34000D02*
X53875Y-34314D01*
X53125Y-34306D02*
X53125Y-34000D01*
X53307Y-34488D02*
X53125Y-34306D01*
X53701Y-34488D02*
X53307Y-34488D01*
X53875Y-34314D02*
X53701Y-34488D01*
X53200Y-32250D02*
X53200Y-33000D01*
X53200Y-33000D02*
X53125Y-33075D01*
X53125Y-33075D02*
X53125Y-34000D01*
X57349Y-37388D02*
X57349Y-33491D01*
X57250Y-33392D02*
X57250Y-32774D01*
X57349Y-33491D02*
X57250Y-33392D01*
X57546Y-37388D02*
X57546Y-32792D01*
X57546Y-32792D02*
X57564Y-32774D01*
X60750Y-36700D02*
X60750Y-36846D01*
X60750Y-36846D02*
X60273Y-37323D01*
X58531Y-37388D02*
X58531Y-37059D01*
X60273Y-37323D02*
X60700Y-37750D01*
X59370Y-37323D02*
X60273Y-37323D01*
X58897Y-36850D02*
X59370Y-37323D01*
X58740Y-36850D02*
X58897Y-36850D01*
X58531Y-37059D02*
X58740Y-36850D01*
X60700Y-37750D02*
X60663Y-37750D01*
X60663Y-37750D02*
X60700Y-37750D01*
X58334Y-37388D02*
X58334Y-36862D01*
X60750Y-35313D02*
X60750Y-34800D01*
X60315Y-35748D02*
X60750Y-35313D01*
X59292Y-35748D02*
X60315Y-35748D01*
X59055Y-35985D02*
X59292Y-35748D01*
X59055Y-36141D02*
X59055Y-35985D01*
X58334Y-36862D02*
X59055Y-36141D01*
X60700Y-33750D02*
X60700Y-34750D01*
X60700Y-34750D02*
X60750Y-34800D01*
X60750Y-33800D02*
X60700Y-33750D01*
X54296Y-39257D02*
X54888Y-39257D01*
X54094Y-39055D02*
X54296Y-39257D01*
X55984Y-38976D02*
X55827Y-38976D01*
X56614Y-38346D02*
X55984Y-38976D01*
X56757Y-42112D02*
X56757Y-44316D01*
X66142Y-41496D02*
X66142Y-40866D01*
X63464Y-45827D02*
X66142Y-41496D01*
X58268Y-45827D02*
X63464Y-45827D01*
X56757Y-44316D02*
X58268Y-45827D01*
X55773Y-37388D02*
X55211Y-37388D01*
X55211Y-37388D02*
X55197Y-37402D01*
X54888Y-38272D02*
X53784Y-38272D01*
X53071Y-38031D02*
X52677Y-38425D01*
X53543Y-38031D02*
X53071Y-38031D01*
X53784Y-38272D02*
X53543Y-38031D01*
X53342Y-38469D02*
X53307Y-38504D01*
X53342Y-38469D02*
X54888Y-38469D01*
X54888Y-38666D02*
X53853Y-38666D01*
X53543Y-38976D02*
X52520Y-38976D01*
X53853Y-38666D02*
X53543Y-38976D01*
X56954Y-40763D02*
X56954Y-42112D01*
X58504Y-39213D02*
X56954Y-40763D01*
X57348Y-42545D02*
X57348Y-42112D01*
X57874Y-43071D02*
X57348Y-42545D01*
X57874Y-43622D02*
X57874Y-43071D01*
X57910Y-43644D02*
X57874Y-43622D01*
X53200Y-40250D02*
X53200Y-43256D01*
X53200Y-43256D02*
X52126Y-44016D01*
X59041Y-45591D02*
X57250Y-43800D01*
X61180Y-45591D02*
X59041Y-45591D01*
X62835Y-43936D02*
X61180Y-45591D01*
X62835Y-39764D02*
X62835Y-43936D01*
X62835Y-39764D02*
X62835Y-39764D01*
G54D10*
G36*
X59242Y-39553D02*
X59232Y-39579D01*
X59232Y-39621D01*
X59232Y-39704D01*
X59129Y-39704D01*
X58598Y-39698D01*
X58596Y-39698D01*
X58585Y-39698D01*
X58566Y-39701D01*
X58541Y-39704D01*
X58535Y-39706D01*
X58529Y-39708D01*
X58508Y-39721D01*
X58492Y-39730D01*
X58099Y-40044D01*
X58095Y-40047D01*
X58086Y-40054D01*
X58072Y-40074D01*
X58062Y-40087D01*
X58059Y-40095D01*
X58055Y-40102D01*
X58052Y-40117D01*
X58044Y-40141D01*
X58045Y-40151D01*
X58044Y-40157D01*
X58044Y-40963D01*
X57442Y-41565D01*
X57411Y-41612D01*
X57399Y-41668D01*
X57400Y-41672D01*
X57400Y-41732D01*
X57379Y-41732D01*
X57275Y-41732D01*
X57249Y-41742D01*
X57224Y-41732D01*
X57182Y-41732D01*
X57099Y-41732D01*
X57099Y-40824D01*
X58435Y-39487D01*
X58448Y-39493D01*
X58559Y-39493D01*
X58662Y-39451D01*
X58741Y-39372D01*
X58784Y-39269D01*
X58784Y-39158D01*
X58742Y-39055D01*
X58663Y-38976D01*
X58560Y-38933D01*
X58449Y-38933D01*
X58346Y-38975D01*
X58267Y-39054D01*
X58224Y-39157D01*
X58224Y-39268D01*
X58229Y-39281D01*
X56851Y-40660D01*
X56820Y-40707D01*
X56808Y-40763D01*
X56809Y-40767D01*
X56809Y-41732D01*
X56788Y-41732D01*
X56684Y-41732D01*
X56658Y-41742D01*
X56633Y-41732D01*
X56591Y-41732D01*
X56487Y-41732D01*
X56461Y-41742D01*
X56436Y-41732D01*
X56394Y-41732D01*
X56290Y-41732D01*
X56289Y-41731D01*
X56243Y-41712D01*
X56222Y-41712D01*
X56191Y-41743D01*
X56191Y-42062D01*
X56191Y-42087D01*
X56191Y-42137D01*
X56191Y-42162D01*
X56191Y-42481D01*
X56222Y-42512D01*
X56243Y-42512D01*
X56289Y-42493D01*
X56290Y-42492D01*
X56332Y-42492D01*
X56415Y-42492D01*
X56415Y-42712D01*
X56323Y-42712D01*
X56220Y-42754D01*
X56141Y-42833D01*
X56141Y-42481D01*
X56141Y-42162D01*
X56141Y-42137D01*
X56141Y-42087D01*
X56141Y-42062D01*
X56141Y-41743D01*
X56110Y-41712D01*
X56089Y-41712D01*
X56043Y-41731D01*
X56042Y-41732D01*
X56000Y-41732D01*
X55896Y-41732D01*
X55870Y-41742D01*
X55845Y-41732D01*
X55803Y-41732D01*
X55699Y-41732D01*
X55660Y-41748D01*
X55631Y-41778D01*
X55615Y-41816D01*
X55615Y-41858D01*
X55615Y-41967D01*
X55242Y-41967D01*
X55123Y-41847D01*
X55080Y-41819D01*
X55080Y-41818D01*
X55080Y-41804D01*
X55064Y-41765D01*
X55034Y-41736D01*
X54996Y-41720D01*
X54954Y-41720D01*
X54504Y-41720D01*
X54465Y-41736D01*
X54436Y-41766D01*
X54420Y-41804D01*
X54420Y-41846D01*
X54420Y-42096D01*
X54436Y-42135D01*
X54466Y-42164D01*
X54504Y-42180D01*
X54546Y-42180D01*
X54996Y-42180D01*
X55030Y-42165D01*
X55077Y-42212D01*
X55079Y-42215D01*
X55107Y-42233D01*
X55126Y-42246D01*
X55127Y-42246D01*
X55182Y-42258D01*
X55182Y-42257D01*
X55186Y-42257D01*
X55615Y-42257D01*
X55615Y-42408D01*
X55631Y-42447D01*
X55661Y-42476D01*
X55699Y-42492D01*
X55741Y-42492D01*
X55824Y-42492D01*
X55824Y-42680D01*
X55669Y-42754D01*
X55568Y-42712D01*
X55457Y-42712D01*
X55354Y-42754D01*
X55275Y-42833D01*
X55232Y-42936D01*
X55232Y-43047D01*
X55274Y-43150D01*
X55353Y-43229D01*
X55456Y-43272D01*
X55567Y-43272D01*
X55670Y-43230D01*
X55749Y-43151D01*
X55792Y-43048D01*
X55792Y-43018D01*
X56024Y-42905D01*
X56032Y-42902D01*
X56049Y-42888D01*
X56072Y-42874D01*
X56075Y-42868D01*
X56076Y-42868D01*
X56078Y-42864D01*
X56103Y-42826D01*
X56103Y-42822D01*
X56106Y-42819D01*
X56108Y-42797D01*
X56114Y-42771D01*
X56114Y-42508D01*
X56141Y-42481D01*
X56141Y-42833D01*
X56098Y-42936D01*
X56098Y-43047D01*
X56140Y-43150D01*
X56219Y-43229D01*
X56322Y-43272D01*
X56433Y-43272D01*
X56536Y-43230D01*
X56612Y-43154D01*
X56612Y-43808D01*
X56401Y-43597D01*
X56354Y-43566D01*
X56330Y-43561D01*
X56330Y-43560D01*
X56330Y-43554D01*
X56314Y-43515D01*
X56284Y-43486D01*
X56246Y-43470D01*
X56204Y-43470D01*
X55754Y-43470D01*
X55715Y-43486D01*
X55686Y-43516D01*
X55670Y-43554D01*
X55670Y-43555D01*
X55580Y-43555D01*
X55580Y-43554D01*
X55564Y-43515D01*
X55534Y-43486D01*
X55496Y-43470D01*
X55454Y-43470D01*
X55004Y-43470D01*
X54965Y-43486D01*
X54936Y-43516D01*
X54920Y-43554D01*
X54920Y-43555D01*
X54830Y-43555D01*
X54830Y-43554D01*
X54814Y-43515D01*
X54784Y-43486D01*
X54746Y-43470D01*
X54704Y-43470D01*
X54254Y-43470D01*
X54215Y-43486D01*
X54186Y-43516D01*
X54170Y-43554D01*
X54170Y-43555D01*
X54080Y-43555D01*
X54080Y-43554D01*
X54064Y-43515D01*
X54034Y-43486D01*
X53996Y-43470D01*
X53954Y-43470D01*
X53898Y-43470D01*
X53910Y-42732D01*
X53935Y-42757D01*
X54038Y-42800D01*
X54149Y-42800D01*
X54252Y-42758D01*
X54315Y-42695D01*
X54420Y-42695D01*
X54420Y-42696D01*
X54436Y-42735D01*
X54466Y-42764D01*
X54504Y-42780D01*
X54546Y-42780D01*
X54996Y-42780D01*
X55035Y-42764D01*
X55064Y-42734D01*
X55080Y-42696D01*
X55080Y-42654D01*
X55080Y-42404D01*
X55064Y-42365D01*
X55034Y-42336D01*
X54996Y-42320D01*
X54954Y-42320D01*
X54504Y-42320D01*
X54465Y-42336D01*
X54436Y-42366D01*
X54420Y-42404D01*
X54420Y-42405D01*
X54349Y-42405D01*
X54332Y-42362D01*
X54253Y-42283D01*
X54150Y-42240D01*
X54039Y-42240D01*
X53936Y-42282D01*
X53916Y-42301D01*
X53922Y-41899D01*
X53925Y-41890D01*
X53913Y-41837D01*
X53913Y-41834D01*
X53883Y-41789D01*
X53882Y-41787D01*
X53817Y-41722D01*
X53823Y-41710D01*
X53823Y-41599D01*
X53822Y-41598D01*
X54300Y-41175D01*
X54508Y-41175D01*
X54508Y-41196D01*
X54508Y-41300D01*
X54524Y-41339D01*
X54554Y-41368D01*
X54592Y-41384D01*
X54634Y-41384D01*
X55184Y-41384D01*
X55223Y-41368D01*
X55252Y-41338D01*
X55268Y-41300D01*
X55268Y-41258D01*
X55268Y-41175D01*
X55269Y-41176D01*
X55269Y-41175D01*
X55324Y-41164D01*
X55325Y-41164D01*
X55372Y-41133D01*
X55533Y-40970D01*
X55535Y-40969D01*
X55536Y-40969D01*
X55559Y-40933D01*
X55566Y-40923D01*
X55566Y-40922D01*
X55567Y-40921D01*
X55575Y-40881D01*
X55578Y-40867D01*
X55577Y-40866D01*
X55578Y-40866D01*
X55578Y-39107D01*
X55589Y-39134D01*
X55668Y-39213D01*
X55771Y-39256D01*
X55882Y-39256D01*
X55985Y-39214D01*
X56064Y-39135D01*
X56087Y-39079D01*
X56087Y-39078D01*
X56088Y-39077D01*
X56544Y-38620D01*
X56558Y-38626D01*
X56669Y-38626D01*
X56772Y-38584D01*
X56851Y-38505D01*
X56894Y-38402D01*
X56894Y-38291D01*
X56852Y-38188D01*
X56773Y-38109D01*
X56746Y-38098D01*
X58285Y-38098D01*
X58561Y-38373D01*
X58563Y-38376D01*
X58610Y-38406D01*
X58611Y-38407D01*
X58666Y-38418D01*
X59232Y-38418D01*
X59232Y-38439D01*
X59232Y-38543D01*
X59242Y-38568D01*
X59232Y-38594D01*
X59232Y-38636D01*
X59232Y-38740D01*
X59242Y-38765D01*
X59232Y-38791D01*
X59232Y-38833D01*
X59232Y-38937D01*
X59242Y-38962D01*
X59232Y-38988D01*
X59232Y-39030D01*
X59232Y-39134D01*
X59242Y-39159D01*
X59232Y-39185D01*
X59232Y-39227D01*
X59232Y-39331D01*
X59242Y-39356D01*
X59232Y-39382D01*
X59232Y-39424D01*
X59232Y-39528D01*
X59242Y-39553D01*
X59242Y-39553D01*
G37*
G54D27*
X59242Y-39553D02*
X59232Y-39579D01*
X59232Y-39621D01*
X59232Y-39704D01*
X59129Y-39704D01*
X58598Y-39698D01*
X58596Y-39698D01*
X58585Y-39698D01*
X58566Y-39701D01*
X58541Y-39704D01*
X58535Y-39706D01*
X58529Y-39708D01*
X58508Y-39721D01*
X58492Y-39730D01*
X58099Y-40044D01*
X58095Y-40047D01*
X58086Y-40054D01*
X58072Y-40074D01*
X58062Y-40087D01*
X58059Y-40095D01*
X58055Y-40102D01*
X58052Y-40117D01*
X58044Y-40141D01*
X58045Y-40151D01*
X58044Y-40157D01*
X58044Y-40963D01*
X57442Y-41565D01*
X57411Y-41612D01*
X57399Y-41668D01*
X57400Y-41672D01*
X57400Y-41732D01*
X57379Y-41732D01*
X57275Y-41732D01*
X57249Y-41742D01*
X57224Y-41732D01*
X57182Y-41732D01*
X57099Y-41732D01*
X57099Y-40824D01*
X58435Y-39487D01*
X58448Y-39493D01*
X58559Y-39493D01*
X58662Y-39451D01*
X58741Y-39372D01*
X58784Y-39269D01*
X58784Y-39158D01*
X58742Y-39055D01*
X58663Y-38976D01*
X58560Y-38933D01*
X58449Y-38933D01*
X58346Y-38975D01*
X58267Y-39054D01*
X58224Y-39157D01*
X58224Y-39268D01*
X58229Y-39281D01*
X56851Y-40660D01*
X56820Y-40707D01*
X56808Y-40763D01*
X56809Y-40767D01*
X56809Y-41732D01*
X56788Y-41732D01*
X56684Y-41732D01*
X56658Y-41742D01*
X56633Y-41732D01*
X56591Y-41732D01*
X56487Y-41732D01*
X56461Y-41742D01*
X56436Y-41732D01*
X56394Y-41732D01*
X56290Y-41732D01*
X56289Y-41731D01*
X56243Y-41712D01*
X56222Y-41712D01*
X56191Y-41743D01*
X56191Y-42062D01*
X56191Y-42087D01*
X56191Y-42137D01*
X56191Y-42162D01*
X56191Y-42481D01*
X56222Y-42512D01*
X56243Y-42512D01*
X56289Y-42493D01*
X56290Y-42492D01*
X56332Y-42492D01*
X56415Y-42492D01*
X56415Y-42712D01*
X56323Y-42712D01*
X56220Y-42754D01*
X56141Y-42833D01*
X56141Y-42481D01*
X56141Y-42162D01*
X56141Y-42137D01*
X56141Y-42087D01*
X56141Y-42062D01*
X56141Y-41743D01*
X56110Y-41712D01*
X56089Y-41712D01*
X56043Y-41731D01*
X56042Y-41732D01*
X56000Y-41732D01*
X55896Y-41732D01*
X55870Y-41742D01*
X55845Y-41732D01*
X55803Y-41732D01*
X55699Y-41732D01*
X55660Y-41748D01*
X55631Y-41778D01*
X55615Y-41816D01*
X55615Y-41858D01*
X55615Y-41967D01*
X55242Y-41967D01*
X55123Y-41847D01*
X55080Y-41819D01*
X55080Y-41818D01*
X55080Y-41804D01*
X55064Y-41765D01*
X55034Y-41736D01*
X54996Y-41720D01*
X54954Y-41720D01*
X54504Y-41720D01*
X54465Y-41736D01*
X54436Y-41766D01*
X54420Y-41804D01*
X54420Y-41846D01*
X54420Y-42096D01*
X54436Y-42135D01*
X54466Y-42164D01*
X54504Y-42180D01*
X54546Y-42180D01*
X54996Y-42180D01*
X55030Y-42165D01*
X55077Y-42212D01*
X55079Y-42215D01*
X55107Y-42233D01*
X55126Y-42246D01*
X55127Y-42246D01*
X55182Y-42258D01*
X55182Y-42257D01*
X55186Y-42257D01*
X55615Y-42257D01*
X55615Y-42408D01*
X55631Y-42447D01*
X55661Y-42476D01*
X55699Y-42492D01*
X55741Y-42492D01*
X55824Y-42492D01*
X55824Y-42680D01*
X55669Y-42754D01*
X55568Y-42712D01*
X55457Y-42712D01*
X55354Y-42754D01*
X55275Y-42833D01*
X55232Y-42936D01*
X55232Y-43047D01*
X55274Y-43150D01*
X55353Y-43229D01*
X55456Y-43272D01*
X55567Y-43272D01*
X55670Y-43230D01*
X55749Y-43151D01*
X55792Y-43048D01*
X55792Y-43018D01*
X56024Y-42905D01*
X56032Y-42902D01*
X56049Y-42888D01*
X56072Y-42874D01*
X56075Y-42868D01*
X56076Y-42868D01*
X56078Y-42864D01*
X56103Y-42826D01*
X56103Y-42822D01*
X56106Y-42819D01*
X56108Y-42797D01*
X56114Y-42771D01*
X56114Y-42508D01*
X56141Y-42481D01*
X56141Y-42833D01*
X56098Y-42936D01*
X56098Y-43047D01*
X56140Y-43150D01*
X56219Y-43229D01*
X56322Y-43272D01*
X56433Y-43272D01*
X56536Y-43230D01*
X56612Y-43154D01*
X56612Y-43808D01*
X56401Y-43597D01*
X56354Y-43566D01*
X56330Y-43561D01*
X56330Y-43560D01*
X56330Y-43554D01*
X56314Y-43515D01*
X56284Y-43486D01*
X56246Y-43470D01*
X56204Y-43470D01*
X55754Y-43470D01*
X55715Y-43486D01*
X55686Y-43516D01*
X55670Y-43554D01*
X55670Y-43555D01*
X55580Y-43555D01*
X55580Y-43554D01*
X55564Y-43515D01*
X55534Y-43486D01*
X55496Y-43470D01*
X55454Y-43470D01*
X55004Y-43470D01*
X54965Y-43486D01*
X54936Y-43516D01*
X54920Y-43554D01*
X54920Y-43555D01*
X54830Y-43555D01*
X54830Y-43554D01*
X54814Y-43515D01*
X54784Y-43486D01*
X54746Y-43470D01*
X54704Y-43470D01*
X54254Y-43470D01*
X54215Y-43486D01*
X54186Y-43516D01*
X54170Y-43554D01*
X54170Y-43555D01*
X54080Y-43555D01*
X54080Y-43554D01*
X54064Y-43515D01*
X54034Y-43486D01*
X53996Y-43470D01*
X53954Y-43470D01*
X53898Y-43470D01*
X53910Y-42732D01*
X53935Y-42757D01*
X54038Y-42800D01*
X54149Y-42800D01*
X54252Y-42758D01*
X54315Y-42695D01*
X54420Y-42695D01*
X54420Y-42696D01*
X54436Y-42735D01*
X54466Y-42764D01*
X54504Y-42780D01*
X54546Y-42780D01*
X54996Y-42780D01*
X55035Y-42764D01*
X55064Y-42734D01*
X55080Y-42696D01*
X55080Y-42654D01*
X55080Y-42404D01*
X55064Y-42365D01*
X55034Y-42336D01*
X54996Y-42320D01*
X54954Y-42320D01*
X54504Y-42320D01*
X54465Y-42336D01*
X54436Y-42366D01*
X54420Y-42404D01*
X54420Y-42405D01*
X54349Y-42405D01*
X54332Y-42362D01*
X54253Y-42283D01*
X54150Y-42240D01*
X54039Y-42240D01*
X53936Y-42282D01*
X53916Y-42301D01*
X53922Y-41899D01*
X53925Y-41890D01*
X53913Y-41837D01*
X53913Y-41834D01*
X53883Y-41789D01*
X53882Y-41787D01*
X53817Y-41722D01*
X53823Y-41710D01*
X53823Y-41599D01*
X53822Y-41598D01*
X54300Y-41175D01*
X54508Y-41175D01*
X54508Y-41196D01*
X54508Y-41300D01*
X54524Y-41339D01*
X54554Y-41368D01*
X54592Y-41384D01*
X54634Y-41384D01*
X55184Y-41384D01*
X55223Y-41368D01*
X55252Y-41338D01*
X55268Y-41300D01*
X55268Y-41258D01*
X55268Y-41175D01*
X55269Y-41176D01*
X55269Y-41175D01*
X55324Y-41164D01*
X55325Y-41164D01*
X55372Y-41133D01*
X55533Y-40970D01*
X55535Y-40969D01*
X55536Y-40969D01*
X55559Y-40933D01*
X55566Y-40923D01*
X55566Y-40922D01*
X55567Y-40921D01*
X55575Y-40881D01*
X55578Y-40867D01*
X55577Y-40866D01*
X55578Y-40866D01*
X55578Y-39107D01*
X55589Y-39134D01*
X55668Y-39213D01*
X55771Y-39256D01*
X55882Y-39256D01*
X55985Y-39214D01*
X56064Y-39135D01*
X56087Y-39079D01*
X56087Y-39078D01*
X56088Y-39077D01*
X56544Y-38620D01*
X56558Y-38626D01*
X56669Y-38626D01*
X56772Y-38584D01*
X56851Y-38505D01*
X56894Y-38402D01*
X56894Y-38291D01*
X56852Y-38188D01*
X56773Y-38109D01*
X56746Y-38098D01*
X58285Y-38098D01*
X58561Y-38373D01*
X58563Y-38376D01*
X58610Y-38406D01*
X58611Y-38407D01*
X58666Y-38418D01*
X59232Y-38418D01*
X59232Y-38439D01*
X59232Y-38543D01*
X59242Y-38568D01*
X59232Y-38594D01*
X59232Y-38636D01*
X59232Y-38740D01*
X59242Y-38765D01*
X59232Y-38791D01*
X59232Y-38833D01*
X59232Y-38937D01*
X59242Y-38962D01*
X59232Y-38988D01*
X59232Y-39030D01*
X59232Y-39134D01*
X59242Y-39159D01*
X59232Y-39185D01*
X59232Y-39227D01*
X59232Y-39331D01*
X59242Y-39356D01*
X59232Y-39382D01*
X59232Y-39424D01*
X59232Y-39528D01*
X59242Y-39553D01*
G54D10*
G36*
X61115Y-40963D02*
X60995Y-41083D01*
X60830Y-41083D01*
X60830Y-41054D01*
X60830Y-40804D01*
X60814Y-40765D01*
X60784Y-40736D01*
X60746Y-40720D01*
X60704Y-40720D01*
X60254Y-40720D01*
X60215Y-40736D01*
X60186Y-40766D01*
X60170Y-40804D01*
X60170Y-40846D01*
X60170Y-40886D01*
X60008Y-40886D01*
X59981Y-40859D01*
X59662Y-40859D01*
X59637Y-40859D01*
X59587Y-40859D01*
X59562Y-40859D01*
X59243Y-40859D01*
X59216Y-40886D01*
X58334Y-40886D01*
X58334Y-40226D01*
X58633Y-39988D01*
X59126Y-39994D01*
X59127Y-39993D01*
X59128Y-39994D01*
X59232Y-39994D01*
X59232Y-40015D01*
X59232Y-40119D01*
X59242Y-40144D01*
X59232Y-40170D01*
X59232Y-40212D01*
X59232Y-40316D01*
X59242Y-40341D01*
X59232Y-40367D01*
X59232Y-40409D01*
X59232Y-40513D01*
X59242Y-40538D01*
X59232Y-40564D01*
X59232Y-40606D01*
X59232Y-40710D01*
X59231Y-40711D01*
X59212Y-40757D01*
X59212Y-40778D01*
X59243Y-40809D01*
X59562Y-40809D01*
X59587Y-40809D01*
X59637Y-40809D01*
X59662Y-40809D01*
X59981Y-40809D01*
X60012Y-40778D01*
X60012Y-40757D01*
X59993Y-40711D01*
X59992Y-40710D01*
X59992Y-40668D01*
X59992Y-40564D01*
X59981Y-40538D01*
X59992Y-40513D01*
X59992Y-40471D01*
X59992Y-40367D01*
X59981Y-40341D01*
X59992Y-40316D01*
X59992Y-40274D01*
X59992Y-40170D01*
X59981Y-40144D01*
X59992Y-40119D01*
X59992Y-40077D01*
X59992Y-39994D01*
X60284Y-39994D01*
X60284Y-40342D01*
X60300Y-40381D01*
X60330Y-40410D01*
X60368Y-40426D01*
X60410Y-40426D01*
X61010Y-40426D01*
X61049Y-40410D01*
X61078Y-40380D01*
X61094Y-40342D01*
X61094Y-40300D01*
X61094Y-39500D01*
X61078Y-39461D01*
X61048Y-39432D01*
X61010Y-39416D01*
X60968Y-39416D01*
X60368Y-39416D01*
X60329Y-39432D01*
X60300Y-39462D01*
X60284Y-39500D01*
X60284Y-39542D01*
X60284Y-39704D01*
X59992Y-39704D01*
X59992Y-39683D01*
X59992Y-39579D01*
X59981Y-39553D01*
X59992Y-39528D01*
X59992Y-39486D01*
X59992Y-39382D01*
X59981Y-39356D01*
X59992Y-39331D01*
X59992Y-39289D01*
X59992Y-39185D01*
X59981Y-39159D01*
X59992Y-39134D01*
X59992Y-39092D01*
X59992Y-38988D01*
X59981Y-38962D01*
X59992Y-38937D01*
X59992Y-38895D01*
X59992Y-38791D01*
X59981Y-38765D01*
X59992Y-38740D01*
X59992Y-38698D01*
X59992Y-38594D01*
X59981Y-38568D01*
X59992Y-38543D01*
X59992Y-38501D01*
X59992Y-38418D01*
X60495Y-38418D01*
X61115Y-39037D01*
X61115Y-40963D01*
X61115Y-40963D01*
G37*
G54D27*
X61115Y-40963D02*
X60995Y-41083D01*
X60830Y-41083D01*
X60830Y-41054D01*
X60830Y-40804D01*
X60814Y-40765D01*
X60784Y-40736D01*
X60746Y-40720D01*
X60704Y-40720D01*
X60254Y-40720D01*
X60215Y-40736D01*
X60186Y-40766D01*
X60170Y-40804D01*
X60170Y-40846D01*
X60170Y-40886D01*
X60008Y-40886D01*
X59981Y-40859D01*
X59662Y-40859D01*
X59637Y-40859D01*
X59587Y-40859D01*
X59562Y-40859D01*
X59243Y-40859D01*
X59216Y-40886D01*
X58334Y-40886D01*
X58334Y-40226D01*
X58633Y-39988D01*
X59126Y-39994D01*
X59127Y-39993D01*
X59128Y-39994D01*
X59232Y-39994D01*
X59232Y-40015D01*
X59232Y-40119D01*
X59242Y-40144D01*
X59232Y-40170D01*
X59232Y-40212D01*
X59232Y-40316D01*
X59242Y-40341D01*
X59232Y-40367D01*
X59232Y-40409D01*
X59232Y-40513D01*
X59242Y-40538D01*
X59232Y-40564D01*
X59232Y-40606D01*
X59232Y-40710D01*
X59231Y-40711D01*
X59212Y-40757D01*
X59212Y-40778D01*
X59243Y-40809D01*
X59562Y-40809D01*
X59587Y-40809D01*
X59637Y-40809D01*
X59662Y-40809D01*
X59981Y-40809D01*
X60012Y-40778D01*
X60012Y-40757D01*
X59993Y-40711D01*
X59992Y-40710D01*
X59992Y-40668D01*
X59992Y-40564D01*
X59981Y-40538D01*
X59992Y-40513D01*
X59992Y-40471D01*
X59992Y-40367D01*
X59981Y-40341D01*
X59992Y-40316D01*
X59992Y-40274D01*
X59992Y-40170D01*
X59981Y-40144D01*
X59992Y-40119D01*
X59992Y-40077D01*
X59992Y-39994D01*
X60284Y-39994D01*
X60284Y-40342D01*
X60300Y-40381D01*
X60330Y-40410D01*
X60368Y-40426D01*
X60410Y-40426D01*
X61010Y-40426D01*
X61049Y-40410D01*
X61078Y-40380D01*
X61094Y-40342D01*
X61094Y-40300D01*
X61094Y-39500D01*
X61078Y-39461D01*
X61048Y-39432D01*
X61010Y-39416D01*
X60968Y-39416D01*
X60368Y-39416D01*
X60329Y-39432D01*
X60300Y-39462D01*
X60284Y-39500D01*
X60284Y-39542D01*
X60284Y-39704D01*
X59992Y-39704D01*
X59992Y-39683D01*
X59992Y-39579D01*
X59981Y-39553D01*
X59992Y-39528D01*
X59992Y-39486D01*
X59992Y-39382D01*
X59981Y-39356D01*
X59992Y-39331D01*
X59992Y-39289D01*
X59992Y-39185D01*
X59981Y-39159D01*
X59992Y-39134D01*
X59992Y-39092D01*
X59992Y-38988D01*
X59981Y-38962D01*
X59992Y-38937D01*
X59992Y-38895D01*
X59992Y-38791D01*
X59981Y-38765D01*
X59992Y-38740D01*
X59992Y-38698D01*
X59992Y-38594D01*
X59981Y-38568D01*
X59992Y-38543D01*
X59992Y-38501D01*
X59992Y-38418D01*
X60495Y-38418D01*
X61115Y-39037D01*
X61115Y-40963D01*
G54D10*
G36*
X68814Y-39686D02*
X66422Y-43863D01*
X66422Y-40922D01*
X66422Y-40811D01*
X66380Y-40708D01*
X66301Y-40629D01*
X66198Y-40586D01*
X66087Y-40586D01*
X65984Y-40628D01*
X65905Y-40707D01*
X65862Y-40810D01*
X65862Y-40921D01*
X65904Y-41024D01*
X65983Y-41103D01*
X65997Y-41108D01*
X65997Y-41448D01*
X63383Y-45682D01*
X61294Y-45682D01*
X62935Y-44040D01*
X62937Y-44039D01*
X62938Y-44039D01*
X62968Y-43992D01*
X62969Y-43991D01*
X62980Y-43936D01*
X62980Y-40007D01*
X62993Y-40002D01*
X63072Y-39923D01*
X63115Y-39820D01*
X63115Y-39709D01*
X63073Y-39606D01*
X62994Y-39527D01*
X62891Y-39484D01*
X62780Y-39484D01*
X62677Y-39526D01*
X62598Y-39605D01*
X62555Y-39708D01*
X62555Y-39819D01*
X62597Y-39922D01*
X62676Y-40001D01*
X62690Y-40006D01*
X62690Y-43875D01*
X62414Y-44151D01*
X62414Y-40346D01*
X62414Y-40296D01*
X62414Y-39977D01*
X62414Y-39865D01*
X62414Y-39546D01*
X62414Y-39496D01*
X62395Y-39450D01*
X62360Y-39415D01*
X62314Y-39396D01*
X62045Y-39396D01*
X62014Y-39427D01*
X62014Y-39896D01*
X62383Y-39896D01*
X62414Y-39865D01*
X62414Y-39977D01*
X62383Y-39946D01*
X62014Y-39946D01*
X62014Y-40415D01*
X62045Y-40446D01*
X62314Y-40446D01*
X62360Y-40427D01*
X62395Y-40392D01*
X62414Y-40346D01*
X62414Y-44151D01*
X61964Y-44601D01*
X61964Y-40415D01*
X61964Y-39946D01*
X61964Y-39896D01*
X61964Y-39427D01*
X61933Y-39396D01*
X61664Y-39396D01*
X61618Y-39415D01*
X61583Y-39450D01*
X61564Y-39496D01*
X61564Y-39546D01*
X61564Y-39865D01*
X61595Y-39896D01*
X61964Y-39896D01*
X61964Y-39946D01*
X61595Y-39946D01*
X61564Y-39977D01*
X61564Y-40296D01*
X61564Y-40346D01*
X61583Y-40392D01*
X61618Y-40427D01*
X61664Y-40446D01*
X61933Y-40446D01*
X61964Y-40415D01*
X61964Y-44601D01*
X61550Y-45015D01*
X61550Y-38000D01*
X61550Y-37950D01*
X61550Y-37806D01*
X61550Y-37694D01*
X61550Y-37550D01*
X61550Y-37500D01*
X61550Y-34000D01*
X61550Y-33950D01*
X61550Y-33806D01*
X61550Y-33694D01*
X61550Y-33550D01*
X61550Y-33500D01*
X61531Y-33454D01*
X61496Y-33419D01*
X61450Y-33400D01*
X61356Y-33400D01*
X61325Y-33431D01*
X61325Y-33725D01*
X61519Y-33725D01*
X61550Y-33694D01*
X61550Y-33806D01*
X61519Y-33775D01*
X61325Y-33775D01*
X61325Y-34069D01*
X61356Y-34100D01*
X61450Y-34100D01*
X61496Y-34081D01*
X61531Y-34046D01*
X61550Y-34000D01*
X61550Y-37500D01*
X61531Y-37454D01*
X61496Y-37419D01*
X61450Y-37400D01*
X61356Y-37400D01*
X61325Y-37431D01*
X61325Y-37725D01*
X61519Y-37725D01*
X61550Y-37694D01*
X61550Y-37806D01*
X61519Y-37775D01*
X61325Y-37775D01*
X61325Y-38069D01*
X61356Y-38100D01*
X61450Y-38100D01*
X61496Y-38081D01*
X61531Y-38046D01*
X61550Y-38000D01*
X61550Y-45015D01*
X61119Y-45446D01*
X60850Y-45446D01*
X60850Y-41700D01*
X60850Y-41606D01*
X60819Y-41575D01*
X60525Y-41575D01*
X60525Y-41769D01*
X60556Y-41800D01*
X60700Y-41800D01*
X60750Y-41800D01*
X60796Y-41781D01*
X60831Y-41746D01*
X60850Y-41700D01*
X60850Y-45446D01*
X60550Y-45446D01*
X60550Y-45250D01*
X60550Y-45200D01*
X60550Y-45056D01*
X60550Y-44944D01*
X60550Y-44800D01*
X60550Y-44750D01*
X60550Y-44500D01*
X60550Y-44450D01*
X60550Y-44306D01*
X60550Y-44194D01*
X60550Y-44050D01*
X60550Y-44000D01*
X60550Y-43750D01*
X60550Y-43700D01*
X60550Y-43556D01*
X60550Y-43444D01*
X60550Y-43300D01*
X60550Y-43250D01*
X60550Y-43000D01*
X60550Y-42950D01*
X60550Y-42806D01*
X60550Y-42694D01*
X60550Y-42550D01*
X60550Y-42500D01*
X60531Y-42454D01*
X60496Y-42419D01*
X60475Y-42410D01*
X60475Y-41769D01*
X60475Y-41575D01*
X60181Y-41575D01*
X60150Y-41606D01*
X60150Y-41700D01*
X60169Y-41746D01*
X60204Y-41781D01*
X60250Y-41800D01*
X60300Y-41800D01*
X60444Y-41800D01*
X60475Y-41769D01*
X60475Y-42410D01*
X60450Y-42400D01*
X60356Y-42400D01*
X60325Y-42431D01*
X60325Y-42725D01*
X60519Y-42725D01*
X60550Y-42694D01*
X60550Y-42806D01*
X60519Y-42775D01*
X60325Y-42775D01*
X60325Y-43069D01*
X60356Y-43100D01*
X60450Y-43100D01*
X60496Y-43081D01*
X60531Y-43046D01*
X60550Y-43000D01*
X60550Y-43250D01*
X60531Y-43204D01*
X60496Y-43169D01*
X60450Y-43150D01*
X60356Y-43150D01*
X60325Y-43181D01*
X60325Y-43475D01*
X60519Y-43475D01*
X60550Y-43444D01*
X60550Y-43556D01*
X60519Y-43525D01*
X60325Y-43525D01*
X60325Y-43819D01*
X60356Y-43850D01*
X60450Y-43850D01*
X60496Y-43831D01*
X60531Y-43796D01*
X60550Y-43750D01*
X60550Y-44000D01*
X60531Y-43954D01*
X60496Y-43919D01*
X60450Y-43900D01*
X60356Y-43900D01*
X60325Y-43931D01*
X60325Y-44225D01*
X60519Y-44225D01*
X60550Y-44194D01*
X60550Y-44306D01*
X60519Y-44275D01*
X60325Y-44275D01*
X60325Y-44569D01*
X60356Y-44600D01*
X60450Y-44600D01*
X60496Y-44581D01*
X60531Y-44546D01*
X60550Y-44500D01*
X60550Y-44750D01*
X60531Y-44704D01*
X60496Y-44669D01*
X60450Y-44650D01*
X60356Y-44650D01*
X60325Y-44681D01*
X60325Y-44975D01*
X60519Y-44975D01*
X60550Y-44944D01*
X60550Y-45056D01*
X60519Y-45025D01*
X60325Y-45025D01*
X60325Y-45319D01*
X60356Y-45350D01*
X60450Y-45350D01*
X60496Y-45331D01*
X60531Y-45296D01*
X60550Y-45250D01*
X60550Y-45446D01*
X60275Y-45446D01*
X60275Y-45319D01*
X60275Y-45025D01*
X60275Y-44975D01*
X60275Y-44681D01*
X60275Y-44569D01*
X60275Y-44275D01*
X60275Y-44225D01*
X60275Y-43931D01*
X60275Y-43819D01*
X60275Y-43525D01*
X60275Y-43475D01*
X60275Y-43181D01*
X60275Y-43069D01*
X60275Y-42775D01*
X60275Y-42725D01*
X60275Y-42431D01*
X60244Y-42400D01*
X60150Y-42400D01*
X60104Y-42419D01*
X60069Y-42454D01*
X60050Y-42500D01*
X60050Y-42550D01*
X60050Y-42694D01*
X60081Y-42725D01*
X60275Y-42725D01*
X60275Y-42775D01*
X60081Y-42775D01*
X60050Y-42806D01*
X60050Y-42950D01*
X60050Y-43000D01*
X60069Y-43046D01*
X60104Y-43081D01*
X60150Y-43100D01*
X60244Y-43100D01*
X60275Y-43069D01*
X60275Y-43181D01*
X60244Y-43150D01*
X60150Y-43150D01*
X60104Y-43169D01*
X60069Y-43204D01*
X60050Y-43250D01*
X60050Y-43300D01*
X60050Y-43444D01*
X60081Y-43475D01*
X60275Y-43475D01*
X60275Y-43525D01*
X60081Y-43525D01*
X60050Y-43556D01*
X60050Y-43700D01*
X60050Y-43750D01*
X60069Y-43796D01*
X60104Y-43831D01*
X60150Y-43850D01*
X60244Y-43850D01*
X60275Y-43819D01*
X60275Y-43931D01*
X60244Y-43900D01*
X60150Y-43900D01*
X60104Y-43919D01*
X60069Y-43954D01*
X60050Y-44000D01*
X60050Y-44050D01*
X60050Y-44194D01*
X60081Y-44225D01*
X60275Y-44225D01*
X60275Y-44275D01*
X60081Y-44275D01*
X60050Y-44306D01*
X60050Y-44450D01*
X60050Y-44500D01*
X60069Y-44546D01*
X60104Y-44581D01*
X60150Y-44600D01*
X60244Y-44600D01*
X60275Y-44569D01*
X60275Y-44681D01*
X60244Y-44650D01*
X60150Y-44650D01*
X60104Y-44669D01*
X60069Y-44704D01*
X60050Y-44750D01*
X60050Y-44800D01*
X60050Y-44944D01*
X60081Y-44975D01*
X60275Y-44975D01*
X60275Y-45025D01*
X60081Y-45025D01*
X60050Y-45056D01*
X60050Y-45200D01*
X60050Y-45250D01*
X60069Y-45296D01*
X60104Y-45331D01*
X60150Y-45350D01*
X60244Y-45350D01*
X60275Y-45319D01*
X60275Y-45446D01*
X59101Y-45446D01*
X58326Y-44671D01*
X58369Y-44689D01*
X58480Y-44689D01*
X58583Y-44647D01*
X58662Y-44568D01*
X58705Y-44465D01*
X58705Y-44354D01*
X58663Y-44251D01*
X58584Y-44172D01*
X58570Y-44166D01*
X58570Y-43386D01*
X58559Y-43331D01*
X58558Y-43330D01*
X58528Y-43283D01*
X58525Y-43281D01*
X57736Y-42492D01*
X57815Y-42492D01*
X57840Y-42481D01*
X57866Y-42492D01*
X57908Y-42492D01*
X58012Y-42492D01*
X58037Y-42481D01*
X58063Y-42492D01*
X58105Y-42492D01*
X58209Y-42492D01*
X58234Y-42481D01*
X58260Y-42492D01*
X58302Y-42492D01*
X58406Y-42492D01*
X58407Y-42493D01*
X58453Y-42512D01*
X58474Y-42512D01*
X58505Y-42481D01*
X58505Y-42162D01*
X58505Y-42137D01*
X58505Y-42087D01*
X58505Y-42062D01*
X58505Y-41743D01*
X58474Y-41712D01*
X58453Y-41712D01*
X58407Y-41731D01*
X58406Y-41732D01*
X58364Y-41732D01*
X58260Y-41732D01*
X58234Y-41742D01*
X58209Y-41732D01*
X58167Y-41732D01*
X58063Y-41732D01*
X58037Y-41742D01*
X58012Y-41732D01*
X57970Y-41732D01*
X57866Y-41732D01*
X57840Y-41742D01*
X57815Y-41732D01*
X57773Y-41732D01*
X57690Y-41732D01*
X57690Y-41728D01*
X58242Y-41176D01*
X59232Y-41176D01*
X59232Y-41197D01*
X59232Y-41301D01*
X59248Y-41340D01*
X59278Y-41369D01*
X59316Y-41385D01*
X59358Y-41385D01*
X59540Y-41385D01*
X59540Y-42425D01*
X59515Y-42436D01*
X59486Y-42466D01*
X59470Y-42504D01*
X59470Y-42546D01*
X59470Y-42605D01*
X58903Y-42605D01*
X58884Y-42608D01*
X58884Y-42408D01*
X58884Y-42366D01*
X58884Y-41816D01*
X58868Y-41777D01*
X58838Y-41748D01*
X58800Y-41732D01*
X58758Y-41732D01*
X58654Y-41732D01*
X58653Y-41731D01*
X58607Y-41712D01*
X58586Y-41712D01*
X58555Y-41743D01*
X58555Y-42062D01*
X58555Y-42087D01*
X58555Y-42137D01*
X58555Y-42162D01*
X58555Y-42481D01*
X58586Y-42512D01*
X58607Y-42512D01*
X58653Y-42493D01*
X58654Y-42492D01*
X58696Y-42492D01*
X58800Y-42492D01*
X58839Y-42476D01*
X58868Y-42446D01*
X58884Y-42408D01*
X58884Y-42608D01*
X58848Y-42616D01*
X58812Y-42639D01*
X58811Y-42639D01*
X58796Y-42633D01*
X58685Y-42633D01*
X58582Y-42675D01*
X58503Y-42754D01*
X58460Y-42857D01*
X58460Y-42968D01*
X58502Y-43071D01*
X58581Y-43150D01*
X58684Y-43193D01*
X58795Y-43193D01*
X58898Y-43151D01*
X58977Y-43072D01*
X59020Y-42969D01*
X59020Y-42895D01*
X59470Y-42895D01*
X59470Y-42996D01*
X59486Y-43035D01*
X59516Y-43064D01*
X59554Y-43080D01*
X59555Y-43080D01*
X59555Y-43170D01*
X59554Y-43170D01*
X59515Y-43186D01*
X59486Y-43216D01*
X59470Y-43254D01*
X59470Y-43296D01*
X59470Y-43746D01*
X59486Y-43785D01*
X59516Y-43814D01*
X59554Y-43830D01*
X59555Y-43830D01*
X59555Y-43920D01*
X59554Y-43920D01*
X59515Y-43936D01*
X59486Y-43966D01*
X59470Y-44004D01*
X59470Y-44046D01*
X59470Y-44496D01*
X59486Y-44535D01*
X59516Y-44564D01*
X59554Y-44580D01*
X59555Y-44580D01*
X59555Y-44670D01*
X59554Y-44670D01*
X59515Y-44686D01*
X59486Y-44716D01*
X59470Y-44754D01*
X59470Y-44796D01*
X59470Y-45246D01*
X59486Y-45285D01*
X59516Y-45314D01*
X59554Y-45330D01*
X59596Y-45330D01*
X59846Y-45330D01*
X59885Y-45314D01*
X59914Y-45284D01*
X59930Y-45246D01*
X59930Y-45204D01*
X59930Y-44754D01*
X59914Y-44715D01*
X59884Y-44686D01*
X59846Y-44670D01*
X59845Y-44670D01*
X59845Y-44580D01*
X59846Y-44580D01*
X59885Y-44564D01*
X59914Y-44534D01*
X59930Y-44496D01*
X59930Y-44454D01*
X59930Y-44004D01*
X59914Y-43965D01*
X59884Y-43936D01*
X59846Y-43920D01*
X59845Y-43920D01*
X59845Y-43830D01*
X59846Y-43830D01*
X59885Y-43814D01*
X59914Y-43784D01*
X59930Y-43746D01*
X59930Y-43704D01*
X59930Y-43254D01*
X59914Y-43215D01*
X59884Y-43186D01*
X59846Y-43170D01*
X59845Y-43170D01*
X59845Y-43080D01*
X59846Y-43080D01*
X59885Y-43064D01*
X59914Y-43034D01*
X59930Y-42996D01*
X59930Y-42954D01*
X59930Y-42504D01*
X59914Y-42465D01*
X59884Y-42436D01*
X59846Y-42420D01*
X59830Y-42420D01*
X59830Y-41385D01*
X59908Y-41385D01*
X59937Y-41373D01*
X60161Y-41373D01*
X60150Y-41400D01*
X60150Y-41494D01*
X60181Y-41525D01*
X60450Y-41525D01*
X60475Y-41525D01*
X60525Y-41525D01*
X60550Y-41525D01*
X60819Y-41525D01*
X60850Y-41494D01*
X60850Y-41400D01*
X60838Y-41373D01*
X61051Y-41373D01*
X61056Y-41374D01*
X61056Y-41373D01*
X61111Y-41362D01*
X61112Y-41362D01*
X61159Y-41331D01*
X61360Y-41128D01*
X61362Y-41127D01*
X61363Y-41127D01*
X61393Y-41080D01*
X61394Y-41079D01*
X61405Y-41024D01*
X61405Y-38977D01*
X61394Y-38922D01*
X61393Y-38921D01*
X61363Y-38874D01*
X61360Y-38872D01*
X61275Y-38786D01*
X61275Y-38069D01*
X61275Y-37775D01*
X61275Y-37725D01*
X61275Y-37431D01*
X61275Y-34069D01*
X61275Y-33775D01*
X61275Y-33725D01*
X61275Y-33431D01*
X61244Y-33400D01*
X61150Y-33400D01*
X61104Y-33419D01*
X61069Y-33454D01*
X61050Y-33500D01*
X61050Y-33550D01*
X61050Y-33694D01*
X61081Y-33725D01*
X61275Y-33725D01*
X61275Y-33775D01*
X61081Y-33775D01*
X61050Y-33806D01*
X61050Y-33950D01*
X61050Y-34000D01*
X61069Y-34046D01*
X61104Y-34081D01*
X61150Y-34100D01*
X61244Y-34100D01*
X61275Y-34069D01*
X61275Y-37431D01*
X61244Y-37400D01*
X61150Y-37400D01*
X61104Y-37419D01*
X61069Y-37454D01*
X61050Y-37500D01*
X61050Y-37550D01*
X61050Y-37694D01*
X61081Y-37725D01*
X61275Y-37725D01*
X61275Y-37775D01*
X61081Y-37775D01*
X61050Y-37806D01*
X61050Y-37950D01*
X61050Y-38000D01*
X61069Y-38046D01*
X61104Y-38081D01*
X61150Y-38100D01*
X61244Y-38100D01*
X61275Y-38069D01*
X61275Y-38786D01*
X60659Y-38170D01*
X60612Y-38139D01*
X60556Y-38127D01*
X60551Y-38128D01*
X59936Y-38128D01*
X59908Y-38116D01*
X59866Y-38116D01*
X59316Y-38116D01*
X59286Y-38128D01*
X58905Y-38128D01*
X58905Y-37688D01*
X58905Y-37638D01*
X58905Y-37444D01*
X58874Y-37413D01*
X58753Y-37413D01*
X58753Y-37757D01*
X58784Y-37788D01*
X58805Y-37788D01*
X58851Y-37769D01*
X58886Y-37734D01*
X58905Y-37688D01*
X58905Y-38128D01*
X58726Y-38128D01*
X58449Y-37850D01*
X58402Y-37819D01*
X58346Y-37807D01*
X58341Y-37808D01*
X56935Y-37808D01*
X56935Y-37688D01*
X56935Y-37638D01*
X56935Y-37444D01*
X56935Y-37332D01*
X56935Y-37138D01*
X56935Y-37088D01*
X56930Y-37075D01*
X56930Y-37019D01*
X56899Y-36988D01*
X56878Y-36988D01*
X56856Y-36996D01*
X56835Y-36988D01*
X56814Y-36988D01*
X56783Y-37019D01*
X56783Y-37075D01*
X56778Y-37088D01*
X56778Y-37138D01*
X56778Y-37332D01*
X56783Y-37337D01*
X56783Y-37363D01*
X56809Y-37363D01*
X56904Y-37363D01*
X56930Y-37363D01*
X56930Y-37337D01*
X56935Y-37332D01*
X56935Y-37444D01*
X56930Y-37439D01*
X56930Y-37413D01*
X56904Y-37413D01*
X56809Y-37413D01*
X56783Y-37413D01*
X56783Y-37439D01*
X56778Y-37444D01*
X56778Y-37638D01*
X56778Y-37688D01*
X56783Y-37700D01*
X56783Y-37757D01*
X56814Y-37788D01*
X56835Y-37788D01*
X56856Y-37779D01*
X56878Y-37788D01*
X56899Y-37788D01*
X56930Y-37757D01*
X56930Y-37700D01*
X56935Y-37688D01*
X56935Y-37808D01*
X56706Y-37808D01*
X56706Y-37784D01*
X56733Y-37757D01*
X56733Y-37438D01*
X56733Y-37413D01*
X56733Y-37363D01*
X56733Y-37338D01*
X56733Y-37019D01*
X56702Y-36988D01*
X56681Y-36988D01*
X56635Y-37007D01*
X56634Y-37008D01*
X56592Y-37008D01*
X56488Y-37008D01*
X56487Y-37007D01*
X56441Y-36988D01*
X56420Y-36988D01*
X56389Y-37019D01*
X56389Y-37338D01*
X56389Y-37363D01*
X56389Y-37413D01*
X56389Y-37438D01*
X56389Y-37757D01*
X56416Y-37784D01*
X56416Y-37895D01*
X56415Y-37900D01*
X56427Y-37956D01*
X56458Y-38003D01*
X56509Y-38053D01*
X56511Y-38056D01*
X56539Y-38074D01*
X56456Y-38108D01*
X56377Y-38187D01*
X56334Y-38290D01*
X56334Y-38401D01*
X56339Y-38415D01*
X56000Y-38753D01*
X55986Y-38739D01*
X55883Y-38696D01*
X55772Y-38696D01*
X55669Y-38738D01*
X55590Y-38817D01*
X55547Y-38920D01*
X55547Y-38969D01*
X55536Y-38952D01*
X55533Y-38950D01*
X55442Y-38858D01*
X56267Y-38032D01*
X56269Y-38031D01*
X56270Y-38031D01*
X56300Y-37984D01*
X56301Y-37983D01*
X56312Y-37928D01*
X56312Y-37784D01*
X56339Y-37757D01*
X56339Y-37438D01*
X56339Y-37413D01*
X56339Y-37363D01*
X56339Y-37338D01*
X56339Y-37019D01*
X56312Y-36992D01*
X56312Y-36722D01*
X56312Y-36718D01*
X56313Y-36718D01*
X56301Y-36663D01*
X56301Y-36662D01*
X56270Y-36615D01*
X56002Y-36347D01*
X55955Y-36316D01*
X55903Y-36305D01*
X56171Y-36305D01*
X56210Y-36289D01*
X56239Y-36259D01*
X56255Y-36221D01*
X56255Y-36195D01*
X56420Y-36195D01*
X56420Y-36196D01*
X56436Y-36235D01*
X56466Y-36264D01*
X56504Y-36280D01*
X56546Y-36280D01*
X56774Y-36280D01*
X57007Y-36512D01*
X57007Y-36992D01*
X56980Y-37019D01*
X56980Y-37338D01*
X56980Y-37363D01*
X56980Y-37413D01*
X56980Y-37438D01*
X56980Y-37757D01*
X57011Y-37788D01*
X57032Y-37788D01*
X57078Y-37769D01*
X57079Y-37768D01*
X57121Y-37768D01*
X57225Y-37768D01*
X57250Y-37757D01*
X57276Y-37768D01*
X57318Y-37768D01*
X57422Y-37768D01*
X57447Y-37757D01*
X57473Y-37768D01*
X57515Y-37768D01*
X57619Y-37768D01*
X57644Y-37757D01*
X57670Y-37768D01*
X57712Y-37768D01*
X57816Y-37768D01*
X57817Y-37769D01*
X57863Y-37788D01*
X57884Y-37788D01*
X57915Y-37757D01*
X57915Y-37438D01*
X57915Y-37413D01*
X57915Y-37363D01*
X57915Y-37338D01*
X57915Y-37019D01*
X57888Y-36992D01*
X57888Y-36709D01*
X57951Y-36772D01*
X57992Y-36789D01*
X57992Y-36992D01*
X57965Y-37019D01*
X57965Y-37338D01*
X57965Y-37363D01*
X57965Y-37413D01*
X57965Y-37438D01*
X57965Y-37757D01*
X57996Y-37788D01*
X58017Y-37788D01*
X58063Y-37769D01*
X58064Y-37768D01*
X58106Y-37768D01*
X58210Y-37768D01*
X58235Y-37757D01*
X58261Y-37768D01*
X58303Y-37768D01*
X58407Y-37768D01*
X58432Y-37757D01*
X58458Y-37768D01*
X58500Y-37768D01*
X58604Y-37768D01*
X58605Y-37769D01*
X58651Y-37788D01*
X58672Y-37788D01*
X58703Y-37757D01*
X58703Y-37438D01*
X58703Y-37413D01*
X58703Y-37363D01*
X58753Y-37363D01*
X58778Y-37363D01*
X58874Y-37363D01*
X58905Y-37332D01*
X58905Y-37138D01*
X58905Y-37088D01*
X58887Y-37046D01*
X59265Y-37423D01*
X59267Y-37426D01*
X59302Y-37449D01*
X59313Y-37456D01*
X59315Y-37457D01*
X59355Y-37465D01*
X59369Y-37468D01*
X59369Y-37467D01*
X59370Y-37468D01*
X60212Y-37468D01*
X60470Y-37725D01*
X60470Y-37996D01*
X60486Y-38035D01*
X60516Y-38064D01*
X60554Y-38080D01*
X60596Y-38080D01*
X60846Y-38080D01*
X60885Y-38064D01*
X60914Y-38034D01*
X60930Y-37996D01*
X60930Y-37954D01*
X60930Y-37504D01*
X60914Y-37465D01*
X60884Y-37436D01*
X60846Y-37420D01*
X60804Y-37420D01*
X60575Y-37420D01*
X60478Y-37323D01*
X60621Y-37180D01*
X61046Y-37180D01*
X61085Y-37164D01*
X61114Y-37134D01*
X61130Y-37096D01*
X61130Y-37054D01*
X61130Y-36304D01*
X61114Y-36265D01*
X61084Y-36236D01*
X61046Y-36220D01*
X61004Y-36220D01*
X60454Y-36220D01*
X60415Y-36236D01*
X60386Y-36266D01*
X60370Y-36304D01*
X60370Y-36346D01*
X60370Y-37020D01*
X60212Y-37178D01*
X60050Y-37178D01*
X60085Y-37164D01*
X60114Y-37134D01*
X60130Y-37096D01*
X60130Y-37054D01*
X60130Y-36304D01*
X60114Y-36265D01*
X60084Y-36236D01*
X60046Y-36220D01*
X60004Y-36220D01*
X59454Y-36220D01*
X59415Y-36236D01*
X59386Y-36266D01*
X59370Y-36304D01*
X59370Y-36346D01*
X59370Y-37096D01*
X59385Y-37132D01*
X59000Y-36747D01*
X58953Y-36716D01*
X58897Y-36704D01*
X58892Y-36705D01*
X58740Y-36705D01*
X58685Y-36715D01*
X59155Y-36245D01*
X59157Y-36244D01*
X59158Y-36244D01*
X59188Y-36197D01*
X59189Y-36196D01*
X59200Y-36141D01*
X59200Y-36045D01*
X59352Y-35893D01*
X60310Y-35893D01*
X60315Y-35894D01*
X60315Y-35893D01*
X60370Y-35882D01*
X60371Y-35882D01*
X60418Y-35851D01*
X60850Y-35417D01*
X60852Y-35416D01*
X60853Y-35416D01*
X60871Y-35387D01*
X60884Y-35369D01*
X60884Y-35368D01*
X60895Y-35313D01*
X60896Y-35313D01*
X60895Y-35308D01*
X60895Y-35280D01*
X61046Y-35280D01*
X61085Y-35264D01*
X61114Y-35234D01*
X61130Y-35196D01*
X61130Y-35154D01*
X61130Y-34404D01*
X61114Y-34365D01*
X61084Y-34336D01*
X61046Y-34320D01*
X61004Y-34320D01*
X60845Y-34320D01*
X60845Y-34080D01*
X60846Y-34080D01*
X60885Y-34064D01*
X60914Y-34034D01*
X60930Y-33996D01*
X60930Y-33954D01*
X60930Y-33504D01*
X60914Y-33465D01*
X60884Y-33436D01*
X60846Y-33420D01*
X60804Y-33420D01*
X60554Y-33420D01*
X60515Y-33436D01*
X60486Y-33466D01*
X60470Y-33504D01*
X60470Y-33546D01*
X60470Y-33996D01*
X60486Y-34035D01*
X60516Y-34064D01*
X60554Y-34080D01*
X60555Y-34080D01*
X60555Y-34320D01*
X60454Y-34320D01*
X60415Y-34336D01*
X60386Y-34366D01*
X60370Y-34404D01*
X60370Y-34446D01*
X60370Y-35196D01*
X60386Y-35235D01*
X60416Y-35264D01*
X60454Y-35280D01*
X60496Y-35280D01*
X60577Y-35280D01*
X60254Y-35603D01*
X60130Y-35603D01*
X60130Y-35196D01*
X60130Y-35154D01*
X60130Y-34404D01*
X60114Y-34365D01*
X60084Y-34336D01*
X60046Y-34320D01*
X60004Y-34320D01*
X59539Y-34320D01*
X59539Y-33251D01*
X59539Y-32790D01*
X59539Y-32678D01*
X59539Y-32217D01*
X59539Y-31086D01*
X59539Y-30625D01*
X59539Y-30513D01*
X59539Y-30052D01*
X59520Y-30006D01*
X59485Y-29971D01*
X59439Y-29952D01*
X59389Y-29952D01*
X59077Y-29952D01*
X59046Y-29983D01*
X59046Y-30544D01*
X59508Y-30544D01*
X59539Y-30513D01*
X59539Y-30625D01*
X59508Y-30594D01*
X59046Y-30594D01*
X59046Y-31155D01*
X59077Y-31186D01*
X59389Y-31186D01*
X59439Y-31186D01*
X59485Y-31167D01*
X59520Y-31132D01*
X59539Y-31086D01*
X59539Y-32217D01*
X59520Y-32171D01*
X59485Y-32136D01*
X59439Y-32117D01*
X59389Y-32117D01*
X59077Y-32117D01*
X59046Y-32148D01*
X59046Y-32709D01*
X59508Y-32709D01*
X59539Y-32678D01*
X59539Y-32790D01*
X59508Y-32759D01*
X59046Y-32759D01*
X59046Y-33320D01*
X59077Y-33351D01*
X59389Y-33351D01*
X59439Y-33351D01*
X59485Y-33332D01*
X59520Y-33297D01*
X59539Y-33251D01*
X59539Y-34320D01*
X59454Y-34320D01*
X59415Y-34336D01*
X59386Y-34366D01*
X59370Y-34404D01*
X59370Y-34446D01*
X59370Y-35196D01*
X59386Y-35235D01*
X59416Y-35264D01*
X59454Y-35280D01*
X59496Y-35280D01*
X60046Y-35280D01*
X60085Y-35264D01*
X60114Y-35234D01*
X60130Y-35196D01*
X60130Y-35603D01*
X59296Y-35603D01*
X59292Y-35602D01*
X59236Y-35614D01*
X59217Y-35626D01*
X59189Y-35645D01*
X59187Y-35647D01*
X58996Y-35838D01*
X58996Y-33320D01*
X58996Y-32759D01*
X58996Y-32709D01*
X58996Y-32148D01*
X58996Y-31155D01*
X58996Y-30594D01*
X58996Y-30544D01*
X58996Y-29983D01*
X58965Y-29952D01*
X58653Y-29952D01*
X58603Y-29952D01*
X58557Y-29971D01*
X58522Y-30006D01*
X58503Y-30052D01*
X58503Y-30513D01*
X58534Y-30544D01*
X58996Y-30544D01*
X58996Y-30594D01*
X58534Y-30594D01*
X58503Y-30625D01*
X58503Y-31086D01*
X58522Y-31132D01*
X58557Y-31167D01*
X58603Y-31186D01*
X58653Y-31186D01*
X58965Y-31186D01*
X58996Y-31155D01*
X58996Y-32148D01*
X58965Y-32117D01*
X58653Y-32117D01*
X58603Y-32117D01*
X58557Y-32136D01*
X58522Y-32171D01*
X58503Y-32217D01*
X58503Y-32678D01*
X58534Y-32709D01*
X58996Y-32709D01*
X58996Y-32759D01*
X58534Y-32759D01*
X58503Y-32790D01*
X58503Y-33251D01*
X58522Y-33297D01*
X58557Y-33332D01*
X58603Y-33351D01*
X58653Y-33351D01*
X58965Y-33351D01*
X58996Y-33320D01*
X58996Y-35838D01*
X58952Y-35882D01*
X58921Y-35929D01*
X58909Y-35985D01*
X58910Y-35989D01*
X58910Y-36080D01*
X58460Y-36529D01*
X58460Y-35441D01*
X58460Y-35347D01*
X58460Y-35235D01*
X58460Y-35141D01*
X58441Y-35095D01*
X58406Y-35060D01*
X58360Y-35041D01*
X58310Y-35041D01*
X58243Y-35041D01*
X58243Y-31811D01*
X58243Y-31690D01*
X58197Y-31578D01*
X58112Y-31493D01*
X58000Y-31446D01*
X57879Y-31446D01*
X57767Y-31492D01*
X57682Y-31577D01*
X57635Y-31689D01*
X57635Y-31810D01*
X57681Y-31922D01*
X57766Y-32007D01*
X57878Y-32054D01*
X57999Y-32054D01*
X58111Y-32008D01*
X58196Y-31923D01*
X58243Y-31811D01*
X58243Y-35041D01*
X58166Y-35041D01*
X58135Y-35072D01*
X58135Y-35266D01*
X58429Y-35266D01*
X58460Y-35235D01*
X58460Y-35347D01*
X58429Y-35316D01*
X58135Y-35316D01*
X58135Y-35510D01*
X58166Y-35541D01*
X58310Y-35541D01*
X58360Y-35541D01*
X58406Y-35522D01*
X58441Y-35487D01*
X58460Y-35441D01*
X58460Y-36529D01*
X58383Y-36606D01*
X58390Y-36591D01*
X58390Y-36480D01*
X58348Y-36377D01*
X58269Y-36298D01*
X58166Y-36255D01*
X58055Y-36255D01*
X57952Y-36297D01*
X57888Y-36361D01*
X57888Y-36319D01*
X58086Y-36121D01*
X58356Y-36121D01*
X58395Y-36105D01*
X58424Y-36075D01*
X58440Y-36037D01*
X58440Y-35995D01*
X58440Y-35745D01*
X58424Y-35706D01*
X58394Y-35677D01*
X58356Y-35661D01*
X58314Y-35661D01*
X58085Y-35661D01*
X58085Y-35510D01*
X58085Y-35316D01*
X58085Y-35266D01*
X58085Y-35072D01*
X58054Y-35041D01*
X57910Y-35041D01*
X57860Y-35041D01*
X57814Y-35060D01*
X57779Y-35095D01*
X57760Y-35141D01*
X57760Y-35235D01*
X57791Y-35266D01*
X58085Y-35266D01*
X58085Y-35316D01*
X57791Y-35316D01*
X57760Y-35347D01*
X57760Y-35441D01*
X57779Y-35487D01*
X57814Y-35522D01*
X57860Y-35541D01*
X57910Y-35541D01*
X58054Y-35541D01*
X58085Y-35510D01*
X58085Y-35661D01*
X57864Y-35661D01*
X57825Y-35677D01*
X57796Y-35707D01*
X57780Y-35745D01*
X57780Y-35787D01*
X57780Y-36015D01*
X57691Y-36104D01*
X57691Y-33879D01*
X57715Y-33938D01*
X57794Y-34017D01*
X57897Y-34060D01*
X58008Y-34060D01*
X58111Y-34018D01*
X58190Y-33939D01*
X58233Y-33836D01*
X58233Y-33725D01*
X58191Y-33622D01*
X58112Y-33543D01*
X58024Y-33506D01*
X58024Y-33368D01*
X58037Y-33363D01*
X58066Y-33333D01*
X58082Y-33295D01*
X58082Y-33253D01*
X58082Y-32253D01*
X58066Y-32214D01*
X58036Y-32185D01*
X57998Y-32169D01*
X57956Y-32169D01*
X57760Y-32169D01*
X57721Y-32185D01*
X57683Y-32169D01*
X57641Y-32169D01*
X57445Y-32169D01*
X57406Y-32184D01*
X57369Y-32169D01*
X57327Y-32169D01*
X57131Y-32169D01*
X57092Y-32185D01*
X57063Y-32215D01*
X57049Y-32247D01*
X57042Y-32245D01*
X57000Y-32245D01*
X56865Y-32245D01*
X56865Y-31811D01*
X56865Y-31690D01*
X56819Y-31578D01*
X56734Y-31493D01*
X56622Y-31446D01*
X56501Y-31446D01*
X56389Y-31492D01*
X56304Y-31577D01*
X56257Y-31689D01*
X56257Y-31810D01*
X56303Y-31922D01*
X56388Y-32007D01*
X56500Y-32054D01*
X56621Y-32054D01*
X56733Y-32008D01*
X56818Y-31923D01*
X56865Y-31811D01*
X56865Y-32245D01*
X56842Y-32245D01*
X56825Y-32203D01*
X56790Y-32168D01*
X56744Y-32149D01*
X56694Y-32149D01*
X56677Y-32149D01*
X56646Y-32180D01*
X56646Y-32724D01*
X56646Y-32749D01*
X56646Y-32799D01*
X56646Y-32824D01*
X56646Y-33368D01*
X56677Y-33399D01*
X56694Y-33399D01*
X56744Y-33399D01*
X56790Y-33380D01*
X56825Y-33345D01*
X56844Y-33299D01*
X56844Y-33255D01*
X56872Y-33255D01*
X57042Y-33255D01*
X57047Y-33252D01*
X57047Y-33295D01*
X57063Y-33334D01*
X57093Y-33363D01*
X57105Y-33368D01*
X57105Y-33387D01*
X57104Y-33392D01*
X57116Y-33448D01*
X57147Y-33495D01*
X57204Y-33552D01*
X57204Y-36298D01*
X57100Y-36194D01*
X57100Y-35600D01*
X57100Y-35506D01*
X57100Y-35394D01*
X57100Y-35300D01*
X57081Y-35254D01*
X57046Y-35219D01*
X57000Y-35200D01*
X56950Y-35200D01*
X56806Y-35200D01*
X56775Y-35231D01*
X56775Y-35425D01*
X57069Y-35425D01*
X57100Y-35394D01*
X57100Y-35506D01*
X57069Y-35475D01*
X56775Y-35475D01*
X56775Y-35669D01*
X56806Y-35700D01*
X56950Y-35700D01*
X57000Y-35700D01*
X57046Y-35681D01*
X57081Y-35646D01*
X57100Y-35600D01*
X57100Y-36194D01*
X57080Y-36174D01*
X57080Y-36154D01*
X57080Y-35904D01*
X57064Y-35865D01*
X57034Y-35836D01*
X56996Y-35820D01*
X56954Y-35820D01*
X56725Y-35820D01*
X56725Y-35669D01*
X56725Y-35475D01*
X56725Y-35425D01*
X56725Y-35231D01*
X56694Y-35200D01*
X56596Y-35200D01*
X56596Y-33368D01*
X56596Y-32799D01*
X56596Y-32749D01*
X56596Y-32180D01*
X56565Y-32149D01*
X56548Y-32149D01*
X56498Y-32149D01*
X56452Y-32168D01*
X56417Y-32203D01*
X56398Y-32249D01*
X56398Y-32718D01*
X56429Y-32749D01*
X56596Y-32749D01*
X56596Y-32799D01*
X56429Y-32799D01*
X56398Y-32830D01*
X56398Y-33299D01*
X56417Y-33345D01*
X56452Y-33380D01*
X56498Y-33399D01*
X56548Y-33399D01*
X56565Y-33399D01*
X56596Y-33368D01*
X56596Y-35200D01*
X56550Y-35200D01*
X56500Y-35200D01*
X56454Y-35219D01*
X56419Y-35254D01*
X56400Y-35300D01*
X56400Y-35394D01*
X56431Y-35425D01*
X56725Y-35425D01*
X56725Y-35475D01*
X56431Y-35475D01*
X56400Y-35506D01*
X56400Y-35600D01*
X56419Y-35646D01*
X56454Y-35681D01*
X56500Y-35700D01*
X56550Y-35700D01*
X56694Y-35700D01*
X56725Y-35669D01*
X56725Y-35820D01*
X56504Y-35820D01*
X56465Y-35836D01*
X56436Y-35866D01*
X56420Y-35904D01*
X56420Y-35905D01*
X56275Y-35905D01*
X56275Y-34925D01*
X56275Y-34656D01*
X56275Y-34544D01*
X56275Y-34275D01*
X56256Y-34229D01*
X56221Y-34194D01*
X56175Y-34175D01*
X56125Y-34175D01*
X56036Y-34175D01*
X56036Y-33251D01*
X56036Y-32790D01*
X56036Y-32678D01*
X56036Y-32217D01*
X56017Y-32171D01*
X55997Y-32151D01*
X55997Y-31086D01*
X55997Y-30625D01*
X55997Y-30513D01*
X55997Y-30052D01*
X55978Y-30006D01*
X55943Y-29971D01*
X55897Y-29952D01*
X55847Y-29952D01*
X55535Y-29952D01*
X55504Y-29983D01*
X55504Y-30544D01*
X55966Y-30544D01*
X55997Y-30513D01*
X55997Y-30625D01*
X55966Y-30594D01*
X55504Y-30594D01*
X55504Y-31155D01*
X55535Y-31186D01*
X55847Y-31186D01*
X55897Y-31186D01*
X55943Y-31167D01*
X55978Y-31132D01*
X55997Y-31086D01*
X55997Y-32151D01*
X55982Y-32136D01*
X55936Y-32117D01*
X55886Y-32117D01*
X55574Y-32117D01*
X55543Y-32148D01*
X55543Y-32709D01*
X56005Y-32709D01*
X56036Y-32678D01*
X56036Y-32790D01*
X56005Y-32759D01*
X55543Y-32759D01*
X55543Y-33320D01*
X55574Y-33351D01*
X55886Y-33351D01*
X55936Y-33351D01*
X55982Y-33332D01*
X56017Y-33297D01*
X56036Y-33251D01*
X56036Y-34175D01*
X55806Y-34175D01*
X55775Y-34206D01*
X55775Y-34575D01*
X56244Y-34575D01*
X56275Y-34544D01*
X56275Y-34656D01*
X56244Y-34625D01*
X55775Y-34625D01*
X55775Y-34994D01*
X55806Y-35025D01*
X56125Y-35025D01*
X56175Y-35025D01*
X56221Y-35006D01*
X56256Y-34971D01*
X56275Y-34925D01*
X56275Y-35905D01*
X56255Y-35905D01*
X56255Y-35579D01*
X56239Y-35540D01*
X56209Y-35511D01*
X56171Y-35495D01*
X56129Y-35495D01*
X55725Y-35495D01*
X55725Y-34994D01*
X55725Y-34625D01*
X55725Y-34575D01*
X55725Y-34206D01*
X55694Y-34175D01*
X55493Y-34175D01*
X55493Y-33320D01*
X55493Y-32759D01*
X55493Y-32709D01*
X55493Y-32148D01*
X55462Y-32117D01*
X55454Y-32117D01*
X55454Y-31155D01*
X55454Y-30594D01*
X55454Y-30544D01*
X55454Y-29983D01*
X55423Y-29952D01*
X55111Y-29952D01*
X55061Y-29952D01*
X55015Y-29971D01*
X54980Y-30006D01*
X54961Y-30052D01*
X54961Y-30513D01*
X54992Y-30544D01*
X55454Y-30544D01*
X55454Y-30594D01*
X54992Y-30594D01*
X54961Y-30625D01*
X54961Y-31086D01*
X54980Y-31132D01*
X55015Y-31167D01*
X55061Y-31186D01*
X55111Y-31186D01*
X55423Y-31186D01*
X55454Y-31155D01*
X55454Y-32117D01*
X55150Y-32117D01*
X55100Y-32117D01*
X55054Y-32136D01*
X55019Y-32171D01*
X55000Y-32217D01*
X55000Y-32678D01*
X55031Y-32709D01*
X55493Y-32709D01*
X55493Y-32759D01*
X55031Y-32759D01*
X55000Y-32790D01*
X55000Y-33251D01*
X55019Y-33297D01*
X55054Y-33332D01*
X55100Y-33351D01*
X55150Y-33351D01*
X55462Y-33351D01*
X55493Y-33320D01*
X55493Y-34175D01*
X55375Y-34175D01*
X55325Y-34175D01*
X55279Y-34194D01*
X55244Y-34229D01*
X55225Y-34275D01*
X55225Y-34544D01*
X55256Y-34575D01*
X55725Y-34575D01*
X55725Y-34625D01*
X55256Y-34625D01*
X55225Y-34656D01*
X55225Y-34925D01*
X55244Y-34971D01*
X55279Y-35006D01*
X55325Y-35025D01*
X55375Y-35025D01*
X55694Y-35025D01*
X55725Y-34994D01*
X55725Y-35495D01*
X55329Y-35495D01*
X55290Y-35511D01*
X55261Y-35541D01*
X55245Y-35579D01*
X55245Y-35621D01*
X55245Y-35655D01*
X55080Y-35655D01*
X55080Y-35654D01*
X55064Y-35615D01*
X55034Y-35586D01*
X54996Y-35570D01*
X54954Y-35570D01*
X54504Y-35570D01*
X54465Y-35586D01*
X54436Y-35616D01*
X54420Y-35654D01*
X54420Y-35696D01*
X54420Y-35946D01*
X54436Y-35985D01*
X54466Y-36014D01*
X54504Y-36030D01*
X54546Y-36030D01*
X54996Y-36030D01*
X55035Y-36014D01*
X55064Y-35984D01*
X55080Y-35946D01*
X55080Y-35945D01*
X55245Y-35945D01*
X55245Y-36221D01*
X55261Y-36260D01*
X55291Y-36289D01*
X55329Y-36305D01*
X53830Y-36305D01*
X53830Y-36304D01*
X53814Y-36265D01*
X53784Y-36236D01*
X53746Y-36220D01*
X53704Y-36220D01*
X53645Y-36220D01*
X53645Y-35851D01*
X53975Y-35520D01*
X53977Y-35519D01*
X53978Y-35519D01*
X54008Y-35472D01*
X54009Y-35471D01*
X54020Y-35416D01*
X54020Y-35278D01*
X54055Y-35264D01*
X54084Y-35234D01*
X54100Y-35196D01*
X54100Y-35154D01*
X54100Y-35145D01*
X54420Y-35145D01*
X54420Y-35346D01*
X54436Y-35385D01*
X54466Y-35414D01*
X54504Y-35430D01*
X54546Y-35430D01*
X54996Y-35430D01*
X55035Y-35414D01*
X55064Y-35384D01*
X55080Y-35346D01*
X55080Y-35304D01*
X55080Y-35054D01*
X55064Y-35015D01*
X55034Y-34986D01*
X54996Y-34970D01*
X54954Y-34970D01*
X54725Y-34970D01*
X54653Y-34897D01*
X54606Y-34866D01*
X54550Y-34854D01*
X54545Y-34855D01*
X54100Y-34855D01*
X54100Y-34804D01*
X54100Y-34196D01*
X54100Y-34154D01*
X54100Y-33804D01*
X54084Y-33765D01*
X54054Y-33736D01*
X54050Y-33734D01*
X54050Y-33250D01*
X54050Y-33200D01*
X54050Y-33056D01*
X54050Y-32944D01*
X54050Y-32800D01*
X54050Y-32750D01*
X54050Y-32500D01*
X54050Y-32450D01*
X54050Y-32306D01*
X54050Y-32194D01*
X54050Y-32050D01*
X54050Y-32000D01*
X54031Y-31954D01*
X53996Y-31919D01*
X53950Y-31900D01*
X53856Y-31900D01*
X53825Y-31931D01*
X53825Y-32225D01*
X54019Y-32225D01*
X54050Y-32194D01*
X54050Y-32306D01*
X54019Y-32275D01*
X53825Y-32275D01*
X53825Y-32569D01*
X53856Y-32600D01*
X53950Y-32600D01*
X53996Y-32581D01*
X54031Y-32546D01*
X54050Y-32500D01*
X54050Y-32750D01*
X54031Y-32704D01*
X53996Y-32669D01*
X53950Y-32650D01*
X53856Y-32650D01*
X53825Y-32681D01*
X53825Y-32975D01*
X54019Y-32975D01*
X54050Y-32944D01*
X54050Y-33056D01*
X54019Y-33025D01*
X53825Y-33025D01*
X53825Y-33319D01*
X53856Y-33350D01*
X53950Y-33350D01*
X53996Y-33331D01*
X54031Y-33296D01*
X54050Y-33250D01*
X54050Y-33734D01*
X54016Y-33720D01*
X53974Y-33720D01*
X53775Y-33720D01*
X53775Y-33319D01*
X53775Y-33025D01*
X53775Y-32975D01*
X53775Y-32681D01*
X53775Y-32569D01*
X53775Y-32275D01*
X53775Y-32225D01*
X53775Y-31931D01*
X53744Y-31900D01*
X53650Y-31900D01*
X53604Y-31919D01*
X53569Y-31954D01*
X53550Y-32000D01*
X53550Y-32050D01*
X53550Y-32194D01*
X53581Y-32225D01*
X53775Y-32225D01*
X53775Y-32275D01*
X53581Y-32275D01*
X53550Y-32306D01*
X53550Y-32450D01*
X53550Y-32500D01*
X53569Y-32546D01*
X53604Y-32581D01*
X53650Y-32600D01*
X53744Y-32600D01*
X53775Y-32569D01*
X53775Y-32681D01*
X53744Y-32650D01*
X53650Y-32650D01*
X53604Y-32669D01*
X53569Y-32704D01*
X53550Y-32750D01*
X53550Y-32800D01*
X53550Y-32944D01*
X53581Y-32975D01*
X53775Y-32975D01*
X53775Y-33025D01*
X53581Y-33025D01*
X53550Y-33056D01*
X53550Y-33200D01*
X53550Y-33250D01*
X53569Y-33296D01*
X53604Y-33331D01*
X53650Y-33350D01*
X53744Y-33350D01*
X53775Y-33319D01*
X53775Y-33720D01*
X53734Y-33720D01*
X53704Y-33732D01*
X53691Y-33719D01*
X53645Y-33700D01*
X53556Y-33700D01*
X53525Y-33731D01*
X53525Y-33950D01*
X53525Y-33975D01*
X53525Y-34025D01*
X53525Y-34050D01*
X53525Y-34269D01*
X53556Y-34300D01*
X53645Y-34300D01*
X53691Y-34281D01*
X53704Y-34267D01*
X53712Y-34271D01*
X53640Y-34343D01*
X53367Y-34343D01*
X53293Y-34268D01*
X53295Y-34267D01*
X53309Y-34281D01*
X53355Y-34300D01*
X53444Y-34300D01*
X53475Y-34269D01*
X53475Y-34050D01*
X53475Y-34025D01*
X53475Y-33975D01*
X53475Y-33950D01*
X53475Y-33731D01*
X53444Y-33700D01*
X53355Y-33700D01*
X53309Y-33719D01*
X53295Y-33732D01*
X53270Y-33721D01*
X53270Y-33330D01*
X53346Y-33330D01*
X53385Y-33314D01*
X53414Y-33284D01*
X53430Y-33246D01*
X53430Y-33204D01*
X53430Y-32754D01*
X53414Y-32715D01*
X53384Y-32686D01*
X53346Y-32670D01*
X53345Y-32670D01*
X53345Y-32580D01*
X53346Y-32580D01*
X53385Y-32564D01*
X53414Y-32534D01*
X53430Y-32496D01*
X53430Y-32454D01*
X53430Y-32004D01*
X53414Y-31965D01*
X53384Y-31936D01*
X53346Y-31920D01*
X53304Y-31920D01*
X53054Y-31920D01*
X53015Y-31936D01*
X52986Y-31966D01*
X52970Y-32004D01*
X52970Y-32046D01*
X52970Y-32496D01*
X52986Y-32535D01*
X53016Y-32564D01*
X53054Y-32580D01*
X53055Y-32580D01*
X53055Y-32670D01*
X53054Y-32670D01*
X53015Y-32686D01*
X52986Y-32716D01*
X52970Y-32754D01*
X52970Y-32796D01*
X52970Y-33246D01*
X52980Y-33270D01*
X52980Y-33721D01*
X52945Y-33736D01*
X52916Y-33766D01*
X52900Y-33804D01*
X52900Y-33846D01*
X52900Y-33855D01*
X52879Y-33855D01*
X52794Y-33770D01*
X52800Y-33757D01*
X52800Y-33646D01*
X52758Y-33543D01*
X52679Y-33464D01*
X52576Y-33421D01*
X52465Y-33421D01*
X52362Y-33463D01*
X52283Y-33542D01*
X52240Y-33645D01*
X52240Y-33756D01*
X52282Y-33859D01*
X52361Y-33938D01*
X52464Y-33981D01*
X52575Y-33981D01*
X52588Y-33975D01*
X52714Y-34100D01*
X52716Y-34103D01*
X52763Y-34133D01*
X52764Y-34134D01*
X52807Y-34142D01*
X52818Y-34145D01*
X52818Y-34144D01*
X52819Y-34145D01*
X52900Y-34145D01*
X52900Y-34196D01*
X52916Y-34235D01*
X52946Y-34264D01*
X52980Y-34278D01*
X52980Y-34301D01*
X52979Y-34306D01*
X52991Y-34362D01*
X53022Y-34409D01*
X53202Y-34588D01*
X53204Y-34591D01*
X53251Y-34621D01*
X53252Y-34622D01*
X53307Y-34633D01*
X53696Y-34633D01*
X53701Y-34634D01*
X53701Y-34633D01*
X53756Y-34622D01*
X53757Y-34622D01*
X53804Y-34591D01*
X53975Y-34418D01*
X53977Y-34417D01*
X53978Y-34417D01*
X53996Y-34388D01*
X54009Y-34370D01*
X54009Y-34369D01*
X54020Y-34314D01*
X54021Y-34314D01*
X54020Y-34309D01*
X54020Y-34278D01*
X54055Y-34264D01*
X54084Y-34234D01*
X54100Y-34196D01*
X54100Y-34804D01*
X54084Y-34765D01*
X54054Y-34736D01*
X54016Y-34720D01*
X53974Y-34720D01*
X53734Y-34720D01*
X53695Y-34736D01*
X53666Y-34766D01*
X53650Y-34804D01*
X53650Y-34846D01*
X53650Y-35196D01*
X53666Y-35235D01*
X53696Y-35264D01*
X53730Y-35278D01*
X53730Y-35355D01*
X53397Y-35688D01*
X53366Y-35735D01*
X53354Y-35791D01*
X53355Y-35795D01*
X53355Y-36220D01*
X53350Y-36220D01*
X53350Y-35196D01*
X53350Y-35154D01*
X53350Y-34804D01*
X53334Y-34765D01*
X53304Y-34736D01*
X53266Y-34720D01*
X53224Y-34720D01*
X52984Y-34720D01*
X52945Y-34736D01*
X52916Y-34766D01*
X52900Y-34804D01*
X52900Y-34846D01*
X52900Y-35196D01*
X52916Y-35235D01*
X52946Y-35264D01*
X52984Y-35280D01*
X53026Y-35280D01*
X53266Y-35280D01*
X53305Y-35264D01*
X53334Y-35234D01*
X53350Y-35196D01*
X53350Y-36220D01*
X53254Y-36220D01*
X53215Y-36236D01*
X53186Y-36266D01*
X53170Y-36304D01*
X53170Y-36346D01*
X53170Y-36596D01*
X53186Y-36635D01*
X53216Y-36664D01*
X53254Y-36680D01*
X53296Y-36680D01*
X53746Y-36680D01*
X53785Y-36664D01*
X53814Y-36634D01*
X53830Y-36596D01*
X53830Y-36595D01*
X55838Y-36595D01*
X56022Y-36779D01*
X56022Y-36992D01*
X55995Y-37019D01*
X55995Y-37338D01*
X55995Y-37363D01*
X55995Y-37413D01*
X55995Y-37438D01*
X55995Y-37757D01*
X56022Y-37784D01*
X56022Y-37867D01*
X55945Y-37944D01*
X55945Y-37757D01*
X55945Y-37438D01*
X55945Y-37413D01*
X55945Y-37363D01*
X55945Y-37338D01*
X55945Y-37019D01*
X55914Y-36988D01*
X55893Y-36988D01*
X55847Y-37007D01*
X55846Y-37008D01*
X55804Y-37008D01*
X55700Y-37008D01*
X55661Y-37024D01*
X55632Y-37054D01*
X55616Y-37092D01*
X55616Y-37134D01*
X55616Y-37243D01*
X55434Y-37243D01*
X55356Y-37165D01*
X55253Y-37122D01*
X55142Y-37122D01*
X55039Y-37164D01*
X54960Y-37243D01*
X54917Y-37346D01*
X54917Y-37457D01*
X54959Y-37560D01*
X55038Y-37639D01*
X55141Y-37682D01*
X55252Y-37682D01*
X55355Y-37640D01*
X55434Y-37561D01*
X55445Y-37533D01*
X55616Y-37533D01*
X55616Y-37684D01*
X55632Y-37723D01*
X55662Y-37752D01*
X55700Y-37768D01*
X55742Y-37768D01*
X55846Y-37768D01*
X55847Y-37769D01*
X55893Y-37788D01*
X55914Y-37788D01*
X55945Y-37757D01*
X55945Y-37944D01*
X55268Y-38621D01*
X55268Y-38593D01*
X55257Y-38567D01*
X55268Y-38542D01*
X55268Y-38500D01*
X55268Y-38396D01*
X55257Y-38370D01*
X55268Y-38345D01*
X55268Y-38303D01*
X55268Y-38199D01*
X55252Y-38160D01*
X55222Y-38131D01*
X55184Y-38115D01*
X55142Y-38115D01*
X54611Y-38115D01*
X54611Y-37300D01*
X54611Y-37189D01*
X54569Y-37086D01*
X54490Y-37007D01*
X54387Y-36964D01*
X54276Y-36964D01*
X54262Y-36969D01*
X54240Y-36947D01*
X54193Y-36916D01*
X54137Y-36904D01*
X54132Y-36905D01*
X53830Y-36905D01*
X53830Y-36904D01*
X53814Y-36865D01*
X53784Y-36836D01*
X53746Y-36820D01*
X53704Y-36820D01*
X53254Y-36820D01*
X53215Y-36836D01*
X53186Y-36866D01*
X53170Y-36904D01*
X53170Y-36946D01*
X53170Y-37176D01*
X53091Y-37255D01*
X53025Y-37255D01*
X53025Y-36425D01*
X53025Y-36156D01*
X53025Y-36044D01*
X53025Y-35775D01*
X53006Y-35729D01*
X52971Y-35694D01*
X52925Y-35675D01*
X52875Y-35675D01*
X52556Y-35675D01*
X52525Y-35706D01*
X52525Y-36075D01*
X52994Y-36075D01*
X53025Y-36044D01*
X53025Y-36156D01*
X52994Y-36125D01*
X52525Y-36125D01*
X52525Y-36494D01*
X52556Y-36525D01*
X52875Y-36525D01*
X52925Y-36525D01*
X52971Y-36506D01*
X53006Y-36471D01*
X53025Y-36425D01*
X53025Y-37255D01*
X53005Y-37255D01*
X53005Y-37079D01*
X52989Y-37040D01*
X52959Y-37011D01*
X52921Y-36995D01*
X52879Y-36995D01*
X52475Y-36995D01*
X52475Y-36494D01*
X52475Y-36125D01*
X52475Y-36075D01*
X52475Y-35706D01*
X52444Y-35675D01*
X52125Y-35675D01*
X52075Y-35675D01*
X52029Y-35694D01*
X51994Y-35729D01*
X51975Y-35775D01*
X51975Y-36044D01*
X52006Y-36075D01*
X52475Y-36075D01*
X52475Y-36125D01*
X52006Y-36125D01*
X51975Y-36156D01*
X51975Y-36425D01*
X51994Y-36471D01*
X52029Y-36506D01*
X52075Y-36525D01*
X52125Y-36525D01*
X52444Y-36525D01*
X52475Y-36494D01*
X52475Y-36995D01*
X52079Y-36995D01*
X52040Y-37011D01*
X52011Y-37041D01*
X51995Y-37079D01*
X51995Y-37121D01*
X51995Y-37255D01*
X51948Y-37255D01*
X51850Y-37156D01*
X51850Y-36600D01*
X51850Y-36506D01*
X51850Y-36394D01*
X51850Y-36300D01*
X51831Y-36254D01*
X51796Y-36219D01*
X51750Y-36200D01*
X51700Y-36200D01*
X51556Y-36200D01*
X51525Y-36231D01*
X51525Y-36425D01*
X51819Y-36425D01*
X51850Y-36394D01*
X51850Y-36506D01*
X51819Y-36475D01*
X51525Y-36475D01*
X51525Y-36669D01*
X51556Y-36700D01*
X51700Y-36700D01*
X51750Y-36700D01*
X51796Y-36681D01*
X51831Y-36646D01*
X51850Y-36600D01*
X51850Y-37156D01*
X51830Y-37136D01*
X51830Y-36904D01*
X51814Y-36865D01*
X51784Y-36836D01*
X51746Y-36820D01*
X51704Y-36820D01*
X51475Y-36820D01*
X51475Y-36669D01*
X51475Y-36475D01*
X51475Y-36425D01*
X51475Y-36231D01*
X51444Y-36200D01*
X51300Y-36200D01*
X51250Y-36200D01*
X51204Y-36219D01*
X51169Y-36254D01*
X51150Y-36300D01*
X51150Y-36394D01*
X51181Y-36425D01*
X51475Y-36425D01*
X51475Y-36475D01*
X51181Y-36475D01*
X51150Y-36506D01*
X51150Y-36600D01*
X51169Y-36646D01*
X51204Y-36681D01*
X51250Y-36700D01*
X51300Y-36700D01*
X51444Y-36700D01*
X51475Y-36669D01*
X51475Y-36820D01*
X51254Y-36820D01*
X51215Y-36836D01*
X51186Y-36866D01*
X51170Y-36904D01*
X51170Y-36946D01*
X51170Y-37196D01*
X51186Y-37235D01*
X51216Y-37264D01*
X51254Y-37280D01*
X51296Y-37280D01*
X51562Y-37280D01*
X51783Y-37500D01*
X51785Y-37503D01*
X51820Y-37526D01*
X51831Y-37533D01*
X51833Y-37534D01*
X51873Y-37542D01*
X51887Y-37545D01*
X51887Y-37544D01*
X51888Y-37545D01*
X51995Y-37545D01*
X51995Y-37721D01*
X52011Y-37760D01*
X52041Y-37789D01*
X52079Y-37805D01*
X52121Y-37805D01*
X52921Y-37805D01*
X52960Y-37789D01*
X52989Y-37759D01*
X53005Y-37721D01*
X53005Y-37679D01*
X53005Y-37545D01*
X53147Y-37545D01*
X53152Y-37546D01*
X53152Y-37545D01*
X53207Y-37534D01*
X53208Y-37534D01*
X53255Y-37503D01*
X53477Y-37280D01*
X53746Y-37280D01*
X53785Y-37264D01*
X53814Y-37234D01*
X53830Y-37196D01*
X53830Y-37195D01*
X54051Y-37195D01*
X54051Y-37299D01*
X54093Y-37402D01*
X54172Y-37481D01*
X54275Y-37524D01*
X54386Y-37524D01*
X54489Y-37482D01*
X54568Y-37403D01*
X54611Y-37300D01*
X54611Y-38115D01*
X54592Y-38115D01*
X54562Y-38127D01*
X53844Y-38127D01*
X53646Y-37928D01*
X53599Y-37897D01*
X53543Y-37885D01*
X53538Y-37886D01*
X53075Y-37886D01*
X53071Y-37885D01*
X53015Y-37897D01*
X52996Y-37909D01*
X52968Y-37928D01*
X52966Y-37930D01*
X52746Y-38150D01*
X52733Y-38145D01*
X52622Y-38145D01*
X52519Y-38187D01*
X52440Y-38266D01*
X52397Y-38369D01*
X52397Y-38480D01*
X52439Y-38583D01*
X52518Y-38662D01*
X52621Y-38705D01*
X52732Y-38705D01*
X52835Y-38663D01*
X52914Y-38584D01*
X52957Y-38481D01*
X52957Y-38370D01*
X52951Y-38356D01*
X53131Y-38176D01*
X53482Y-38176D01*
X53630Y-38324D01*
X53523Y-38324D01*
X53466Y-38267D01*
X53363Y-38224D01*
X53252Y-38224D01*
X53149Y-38266D01*
X53070Y-38345D01*
X53027Y-38448D01*
X53027Y-38559D01*
X53069Y-38662D01*
X53148Y-38741D01*
X53251Y-38784D01*
X53362Y-38784D01*
X53465Y-38742D01*
X53544Y-38663D01*
X53564Y-38614D01*
X53699Y-38614D01*
X53482Y-38831D01*
X52763Y-38831D01*
X52758Y-38818D01*
X52679Y-38739D01*
X52576Y-38696D01*
X52465Y-38696D01*
X52362Y-38738D01*
X52283Y-38817D01*
X52240Y-38920D01*
X52240Y-39031D01*
X52282Y-39134D01*
X52361Y-39213D01*
X52464Y-39256D01*
X52575Y-39256D01*
X52678Y-39214D01*
X52757Y-39135D01*
X52762Y-39121D01*
X53538Y-39121D01*
X53543Y-39122D01*
X53543Y-39121D01*
X53598Y-39110D01*
X53599Y-39110D01*
X53646Y-39079D01*
X53913Y-38811D01*
X53950Y-38811D01*
X53936Y-38817D01*
X53857Y-38896D01*
X53814Y-38999D01*
X53814Y-39110D01*
X53856Y-39213D01*
X53935Y-39292D01*
X54038Y-39335D01*
X54149Y-39335D01*
X54163Y-39329D01*
X54191Y-39357D01*
X54193Y-39360D01*
X54240Y-39390D01*
X54241Y-39391D01*
X54296Y-39402D01*
X54508Y-39402D01*
X54508Y-39423D01*
X54508Y-39527D01*
X54518Y-39552D01*
X54508Y-39578D01*
X54508Y-39620D01*
X54508Y-39724D01*
X54507Y-39725D01*
X54488Y-39771D01*
X54488Y-39792D01*
X54519Y-39823D01*
X54838Y-39823D01*
X54863Y-39823D01*
X54913Y-39823D01*
X54913Y-39873D01*
X54863Y-39873D01*
X54838Y-39873D01*
X54519Y-39873D01*
X54488Y-39904D01*
X54488Y-39925D01*
X54507Y-39971D01*
X54508Y-39972D01*
X54508Y-40014D01*
X54508Y-40118D01*
X54518Y-40143D01*
X54508Y-40169D01*
X54508Y-40211D01*
X54508Y-40294D01*
X54049Y-40294D01*
X54030Y-40274D01*
X54030Y-40004D01*
X54014Y-39965D01*
X53984Y-39936D01*
X53946Y-39920D01*
X53904Y-39920D01*
X53654Y-39920D01*
X53615Y-39936D01*
X53586Y-39966D01*
X53570Y-40004D01*
X53570Y-40046D01*
X53570Y-40496D01*
X53586Y-40535D01*
X53616Y-40564D01*
X53654Y-40580D01*
X53696Y-40580D01*
X53946Y-40580D01*
X53953Y-40576D01*
X53989Y-40584D01*
X54508Y-40584D01*
X54508Y-40605D01*
X54508Y-40709D01*
X54518Y-40734D01*
X54508Y-40760D01*
X54508Y-40802D01*
X54508Y-40885D01*
X54254Y-40885D01*
X54246Y-40885D01*
X54216Y-40891D01*
X54197Y-40894D01*
X54194Y-40895D01*
X54191Y-40896D01*
X54167Y-40911D01*
X54149Y-40922D01*
X54144Y-40926D01*
X54143Y-40927D01*
X54142Y-40927D01*
X53627Y-41385D01*
X53599Y-41374D01*
X53488Y-41374D01*
X53385Y-41416D01*
X53345Y-41456D01*
X53345Y-40580D01*
X53346Y-40580D01*
X53385Y-40564D01*
X53414Y-40534D01*
X53430Y-40496D01*
X53430Y-40454D01*
X53430Y-40004D01*
X53414Y-39965D01*
X53384Y-39936D01*
X53346Y-39920D01*
X53304Y-39920D01*
X53054Y-39920D01*
X53015Y-39936D01*
X52986Y-39966D01*
X52970Y-40004D01*
X52970Y-40046D01*
X52970Y-40496D01*
X52986Y-40535D01*
X53016Y-40564D01*
X53054Y-40580D01*
X53055Y-40580D01*
X53055Y-43180D01*
X52237Y-43759D01*
X52182Y-43736D01*
X52071Y-43736D01*
X51968Y-43778D01*
X51889Y-43857D01*
X51846Y-43960D01*
X51846Y-44071D01*
X51888Y-44174D01*
X51967Y-44253D01*
X52070Y-44296D01*
X52181Y-44296D01*
X52284Y-44254D01*
X52363Y-44175D01*
X52406Y-44072D01*
X52406Y-43995D01*
X53283Y-43374D01*
X53288Y-43368D01*
X53303Y-43359D01*
X53313Y-43342D01*
X53322Y-43334D01*
X53326Y-43322D01*
X53334Y-43311D01*
X53336Y-43296D01*
X53343Y-43281D01*
X53342Y-43269D01*
X53345Y-43256D01*
X53345Y-41852D01*
X53384Y-41891D01*
X53487Y-41934D01*
X53598Y-41934D01*
X53612Y-41927D01*
X53632Y-41947D01*
X53608Y-43470D01*
X53504Y-43470D01*
X53465Y-43486D01*
X53436Y-43516D01*
X53420Y-43554D01*
X53420Y-43596D01*
X53420Y-43846D01*
X53436Y-43885D01*
X53466Y-43914D01*
X53504Y-43930D01*
X53546Y-43930D01*
X53996Y-43930D01*
X54035Y-43914D01*
X54064Y-43884D01*
X54080Y-43846D01*
X54080Y-43845D01*
X54170Y-43845D01*
X54170Y-43846D01*
X54186Y-43885D01*
X54216Y-43914D01*
X54254Y-43930D01*
X54296Y-43930D01*
X54746Y-43930D01*
X54785Y-43914D01*
X54814Y-43884D01*
X54830Y-43846D01*
X54830Y-43845D01*
X54920Y-43845D01*
X54920Y-43846D01*
X54936Y-43885D01*
X54966Y-43914D01*
X55004Y-43930D01*
X55046Y-43930D01*
X55496Y-43930D01*
X55535Y-43914D01*
X55564Y-43884D01*
X55580Y-43846D01*
X55580Y-43845D01*
X55670Y-43845D01*
X55670Y-43846D01*
X55686Y-43885D01*
X55716Y-43914D01*
X55754Y-43930D01*
X55796Y-43930D01*
X56246Y-43930D01*
X56285Y-43914D01*
X56295Y-43903D01*
X56390Y-43997D01*
X56390Y-44797D01*
X56389Y-44802D01*
X56401Y-44858D01*
X56432Y-44905D01*
X56497Y-44970D01*
X56492Y-44983D01*
X56492Y-45094D01*
X56534Y-45197D01*
X56613Y-45276D01*
X56716Y-45319D01*
X56827Y-45319D01*
X56930Y-45277D01*
X57009Y-45198D01*
X57052Y-45095D01*
X57052Y-44984D01*
X57010Y-44881D01*
X56931Y-44802D01*
X56828Y-44759D01*
X56717Y-44759D01*
X56703Y-44764D01*
X56680Y-44741D01*
X56680Y-44444D01*
X58163Y-45927D01*
X58165Y-45930D01*
X58212Y-45960D01*
X58213Y-45961D01*
X58256Y-45969D01*
X58267Y-45972D01*
X58267Y-45971D01*
X58268Y-45972D01*
X63464Y-45972D01*
X63477Y-45969D01*
X63498Y-45969D01*
X63511Y-45962D01*
X63519Y-45961D01*
X63533Y-45951D01*
X63549Y-45944D01*
X63554Y-45938D01*
X63567Y-45930D01*
X63578Y-45912D01*
X63587Y-45903D01*
X66245Y-41599D01*
X66261Y-41573D01*
X66263Y-41571D01*
X66276Y-41551D01*
X66282Y-41520D01*
X66283Y-41518D01*
X66282Y-41516D01*
X66287Y-41496D01*
X66287Y-41109D01*
X66300Y-41104D01*
X66379Y-41025D01*
X66422Y-40922D01*
X66422Y-43863D01*
X65177Y-46038D01*
X56350Y-46038D01*
X56350Y-44450D01*
X56350Y-44356D01*
X56350Y-44244D01*
X56350Y-44150D01*
X56331Y-44104D01*
X56296Y-44069D01*
X56250Y-44050D01*
X56200Y-44050D01*
X56056Y-44050D01*
X56025Y-44081D01*
X56025Y-44275D01*
X56319Y-44275D01*
X56350Y-44244D01*
X56350Y-44356D01*
X56319Y-44325D01*
X56025Y-44325D01*
X56025Y-44519D01*
X56056Y-44550D01*
X56200Y-44550D01*
X56250Y-44550D01*
X56296Y-44531D01*
X56331Y-44496D01*
X56350Y-44450D01*
X56350Y-46038D01*
X55975Y-46038D01*
X55975Y-44519D01*
X55975Y-44325D01*
X55975Y-44275D01*
X55975Y-44081D01*
X55944Y-44050D01*
X55800Y-44050D01*
X55750Y-44050D01*
X55704Y-44069D01*
X55669Y-44104D01*
X55650Y-44150D01*
X55650Y-44244D01*
X55681Y-44275D01*
X55975Y-44275D01*
X55975Y-44325D01*
X55681Y-44325D01*
X55650Y-44356D01*
X55650Y-44450D01*
X55669Y-44496D01*
X55704Y-44531D01*
X55750Y-44550D01*
X55800Y-44550D01*
X55944Y-44550D01*
X55975Y-44519D01*
X55975Y-46038D01*
X55600Y-46038D01*
X55600Y-44450D01*
X55600Y-44356D01*
X55600Y-44244D01*
X55600Y-44150D01*
X55581Y-44104D01*
X55546Y-44069D01*
X55500Y-44050D01*
X55450Y-44050D01*
X55306Y-44050D01*
X55275Y-44081D01*
X55275Y-44275D01*
X55569Y-44275D01*
X55600Y-44244D01*
X55600Y-44356D01*
X55569Y-44325D01*
X55275Y-44325D01*
X55275Y-44519D01*
X55306Y-44550D01*
X55450Y-44550D01*
X55500Y-44550D01*
X55546Y-44531D01*
X55581Y-44496D01*
X55600Y-44450D01*
X55600Y-46038D01*
X55225Y-46038D01*
X55225Y-44519D01*
X55225Y-44325D01*
X55225Y-44275D01*
X55225Y-44081D01*
X55194Y-44050D01*
X55050Y-44050D01*
X55000Y-44050D01*
X54954Y-44069D01*
X54919Y-44104D01*
X54900Y-44150D01*
X54900Y-44244D01*
X54931Y-44275D01*
X55225Y-44275D01*
X55225Y-44325D01*
X54931Y-44325D01*
X54900Y-44356D01*
X54900Y-44450D01*
X54919Y-44496D01*
X54954Y-44531D01*
X55000Y-44550D01*
X55050Y-44550D01*
X55194Y-44550D01*
X55225Y-44519D01*
X55225Y-46038D01*
X54850Y-46038D01*
X54850Y-44450D01*
X54850Y-44356D01*
X54850Y-44244D01*
X54850Y-44150D01*
X54831Y-44104D01*
X54796Y-44069D01*
X54750Y-44050D01*
X54700Y-44050D01*
X54556Y-44050D01*
X54525Y-44081D01*
X54525Y-44275D01*
X54819Y-44275D01*
X54850Y-44244D01*
X54850Y-44356D01*
X54819Y-44325D01*
X54525Y-44325D01*
X54525Y-44519D01*
X54556Y-44550D01*
X54700Y-44550D01*
X54750Y-44550D01*
X54796Y-44531D01*
X54831Y-44496D01*
X54850Y-44450D01*
X54850Y-46038D01*
X54475Y-46038D01*
X54475Y-44519D01*
X54475Y-44325D01*
X54475Y-44275D01*
X54475Y-44081D01*
X54444Y-44050D01*
X54300Y-44050D01*
X54250Y-44050D01*
X54204Y-44069D01*
X54169Y-44104D01*
X54150Y-44150D01*
X54150Y-44244D01*
X54181Y-44275D01*
X54475Y-44275D01*
X54475Y-44325D01*
X54181Y-44325D01*
X54150Y-44356D01*
X54150Y-44450D01*
X54169Y-44496D01*
X54204Y-44531D01*
X54250Y-44550D01*
X54300Y-44550D01*
X54444Y-44550D01*
X54475Y-44519D01*
X54475Y-46038D01*
X54100Y-46038D01*
X54100Y-44450D01*
X54100Y-44356D01*
X54100Y-44244D01*
X54100Y-44150D01*
X54081Y-44104D01*
X54046Y-44069D01*
X54000Y-44050D01*
X53950Y-44050D01*
X53806Y-44050D01*
X53775Y-44081D01*
X53775Y-44275D01*
X54069Y-44275D01*
X54100Y-44244D01*
X54100Y-44356D01*
X54069Y-44325D01*
X53775Y-44325D01*
X53775Y-44519D01*
X53806Y-44550D01*
X53950Y-44550D01*
X54000Y-44550D01*
X54046Y-44531D01*
X54081Y-44496D01*
X54100Y-44450D01*
X54100Y-46038D01*
X53725Y-46038D01*
X53725Y-44519D01*
X53725Y-44325D01*
X53725Y-44275D01*
X53725Y-44081D01*
X53694Y-44050D01*
X53550Y-44050D01*
X53500Y-44050D01*
X53454Y-44069D01*
X53419Y-44104D01*
X53400Y-44150D01*
X53400Y-44244D01*
X53431Y-44275D01*
X53725Y-44275D01*
X53725Y-44325D01*
X53431Y-44325D01*
X53400Y-44356D01*
X53400Y-44450D01*
X53419Y-44496D01*
X53454Y-44531D01*
X53500Y-44550D01*
X53550Y-44550D01*
X53694Y-44550D01*
X53725Y-44519D01*
X53725Y-46038D01*
X49237Y-46038D01*
X45952Y-40301D01*
X46101Y-40451D01*
X46433Y-40589D01*
X46793Y-40589D01*
X47125Y-40452D01*
X47380Y-40198D01*
X47518Y-39866D01*
X47518Y-39506D01*
X47381Y-39174D01*
X47127Y-38919D01*
X46795Y-38781D01*
X46435Y-38781D01*
X46103Y-38918D01*
X45985Y-39034D01*
X51418Y-29511D01*
X62193Y-29511D01*
X62009Y-29587D01*
X61754Y-29841D01*
X61616Y-30173D01*
X61616Y-30533D01*
X61753Y-30865D01*
X62007Y-31120D01*
X62339Y-31258D01*
X62699Y-31258D01*
X63031Y-31121D01*
X63286Y-30867D01*
X63424Y-30535D01*
X63424Y-30233D01*
X68814Y-39686D01*
X68814Y-39686D01*
G37*
G54D27*
X68814Y-39686D02*
X66422Y-43863D01*
X66422Y-40922D01*
X66422Y-40811D01*
X66380Y-40708D01*
X66301Y-40629D01*
X66198Y-40586D01*
X66087Y-40586D01*
X65984Y-40628D01*
X65905Y-40707D01*
X65862Y-40810D01*
X65862Y-40921D01*
X65904Y-41024D01*
X65983Y-41103D01*
X65997Y-41108D01*
X65997Y-41448D01*
X63383Y-45682D01*
X61294Y-45682D01*
X62935Y-44040D01*
X62937Y-44039D01*
X62938Y-44039D01*
X62968Y-43992D01*
X62969Y-43991D01*
X62980Y-43936D01*
X62980Y-40007D01*
X62993Y-40002D01*
X63072Y-39923D01*
X63115Y-39820D01*
X63115Y-39709D01*
X63073Y-39606D01*
X62994Y-39527D01*
X62891Y-39484D01*
X62780Y-39484D01*
X62677Y-39526D01*
X62598Y-39605D01*
X62555Y-39708D01*
X62555Y-39819D01*
X62597Y-39922D01*
X62676Y-40001D01*
X62690Y-40006D01*
X62690Y-43875D01*
X62414Y-44151D01*
X62414Y-40346D01*
X62414Y-40296D01*
X62414Y-39977D01*
X62414Y-39865D01*
X62414Y-39546D01*
X62414Y-39496D01*
X62395Y-39450D01*
X62360Y-39415D01*
X62314Y-39396D01*
X62045Y-39396D01*
X62014Y-39427D01*
X62014Y-39896D01*
X62383Y-39896D01*
X62414Y-39865D01*
X62414Y-39977D01*
X62383Y-39946D01*
X62014Y-39946D01*
X62014Y-40415D01*
X62045Y-40446D01*
X62314Y-40446D01*
X62360Y-40427D01*
X62395Y-40392D01*
X62414Y-40346D01*
X62414Y-44151D01*
X61964Y-44601D01*
X61964Y-40415D01*
X61964Y-39946D01*
X61964Y-39896D01*
X61964Y-39427D01*
X61933Y-39396D01*
X61664Y-39396D01*
X61618Y-39415D01*
X61583Y-39450D01*
X61564Y-39496D01*
X61564Y-39546D01*
X61564Y-39865D01*
X61595Y-39896D01*
X61964Y-39896D01*
X61964Y-39946D01*
X61595Y-39946D01*
X61564Y-39977D01*
X61564Y-40296D01*
X61564Y-40346D01*
X61583Y-40392D01*
X61618Y-40427D01*
X61664Y-40446D01*
X61933Y-40446D01*
X61964Y-40415D01*
X61964Y-44601D01*
X61550Y-45015D01*
X61550Y-38000D01*
X61550Y-37950D01*
X61550Y-37806D01*
X61550Y-37694D01*
X61550Y-37550D01*
X61550Y-37500D01*
X61550Y-34000D01*
X61550Y-33950D01*
X61550Y-33806D01*
X61550Y-33694D01*
X61550Y-33550D01*
X61550Y-33500D01*
X61531Y-33454D01*
X61496Y-33419D01*
X61450Y-33400D01*
X61356Y-33400D01*
X61325Y-33431D01*
X61325Y-33725D01*
X61519Y-33725D01*
X61550Y-33694D01*
X61550Y-33806D01*
X61519Y-33775D01*
X61325Y-33775D01*
X61325Y-34069D01*
X61356Y-34100D01*
X61450Y-34100D01*
X61496Y-34081D01*
X61531Y-34046D01*
X61550Y-34000D01*
X61550Y-37500D01*
X61531Y-37454D01*
X61496Y-37419D01*
X61450Y-37400D01*
X61356Y-37400D01*
X61325Y-37431D01*
X61325Y-37725D01*
X61519Y-37725D01*
X61550Y-37694D01*
X61550Y-37806D01*
X61519Y-37775D01*
X61325Y-37775D01*
X61325Y-38069D01*
X61356Y-38100D01*
X61450Y-38100D01*
X61496Y-38081D01*
X61531Y-38046D01*
X61550Y-38000D01*
X61550Y-45015D01*
X61119Y-45446D01*
X60850Y-45446D01*
X60850Y-41700D01*
X60850Y-41606D01*
X60819Y-41575D01*
X60525Y-41575D01*
X60525Y-41769D01*
X60556Y-41800D01*
X60700Y-41800D01*
X60750Y-41800D01*
X60796Y-41781D01*
X60831Y-41746D01*
X60850Y-41700D01*
X60850Y-45446D01*
X60550Y-45446D01*
X60550Y-45250D01*
X60550Y-45200D01*
X60550Y-45056D01*
X60550Y-44944D01*
X60550Y-44800D01*
X60550Y-44750D01*
X60550Y-44500D01*
X60550Y-44450D01*
X60550Y-44306D01*
X60550Y-44194D01*
X60550Y-44050D01*
X60550Y-44000D01*
X60550Y-43750D01*
X60550Y-43700D01*
X60550Y-43556D01*
X60550Y-43444D01*
X60550Y-43300D01*
X60550Y-43250D01*
X60550Y-43000D01*
X60550Y-42950D01*
X60550Y-42806D01*
X60550Y-42694D01*
X60550Y-42550D01*
X60550Y-42500D01*
X60531Y-42454D01*
X60496Y-42419D01*
X60475Y-42410D01*
X60475Y-41769D01*
X60475Y-41575D01*
X60181Y-41575D01*
X60150Y-41606D01*
X60150Y-41700D01*
X60169Y-41746D01*
X60204Y-41781D01*
X60250Y-41800D01*
X60300Y-41800D01*
X60444Y-41800D01*
X60475Y-41769D01*
X60475Y-42410D01*
X60450Y-42400D01*
X60356Y-42400D01*
X60325Y-42431D01*
X60325Y-42725D01*
X60519Y-42725D01*
X60550Y-42694D01*
X60550Y-42806D01*
X60519Y-42775D01*
X60325Y-42775D01*
X60325Y-43069D01*
X60356Y-43100D01*
X60450Y-43100D01*
X60496Y-43081D01*
X60531Y-43046D01*
X60550Y-43000D01*
X60550Y-43250D01*
X60531Y-43204D01*
X60496Y-43169D01*
X60450Y-43150D01*
X60356Y-43150D01*
X60325Y-43181D01*
X60325Y-43475D01*
X60519Y-43475D01*
X60550Y-43444D01*
X60550Y-43556D01*
X60519Y-43525D01*
X60325Y-43525D01*
X60325Y-43819D01*
X60356Y-43850D01*
X60450Y-43850D01*
X60496Y-43831D01*
X60531Y-43796D01*
X60550Y-43750D01*
X60550Y-44000D01*
X60531Y-43954D01*
X60496Y-43919D01*
X60450Y-43900D01*
X60356Y-43900D01*
X60325Y-43931D01*
X60325Y-44225D01*
X60519Y-44225D01*
X60550Y-44194D01*
X60550Y-44306D01*
X60519Y-44275D01*
X60325Y-44275D01*
X60325Y-44569D01*
X60356Y-44600D01*
X60450Y-44600D01*
X60496Y-44581D01*
X60531Y-44546D01*
X60550Y-44500D01*
X60550Y-44750D01*
X60531Y-44704D01*
X60496Y-44669D01*
X60450Y-44650D01*
X60356Y-44650D01*
X60325Y-44681D01*
X60325Y-44975D01*
X60519Y-44975D01*
X60550Y-44944D01*
X60550Y-45056D01*
X60519Y-45025D01*
X60325Y-45025D01*
X60325Y-45319D01*
X60356Y-45350D01*
X60450Y-45350D01*
X60496Y-45331D01*
X60531Y-45296D01*
X60550Y-45250D01*
X60550Y-45446D01*
X60275Y-45446D01*
X60275Y-45319D01*
X60275Y-45025D01*
X60275Y-44975D01*
X60275Y-44681D01*
X60275Y-44569D01*
X60275Y-44275D01*
X60275Y-44225D01*
X60275Y-43931D01*
X60275Y-43819D01*
X60275Y-43525D01*
X60275Y-43475D01*
X60275Y-43181D01*
X60275Y-43069D01*
X60275Y-42775D01*
X60275Y-42725D01*
X60275Y-42431D01*
X60244Y-42400D01*
X60150Y-42400D01*
X60104Y-42419D01*
X60069Y-42454D01*
X60050Y-42500D01*
X60050Y-42550D01*
X60050Y-42694D01*
X60081Y-42725D01*
X60275Y-42725D01*
X60275Y-42775D01*
X60081Y-42775D01*
X60050Y-42806D01*
X60050Y-42950D01*
X60050Y-43000D01*
X60069Y-43046D01*
X60104Y-43081D01*
X60150Y-43100D01*
X60244Y-43100D01*
X60275Y-43069D01*
X60275Y-43181D01*
X60244Y-43150D01*
X60150Y-43150D01*
X60104Y-43169D01*
X60069Y-43204D01*
X60050Y-43250D01*
X60050Y-43300D01*
X60050Y-43444D01*
X60081Y-43475D01*
X60275Y-43475D01*
X60275Y-43525D01*
X60081Y-43525D01*
X60050Y-43556D01*
X60050Y-43700D01*
X60050Y-43750D01*
X60069Y-43796D01*
X60104Y-43831D01*
X60150Y-43850D01*
X60244Y-43850D01*
X60275Y-43819D01*
X60275Y-43931D01*
X60244Y-43900D01*
X60150Y-43900D01*
X60104Y-43919D01*
X60069Y-43954D01*
X60050Y-44000D01*
X60050Y-44050D01*
X60050Y-44194D01*
X60081Y-44225D01*
X60275Y-44225D01*
X60275Y-44275D01*
X60081Y-44275D01*
X60050Y-44306D01*
X60050Y-44450D01*
X60050Y-44500D01*
X60069Y-44546D01*
X60104Y-44581D01*
X60150Y-44600D01*
X60244Y-44600D01*
X60275Y-44569D01*
X60275Y-44681D01*
X60244Y-44650D01*
X60150Y-44650D01*
X60104Y-44669D01*
X60069Y-44704D01*
X60050Y-44750D01*
X60050Y-44800D01*
X60050Y-44944D01*
X60081Y-44975D01*
X60275Y-44975D01*
X60275Y-45025D01*
X60081Y-45025D01*
X60050Y-45056D01*
X60050Y-45200D01*
X60050Y-45250D01*
X60069Y-45296D01*
X60104Y-45331D01*
X60150Y-45350D01*
X60244Y-45350D01*
X60275Y-45319D01*
X60275Y-45446D01*
X59101Y-45446D01*
X58326Y-44671D01*
X58369Y-44689D01*
X58480Y-44689D01*
X58583Y-44647D01*
X58662Y-44568D01*
X58705Y-44465D01*
X58705Y-44354D01*
X58663Y-44251D01*
X58584Y-44172D01*
X58570Y-44166D01*
X58570Y-43386D01*
X58559Y-43331D01*
X58558Y-43330D01*
X58528Y-43283D01*
X58525Y-43281D01*
X57736Y-42492D01*
X57815Y-42492D01*
X57840Y-42481D01*
X57866Y-42492D01*
X57908Y-42492D01*
X58012Y-42492D01*
X58037Y-42481D01*
X58063Y-42492D01*
X58105Y-42492D01*
X58209Y-42492D01*
X58234Y-42481D01*
X58260Y-42492D01*
X58302Y-42492D01*
X58406Y-42492D01*
X58407Y-42493D01*
X58453Y-42512D01*
X58474Y-42512D01*
X58505Y-42481D01*
X58505Y-42162D01*
X58505Y-42137D01*
X58505Y-42087D01*
X58505Y-42062D01*
X58505Y-41743D01*
X58474Y-41712D01*
X58453Y-41712D01*
X58407Y-41731D01*
X58406Y-41732D01*
X58364Y-41732D01*
X58260Y-41732D01*
X58234Y-41742D01*
X58209Y-41732D01*
X58167Y-41732D01*
X58063Y-41732D01*
X58037Y-41742D01*
X58012Y-41732D01*
X57970Y-41732D01*
X57866Y-41732D01*
X57840Y-41742D01*
X57815Y-41732D01*
X57773Y-41732D01*
X57690Y-41732D01*
X57690Y-41728D01*
X58242Y-41176D01*
X59232Y-41176D01*
X59232Y-41197D01*
X59232Y-41301D01*
X59248Y-41340D01*
X59278Y-41369D01*
X59316Y-41385D01*
X59358Y-41385D01*
X59540Y-41385D01*
X59540Y-42425D01*
X59515Y-42436D01*
X59486Y-42466D01*
X59470Y-42504D01*
X59470Y-42546D01*
X59470Y-42605D01*
X58903Y-42605D01*
X58884Y-42608D01*
X58884Y-42408D01*
X58884Y-42366D01*
X58884Y-41816D01*
X58868Y-41777D01*
X58838Y-41748D01*
X58800Y-41732D01*
X58758Y-41732D01*
X58654Y-41732D01*
X58653Y-41731D01*
X58607Y-41712D01*
X58586Y-41712D01*
X58555Y-41743D01*
X58555Y-42062D01*
X58555Y-42087D01*
X58555Y-42137D01*
X58555Y-42162D01*
X58555Y-42481D01*
X58586Y-42512D01*
X58607Y-42512D01*
X58653Y-42493D01*
X58654Y-42492D01*
X58696Y-42492D01*
X58800Y-42492D01*
X58839Y-42476D01*
X58868Y-42446D01*
X58884Y-42408D01*
X58884Y-42608D01*
X58848Y-42616D01*
X58812Y-42639D01*
X58811Y-42639D01*
X58796Y-42633D01*
X58685Y-42633D01*
X58582Y-42675D01*
X58503Y-42754D01*
X58460Y-42857D01*
X58460Y-42968D01*
X58502Y-43071D01*
X58581Y-43150D01*
X58684Y-43193D01*
X58795Y-43193D01*
X58898Y-43151D01*
X58977Y-43072D01*
X59020Y-42969D01*
X59020Y-42895D01*
X59470Y-42895D01*
X59470Y-42996D01*
X59486Y-43035D01*
X59516Y-43064D01*
X59554Y-43080D01*
X59555Y-43080D01*
X59555Y-43170D01*
X59554Y-43170D01*
X59515Y-43186D01*
X59486Y-43216D01*
X59470Y-43254D01*
X59470Y-43296D01*
X59470Y-43746D01*
X59486Y-43785D01*
X59516Y-43814D01*
X59554Y-43830D01*
X59555Y-43830D01*
X59555Y-43920D01*
X59554Y-43920D01*
X59515Y-43936D01*
X59486Y-43966D01*
X59470Y-44004D01*
X59470Y-44046D01*
X59470Y-44496D01*
X59486Y-44535D01*
X59516Y-44564D01*
X59554Y-44580D01*
X59555Y-44580D01*
X59555Y-44670D01*
X59554Y-44670D01*
X59515Y-44686D01*
X59486Y-44716D01*
X59470Y-44754D01*
X59470Y-44796D01*
X59470Y-45246D01*
X59486Y-45285D01*
X59516Y-45314D01*
X59554Y-45330D01*
X59596Y-45330D01*
X59846Y-45330D01*
X59885Y-45314D01*
X59914Y-45284D01*
X59930Y-45246D01*
X59930Y-45204D01*
X59930Y-44754D01*
X59914Y-44715D01*
X59884Y-44686D01*
X59846Y-44670D01*
X59845Y-44670D01*
X59845Y-44580D01*
X59846Y-44580D01*
X59885Y-44564D01*
X59914Y-44534D01*
X59930Y-44496D01*
X59930Y-44454D01*
X59930Y-44004D01*
X59914Y-43965D01*
X59884Y-43936D01*
X59846Y-43920D01*
X59845Y-43920D01*
X59845Y-43830D01*
X59846Y-43830D01*
X59885Y-43814D01*
X59914Y-43784D01*
X59930Y-43746D01*
X59930Y-43704D01*
X59930Y-43254D01*
X59914Y-43215D01*
X59884Y-43186D01*
X59846Y-43170D01*
X59845Y-43170D01*
X59845Y-43080D01*
X59846Y-43080D01*
X59885Y-43064D01*
X59914Y-43034D01*
X59930Y-42996D01*
X59930Y-42954D01*
X59930Y-42504D01*
X59914Y-42465D01*
X59884Y-42436D01*
X59846Y-42420D01*
X59830Y-42420D01*
X59830Y-41385D01*
X59908Y-41385D01*
X59937Y-41373D01*
X60161Y-41373D01*
X60150Y-41400D01*
X60150Y-41494D01*
X60181Y-41525D01*
X60450Y-41525D01*
X60475Y-41525D01*
X60525Y-41525D01*
X60550Y-41525D01*
X60819Y-41525D01*
X60850Y-41494D01*
X60850Y-41400D01*
X60838Y-41373D01*
X61051Y-41373D01*
X61056Y-41374D01*
X61056Y-41373D01*
X61111Y-41362D01*
X61112Y-41362D01*
X61159Y-41331D01*
X61360Y-41128D01*
X61362Y-41127D01*
X61363Y-41127D01*
X61393Y-41080D01*
X61394Y-41079D01*
X61405Y-41024D01*
X61405Y-38977D01*
X61394Y-38922D01*
X61393Y-38921D01*
X61363Y-38874D01*
X61360Y-38872D01*
X61275Y-38786D01*
X61275Y-38069D01*
X61275Y-37775D01*
X61275Y-37725D01*
X61275Y-37431D01*
X61275Y-34069D01*
X61275Y-33775D01*
X61275Y-33725D01*
X61275Y-33431D01*
X61244Y-33400D01*
X61150Y-33400D01*
X61104Y-33419D01*
X61069Y-33454D01*
X61050Y-33500D01*
X61050Y-33550D01*
X61050Y-33694D01*
X61081Y-33725D01*
X61275Y-33725D01*
X61275Y-33775D01*
X61081Y-33775D01*
X61050Y-33806D01*
X61050Y-33950D01*
X61050Y-34000D01*
X61069Y-34046D01*
X61104Y-34081D01*
X61150Y-34100D01*
X61244Y-34100D01*
X61275Y-34069D01*
X61275Y-37431D01*
X61244Y-37400D01*
X61150Y-37400D01*
X61104Y-37419D01*
X61069Y-37454D01*
X61050Y-37500D01*
X61050Y-37550D01*
X61050Y-37694D01*
X61081Y-37725D01*
X61275Y-37725D01*
X61275Y-37775D01*
X61081Y-37775D01*
X61050Y-37806D01*
X61050Y-37950D01*
X61050Y-38000D01*
X61069Y-38046D01*
X61104Y-38081D01*
X61150Y-38100D01*
X61244Y-38100D01*
X61275Y-38069D01*
X61275Y-38786D01*
X60659Y-38170D01*
X60612Y-38139D01*
X60556Y-38127D01*
X60551Y-38128D01*
X59936Y-38128D01*
X59908Y-38116D01*
X59866Y-38116D01*
X59316Y-38116D01*
X59286Y-38128D01*
X58905Y-38128D01*
X58905Y-37688D01*
X58905Y-37638D01*
X58905Y-37444D01*
X58874Y-37413D01*
X58753Y-37413D01*
X58753Y-37757D01*
X58784Y-37788D01*
X58805Y-37788D01*
X58851Y-37769D01*
X58886Y-37734D01*
X58905Y-37688D01*
X58905Y-38128D01*
X58726Y-38128D01*
X58449Y-37850D01*
X58402Y-37819D01*
X58346Y-37807D01*
X58341Y-37808D01*
X56935Y-37808D01*
X56935Y-37688D01*
X56935Y-37638D01*
X56935Y-37444D01*
X56935Y-37332D01*
X56935Y-37138D01*
X56935Y-37088D01*
X56930Y-37075D01*
X56930Y-37019D01*
X56899Y-36988D01*
X56878Y-36988D01*
X56856Y-36996D01*
X56835Y-36988D01*
X56814Y-36988D01*
X56783Y-37019D01*
X56783Y-37075D01*
X56778Y-37088D01*
X56778Y-37138D01*
X56778Y-37332D01*
X56783Y-37337D01*
X56783Y-37363D01*
X56809Y-37363D01*
X56904Y-37363D01*
X56930Y-37363D01*
X56930Y-37337D01*
X56935Y-37332D01*
X56935Y-37444D01*
X56930Y-37439D01*
X56930Y-37413D01*
X56904Y-37413D01*
X56809Y-37413D01*
X56783Y-37413D01*
X56783Y-37439D01*
X56778Y-37444D01*
X56778Y-37638D01*
X56778Y-37688D01*
X56783Y-37700D01*
X56783Y-37757D01*
X56814Y-37788D01*
X56835Y-37788D01*
X56856Y-37779D01*
X56878Y-37788D01*
X56899Y-37788D01*
X56930Y-37757D01*
X56930Y-37700D01*
X56935Y-37688D01*
X56935Y-37808D01*
X56706Y-37808D01*
X56706Y-37784D01*
X56733Y-37757D01*
X56733Y-37438D01*
X56733Y-37413D01*
X56733Y-37363D01*
X56733Y-37338D01*
X56733Y-37019D01*
X56702Y-36988D01*
X56681Y-36988D01*
X56635Y-37007D01*
X56634Y-37008D01*
X56592Y-37008D01*
X56488Y-37008D01*
X56487Y-37007D01*
X56441Y-36988D01*
X56420Y-36988D01*
X56389Y-37019D01*
X56389Y-37338D01*
X56389Y-37363D01*
X56389Y-37413D01*
X56389Y-37438D01*
X56389Y-37757D01*
X56416Y-37784D01*
X56416Y-37895D01*
X56415Y-37900D01*
X56427Y-37956D01*
X56458Y-38003D01*
X56509Y-38053D01*
X56511Y-38056D01*
X56539Y-38074D01*
X56456Y-38108D01*
X56377Y-38187D01*
X56334Y-38290D01*
X56334Y-38401D01*
X56339Y-38415D01*
X56000Y-38753D01*
X55986Y-38739D01*
X55883Y-38696D01*
X55772Y-38696D01*
X55669Y-38738D01*
X55590Y-38817D01*
X55547Y-38920D01*
X55547Y-38969D01*
X55536Y-38952D01*
X55533Y-38950D01*
X55442Y-38858D01*
X56267Y-38032D01*
X56269Y-38031D01*
X56270Y-38031D01*
X56300Y-37984D01*
X56301Y-37983D01*
X56312Y-37928D01*
X56312Y-37784D01*
X56339Y-37757D01*
X56339Y-37438D01*
X56339Y-37413D01*
X56339Y-37363D01*
X56339Y-37338D01*
X56339Y-37019D01*
X56312Y-36992D01*
X56312Y-36722D01*
X56312Y-36718D01*
X56313Y-36718D01*
X56301Y-36663D01*
X56301Y-36662D01*
X56270Y-36615D01*
X56002Y-36347D01*
X55955Y-36316D01*
X55903Y-36305D01*
X56171Y-36305D01*
X56210Y-36289D01*
X56239Y-36259D01*
X56255Y-36221D01*
X56255Y-36195D01*
X56420Y-36195D01*
X56420Y-36196D01*
X56436Y-36235D01*
X56466Y-36264D01*
X56504Y-36280D01*
X56546Y-36280D01*
X56774Y-36280D01*
X57007Y-36512D01*
X57007Y-36992D01*
X56980Y-37019D01*
X56980Y-37338D01*
X56980Y-37363D01*
X56980Y-37413D01*
X56980Y-37438D01*
X56980Y-37757D01*
X57011Y-37788D01*
X57032Y-37788D01*
X57078Y-37769D01*
X57079Y-37768D01*
X57121Y-37768D01*
X57225Y-37768D01*
X57250Y-37757D01*
X57276Y-37768D01*
X57318Y-37768D01*
X57422Y-37768D01*
X57447Y-37757D01*
X57473Y-37768D01*
X57515Y-37768D01*
X57619Y-37768D01*
X57644Y-37757D01*
X57670Y-37768D01*
X57712Y-37768D01*
X57816Y-37768D01*
X57817Y-37769D01*
X57863Y-37788D01*
X57884Y-37788D01*
X57915Y-37757D01*
X57915Y-37438D01*
X57915Y-37413D01*
X57915Y-37363D01*
X57915Y-37338D01*
X57915Y-37019D01*
X57888Y-36992D01*
X57888Y-36709D01*
X57951Y-36772D01*
X57992Y-36789D01*
X57992Y-36992D01*
X57965Y-37019D01*
X57965Y-37338D01*
X57965Y-37363D01*
X57965Y-37413D01*
X57965Y-37438D01*
X57965Y-37757D01*
X57996Y-37788D01*
X58017Y-37788D01*
X58063Y-37769D01*
X58064Y-37768D01*
X58106Y-37768D01*
X58210Y-37768D01*
X58235Y-37757D01*
X58261Y-37768D01*
X58303Y-37768D01*
X58407Y-37768D01*
X58432Y-37757D01*
X58458Y-37768D01*
X58500Y-37768D01*
X58604Y-37768D01*
X58605Y-37769D01*
X58651Y-37788D01*
X58672Y-37788D01*
X58703Y-37757D01*
X58703Y-37438D01*
X58703Y-37413D01*
X58703Y-37363D01*
X58753Y-37363D01*
X58778Y-37363D01*
X58874Y-37363D01*
X58905Y-37332D01*
X58905Y-37138D01*
X58905Y-37088D01*
X58887Y-37046D01*
X59265Y-37423D01*
X59267Y-37426D01*
X59302Y-37449D01*
X59313Y-37456D01*
X59315Y-37457D01*
X59355Y-37465D01*
X59369Y-37468D01*
X59369Y-37467D01*
X59370Y-37468D01*
X60212Y-37468D01*
X60470Y-37725D01*
X60470Y-37996D01*
X60486Y-38035D01*
X60516Y-38064D01*
X60554Y-38080D01*
X60596Y-38080D01*
X60846Y-38080D01*
X60885Y-38064D01*
X60914Y-38034D01*
X60930Y-37996D01*
X60930Y-37954D01*
X60930Y-37504D01*
X60914Y-37465D01*
X60884Y-37436D01*
X60846Y-37420D01*
X60804Y-37420D01*
X60575Y-37420D01*
X60478Y-37323D01*
X60621Y-37180D01*
X61046Y-37180D01*
X61085Y-37164D01*
X61114Y-37134D01*
X61130Y-37096D01*
X61130Y-37054D01*
X61130Y-36304D01*
X61114Y-36265D01*
X61084Y-36236D01*
X61046Y-36220D01*
X61004Y-36220D01*
X60454Y-36220D01*
X60415Y-36236D01*
X60386Y-36266D01*
X60370Y-36304D01*
X60370Y-36346D01*
X60370Y-37020D01*
X60212Y-37178D01*
X60050Y-37178D01*
X60085Y-37164D01*
X60114Y-37134D01*
X60130Y-37096D01*
X60130Y-37054D01*
X60130Y-36304D01*
X60114Y-36265D01*
X60084Y-36236D01*
X60046Y-36220D01*
X60004Y-36220D01*
X59454Y-36220D01*
X59415Y-36236D01*
X59386Y-36266D01*
X59370Y-36304D01*
X59370Y-36346D01*
X59370Y-37096D01*
X59385Y-37132D01*
X59000Y-36747D01*
X58953Y-36716D01*
X58897Y-36704D01*
X58892Y-36705D01*
X58740Y-36705D01*
X58685Y-36715D01*
X59155Y-36245D01*
X59157Y-36244D01*
X59158Y-36244D01*
X59188Y-36197D01*
X59189Y-36196D01*
X59200Y-36141D01*
X59200Y-36045D01*
X59352Y-35893D01*
X60310Y-35893D01*
X60315Y-35894D01*
X60315Y-35893D01*
X60370Y-35882D01*
X60371Y-35882D01*
X60418Y-35851D01*
X60850Y-35417D01*
X60852Y-35416D01*
X60853Y-35416D01*
X60871Y-35387D01*
X60884Y-35369D01*
X60884Y-35368D01*
X60895Y-35313D01*
X60896Y-35313D01*
X60895Y-35308D01*
X60895Y-35280D01*
X61046Y-35280D01*
X61085Y-35264D01*
X61114Y-35234D01*
X61130Y-35196D01*
X61130Y-35154D01*
X61130Y-34404D01*
X61114Y-34365D01*
X61084Y-34336D01*
X61046Y-34320D01*
X61004Y-34320D01*
X60845Y-34320D01*
X60845Y-34080D01*
X60846Y-34080D01*
X60885Y-34064D01*
X60914Y-34034D01*
X60930Y-33996D01*
X60930Y-33954D01*
X60930Y-33504D01*
X60914Y-33465D01*
X60884Y-33436D01*
X60846Y-33420D01*
X60804Y-33420D01*
X60554Y-33420D01*
X60515Y-33436D01*
X60486Y-33466D01*
X60470Y-33504D01*
X60470Y-33546D01*
X60470Y-33996D01*
X60486Y-34035D01*
X60516Y-34064D01*
X60554Y-34080D01*
X60555Y-34080D01*
X60555Y-34320D01*
X60454Y-34320D01*
X60415Y-34336D01*
X60386Y-34366D01*
X60370Y-34404D01*
X60370Y-34446D01*
X60370Y-35196D01*
X60386Y-35235D01*
X60416Y-35264D01*
X60454Y-35280D01*
X60496Y-35280D01*
X60577Y-35280D01*
X60254Y-35603D01*
X60130Y-35603D01*
X60130Y-35196D01*
X60130Y-35154D01*
X60130Y-34404D01*
X60114Y-34365D01*
X60084Y-34336D01*
X60046Y-34320D01*
X60004Y-34320D01*
X59539Y-34320D01*
X59539Y-33251D01*
X59539Y-32790D01*
X59539Y-32678D01*
X59539Y-32217D01*
X59539Y-31086D01*
X59539Y-30625D01*
X59539Y-30513D01*
X59539Y-30052D01*
X59520Y-30006D01*
X59485Y-29971D01*
X59439Y-29952D01*
X59389Y-29952D01*
X59077Y-29952D01*
X59046Y-29983D01*
X59046Y-30544D01*
X59508Y-30544D01*
X59539Y-30513D01*
X59539Y-30625D01*
X59508Y-30594D01*
X59046Y-30594D01*
X59046Y-31155D01*
X59077Y-31186D01*
X59389Y-31186D01*
X59439Y-31186D01*
X59485Y-31167D01*
X59520Y-31132D01*
X59539Y-31086D01*
X59539Y-32217D01*
X59520Y-32171D01*
X59485Y-32136D01*
X59439Y-32117D01*
X59389Y-32117D01*
X59077Y-32117D01*
X59046Y-32148D01*
X59046Y-32709D01*
X59508Y-32709D01*
X59539Y-32678D01*
X59539Y-32790D01*
X59508Y-32759D01*
X59046Y-32759D01*
X59046Y-33320D01*
X59077Y-33351D01*
X59389Y-33351D01*
X59439Y-33351D01*
X59485Y-33332D01*
X59520Y-33297D01*
X59539Y-33251D01*
X59539Y-34320D01*
X59454Y-34320D01*
X59415Y-34336D01*
X59386Y-34366D01*
X59370Y-34404D01*
X59370Y-34446D01*
X59370Y-35196D01*
X59386Y-35235D01*
X59416Y-35264D01*
X59454Y-35280D01*
X59496Y-35280D01*
X60046Y-35280D01*
X60085Y-35264D01*
X60114Y-35234D01*
X60130Y-35196D01*
X60130Y-35603D01*
X59296Y-35603D01*
X59292Y-35602D01*
X59236Y-35614D01*
X59217Y-35626D01*
X59189Y-35645D01*
X59187Y-35647D01*
X58996Y-35838D01*
X58996Y-33320D01*
X58996Y-32759D01*
X58996Y-32709D01*
X58996Y-32148D01*
X58996Y-31155D01*
X58996Y-30594D01*
X58996Y-30544D01*
X58996Y-29983D01*
X58965Y-29952D01*
X58653Y-29952D01*
X58603Y-29952D01*
X58557Y-29971D01*
X58522Y-30006D01*
X58503Y-30052D01*
X58503Y-30513D01*
X58534Y-30544D01*
X58996Y-30544D01*
X58996Y-30594D01*
X58534Y-30594D01*
X58503Y-30625D01*
X58503Y-31086D01*
X58522Y-31132D01*
X58557Y-31167D01*
X58603Y-31186D01*
X58653Y-31186D01*
X58965Y-31186D01*
X58996Y-31155D01*
X58996Y-32148D01*
X58965Y-32117D01*
X58653Y-32117D01*
X58603Y-32117D01*
X58557Y-32136D01*
X58522Y-32171D01*
X58503Y-32217D01*
X58503Y-32678D01*
X58534Y-32709D01*
X58996Y-32709D01*
X58996Y-32759D01*
X58534Y-32759D01*
X58503Y-32790D01*
X58503Y-33251D01*
X58522Y-33297D01*
X58557Y-33332D01*
X58603Y-33351D01*
X58653Y-33351D01*
X58965Y-33351D01*
X58996Y-33320D01*
X58996Y-35838D01*
X58952Y-35882D01*
X58921Y-35929D01*
X58909Y-35985D01*
X58910Y-35989D01*
X58910Y-36080D01*
X58460Y-36529D01*
X58460Y-35441D01*
X58460Y-35347D01*
X58460Y-35235D01*
X58460Y-35141D01*
X58441Y-35095D01*
X58406Y-35060D01*
X58360Y-35041D01*
X58310Y-35041D01*
X58243Y-35041D01*
X58243Y-31811D01*
X58243Y-31690D01*
X58197Y-31578D01*
X58112Y-31493D01*
X58000Y-31446D01*
X57879Y-31446D01*
X57767Y-31492D01*
X57682Y-31577D01*
X57635Y-31689D01*
X57635Y-31810D01*
X57681Y-31922D01*
X57766Y-32007D01*
X57878Y-32054D01*
X57999Y-32054D01*
X58111Y-32008D01*
X58196Y-31923D01*
X58243Y-31811D01*
X58243Y-35041D01*
X58166Y-35041D01*
X58135Y-35072D01*
X58135Y-35266D01*
X58429Y-35266D01*
X58460Y-35235D01*
X58460Y-35347D01*
X58429Y-35316D01*
X58135Y-35316D01*
X58135Y-35510D01*
X58166Y-35541D01*
X58310Y-35541D01*
X58360Y-35541D01*
X58406Y-35522D01*
X58441Y-35487D01*
X58460Y-35441D01*
X58460Y-36529D01*
X58383Y-36606D01*
X58390Y-36591D01*
X58390Y-36480D01*
X58348Y-36377D01*
X58269Y-36298D01*
X58166Y-36255D01*
X58055Y-36255D01*
X57952Y-36297D01*
X57888Y-36361D01*
X57888Y-36319D01*
X58086Y-36121D01*
X58356Y-36121D01*
X58395Y-36105D01*
X58424Y-36075D01*
X58440Y-36037D01*
X58440Y-35995D01*
X58440Y-35745D01*
X58424Y-35706D01*
X58394Y-35677D01*
X58356Y-35661D01*
X58314Y-35661D01*
X58085Y-35661D01*
X58085Y-35510D01*
X58085Y-35316D01*
X58085Y-35266D01*
X58085Y-35072D01*
X58054Y-35041D01*
X57910Y-35041D01*
X57860Y-35041D01*
X57814Y-35060D01*
X57779Y-35095D01*
X57760Y-35141D01*
X57760Y-35235D01*
X57791Y-35266D01*
X58085Y-35266D01*
X58085Y-35316D01*
X57791Y-35316D01*
X57760Y-35347D01*
X57760Y-35441D01*
X57779Y-35487D01*
X57814Y-35522D01*
X57860Y-35541D01*
X57910Y-35541D01*
X58054Y-35541D01*
X58085Y-35510D01*
X58085Y-35661D01*
X57864Y-35661D01*
X57825Y-35677D01*
X57796Y-35707D01*
X57780Y-35745D01*
X57780Y-35787D01*
X57780Y-36015D01*
X57691Y-36104D01*
X57691Y-33879D01*
X57715Y-33938D01*
X57794Y-34017D01*
X57897Y-34060D01*
X58008Y-34060D01*
X58111Y-34018D01*
X58190Y-33939D01*
X58233Y-33836D01*
X58233Y-33725D01*
X58191Y-33622D01*
X58112Y-33543D01*
X58024Y-33506D01*
X58024Y-33368D01*
X58037Y-33363D01*
X58066Y-33333D01*
X58082Y-33295D01*
X58082Y-33253D01*
X58082Y-32253D01*
X58066Y-32214D01*
X58036Y-32185D01*
X57998Y-32169D01*
X57956Y-32169D01*
X57760Y-32169D01*
X57721Y-32185D01*
X57683Y-32169D01*
X57641Y-32169D01*
X57445Y-32169D01*
X57406Y-32184D01*
X57369Y-32169D01*
X57327Y-32169D01*
X57131Y-32169D01*
X57092Y-32185D01*
X57063Y-32215D01*
X57049Y-32247D01*
X57042Y-32245D01*
X57000Y-32245D01*
X56865Y-32245D01*
X56865Y-31811D01*
X56865Y-31690D01*
X56819Y-31578D01*
X56734Y-31493D01*
X56622Y-31446D01*
X56501Y-31446D01*
X56389Y-31492D01*
X56304Y-31577D01*
X56257Y-31689D01*
X56257Y-31810D01*
X56303Y-31922D01*
X56388Y-32007D01*
X56500Y-32054D01*
X56621Y-32054D01*
X56733Y-32008D01*
X56818Y-31923D01*
X56865Y-31811D01*
X56865Y-32245D01*
X56842Y-32245D01*
X56825Y-32203D01*
X56790Y-32168D01*
X56744Y-32149D01*
X56694Y-32149D01*
X56677Y-32149D01*
X56646Y-32180D01*
X56646Y-32724D01*
X56646Y-32749D01*
X56646Y-32799D01*
X56646Y-32824D01*
X56646Y-33368D01*
X56677Y-33399D01*
X56694Y-33399D01*
X56744Y-33399D01*
X56790Y-33380D01*
X56825Y-33345D01*
X56844Y-33299D01*
X56844Y-33255D01*
X56872Y-33255D01*
X57042Y-33255D01*
X57047Y-33252D01*
X57047Y-33295D01*
X57063Y-33334D01*
X57093Y-33363D01*
X57105Y-33368D01*
X57105Y-33387D01*
X57104Y-33392D01*
X57116Y-33448D01*
X57147Y-33495D01*
X57204Y-33552D01*
X57204Y-36298D01*
X57100Y-36194D01*
X57100Y-35600D01*
X57100Y-35506D01*
X57100Y-35394D01*
X57100Y-35300D01*
X57081Y-35254D01*
X57046Y-35219D01*
X57000Y-35200D01*
X56950Y-35200D01*
X56806Y-35200D01*
X56775Y-35231D01*
X56775Y-35425D01*
X57069Y-35425D01*
X57100Y-35394D01*
X57100Y-35506D01*
X57069Y-35475D01*
X56775Y-35475D01*
X56775Y-35669D01*
X56806Y-35700D01*
X56950Y-35700D01*
X57000Y-35700D01*
X57046Y-35681D01*
X57081Y-35646D01*
X57100Y-35600D01*
X57100Y-36194D01*
X57080Y-36174D01*
X57080Y-36154D01*
X57080Y-35904D01*
X57064Y-35865D01*
X57034Y-35836D01*
X56996Y-35820D01*
X56954Y-35820D01*
X56725Y-35820D01*
X56725Y-35669D01*
X56725Y-35475D01*
X56725Y-35425D01*
X56725Y-35231D01*
X56694Y-35200D01*
X56596Y-35200D01*
X56596Y-33368D01*
X56596Y-32799D01*
X56596Y-32749D01*
X56596Y-32180D01*
X56565Y-32149D01*
X56548Y-32149D01*
X56498Y-32149D01*
X56452Y-32168D01*
X56417Y-32203D01*
X56398Y-32249D01*
X56398Y-32718D01*
X56429Y-32749D01*
X56596Y-32749D01*
X56596Y-32799D01*
X56429Y-32799D01*
X56398Y-32830D01*
X56398Y-33299D01*
X56417Y-33345D01*
X56452Y-33380D01*
X56498Y-33399D01*
X56548Y-33399D01*
X56565Y-33399D01*
X56596Y-33368D01*
X56596Y-35200D01*
X56550Y-35200D01*
X56500Y-35200D01*
X56454Y-35219D01*
X56419Y-35254D01*
X56400Y-35300D01*
X56400Y-35394D01*
X56431Y-35425D01*
X56725Y-35425D01*
X56725Y-35475D01*
X56431Y-35475D01*
X56400Y-35506D01*
X56400Y-35600D01*
X56419Y-35646D01*
X56454Y-35681D01*
X56500Y-35700D01*
X56550Y-35700D01*
X56694Y-35700D01*
X56725Y-35669D01*
X56725Y-35820D01*
X56504Y-35820D01*
X56465Y-35836D01*
X56436Y-35866D01*
X56420Y-35904D01*
X56420Y-35905D01*
X56275Y-35905D01*
X56275Y-34925D01*
X56275Y-34656D01*
X56275Y-34544D01*
X56275Y-34275D01*
X56256Y-34229D01*
X56221Y-34194D01*
X56175Y-34175D01*
X56125Y-34175D01*
X56036Y-34175D01*
X56036Y-33251D01*
X56036Y-32790D01*
X56036Y-32678D01*
X56036Y-32217D01*
X56017Y-32171D01*
X55997Y-32151D01*
X55997Y-31086D01*
X55997Y-30625D01*
X55997Y-30513D01*
X55997Y-30052D01*
X55978Y-30006D01*
X55943Y-29971D01*
X55897Y-29952D01*
X55847Y-29952D01*
X55535Y-29952D01*
X55504Y-29983D01*
X55504Y-30544D01*
X55966Y-30544D01*
X55997Y-30513D01*
X55997Y-30625D01*
X55966Y-30594D01*
X55504Y-30594D01*
X55504Y-31155D01*
X55535Y-31186D01*
X55847Y-31186D01*
X55897Y-31186D01*
X55943Y-31167D01*
X55978Y-31132D01*
X55997Y-31086D01*
X55997Y-32151D01*
X55982Y-32136D01*
X55936Y-32117D01*
X55886Y-32117D01*
X55574Y-32117D01*
X55543Y-32148D01*
X55543Y-32709D01*
X56005Y-32709D01*
X56036Y-32678D01*
X56036Y-32790D01*
X56005Y-32759D01*
X55543Y-32759D01*
X55543Y-33320D01*
X55574Y-33351D01*
X55886Y-33351D01*
X55936Y-33351D01*
X55982Y-33332D01*
X56017Y-33297D01*
X56036Y-33251D01*
X56036Y-34175D01*
X55806Y-34175D01*
X55775Y-34206D01*
X55775Y-34575D01*
X56244Y-34575D01*
X56275Y-34544D01*
X56275Y-34656D01*
X56244Y-34625D01*
X55775Y-34625D01*
X55775Y-34994D01*
X55806Y-35025D01*
X56125Y-35025D01*
X56175Y-35025D01*
X56221Y-35006D01*
X56256Y-34971D01*
X56275Y-34925D01*
X56275Y-35905D01*
X56255Y-35905D01*
X56255Y-35579D01*
X56239Y-35540D01*
X56209Y-35511D01*
X56171Y-35495D01*
X56129Y-35495D01*
X55725Y-35495D01*
X55725Y-34994D01*
X55725Y-34625D01*
X55725Y-34575D01*
X55725Y-34206D01*
X55694Y-34175D01*
X55493Y-34175D01*
X55493Y-33320D01*
X55493Y-32759D01*
X55493Y-32709D01*
X55493Y-32148D01*
X55462Y-32117D01*
X55454Y-32117D01*
X55454Y-31155D01*
X55454Y-30594D01*
X55454Y-30544D01*
X55454Y-29983D01*
X55423Y-29952D01*
X55111Y-29952D01*
X55061Y-29952D01*
X55015Y-29971D01*
X54980Y-30006D01*
X54961Y-30052D01*
X54961Y-30513D01*
X54992Y-30544D01*
X55454Y-30544D01*
X55454Y-30594D01*
X54992Y-30594D01*
X54961Y-30625D01*
X54961Y-31086D01*
X54980Y-31132D01*
X55015Y-31167D01*
X55061Y-31186D01*
X55111Y-31186D01*
X55423Y-31186D01*
X55454Y-31155D01*
X55454Y-32117D01*
X55150Y-32117D01*
X55100Y-32117D01*
X55054Y-32136D01*
X55019Y-32171D01*
X55000Y-32217D01*
X55000Y-32678D01*
X55031Y-32709D01*
X55493Y-32709D01*
X55493Y-32759D01*
X55031Y-32759D01*
X55000Y-32790D01*
X55000Y-33251D01*
X55019Y-33297D01*
X55054Y-33332D01*
X55100Y-33351D01*
X55150Y-33351D01*
X55462Y-33351D01*
X55493Y-33320D01*
X55493Y-34175D01*
X55375Y-34175D01*
X55325Y-34175D01*
X55279Y-34194D01*
X55244Y-34229D01*
X55225Y-34275D01*
X55225Y-34544D01*
X55256Y-34575D01*
X55725Y-34575D01*
X55725Y-34625D01*
X55256Y-34625D01*
X55225Y-34656D01*
X55225Y-34925D01*
X55244Y-34971D01*
X55279Y-35006D01*
X55325Y-35025D01*
X55375Y-35025D01*
X55694Y-35025D01*
X55725Y-34994D01*
X55725Y-35495D01*
X55329Y-35495D01*
X55290Y-35511D01*
X55261Y-35541D01*
X55245Y-35579D01*
X55245Y-35621D01*
X55245Y-35655D01*
X55080Y-35655D01*
X55080Y-35654D01*
X55064Y-35615D01*
X55034Y-35586D01*
X54996Y-35570D01*
X54954Y-35570D01*
X54504Y-35570D01*
X54465Y-35586D01*
X54436Y-35616D01*
X54420Y-35654D01*
X54420Y-35696D01*
X54420Y-35946D01*
X54436Y-35985D01*
X54466Y-36014D01*
X54504Y-36030D01*
X54546Y-36030D01*
X54996Y-36030D01*
X55035Y-36014D01*
X55064Y-35984D01*
X55080Y-35946D01*
X55080Y-35945D01*
X55245Y-35945D01*
X55245Y-36221D01*
X55261Y-36260D01*
X55291Y-36289D01*
X55329Y-36305D01*
X53830Y-36305D01*
X53830Y-36304D01*
X53814Y-36265D01*
X53784Y-36236D01*
X53746Y-36220D01*
X53704Y-36220D01*
X53645Y-36220D01*
X53645Y-35851D01*
X53975Y-35520D01*
X53977Y-35519D01*
X53978Y-35519D01*
X54008Y-35472D01*
X54009Y-35471D01*
X54020Y-35416D01*
X54020Y-35278D01*
X54055Y-35264D01*
X54084Y-35234D01*
X54100Y-35196D01*
X54100Y-35154D01*
X54100Y-35145D01*
X54420Y-35145D01*
X54420Y-35346D01*
X54436Y-35385D01*
X54466Y-35414D01*
X54504Y-35430D01*
X54546Y-35430D01*
X54996Y-35430D01*
X55035Y-35414D01*
X55064Y-35384D01*
X55080Y-35346D01*
X55080Y-35304D01*
X55080Y-35054D01*
X55064Y-35015D01*
X55034Y-34986D01*
X54996Y-34970D01*
X54954Y-34970D01*
X54725Y-34970D01*
X54653Y-34897D01*
X54606Y-34866D01*
X54550Y-34854D01*
X54545Y-34855D01*
X54100Y-34855D01*
X54100Y-34804D01*
X54100Y-34196D01*
X54100Y-34154D01*
X54100Y-33804D01*
X54084Y-33765D01*
X54054Y-33736D01*
X54050Y-33734D01*
X54050Y-33250D01*
X54050Y-33200D01*
X54050Y-33056D01*
X54050Y-32944D01*
X54050Y-32800D01*
X54050Y-32750D01*
X54050Y-32500D01*
X54050Y-32450D01*
X54050Y-32306D01*
X54050Y-32194D01*
X54050Y-32050D01*
X54050Y-32000D01*
X54031Y-31954D01*
X53996Y-31919D01*
X53950Y-31900D01*
X53856Y-31900D01*
X53825Y-31931D01*
X53825Y-32225D01*
X54019Y-32225D01*
X54050Y-32194D01*
X54050Y-32306D01*
X54019Y-32275D01*
X53825Y-32275D01*
X53825Y-32569D01*
X53856Y-32600D01*
X53950Y-32600D01*
X53996Y-32581D01*
X54031Y-32546D01*
X54050Y-32500D01*
X54050Y-32750D01*
X54031Y-32704D01*
X53996Y-32669D01*
X53950Y-32650D01*
X53856Y-32650D01*
X53825Y-32681D01*
X53825Y-32975D01*
X54019Y-32975D01*
X54050Y-32944D01*
X54050Y-33056D01*
X54019Y-33025D01*
X53825Y-33025D01*
X53825Y-33319D01*
X53856Y-33350D01*
X53950Y-33350D01*
X53996Y-33331D01*
X54031Y-33296D01*
X54050Y-33250D01*
X54050Y-33734D01*
X54016Y-33720D01*
X53974Y-33720D01*
X53775Y-33720D01*
X53775Y-33319D01*
X53775Y-33025D01*
X53775Y-32975D01*
X53775Y-32681D01*
X53775Y-32569D01*
X53775Y-32275D01*
X53775Y-32225D01*
X53775Y-31931D01*
X53744Y-31900D01*
X53650Y-31900D01*
X53604Y-31919D01*
X53569Y-31954D01*
X53550Y-32000D01*
X53550Y-32050D01*
X53550Y-32194D01*
X53581Y-32225D01*
X53775Y-32225D01*
X53775Y-32275D01*
X53581Y-32275D01*
X53550Y-32306D01*
X53550Y-32450D01*
X53550Y-32500D01*
X53569Y-32546D01*
X53604Y-32581D01*
X53650Y-32600D01*
X53744Y-32600D01*
X53775Y-32569D01*
X53775Y-32681D01*
X53744Y-32650D01*
X53650Y-32650D01*
X53604Y-32669D01*
X53569Y-32704D01*
X53550Y-32750D01*
X53550Y-32800D01*
X53550Y-32944D01*
X53581Y-32975D01*
X53775Y-32975D01*
X53775Y-33025D01*
X53581Y-33025D01*
X53550Y-33056D01*
X53550Y-33200D01*
X53550Y-33250D01*
X53569Y-33296D01*
X53604Y-33331D01*
X53650Y-33350D01*
X53744Y-33350D01*
X53775Y-33319D01*
X53775Y-33720D01*
X53734Y-33720D01*
X53704Y-33732D01*
X53691Y-33719D01*
X53645Y-33700D01*
X53556Y-33700D01*
X53525Y-33731D01*
X53525Y-33950D01*
X53525Y-33975D01*
X53525Y-34025D01*
X53525Y-34050D01*
X53525Y-34269D01*
X53556Y-34300D01*
X53645Y-34300D01*
X53691Y-34281D01*
X53704Y-34267D01*
X53712Y-34271D01*
X53640Y-34343D01*
X53367Y-34343D01*
X53293Y-34268D01*
X53295Y-34267D01*
X53309Y-34281D01*
X53355Y-34300D01*
X53444Y-34300D01*
X53475Y-34269D01*
X53475Y-34050D01*
X53475Y-34025D01*
X53475Y-33975D01*
X53475Y-33950D01*
X53475Y-33731D01*
X53444Y-33700D01*
X53355Y-33700D01*
X53309Y-33719D01*
X53295Y-33732D01*
X53270Y-33721D01*
X53270Y-33330D01*
X53346Y-33330D01*
X53385Y-33314D01*
X53414Y-33284D01*
X53430Y-33246D01*
X53430Y-33204D01*
X53430Y-32754D01*
X53414Y-32715D01*
X53384Y-32686D01*
X53346Y-32670D01*
X53345Y-32670D01*
X53345Y-32580D01*
X53346Y-32580D01*
X53385Y-32564D01*
X53414Y-32534D01*
X53430Y-32496D01*
X53430Y-32454D01*
X53430Y-32004D01*
X53414Y-31965D01*
X53384Y-31936D01*
X53346Y-31920D01*
X53304Y-31920D01*
X53054Y-31920D01*
X53015Y-31936D01*
X52986Y-31966D01*
X52970Y-32004D01*
X52970Y-32046D01*
X52970Y-32496D01*
X52986Y-32535D01*
X53016Y-32564D01*
X53054Y-32580D01*
X53055Y-32580D01*
X53055Y-32670D01*
X53054Y-32670D01*
X53015Y-32686D01*
X52986Y-32716D01*
X52970Y-32754D01*
X52970Y-32796D01*
X52970Y-33246D01*
X52980Y-33270D01*
X52980Y-33721D01*
X52945Y-33736D01*
X52916Y-33766D01*
X52900Y-33804D01*
X52900Y-33846D01*
X52900Y-33855D01*
X52879Y-33855D01*
X52794Y-33770D01*
X52800Y-33757D01*
X52800Y-33646D01*
X52758Y-33543D01*
X52679Y-33464D01*
X52576Y-33421D01*
X52465Y-33421D01*
X52362Y-33463D01*
X52283Y-33542D01*
X52240Y-33645D01*
X52240Y-33756D01*
X52282Y-33859D01*
X52361Y-33938D01*
X52464Y-33981D01*
X52575Y-33981D01*
X52588Y-33975D01*
X52714Y-34100D01*
X52716Y-34103D01*
X52763Y-34133D01*
X52764Y-34134D01*
X52807Y-34142D01*
X52818Y-34145D01*
X52818Y-34144D01*
X52819Y-34145D01*
X52900Y-34145D01*
X52900Y-34196D01*
X52916Y-34235D01*
X52946Y-34264D01*
X52980Y-34278D01*
X52980Y-34301D01*
X52979Y-34306D01*
X52991Y-34362D01*
X53022Y-34409D01*
X53202Y-34588D01*
X53204Y-34591D01*
X53251Y-34621D01*
X53252Y-34622D01*
X53307Y-34633D01*
X53696Y-34633D01*
X53701Y-34634D01*
X53701Y-34633D01*
X53756Y-34622D01*
X53757Y-34622D01*
X53804Y-34591D01*
X53975Y-34418D01*
X53977Y-34417D01*
X53978Y-34417D01*
X53996Y-34388D01*
X54009Y-34370D01*
X54009Y-34369D01*
X54020Y-34314D01*
X54021Y-34314D01*
X54020Y-34309D01*
X54020Y-34278D01*
X54055Y-34264D01*
X54084Y-34234D01*
X54100Y-34196D01*
X54100Y-34804D01*
X54084Y-34765D01*
X54054Y-34736D01*
X54016Y-34720D01*
X53974Y-34720D01*
X53734Y-34720D01*
X53695Y-34736D01*
X53666Y-34766D01*
X53650Y-34804D01*
X53650Y-34846D01*
X53650Y-35196D01*
X53666Y-35235D01*
X53696Y-35264D01*
X53730Y-35278D01*
X53730Y-35355D01*
X53397Y-35688D01*
X53366Y-35735D01*
X53354Y-35791D01*
X53355Y-35795D01*
X53355Y-36220D01*
X53350Y-36220D01*
X53350Y-35196D01*
X53350Y-35154D01*
X53350Y-34804D01*
X53334Y-34765D01*
X53304Y-34736D01*
X53266Y-34720D01*
X53224Y-34720D01*
X52984Y-34720D01*
X52945Y-34736D01*
X52916Y-34766D01*
X52900Y-34804D01*
X52900Y-34846D01*
X52900Y-35196D01*
X52916Y-35235D01*
X52946Y-35264D01*
X52984Y-35280D01*
X53026Y-35280D01*
X53266Y-35280D01*
X53305Y-35264D01*
X53334Y-35234D01*
X53350Y-35196D01*
X53350Y-36220D01*
X53254Y-36220D01*
X53215Y-36236D01*
X53186Y-36266D01*
X53170Y-36304D01*
X53170Y-36346D01*
X53170Y-36596D01*
X53186Y-36635D01*
X53216Y-36664D01*
X53254Y-36680D01*
X53296Y-36680D01*
X53746Y-36680D01*
X53785Y-36664D01*
X53814Y-36634D01*
X53830Y-36596D01*
X53830Y-36595D01*
X55838Y-36595D01*
X56022Y-36779D01*
X56022Y-36992D01*
X55995Y-37019D01*
X55995Y-37338D01*
X55995Y-37363D01*
X55995Y-37413D01*
X55995Y-37438D01*
X55995Y-37757D01*
X56022Y-37784D01*
X56022Y-37867D01*
X55945Y-37944D01*
X55945Y-37757D01*
X55945Y-37438D01*
X55945Y-37413D01*
X55945Y-37363D01*
X55945Y-37338D01*
X55945Y-37019D01*
X55914Y-36988D01*
X55893Y-36988D01*
X55847Y-37007D01*
X55846Y-37008D01*
X55804Y-37008D01*
X55700Y-37008D01*
X55661Y-37024D01*
X55632Y-37054D01*
X55616Y-37092D01*
X55616Y-37134D01*
X55616Y-37243D01*
X55434Y-37243D01*
X55356Y-37165D01*
X55253Y-37122D01*
X55142Y-37122D01*
X55039Y-37164D01*
X54960Y-37243D01*
X54917Y-37346D01*
X54917Y-37457D01*
X54959Y-37560D01*
X55038Y-37639D01*
X55141Y-37682D01*
X55252Y-37682D01*
X55355Y-37640D01*
X55434Y-37561D01*
X55445Y-37533D01*
X55616Y-37533D01*
X55616Y-37684D01*
X55632Y-37723D01*
X55662Y-37752D01*
X55700Y-37768D01*
X55742Y-37768D01*
X55846Y-37768D01*
X55847Y-37769D01*
X55893Y-37788D01*
X55914Y-37788D01*
X55945Y-37757D01*
X55945Y-37944D01*
X55268Y-38621D01*
X55268Y-38593D01*
X55257Y-38567D01*
X55268Y-38542D01*
X55268Y-38500D01*
X55268Y-38396D01*
X55257Y-38370D01*
X55268Y-38345D01*
X55268Y-38303D01*
X55268Y-38199D01*
X55252Y-38160D01*
X55222Y-38131D01*
X55184Y-38115D01*
X55142Y-38115D01*
X54611Y-38115D01*
X54611Y-37300D01*
X54611Y-37189D01*
X54569Y-37086D01*
X54490Y-37007D01*
X54387Y-36964D01*
X54276Y-36964D01*
X54262Y-36969D01*
X54240Y-36947D01*
X54193Y-36916D01*
X54137Y-36904D01*
X54132Y-36905D01*
X53830Y-36905D01*
X53830Y-36904D01*
X53814Y-36865D01*
X53784Y-36836D01*
X53746Y-36820D01*
X53704Y-36820D01*
X53254Y-36820D01*
X53215Y-36836D01*
X53186Y-36866D01*
X53170Y-36904D01*
X53170Y-36946D01*
X53170Y-37176D01*
X53091Y-37255D01*
X53025Y-37255D01*
X53025Y-36425D01*
X53025Y-36156D01*
X53025Y-36044D01*
X53025Y-35775D01*
X53006Y-35729D01*
X52971Y-35694D01*
X52925Y-35675D01*
X52875Y-35675D01*
X52556Y-35675D01*
X52525Y-35706D01*
X52525Y-36075D01*
X52994Y-36075D01*
X53025Y-36044D01*
X53025Y-36156D01*
X52994Y-36125D01*
X52525Y-36125D01*
X52525Y-36494D01*
X52556Y-36525D01*
X52875Y-36525D01*
X52925Y-36525D01*
X52971Y-36506D01*
X53006Y-36471D01*
X53025Y-36425D01*
X53025Y-37255D01*
X53005Y-37255D01*
X53005Y-37079D01*
X52989Y-37040D01*
X52959Y-37011D01*
X52921Y-36995D01*
X52879Y-36995D01*
X52475Y-36995D01*
X52475Y-36494D01*
X52475Y-36125D01*
X52475Y-36075D01*
X52475Y-35706D01*
X52444Y-35675D01*
X52125Y-35675D01*
X52075Y-35675D01*
X52029Y-35694D01*
X51994Y-35729D01*
X51975Y-35775D01*
X51975Y-36044D01*
X52006Y-36075D01*
X52475Y-36075D01*
X52475Y-36125D01*
X52006Y-36125D01*
X51975Y-36156D01*
X51975Y-36425D01*
X51994Y-36471D01*
X52029Y-36506D01*
X52075Y-36525D01*
X52125Y-36525D01*
X52444Y-36525D01*
X52475Y-36494D01*
X52475Y-36995D01*
X52079Y-36995D01*
X52040Y-37011D01*
X52011Y-37041D01*
X51995Y-37079D01*
X51995Y-37121D01*
X51995Y-37255D01*
X51948Y-37255D01*
X51850Y-37156D01*
X51850Y-36600D01*
X51850Y-36506D01*
X51850Y-36394D01*
X51850Y-36300D01*
X51831Y-36254D01*
X51796Y-36219D01*
X51750Y-36200D01*
X51700Y-36200D01*
X51556Y-36200D01*
X51525Y-36231D01*
X51525Y-36425D01*
X51819Y-36425D01*
X51850Y-36394D01*
X51850Y-36506D01*
X51819Y-36475D01*
X51525Y-36475D01*
X51525Y-36669D01*
X51556Y-36700D01*
X51700Y-36700D01*
X51750Y-36700D01*
X51796Y-36681D01*
X51831Y-36646D01*
X51850Y-36600D01*
X51850Y-37156D01*
X51830Y-37136D01*
X51830Y-36904D01*
X51814Y-36865D01*
X51784Y-36836D01*
X51746Y-36820D01*
X51704Y-36820D01*
X51475Y-36820D01*
X51475Y-36669D01*
X51475Y-36475D01*
X51475Y-36425D01*
X51475Y-36231D01*
X51444Y-36200D01*
X51300Y-36200D01*
X51250Y-36200D01*
X51204Y-36219D01*
X51169Y-36254D01*
X51150Y-36300D01*
X51150Y-36394D01*
X51181Y-36425D01*
X51475Y-36425D01*
X51475Y-36475D01*
X51181Y-36475D01*
X51150Y-36506D01*
X51150Y-36600D01*
X51169Y-36646D01*
X51204Y-36681D01*
X51250Y-36700D01*
X51300Y-36700D01*
X51444Y-36700D01*
X51475Y-36669D01*
X51475Y-36820D01*
X51254Y-36820D01*
X51215Y-36836D01*
X51186Y-36866D01*
X51170Y-36904D01*
X51170Y-36946D01*
X51170Y-37196D01*
X51186Y-37235D01*
X51216Y-37264D01*
X51254Y-37280D01*
X51296Y-37280D01*
X51562Y-37280D01*
X51783Y-37500D01*
X51785Y-37503D01*
X51820Y-37526D01*
X51831Y-37533D01*
X51833Y-37534D01*
X51873Y-37542D01*
X51887Y-37545D01*
X51887Y-37544D01*
X51888Y-37545D01*
X51995Y-37545D01*
X51995Y-37721D01*
X52011Y-37760D01*
X52041Y-37789D01*
X52079Y-37805D01*
X52121Y-37805D01*
X52921Y-37805D01*
X52960Y-37789D01*
X52989Y-37759D01*
X53005Y-37721D01*
X53005Y-37679D01*
X53005Y-37545D01*
X53147Y-37545D01*
X53152Y-37546D01*
X53152Y-37545D01*
X53207Y-37534D01*
X53208Y-37534D01*
X53255Y-37503D01*
X53477Y-37280D01*
X53746Y-37280D01*
X53785Y-37264D01*
X53814Y-37234D01*
X53830Y-37196D01*
X53830Y-37195D01*
X54051Y-37195D01*
X54051Y-37299D01*
X54093Y-37402D01*
X54172Y-37481D01*
X54275Y-37524D01*
X54386Y-37524D01*
X54489Y-37482D01*
X54568Y-37403D01*
X54611Y-37300D01*
X54611Y-38115D01*
X54592Y-38115D01*
X54562Y-38127D01*
X53844Y-38127D01*
X53646Y-37928D01*
X53599Y-37897D01*
X53543Y-37885D01*
X53538Y-37886D01*
X53075Y-37886D01*
X53071Y-37885D01*
X53015Y-37897D01*
X52996Y-37909D01*
X52968Y-37928D01*
X52966Y-37930D01*
X52746Y-38150D01*
X52733Y-38145D01*
X52622Y-38145D01*
X52519Y-38187D01*
X52440Y-38266D01*
X52397Y-38369D01*
X52397Y-38480D01*
X52439Y-38583D01*
X52518Y-38662D01*
X52621Y-38705D01*
X52732Y-38705D01*
X52835Y-38663D01*
X52914Y-38584D01*
X52957Y-38481D01*
X52957Y-38370D01*
X52951Y-38356D01*
X53131Y-38176D01*
X53482Y-38176D01*
X53630Y-38324D01*
X53523Y-38324D01*
X53466Y-38267D01*
X53363Y-38224D01*
X53252Y-38224D01*
X53149Y-38266D01*
X53070Y-38345D01*
X53027Y-38448D01*
X53027Y-38559D01*
X53069Y-38662D01*
X53148Y-38741D01*
X53251Y-38784D01*
X53362Y-38784D01*
X53465Y-38742D01*
X53544Y-38663D01*
X53564Y-38614D01*
X53699Y-38614D01*
X53482Y-38831D01*
X52763Y-38831D01*
X52758Y-38818D01*
X52679Y-38739D01*
X52576Y-38696D01*
X52465Y-38696D01*
X52362Y-38738D01*
X52283Y-38817D01*
X52240Y-38920D01*
X52240Y-39031D01*
X52282Y-39134D01*
X52361Y-39213D01*
X52464Y-39256D01*
X52575Y-39256D01*
X52678Y-39214D01*
X52757Y-39135D01*
X52762Y-39121D01*
X53538Y-39121D01*
X53543Y-39122D01*
X53543Y-39121D01*
X53598Y-39110D01*
X53599Y-39110D01*
X53646Y-39079D01*
X53913Y-38811D01*
X53950Y-38811D01*
X53936Y-38817D01*
X53857Y-38896D01*
X53814Y-38999D01*
X53814Y-39110D01*
X53856Y-39213D01*
X53935Y-39292D01*
X54038Y-39335D01*
X54149Y-39335D01*
X54163Y-39329D01*
X54191Y-39357D01*
X54193Y-39360D01*
X54240Y-39390D01*
X54241Y-39391D01*
X54296Y-39402D01*
X54508Y-39402D01*
X54508Y-39423D01*
X54508Y-39527D01*
X54518Y-39552D01*
X54508Y-39578D01*
X54508Y-39620D01*
X54508Y-39724D01*
X54507Y-39725D01*
X54488Y-39771D01*
X54488Y-39792D01*
X54519Y-39823D01*
X54838Y-39823D01*
X54863Y-39823D01*
X54913Y-39823D01*
X54913Y-39873D01*
X54863Y-39873D01*
X54838Y-39873D01*
X54519Y-39873D01*
X54488Y-39904D01*
X54488Y-39925D01*
X54507Y-39971D01*
X54508Y-39972D01*
X54508Y-40014D01*
X54508Y-40118D01*
X54518Y-40143D01*
X54508Y-40169D01*
X54508Y-40211D01*
X54508Y-40294D01*
X54049Y-40294D01*
X54030Y-40274D01*
X54030Y-40004D01*
X54014Y-39965D01*
X53984Y-39936D01*
X53946Y-39920D01*
X53904Y-39920D01*
X53654Y-39920D01*
X53615Y-39936D01*
X53586Y-39966D01*
X53570Y-40004D01*
X53570Y-40046D01*
X53570Y-40496D01*
X53586Y-40535D01*
X53616Y-40564D01*
X53654Y-40580D01*
X53696Y-40580D01*
X53946Y-40580D01*
X53953Y-40576D01*
X53989Y-40584D01*
X54508Y-40584D01*
X54508Y-40605D01*
X54508Y-40709D01*
X54518Y-40734D01*
X54508Y-40760D01*
X54508Y-40802D01*
X54508Y-40885D01*
X54254Y-40885D01*
X54246Y-40885D01*
X54216Y-40891D01*
X54197Y-40894D01*
X54194Y-40895D01*
X54191Y-40896D01*
X54167Y-40911D01*
X54149Y-40922D01*
X54144Y-40926D01*
X54143Y-40927D01*
X54142Y-40927D01*
X53627Y-41385D01*
X53599Y-41374D01*
X53488Y-41374D01*
X53385Y-41416D01*
X53345Y-41456D01*
X53345Y-40580D01*
X53346Y-40580D01*
X53385Y-40564D01*
X53414Y-40534D01*
X53430Y-40496D01*
X53430Y-40454D01*
X53430Y-40004D01*
X53414Y-39965D01*
X53384Y-39936D01*
X53346Y-39920D01*
X53304Y-39920D01*
X53054Y-39920D01*
X53015Y-39936D01*
X52986Y-39966D01*
X52970Y-40004D01*
X52970Y-40046D01*
X52970Y-40496D01*
X52986Y-40535D01*
X53016Y-40564D01*
X53054Y-40580D01*
X53055Y-40580D01*
X53055Y-43180D01*
X52237Y-43759D01*
X52182Y-43736D01*
X52071Y-43736D01*
X51968Y-43778D01*
X51889Y-43857D01*
X51846Y-43960D01*
X51846Y-44071D01*
X51888Y-44174D01*
X51967Y-44253D01*
X52070Y-44296D01*
X52181Y-44296D01*
X52284Y-44254D01*
X52363Y-44175D01*
X52406Y-44072D01*
X52406Y-43995D01*
X53283Y-43374D01*
X53288Y-43368D01*
X53303Y-43359D01*
X53313Y-43342D01*
X53322Y-43334D01*
X53326Y-43322D01*
X53334Y-43311D01*
X53336Y-43296D01*
X53343Y-43281D01*
X53342Y-43269D01*
X53345Y-43256D01*
X53345Y-41852D01*
X53384Y-41891D01*
X53487Y-41934D01*
X53598Y-41934D01*
X53612Y-41927D01*
X53632Y-41947D01*
X53608Y-43470D01*
X53504Y-43470D01*
X53465Y-43486D01*
X53436Y-43516D01*
X53420Y-43554D01*
X53420Y-43596D01*
X53420Y-43846D01*
X53436Y-43885D01*
X53466Y-43914D01*
X53504Y-43930D01*
X53546Y-43930D01*
X53996Y-43930D01*
X54035Y-43914D01*
X54064Y-43884D01*
X54080Y-43846D01*
X54080Y-43845D01*
X54170Y-43845D01*
X54170Y-43846D01*
X54186Y-43885D01*
X54216Y-43914D01*
X54254Y-43930D01*
X54296Y-43930D01*
X54746Y-43930D01*
X54785Y-43914D01*
X54814Y-43884D01*
X54830Y-43846D01*
X54830Y-43845D01*
X54920Y-43845D01*
X54920Y-43846D01*
X54936Y-43885D01*
X54966Y-43914D01*
X55004Y-43930D01*
X55046Y-43930D01*
X55496Y-43930D01*
X55535Y-43914D01*
X55564Y-43884D01*
X55580Y-43846D01*
X55580Y-43845D01*
X55670Y-43845D01*
X55670Y-43846D01*
X55686Y-43885D01*
X55716Y-43914D01*
X55754Y-43930D01*
X55796Y-43930D01*
X56246Y-43930D01*
X56285Y-43914D01*
X56295Y-43903D01*
X56390Y-43997D01*
X56390Y-44797D01*
X56389Y-44802D01*
X56401Y-44858D01*
X56432Y-44905D01*
X56497Y-44970D01*
X56492Y-44983D01*
X56492Y-45094D01*
X56534Y-45197D01*
X56613Y-45276D01*
X56716Y-45319D01*
X56827Y-45319D01*
X56930Y-45277D01*
X57009Y-45198D01*
X57052Y-45095D01*
X57052Y-44984D01*
X57010Y-44881D01*
X56931Y-44802D01*
X56828Y-44759D01*
X56717Y-44759D01*
X56703Y-44764D01*
X56680Y-44741D01*
X56680Y-44444D01*
X58163Y-45927D01*
X58165Y-45930D01*
X58212Y-45960D01*
X58213Y-45961D01*
X58256Y-45969D01*
X58267Y-45972D01*
X58267Y-45971D01*
X58268Y-45972D01*
X63464Y-45972D01*
X63477Y-45969D01*
X63498Y-45969D01*
X63511Y-45962D01*
X63519Y-45961D01*
X63533Y-45951D01*
X63549Y-45944D01*
X63554Y-45938D01*
X63567Y-45930D01*
X63578Y-45912D01*
X63587Y-45903D01*
X66245Y-41599D01*
X66261Y-41573D01*
X66263Y-41571D01*
X66276Y-41551D01*
X66282Y-41520D01*
X66283Y-41518D01*
X66282Y-41516D01*
X66287Y-41496D01*
X66287Y-41109D01*
X66300Y-41104D01*
X66379Y-41025D01*
X66422Y-40922D01*
X66422Y-43863D01*
X65177Y-46038D01*
X56350Y-46038D01*
X56350Y-44450D01*
X56350Y-44356D01*
X56350Y-44244D01*
X56350Y-44150D01*
X56331Y-44104D01*
X56296Y-44069D01*
X56250Y-44050D01*
X56200Y-44050D01*
X56056Y-44050D01*
X56025Y-44081D01*
X56025Y-44275D01*
X56319Y-44275D01*
X56350Y-44244D01*
X56350Y-44356D01*
X56319Y-44325D01*
X56025Y-44325D01*
X56025Y-44519D01*
X56056Y-44550D01*
X56200Y-44550D01*
X56250Y-44550D01*
X56296Y-44531D01*
X56331Y-44496D01*
X56350Y-44450D01*
X56350Y-46038D01*
X55975Y-46038D01*
X55975Y-44519D01*
X55975Y-44325D01*
X55975Y-44275D01*
X55975Y-44081D01*
X55944Y-44050D01*
X55800Y-44050D01*
X55750Y-44050D01*
X55704Y-44069D01*
X55669Y-44104D01*
X55650Y-44150D01*
X55650Y-44244D01*
X55681Y-44275D01*
X55975Y-44275D01*
X55975Y-44325D01*
X55681Y-44325D01*
X55650Y-44356D01*
X55650Y-44450D01*
X55669Y-44496D01*
X55704Y-44531D01*
X55750Y-44550D01*
X55800Y-44550D01*
X55944Y-44550D01*
X55975Y-44519D01*
X55975Y-46038D01*
X55600Y-46038D01*
X55600Y-44450D01*
X55600Y-44356D01*
X55600Y-44244D01*
X55600Y-44150D01*
X55581Y-44104D01*
X55546Y-44069D01*
X55500Y-44050D01*
X55450Y-44050D01*
X55306Y-44050D01*
X55275Y-44081D01*
X55275Y-44275D01*
X55569Y-44275D01*
X55600Y-44244D01*
X55600Y-44356D01*
X55569Y-44325D01*
X55275Y-44325D01*
X55275Y-44519D01*
X55306Y-44550D01*
X55450Y-44550D01*
X55500Y-44550D01*
X55546Y-44531D01*
X55581Y-44496D01*
X55600Y-44450D01*
X55600Y-46038D01*
X55225Y-46038D01*
X55225Y-44519D01*
X55225Y-44325D01*
X55225Y-44275D01*
X55225Y-44081D01*
X55194Y-44050D01*
X55050Y-44050D01*
X55000Y-44050D01*
X54954Y-44069D01*
X54919Y-44104D01*
X54900Y-44150D01*
X54900Y-44244D01*
X54931Y-44275D01*
X55225Y-44275D01*
X55225Y-44325D01*
X54931Y-44325D01*
X54900Y-44356D01*
X54900Y-44450D01*
X54919Y-44496D01*
X54954Y-44531D01*
X55000Y-44550D01*
X55050Y-44550D01*
X55194Y-44550D01*
X55225Y-44519D01*
X55225Y-46038D01*
X54850Y-46038D01*
X54850Y-44450D01*
X54850Y-44356D01*
X54850Y-44244D01*
X54850Y-44150D01*
X54831Y-44104D01*
X54796Y-44069D01*
X54750Y-44050D01*
X54700Y-44050D01*
X54556Y-44050D01*
X54525Y-44081D01*
X54525Y-44275D01*
X54819Y-44275D01*
X54850Y-44244D01*
X54850Y-44356D01*
X54819Y-44325D01*
X54525Y-44325D01*
X54525Y-44519D01*
X54556Y-44550D01*
X54700Y-44550D01*
X54750Y-44550D01*
X54796Y-44531D01*
X54831Y-44496D01*
X54850Y-44450D01*
X54850Y-46038D01*
X54475Y-46038D01*
X54475Y-44519D01*
X54475Y-44325D01*
X54475Y-44275D01*
X54475Y-44081D01*
X54444Y-44050D01*
X54300Y-44050D01*
X54250Y-44050D01*
X54204Y-44069D01*
X54169Y-44104D01*
X54150Y-44150D01*
X54150Y-44244D01*
X54181Y-44275D01*
X54475Y-44275D01*
X54475Y-44325D01*
X54181Y-44325D01*
X54150Y-44356D01*
X54150Y-44450D01*
X54169Y-44496D01*
X54204Y-44531D01*
X54250Y-44550D01*
X54300Y-44550D01*
X54444Y-44550D01*
X54475Y-44519D01*
X54475Y-46038D01*
X54100Y-46038D01*
X54100Y-44450D01*
X54100Y-44356D01*
X54100Y-44244D01*
X54100Y-44150D01*
X54081Y-44104D01*
X54046Y-44069D01*
X54000Y-44050D01*
X53950Y-44050D01*
X53806Y-44050D01*
X53775Y-44081D01*
X53775Y-44275D01*
X54069Y-44275D01*
X54100Y-44244D01*
X54100Y-44356D01*
X54069Y-44325D01*
X53775Y-44325D01*
X53775Y-44519D01*
X53806Y-44550D01*
X53950Y-44550D01*
X54000Y-44550D01*
X54046Y-44531D01*
X54081Y-44496D01*
X54100Y-44450D01*
X54100Y-46038D01*
X53725Y-46038D01*
X53725Y-44519D01*
X53725Y-44325D01*
X53725Y-44275D01*
X53725Y-44081D01*
X53694Y-44050D01*
X53550Y-44050D01*
X53500Y-44050D01*
X53454Y-44069D01*
X53419Y-44104D01*
X53400Y-44150D01*
X53400Y-44244D01*
X53431Y-44275D01*
X53725Y-44275D01*
X53725Y-44325D01*
X53431Y-44325D01*
X53400Y-44356D01*
X53400Y-44450D01*
X53419Y-44496D01*
X53454Y-44531D01*
X53500Y-44550D01*
X53550Y-44550D01*
X53694Y-44550D01*
X53725Y-44519D01*
X53725Y-46038D01*
X49237Y-46038D01*
X45952Y-40301D01*
X46101Y-40451D01*
X46433Y-40589D01*
X46793Y-40589D01*
X47125Y-40452D01*
X47380Y-40198D01*
X47518Y-39866D01*
X47518Y-39506D01*
X47381Y-39174D01*
X47127Y-38919D01*
X46795Y-38781D01*
X46435Y-38781D01*
X46103Y-38918D01*
X45985Y-39034D01*
X51418Y-29511D01*
X62193Y-29511D01*
X62009Y-29587D01*
X61754Y-29841D01*
X61616Y-30173D01*
X61616Y-30533D01*
X61753Y-30865D01*
X62007Y-31120D01*
X62339Y-31258D01*
X62699Y-31258D01*
X63031Y-31121D01*
X63286Y-30867D01*
X63424Y-30535D01*
X63424Y-30233D01*
X68814Y-39686D01*
M02*
