G04 (created by PCBNEW-RS274X (2010-03-14)-final) date Fri 27 Jul 2012 11:32:34 MSK*
G01*
G70*
G90*
%MOIN*%
G04 Gerber Fmt 3.4, Leading zero omitted, Abs format*
%FSLAX34Y34*%
G04 APERTURE LIST*
%ADD10C,0.001000*%
%ADD11C,0.015000*%
%ADD12C,0.008000*%
%ADD13C,0.003500*%
%ADD14C,0.006700*%
G04 APERTURE END LIST*
G54D10*
G54D11*
X45400Y-39699D02*
X51305Y-29331D01*
X51305Y-50000D02*
X45400Y-39699D01*
X63116Y-50000D02*
X51305Y-50000D01*
X69022Y-39699D02*
X63116Y-50000D01*
X63116Y-29331D02*
X69022Y-39699D01*
X51305Y-29331D02*
X63116Y-29331D01*
G54D12*
X47827Y-39981D02*
X47823Y-40015D01*
X47813Y-40049D01*
X47796Y-40080D01*
X47774Y-40107D01*
X47747Y-40130D01*
X47716Y-40146D01*
X47683Y-40157D01*
X47648Y-40160D01*
X47614Y-40157D01*
X47580Y-40147D01*
X47549Y-40131D01*
X47522Y-40109D01*
X47499Y-40082D01*
X47482Y-40051D01*
X47471Y-40018D01*
X47468Y-39983D01*
X47470Y-39949D01*
X47480Y-39915D01*
X47496Y-39884D01*
X47518Y-39856D01*
X47545Y-39834D01*
X47575Y-39817D01*
X47609Y-39806D01*
X47644Y-39802D01*
X47678Y-39804D01*
X47712Y-39814D01*
X47743Y-39830D01*
X47771Y-39851D01*
X47794Y-39878D01*
X47811Y-39908D01*
X47822Y-39942D01*
X47826Y-39976D01*
X47827Y-39981D01*
X50156Y-38249D02*
X52951Y-43090D01*
X52951Y-43090D02*
X50632Y-44429D01*
X50632Y-44429D02*
X47837Y-39588D01*
X47837Y-39588D02*
X50156Y-38249D01*
X63959Y-38281D02*
X63955Y-38315D01*
X63945Y-38349D01*
X63929Y-38380D01*
X63907Y-38407D01*
X63880Y-38429D01*
X63849Y-38446D01*
X63815Y-38456D01*
X63781Y-38459D01*
X63747Y-38456D01*
X63713Y-38446D01*
X63682Y-38430D01*
X63655Y-38408D01*
X63633Y-38382D01*
X63616Y-38351D01*
X63605Y-38318D01*
X63602Y-38283D01*
X63604Y-38249D01*
X63614Y-38216D01*
X63630Y-38185D01*
X63652Y-38157D01*
X63678Y-38135D01*
X63709Y-38117D01*
X63742Y-38107D01*
X63777Y-38103D01*
X63811Y-38105D01*
X63844Y-38115D01*
X63875Y-38130D01*
X63903Y-38152D01*
X63926Y-38178D01*
X63943Y-38209D01*
X63954Y-38242D01*
X63958Y-38277D01*
X63959Y-38281D01*
X66534Y-39588D02*
X63739Y-44429D01*
X63739Y-44429D02*
X61420Y-43090D01*
X61420Y-43090D02*
X64215Y-38249D01*
X64215Y-38249D02*
X66534Y-39588D01*
G54D13*
X49177Y-37944D02*
X49138Y-38544D01*
X48888Y-38111D02*
X49427Y-38377D01*
X48982Y-38608D02*
X48931Y-38663D01*
X48828Y-38723D01*
X48776Y-38727D01*
X48743Y-38718D01*
X48699Y-38688D01*
X48675Y-38647D01*
X48672Y-38594D01*
X48681Y-38561D01*
X48709Y-38517D01*
X48781Y-38448D01*
X48810Y-38405D01*
X48819Y-38372D01*
X48815Y-38318D01*
X48792Y-38278D01*
X48747Y-38248D01*
X48714Y-38239D01*
X48662Y-38242D01*
X48558Y-38302D01*
X48508Y-38358D01*
X48356Y-38474D02*
X48323Y-38465D01*
X48269Y-38468D01*
X48166Y-38528D01*
X48137Y-38572D01*
X48129Y-38605D01*
X48132Y-38659D01*
X48155Y-38699D01*
X48212Y-38750D01*
X48602Y-38853D01*
X48334Y-39008D01*
X66308Y-38587D02*
X65769Y-38853D01*
X66019Y-38420D02*
X66058Y-39020D01*
X65636Y-38751D02*
X65562Y-38734D01*
X65459Y-38675D01*
X65430Y-38632D01*
X65421Y-38599D01*
X65425Y-38545D01*
X65448Y-38504D01*
X65493Y-38475D01*
X65526Y-38466D01*
X65578Y-38469D01*
X65674Y-38496D01*
X65726Y-38500D01*
X65759Y-38491D01*
X65803Y-38461D01*
X65827Y-38421D01*
X65830Y-38367D01*
X65821Y-38334D01*
X65793Y-38290D01*
X65689Y-38230D01*
X65615Y-38215D01*
X64965Y-38389D02*
X65213Y-38532D01*
X65089Y-38461D02*
X65339Y-38028D01*
X65344Y-38114D01*
X65362Y-38178D01*
X65391Y-38223D01*
G54D14*
X54577Y-31415D02*
X54577Y-31739D01*
X54596Y-31777D01*
X54615Y-31796D01*
X54653Y-31815D01*
X54730Y-31815D01*
X54768Y-31796D01*
X54787Y-31777D01*
X54806Y-31739D01*
X54806Y-31415D01*
X55206Y-31815D02*
X54977Y-31815D01*
X55091Y-31815D02*
X55091Y-31415D01*
X55053Y-31472D01*
X55015Y-31510D01*
X54977Y-31529D01*
M02*
