G04 (created by PCBNEW-RS274X (2011-05-25)-stable) date Sat 31 Mar 2012 14:10:29 BST*
G01*
G70*
G90*
%MOIN*%
G04 Gerber Fmt 3.4, Leading zero omitted, Abs format*
%FSLAX34Y34*%
G04 APERTURE LIST*
%ADD10C,0.006000*%
%ADD11C,0.015000*%
%ADD12C,0.040000*%
%ADD13C,0.160000*%
%ADD14C,0.035000*%
%ADD15C,0.008000*%
%ADD16C,0.005000*%
G04 APERTURE END LIST*
G54D10*
G54D11*
X45400Y-39699D02*
X51305Y-29331D01*
X51305Y-50000D02*
X45400Y-39699D01*
X63116Y-50000D02*
X51305Y-50000D01*
X69022Y-39699D02*
X63116Y-50000D01*
X63116Y-29331D02*
X69022Y-39699D01*
X51305Y-29331D02*
X63116Y-29331D01*
G54D12*
X57939Y-31750D03*
X56561Y-31750D03*
G54D13*
X62520Y-30354D03*
X46614Y-39685D03*
X62520Y-49016D03*
G54D10*
G36*
X48026Y-39647D02*
X48843Y-39175D01*
X48992Y-39433D01*
X48175Y-39905D01*
X48026Y-39647D01*
X48026Y-39647D01*
G37*
G36*
X49296Y-38914D02*
X50113Y-38442D01*
X50262Y-38700D01*
X49445Y-39172D01*
X49296Y-38914D01*
X49296Y-38914D01*
G37*
G36*
X48276Y-40080D02*
X49093Y-39608D01*
X49242Y-39866D01*
X48425Y-40338D01*
X48276Y-40080D01*
X48276Y-40080D01*
G37*
G36*
X49546Y-39347D02*
X50363Y-38875D01*
X50512Y-39133D01*
X49695Y-39605D01*
X49546Y-39347D01*
X49546Y-39347D01*
G37*
G36*
X48526Y-40513D02*
X49343Y-40041D01*
X49492Y-40299D01*
X48675Y-40771D01*
X48526Y-40513D01*
X48526Y-40513D01*
G37*
G36*
X49796Y-39780D02*
X50613Y-39308D01*
X50762Y-39566D01*
X49945Y-40038D01*
X49796Y-39780D01*
X49796Y-39780D01*
G37*
G36*
X48776Y-40946D02*
X49593Y-40474D01*
X49742Y-40732D01*
X48925Y-41204D01*
X48776Y-40946D01*
X48776Y-40946D01*
G37*
G36*
X50046Y-40213D02*
X50863Y-39741D01*
X51012Y-39999D01*
X50195Y-40471D01*
X50046Y-40213D01*
X50046Y-40213D01*
G37*
G36*
X49026Y-41379D02*
X49843Y-40907D01*
X49992Y-41165D01*
X49175Y-41637D01*
X49026Y-41379D01*
X49026Y-41379D01*
G37*
G36*
X50296Y-40646D02*
X51113Y-40174D01*
X51262Y-40432D01*
X50445Y-40904D01*
X50296Y-40646D01*
X50296Y-40646D01*
G37*
G36*
X49276Y-41813D02*
X50093Y-41341D01*
X50242Y-41599D01*
X49425Y-42071D01*
X49276Y-41813D01*
X49276Y-41813D01*
G37*
G36*
X50546Y-41079D02*
X51363Y-40607D01*
X51512Y-40865D01*
X50695Y-41337D01*
X50546Y-41079D01*
X50546Y-41079D01*
G37*
G36*
X49526Y-42246D02*
X50343Y-41774D01*
X50492Y-42032D01*
X49675Y-42504D01*
X49526Y-42246D01*
X49526Y-42246D01*
G37*
G36*
X50796Y-41513D02*
X51613Y-41041D01*
X51762Y-41299D01*
X50945Y-41771D01*
X50796Y-41513D01*
X50796Y-41513D01*
G37*
G36*
X49776Y-42679D02*
X50593Y-42207D01*
X50742Y-42465D01*
X49925Y-42937D01*
X49776Y-42679D01*
X49776Y-42679D01*
G37*
G36*
X51046Y-41946D02*
X51863Y-41474D01*
X52012Y-41732D01*
X51195Y-42204D01*
X51046Y-41946D01*
X51046Y-41946D01*
G37*
G36*
X50026Y-43112D02*
X50843Y-42640D01*
X50992Y-42898D01*
X50175Y-43370D01*
X50026Y-43112D01*
X50026Y-43112D01*
G37*
G36*
X51296Y-42379D02*
X52113Y-41907D01*
X52262Y-42165D01*
X51445Y-42637D01*
X51296Y-42379D01*
X51296Y-42379D01*
G37*
G36*
X50276Y-43545D02*
X51093Y-43073D01*
X51242Y-43331D01*
X50425Y-43803D01*
X50276Y-43545D01*
X50276Y-43545D01*
G37*
G36*
X51546Y-42812D02*
X52363Y-42340D01*
X52512Y-42598D01*
X51695Y-43070D01*
X51546Y-42812D01*
X51546Y-42812D01*
G37*
G36*
X50526Y-43978D02*
X51343Y-43506D01*
X51492Y-43764D01*
X50675Y-44236D01*
X50526Y-43978D01*
X50526Y-43978D01*
G37*
G36*
X51796Y-43245D02*
X52613Y-42773D01*
X52762Y-43031D01*
X51945Y-43503D01*
X51796Y-43245D01*
X51796Y-43245D01*
G37*
G36*
X64258Y-38442D02*
X65075Y-38914D01*
X64926Y-39172D01*
X64109Y-38700D01*
X64258Y-38442D01*
X64258Y-38442D01*
G37*
G36*
X65528Y-39175D02*
X66345Y-39647D01*
X66196Y-39905D01*
X65379Y-39433D01*
X65528Y-39175D01*
X65528Y-39175D01*
G37*
G36*
X64008Y-38875D02*
X64825Y-39347D01*
X64676Y-39605D01*
X63859Y-39133D01*
X64008Y-38875D01*
X64008Y-38875D01*
G37*
G36*
X65278Y-39608D02*
X66095Y-40080D01*
X65946Y-40338D01*
X65129Y-39866D01*
X65278Y-39608D01*
X65278Y-39608D01*
G37*
G36*
X63758Y-39308D02*
X64575Y-39780D01*
X64426Y-40038D01*
X63609Y-39566D01*
X63758Y-39308D01*
X63758Y-39308D01*
G37*
G36*
X65028Y-40041D02*
X65845Y-40513D01*
X65696Y-40771D01*
X64879Y-40299D01*
X65028Y-40041D01*
X65028Y-40041D01*
G37*
G36*
X63508Y-39741D02*
X64325Y-40213D01*
X64176Y-40471D01*
X63359Y-39999D01*
X63508Y-39741D01*
X63508Y-39741D01*
G37*
G36*
X64778Y-40474D02*
X65595Y-40946D01*
X65446Y-41204D01*
X64629Y-40732D01*
X64778Y-40474D01*
X64778Y-40474D01*
G37*
G36*
X63258Y-40174D02*
X64075Y-40646D01*
X63926Y-40904D01*
X63109Y-40432D01*
X63258Y-40174D01*
X63258Y-40174D01*
G37*
G36*
X64528Y-40907D02*
X65345Y-41379D01*
X65196Y-41637D01*
X64379Y-41165D01*
X64528Y-40907D01*
X64528Y-40907D01*
G37*
G36*
X63008Y-40607D02*
X63825Y-41079D01*
X63676Y-41337D01*
X62859Y-40865D01*
X63008Y-40607D01*
X63008Y-40607D01*
G37*
G36*
X64278Y-41341D02*
X65095Y-41813D01*
X64946Y-42071D01*
X64129Y-41599D01*
X64278Y-41341D01*
X64278Y-41341D01*
G37*
G36*
X62758Y-41041D02*
X63575Y-41513D01*
X63426Y-41771D01*
X62609Y-41299D01*
X62758Y-41041D01*
X62758Y-41041D01*
G37*
G36*
X64028Y-41774D02*
X64845Y-42246D01*
X64696Y-42504D01*
X63879Y-42032D01*
X64028Y-41774D01*
X64028Y-41774D01*
G37*
G36*
X62508Y-41474D02*
X63325Y-41946D01*
X63176Y-42204D01*
X62359Y-41732D01*
X62508Y-41474D01*
X62508Y-41474D01*
G37*
G36*
X63778Y-42207D02*
X64595Y-42679D01*
X64446Y-42937D01*
X63629Y-42465D01*
X63778Y-42207D01*
X63778Y-42207D01*
G37*
G36*
X62258Y-41907D02*
X63075Y-42379D01*
X62926Y-42637D01*
X62109Y-42165D01*
X62258Y-41907D01*
X62258Y-41907D01*
G37*
G36*
X63528Y-42640D02*
X64345Y-43112D01*
X64196Y-43370D01*
X63379Y-42898D01*
X63528Y-42640D01*
X63528Y-42640D01*
G37*
G36*
X62008Y-42340D02*
X62825Y-42812D01*
X62676Y-43070D01*
X61859Y-42598D01*
X62008Y-42340D01*
X62008Y-42340D01*
G37*
G36*
X63278Y-43073D02*
X64095Y-43545D01*
X63946Y-43803D01*
X63129Y-43331D01*
X63278Y-43073D01*
X63278Y-43073D01*
G37*
G36*
X61758Y-42773D02*
X62575Y-43245D01*
X62426Y-43503D01*
X61609Y-43031D01*
X61758Y-42773D01*
X61758Y-42773D01*
G37*
G36*
X63028Y-43506D02*
X63845Y-43978D01*
X63696Y-44236D01*
X62879Y-43764D01*
X63028Y-43506D01*
X63028Y-43506D01*
G37*
G54D14*
X54094Y-42520D03*
X55512Y-42992D03*
X56142Y-40945D03*
X58740Y-40472D03*
X54646Y-36772D03*
X61102Y-44252D03*
X49449Y-43071D03*
X56772Y-45039D03*
X58425Y-44409D03*
X53543Y-41654D03*
X56378Y-42992D03*
X58740Y-42913D03*
X58110Y-36535D03*
X54331Y-37244D03*
X52520Y-33701D03*
X57953Y-33780D03*
X54094Y-39055D03*
X55827Y-38976D03*
X56614Y-38346D03*
X66142Y-40866D03*
X55197Y-37402D03*
X52677Y-38425D03*
X53307Y-38504D03*
X52520Y-38976D03*
X58504Y-39213D03*
X57910Y-43644D03*
X52126Y-44016D03*
X62835Y-39764D03*
G54D15*
X52004Y-42047D02*
X51779Y-42272D01*
X53621Y-42047D02*
X52004Y-42047D01*
X54094Y-42520D02*
X53621Y-42047D01*
X50759Y-43438D02*
X50578Y-43438D01*
X55512Y-44882D02*
X55512Y-42992D01*
X54724Y-45275D02*
X55512Y-44882D01*
X50394Y-45197D02*
X54724Y-45275D01*
X50000Y-44803D02*
X50394Y-45197D01*
X50000Y-43780D02*
X50000Y-44803D01*
X50578Y-43438D02*
X50000Y-43780D01*
X50259Y-42572D02*
X49843Y-42835D01*
X49843Y-42835D02*
X49449Y-43071D01*
X57795Y-45039D02*
X56772Y-45039D01*
X58425Y-44409D02*
X57795Y-45039D01*
X51793Y-41575D02*
X51529Y-41839D01*
X53307Y-41575D02*
X51793Y-41575D01*
X53543Y-41654D02*
X53307Y-41575D01*
X58661Y-42992D02*
X56378Y-42992D01*
X58740Y-42913D02*
X58661Y-42992D01*
X57637Y-37008D02*
X58110Y-36535D01*
X54960Y-37008D02*
X57637Y-37008D01*
X54724Y-37244D02*
X54960Y-37008D01*
X54331Y-37244D02*
X54724Y-37244D01*
X57874Y-33701D02*
X52520Y-33701D01*
X57953Y-33780D02*
X57874Y-33701D01*
X65862Y-39540D02*
X65906Y-38583D01*
X55748Y-39055D02*
X54094Y-39055D01*
X55827Y-38976D02*
X55748Y-39055D01*
X65118Y-38110D02*
X56850Y-38110D01*
X56850Y-38110D02*
X56614Y-38346D01*
X65906Y-38583D02*
X65118Y-38110D01*
X66142Y-40866D02*
X65362Y-40406D01*
X66142Y-40866D02*
X66142Y-40866D01*
X62867Y-41181D02*
X63092Y-41406D01*
X58582Y-41181D02*
X62867Y-41181D01*
X55433Y-38032D02*
X58582Y-41181D01*
X55433Y-37638D02*
X55433Y-38032D01*
X55197Y-37402D02*
X55433Y-37638D01*
X64724Y-42913D02*
X64112Y-42572D01*
X64724Y-43386D02*
X64724Y-42913D01*
X64016Y-44567D02*
X64724Y-43386D01*
X63622Y-44567D02*
X64016Y-44567D01*
X58898Y-41811D02*
X63622Y-44567D01*
X54567Y-41811D02*
X58898Y-41811D01*
X52913Y-40157D02*
X54567Y-41811D01*
X52913Y-38661D02*
X52913Y-40157D01*
X52677Y-38425D02*
X52913Y-38661D01*
X53307Y-38504D02*
X53307Y-40157D01*
X56378Y-41575D02*
X62578Y-41575D01*
X62842Y-41839D02*
X62578Y-41575D01*
X54725Y-41575D02*
X56378Y-41575D01*
X53307Y-40157D02*
X54725Y-41575D01*
X65039Y-42598D02*
X64362Y-42139D01*
X65039Y-43307D02*
X65039Y-42598D01*
X64096Y-44804D02*
X65039Y-43307D01*
X63543Y-44803D02*
X64096Y-44804D01*
X58819Y-42047D02*
X63543Y-44803D01*
X54409Y-42047D02*
X58819Y-42047D01*
X52520Y-40157D02*
X54409Y-42047D01*
X52520Y-38976D02*
X52520Y-40157D01*
X64092Y-39673D02*
X63307Y-39213D01*
X63150Y-39213D02*
X58504Y-39213D01*
X63307Y-39213D02*
X63150Y-39213D01*
X65112Y-40839D02*
X65197Y-40866D01*
X61260Y-45512D02*
X57910Y-43644D01*
X63937Y-45512D02*
X61260Y-45512D01*
X65748Y-42598D02*
X63937Y-45512D01*
X65748Y-41181D02*
X65748Y-42598D01*
X65197Y-40866D02*
X65748Y-41181D01*
X51102Y-44016D02*
X51009Y-43871D01*
X52047Y-44016D02*
X51102Y-44016D01*
X52126Y-44016D02*
X52047Y-44016D01*
X63842Y-40106D02*
X63307Y-39764D01*
X63307Y-39764D02*
X62835Y-39764D01*
G54D10*
G36*
X68814Y-39686D02*
X66452Y-43811D01*
X66452Y-39640D01*
X66441Y-39599D01*
X66416Y-39567D01*
X66380Y-39546D01*
X66016Y-39336D01*
X66049Y-38605D01*
X66050Y-38590D01*
X66047Y-38575D01*
X66047Y-38548D01*
X66042Y-38539D01*
X66042Y-38534D01*
X66031Y-38515D01*
X66022Y-38497D01*
X66017Y-38493D01*
X66013Y-38485D01*
X65993Y-38471D01*
X65980Y-38459D01*
X65193Y-37986D01*
X65182Y-37982D01*
X65173Y-37976D01*
X65155Y-37972D01*
X65140Y-37967D01*
X65129Y-37967D01*
X65118Y-37965D01*
X56850Y-37965D01*
X56849Y-37965D01*
X56838Y-37967D01*
X56795Y-37976D01*
X56747Y-38007D01*
X56745Y-38009D01*
X56683Y-38071D01*
X56670Y-38066D01*
X56559Y-38066D01*
X56456Y-38108D01*
X56377Y-38187D01*
X56334Y-38290D01*
X56334Y-38401D01*
X56376Y-38504D01*
X56455Y-38583D01*
X56558Y-38626D01*
X56669Y-38626D01*
X56772Y-38584D01*
X56851Y-38505D01*
X56894Y-38402D01*
X56894Y-38291D01*
X56888Y-38276D01*
X56910Y-38255D01*
X65077Y-38255D01*
X65756Y-38663D01*
X65733Y-39172D01*
X65562Y-39074D01*
X65520Y-39068D01*
X65480Y-39079D01*
X65447Y-39104D01*
X65426Y-39141D01*
X65277Y-39399D01*
X65272Y-39440D01*
X65283Y-39481D01*
X65302Y-39505D01*
X65270Y-39501D01*
X65230Y-39512D01*
X65197Y-39537D01*
X65176Y-39574D01*
X65027Y-39832D01*
X65022Y-39873D01*
X65033Y-39914D01*
X65052Y-39938D01*
X65020Y-39934D01*
X64980Y-39945D01*
X64947Y-39970D01*
X64926Y-40007D01*
X64777Y-40265D01*
X64772Y-40306D01*
X64783Y-40347D01*
X64802Y-40371D01*
X64770Y-40367D01*
X64730Y-40378D01*
X64697Y-40403D01*
X64676Y-40440D01*
X64527Y-40698D01*
X64522Y-40739D01*
X64533Y-40780D01*
X64552Y-40804D01*
X64520Y-40800D01*
X64480Y-40811D01*
X64447Y-40836D01*
X64426Y-40873D01*
X64277Y-41131D01*
X64272Y-41172D01*
X64283Y-41213D01*
X64303Y-41238D01*
X64270Y-41234D01*
X64230Y-41245D01*
X64197Y-41270D01*
X64176Y-41307D01*
X64027Y-41565D01*
X64022Y-41606D01*
X64033Y-41647D01*
X64052Y-41671D01*
X64020Y-41667D01*
X63980Y-41678D01*
X63947Y-41703D01*
X63926Y-41740D01*
X63777Y-41998D01*
X63772Y-42039D01*
X63783Y-42080D01*
X63802Y-42104D01*
X63770Y-42100D01*
X63730Y-42111D01*
X63697Y-42136D01*
X63676Y-42173D01*
X63527Y-42431D01*
X63522Y-42472D01*
X63533Y-42513D01*
X63552Y-42537D01*
X63520Y-42533D01*
X63480Y-42544D01*
X63447Y-42569D01*
X63426Y-42606D01*
X63277Y-42864D01*
X63272Y-42905D01*
X63283Y-42946D01*
X63302Y-42970D01*
X63270Y-42966D01*
X63230Y-42977D01*
X63197Y-43002D01*
X63176Y-43039D01*
X63027Y-43297D01*
X63022Y-43338D01*
X63033Y-43379D01*
X63052Y-43403D01*
X63020Y-43399D01*
X62980Y-43410D01*
X62947Y-43435D01*
X62926Y-43472D01*
X62777Y-43730D01*
X62772Y-43771D01*
X62783Y-43812D01*
X62808Y-43844D01*
X62844Y-43865D01*
X63662Y-44337D01*
X63704Y-44343D01*
X63744Y-44332D01*
X63777Y-44307D01*
X63798Y-44270D01*
X63947Y-44012D01*
X63952Y-43971D01*
X63941Y-43930D01*
X63921Y-43905D01*
X63954Y-43910D01*
X63994Y-43899D01*
X64027Y-43874D01*
X64048Y-43837D01*
X64197Y-43579D01*
X64202Y-43538D01*
X64191Y-43497D01*
X64171Y-43472D01*
X64204Y-43477D01*
X64244Y-43466D01*
X64277Y-43441D01*
X64298Y-43404D01*
X64447Y-43146D01*
X64452Y-43105D01*
X64441Y-43064D01*
X64421Y-43039D01*
X64454Y-43044D01*
X64494Y-43033D01*
X64527Y-43008D01*
X64543Y-42978D01*
X64579Y-42997D01*
X64579Y-43343D01*
X63934Y-44422D01*
X63653Y-44422D01*
X59029Y-41720D01*
X62254Y-41720D01*
X62252Y-41739D01*
X62263Y-41780D01*
X62282Y-41804D01*
X62250Y-41800D01*
X62210Y-41811D01*
X62177Y-41836D01*
X62156Y-41873D01*
X62007Y-42131D01*
X62002Y-42172D01*
X62013Y-42213D01*
X62032Y-42237D01*
X62000Y-42233D01*
X61960Y-42244D01*
X61927Y-42269D01*
X61906Y-42306D01*
X61757Y-42564D01*
X61752Y-42605D01*
X61763Y-42646D01*
X61782Y-42670D01*
X61750Y-42666D01*
X61710Y-42677D01*
X61677Y-42702D01*
X61656Y-42739D01*
X61507Y-42997D01*
X61502Y-43038D01*
X61513Y-43079D01*
X61538Y-43111D01*
X61574Y-43132D01*
X62392Y-43604D01*
X62434Y-43610D01*
X62474Y-43599D01*
X62507Y-43574D01*
X62528Y-43537D01*
X62677Y-43279D01*
X62682Y-43238D01*
X62671Y-43197D01*
X62651Y-43172D01*
X62684Y-43177D01*
X62724Y-43166D01*
X62757Y-43141D01*
X62778Y-43104D01*
X62927Y-42846D01*
X62932Y-42805D01*
X62921Y-42764D01*
X62901Y-42739D01*
X62934Y-42744D01*
X62974Y-42733D01*
X63007Y-42708D01*
X63028Y-42671D01*
X63177Y-42413D01*
X63182Y-42372D01*
X63171Y-42331D01*
X63151Y-42306D01*
X63184Y-42311D01*
X63224Y-42300D01*
X63257Y-42275D01*
X63278Y-42238D01*
X63427Y-41980D01*
X63432Y-41939D01*
X63421Y-41898D01*
X63401Y-41873D01*
X63434Y-41878D01*
X63474Y-41867D01*
X63507Y-41842D01*
X63528Y-41805D01*
X63677Y-41547D01*
X63682Y-41506D01*
X63671Y-41465D01*
X63650Y-41439D01*
X63684Y-41444D01*
X63724Y-41433D01*
X63757Y-41408D01*
X63778Y-41371D01*
X63927Y-41113D01*
X63932Y-41072D01*
X63921Y-41031D01*
X63901Y-41006D01*
X63934Y-41011D01*
X63974Y-41000D01*
X64007Y-40975D01*
X64028Y-40938D01*
X64177Y-40680D01*
X64182Y-40639D01*
X64171Y-40598D01*
X64151Y-40573D01*
X64184Y-40578D01*
X64224Y-40567D01*
X64257Y-40542D01*
X64278Y-40505D01*
X64427Y-40247D01*
X64432Y-40206D01*
X64421Y-40165D01*
X64401Y-40140D01*
X64434Y-40145D01*
X64474Y-40134D01*
X64507Y-40109D01*
X64528Y-40072D01*
X64677Y-39814D01*
X64682Y-39773D01*
X64671Y-39732D01*
X64651Y-39707D01*
X64684Y-39712D01*
X64724Y-39701D01*
X64757Y-39676D01*
X64778Y-39639D01*
X64927Y-39381D01*
X64932Y-39340D01*
X64921Y-39299D01*
X64901Y-39274D01*
X64934Y-39279D01*
X64974Y-39268D01*
X65007Y-39243D01*
X65028Y-39206D01*
X65177Y-38948D01*
X65182Y-38907D01*
X65171Y-38866D01*
X65146Y-38834D01*
X65110Y-38813D01*
X64292Y-38341D01*
X64250Y-38335D01*
X64210Y-38346D01*
X64177Y-38371D01*
X64156Y-38408D01*
X64007Y-38666D01*
X64002Y-38707D01*
X64013Y-38748D01*
X64032Y-38772D01*
X64000Y-38768D01*
X63960Y-38779D01*
X63927Y-38804D01*
X63906Y-38841D01*
X63757Y-39099D01*
X63752Y-39140D01*
X63763Y-39181D01*
X63782Y-39205D01*
X63750Y-39201D01*
X63710Y-39212D01*
X63677Y-39237D01*
X63666Y-39255D01*
X63380Y-39088D01*
X63371Y-39085D01*
X63362Y-39079D01*
X63341Y-39074D01*
X63327Y-39070D01*
X63318Y-39070D01*
X63307Y-39068D01*
X63150Y-39068D01*
X58747Y-39068D01*
X58742Y-39055D01*
X58663Y-38976D01*
X58560Y-38933D01*
X58449Y-38933D01*
X58346Y-38975D01*
X58267Y-39054D01*
X58224Y-39157D01*
X58224Y-39268D01*
X58266Y-39371D01*
X58345Y-39450D01*
X58448Y-39493D01*
X58559Y-39493D01*
X58662Y-39451D01*
X58741Y-39372D01*
X58746Y-39358D01*
X63150Y-39358D01*
X63268Y-39358D01*
X63521Y-39506D01*
X63507Y-39532D01*
X63502Y-39573D01*
X63513Y-39614D01*
X63532Y-39638D01*
X63500Y-39634D01*
X63460Y-39645D01*
X63427Y-39669D01*
X63385Y-39642D01*
X63373Y-39637D01*
X63362Y-39630D01*
X63348Y-39627D01*
X63333Y-39621D01*
X63318Y-39621D01*
X63307Y-39619D01*
X63078Y-39619D01*
X63073Y-39606D01*
X62994Y-39527D01*
X62891Y-39484D01*
X62780Y-39484D01*
X62677Y-39526D01*
X62598Y-39605D01*
X62555Y-39708D01*
X62555Y-39819D01*
X62597Y-39922D01*
X62676Y-40001D01*
X62779Y-40044D01*
X62890Y-40044D01*
X62993Y-40002D01*
X63072Y-39923D01*
X63077Y-39909D01*
X63264Y-39909D01*
X63282Y-39920D01*
X63257Y-39965D01*
X63252Y-40006D01*
X63263Y-40047D01*
X63282Y-40071D01*
X63250Y-40067D01*
X63210Y-40078D01*
X63177Y-40103D01*
X63156Y-40140D01*
X63007Y-40398D01*
X63002Y-40439D01*
X63013Y-40480D01*
X63032Y-40504D01*
X63000Y-40500D01*
X62960Y-40511D01*
X62927Y-40536D01*
X62906Y-40573D01*
X62757Y-40831D01*
X62752Y-40872D01*
X62763Y-40913D01*
X62783Y-40938D01*
X62750Y-40934D01*
X62710Y-40945D01*
X62677Y-40970D01*
X62656Y-41007D01*
X62639Y-41036D01*
X58642Y-41036D01*
X55578Y-37971D01*
X55578Y-37638D01*
X55577Y-37637D01*
X55578Y-37637D01*
X55575Y-37626D01*
X55567Y-37583D01*
X55566Y-37582D01*
X55536Y-37535D01*
X55533Y-37533D01*
X55471Y-37471D01*
X55477Y-37458D01*
X55477Y-37347D01*
X55435Y-37244D01*
X55356Y-37165D01*
X55327Y-37153D01*
X57632Y-37153D01*
X57637Y-37154D01*
X57637Y-37153D01*
X57692Y-37142D01*
X57693Y-37142D01*
X57740Y-37111D01*
X58040Y-36809D01*
X58054Y-36815D01*
X58165Y-36815D01*
X58268Y-36773D01*
X58347Y-36694D01*
X58390Y-36591D01*
X58390Y-36480D01*
X58348Y-36377D01*
X58269Y-36298D01*
X58243Y-36287D01*
X58243Y-31811D01*
X58243Y-31690D01*
X58197Y-31578D01*
X58112Y-31493D01*
X58000Y-31446D01*
X57879Y-31446D01*
X57767Y-31492D01*
X57682Y-31577D01*
X57635Y-31689D01*
X57635Y-31810D01*
X57681Y-31922D01*
X57766Y-32007D01*
X57878Y-32054D01*
X57999Y-32054D01*
X58111Y-32008D01*
X58196Y-31923D01*
X58243Y-31811D01*
X58243Y-36287D01*
X58233Y-36282D01*
X58233Y-33836D01*
X58233Y-33725D01*
X58191Y-33622D01*
X58112Y-33543D01*
X58009Y-33500D01*
X57898Y-33500D01*
X57795Y-33542D01*
X57781Y-33556D01*
X56865Y-33556D01*
X56865Y-31811D01*
X56865Y-31690D01*
X56819Y-31578D01*
X56734Y-31493D01*
X56622Y-31446D01*
X56501Y-31446D01*
X56389Y-31492D01*
X56304Y-31577D01*
X56257Y-31689D01*
X56257Y-31810D01*
X56303Y-31922D01*
X56388Y-32007D01*
X56500Y-32054D01*
X56621Y-32054D01*
X56733Y-32008D01*
X56818Y-31923D01*
X56865Y-31811D01*
X56865Y-33556D01*
X52763Y-33556D01*
X52758Y-33543D01*
X52679Y-33464D01*
X52576Y-33421D01*
X52465Y-33421D01*
X52362Y-33463D01*
X52283Y-33542D01*
X52240Y-33645D01*
X52240Y-33756D01*
X52282Y-33859D01*
X52361Y-33938D01*
X52464Y-33981D01*
X52575Y-33981D01*
X52678Y-33939D01*
X52757Y-33860D01*
X52762Y-33846D01*
X57677Y-33846D01*
X57715Y-33938D01*
X57794Y-34017D01*
X57897Y-34060D01*
X58008Y-34060D01*
X58111Y-34018D01*
X58190Y-33939D01*
X58233Y-33836D01*
X58233Y-36282D01*
X58166Y-36255D01*
X58055Y-36255D01*
X57952Y-36297D01*
X57873Y-36376D01*
X57830Y-36479D01*
X57830Y-36590D01*
X57835Y-36603D01*
X57576Y-36863D01*
X54960Y-36863D01*
X54959Y-36863D01*
X54948Y-36865D01*
X54905Y-36874D01*
X54857Y-36905D01*
X54855Y-36907D01*
X54663Y-37099D01*
X54574Y-37099D01*
X54569Y-37086D01*
X54490Y-37007D01*
X54387Y-36964D01*
X54276Y-36964D01*
X54173Y-37006D01*
X54094Y-37085D01*
X54051Y-37188D01*
X54051Y-37299D01*
X54093Y-37402D01*
X54172Y-37481D01*
X54275Y-37524D01*
X54386Y-37524D01*
X54489Y-37482D01*
X54568Y-37403D01*
X54573Y-37389D01*
X54719Y-37389D01*
X54724Y-37390D01*
X54724Y-37389D01*
X54779Y-37378D01*
X54780Y-37378D01*
X54827Y-37347D01*
X55020Y-37153D01*
X55065Y-37153D01*
X55039Y-37164D01*
X54960Y-37243D01*
X54917Y-37346D01*
X54917Y-37457D01*
X54959Y-37560D01*
X55038Y-37639D01*
X55141Y-37682D01*
X55252Y-37682D01*
X55266Y-37676D01*
X55288Y-37698D01*
X55288Y-38027D01*
X55287Y-38032D01*
X55299Y-38088D01*
X55330Y-38135D01*
X55897Y-38701D01*
X55883Y-38696D01*
X55772Y-38696D01*
X55669Y-38738D01*
X55590Y-38817D01*
X55551Y-38910D01*
X54337Y-38910D01*
X54332Y-38897D01*
X54253Y-38818D01*
X54150Y-38775D01*
X54039Y-38775D01*
X53936Y-38817D01*
X53857Y-38896D01*
X53814Y-38999D01*
X53814Y-39110D01*
X53856Y-39213D01*
X53935Y-39292D01*
X54038Y-39335D01*
X54149Y-39335D01*
X54252Y-39293D01*
X54331Y-39214D01*
X54336Y-39200D01*
X55655Y-39200D01*
X55668Y-39213D01*
X55771Y-39256D01*
X55882Y-39256D01*
X55985Y-39214D01*
X56064Y-39135D01*
X56107Y-39032D01*
X56107Y-38921D01*
X56100Y-38905D01*
X58477Y-41281D01*
X58479Y-41284D01*
X58526Y-41314D01*
X58527Y-41315D01*
X58582Y-41326D01*
X62507Y-41326D01*
X62513Y-41347D01*
X62532Y-41371D01*
X62500Y-41367D01*
X62460Y-41378D01*
X62427Y-41403D01*
X62411Y-41430D01*
X56378Y-41430D01*
X54785Y-41430D01*
X53452Y-40096D01*
X53452Y-38747D01*
X53465Y-38742D01*
X53544Y-38663D01*
X53587Y-38560D01*
X53587Y-38449D01*
X53545Y-38346D01*
X53466Y-38267D01*
X53363Y-38224D01*
X53252Y-38224D01*
X53149Y-38266D01*
X53070Y-38345D01*
X53027Y-38448D01*
X53027Y-38559D01*
X53044Y-38602D01*
X53016Y-38558D01*
X53013Y-38556D01*
X52951Y-38494D01*
X52957Y-38481D01*
X52957Y-38370D01*
X52915Y-38267D01*
X52836Y-38188D01*
X52733Y-38145D01*
X52622Y-38145D01*
X52519Y-38187D01*
X52440Y-38266D01*
X52397Y-38369D01*
X52397Y-38480D01*
X52439Y-38583D01*
X52518Y-38662D01*
X52621Y-38705D01*
X52732Y-38705D01*
X52746Y-38699D01*
X52768Y-38721D01*
X52768Y-38842D01*
X52758Y-38818D01*
X52679Y-38739D01*
X52576Y-38696D01*
X52465Y-38696D01*
X52362Y-38738D01*
X52283Y-38817D01*
X52240Y-38920D01*
X52240Y-39031D01*
X52282Y-39134D01*
X52361Y-39213D01*
X52375Y-39218D01*
X52375Y-40152D01*
X52374Y-40157D01*
X52386Y-40213D01*
X52417Y-40260D01*
X53531Y-41374D01*
X53488Y-41374D01*
X53385Y-41416D01*
X53361Y-41439D01*
X53353Y-41437D01*
X53323Y-41433D01*
X53307Y-41430D01*
X53297Y-41430D01*
X51959Y-41430D01*
X51944Y-41403D01*
X51910Y-41378D01*
X51870Y-41367D01*
X51838Y-41371D01*
X51859Y-41346D01*
X51869Y-41306D01*
X51864Y-41265D01*
X51843Y-41228D01*
X51694Y-40970D01*
X51660Y-40945D01*
X51620Y-40934D01*
X51587Y-40938D01*
X51609Y-40912D01*
X51619Y-40872D01*
X51614Y-40831D01*
X51593Y-40794D01*
X51444Y-40536D01*
X51410Y-40511D01*
X51370Y-40500D01*
X51338Y-40504D01*
X51359Y-40479D01*
X51369Y-40439D01*
X51364Y-40398D01*
X51343Y-40361D01*
X51194Y-40103D01*
X51160Y-40078D01*
X51120Y-40067D01*
X51088Y-40071D01*
X51109Y-40046D01*
X51119Y-40006D01*
X51114Y-39965D01*
X51093Y-39928D01*
X50944Y-39670D01*
X50910Y-39645D01*
X50870Y-39634D01*
X50838Y-39638D01*
X50859Y-39613D01*
X50869Y-39573D01*
X50864Y-39532D01*
X50843Y-39495D01*
X50694Y-39237D01*
X50660Y-39212D01*
X50620Y-39201D01*
X50588Y-39205D01*
X50609Y-39180D01*
X50619Y-39140D01*
X50614Y-39099D01*
X50593Y-39062D01*
X50444Y-38804D01*
X50410Y-38779D01*
X50370Y-38768D01*
X50338Y-38772D01*
X50359Y-38747D01*
X50369Y-38707D01*
X50364Y-38666D01*
X50343Y-38629D01*
X50194Y-38371D01*
X50160Y-38346D01*
X50120Y-38335D01*
X50079Y-38341D01*
X50043Y-38362D01*
X49225Y-38834D01*
X49199Y-38867D01*
X49189Y-38907D01*
X49194Y-38948D01*
X49215Y-38985D01*
X49364Y-39243D01*
X49398Y-39268D01*
X49438Y-39279D01*
X49469Y-39274D01*
X49449Y-39300D01*
X49439Y-39340D01*
X49444Y-39381D01*
X49465Y-39418D01*
X49614Y-39676D01*
X49648Y-39701D01*
X49688Y-39712D01*
X49719Y-39707D01*
X49699Y-39733D01*
X49689Y-39773D01*
X49694Y-39814D01*
X49715Y-39851D01*
X49864Y-40109D01*
X49898Y-40134D01*
X49938Y-40145D01*
X49969Y-40140D01*
X49949Y-40166D01*
X49939Y-40206D01*
X49944Y-40247D01*
X49965Y-40284D01*
X50114Y-40542D01*
X50148Y-40567D01*
X50188Y-40578D01*
X50219Y-40573D01*
X50199Y-40599D01*
X50189Y-40639D01*
X50194Y-40680D01*
X50215Y-40717D01*
X50364Y-40975D01*
X50398Y-41000D01*
X50438Y-41011D01*
X50469Y-41006D01*
X50449Y-41032D01*
X50439Y-41072D01*
X50444Y-41113D01*
X50465Y-41150D01*
X50614Y-41408D01*
X50648Y-41433D01*
X50688Y-41444D01*
X50720Y-41439D01*
X50699Y-41466D01*
X50689Y-41506D01*
X50694Y-41547D01*
X50715Y-41584D01*
X50864Y-41842D01*
X50898Y-41867D01*
X50938Y-41878D01*
X50969Y-41873D01*
X50949Y-41899D01*
X50939Y-41939D01*
X50944Y-41980D01*
X50965Y-42017D01*
X51114Y-42275D01*
X51148Y-42300D01*
X51188Y-42311D01*
X51219Y-42306D01*
X51199Y-42332D01*
X51189Y-42372D01*
X51194Y-42413D01*
X51215Y-42450D01*
X51364Y-42708D01*
X51398Y-42733D01*
X51438Y-42744D01*
X51469Y-42739D01*
X51449Y-42765D01*
X51439Y-42805D01*
X51444Y-42846D01*
X51465Y-42883D01*
X51614Y-43141D01*
X51648Y-43166D01*
X51688Y-43177D01*
X51719Y-43172D01*
X51699Y-43198D01*
X51689Y-43238D01*
X51694Y-43279D01*
X51715Y-43316D01*
X51864Y-43574D01*
X51898Y-43599D01*
X51938Y-43610D01*
X51979Y-43604D01*
X52015Y-43583D01*
X52833Y-43111D01*
X52859Y-43078D01*
X52869Y-43038D01*
X52864Y-42997D01*
X52843Y-42960D01*
X52694Y-42702D01*
X52660Y-42677D01*
X52620Y-42666D01*
X52588Y-42670D01*
X52609Y-42645D01*
X52619Y-42605D01*
X52614Y-42564D01*
X52593Y-42527D01*
X52444Y-42269D01*
X52410Y-42244D01*
X52370Y-42233D01*
X52338Y-42237D01*
X52359Y-42212D01*
X52364Y-42192D01*
X53560Y-42192D01*
X53819Y-42450D01*
X53814Y-42464D01*
X53814Y-42575D01*
X53856Y-42678D01*
X53935Y-42757D01*
X54038Y-42800D01*
X54149Y-42800D01*
X54252Y-42758D01*
X54331Y-42679D01*
X54374Y-42576D01*
X54374Y-42465D01*
X54332Y-42362D01*
X54253Y-42283D01*
X54150Y-42240D01*
X54039Y-42240D01*
X54025Y-42245D01*
X53724Y-41944D01*
X53677Y-41913D01*
X53658Y-41909D01*
X53701Y-41892D01*
X53780Y-41813D01*
X53823Y-41710D01*
X53823Y-41665D01*
X54302Y-42144D01*
X54306Y-42150D01*
X54354Y-42181D01*
X54409Y-42192D01*
X58780Y-42192D01*
X63468Y-44931D01*
X63521Y-44950D01*
X63543Y-44948D01*
X63558Y-44948D01*
X64096Y-44949D01*
X64109Y-44946D01*
X64118Y-44946D01*
X63856Y-45367D01*
X61304Y-45367D01*
X59020Y-44095D01*
X59020Y-42969D01*
X59020Y-42858D01*
X58978Y-42755D01*
X58899Y-42676D01*
X58796Y-42633D01*
X58685Y-42633D01*
X58582Y-42675D01*
X58503Y-42754D01*
X58464Y-42847D01*
X56621Y-42847D01*
X56616Y-42834D01*
X56537Y-42755D01*
X56434Y-42712D01*
X56323Y-42712D01*
X56220Y-42754D01*
X56141Y-42833D01*
X56098Y-42936D01*
X56098Y-43047D01*
X56140Y-43150D01*
X56219Y-43229D01*
X56322Y-43272D01*
X56433Y-43272D01*
X56536Y-43230D01*
X56615Y-43151D01*
X56620Y-43137D01*
X58568Y-43137D01*
X58581Y-43150D01*
X58684Y-43193D01*
X58795Y-43193D01*
X58898Y-43151D01*
X58977Y-43072D01*
X59020Y-42969D01*
X59020Y-44095D01*
X58190Y-43633D01*
X58190Y-43589D01*
X58148Y-43486D01*
X58069Y-43407D01*
X57966Y-43364D01*
X57855Y-43364D01*
X57752Y-43406D01*
X57673Y-43485D01*
X57630Y-43588D01*
X57630Y-43699D01*
X57672Y-43802D01*
X57751Y-43881D01*
X57854Y-43924D01*
X57965Y-43924D01*
X58050Y-43888D01*
X58481Y-44129D01*
X58370Y-44129D01*
X58267Y-44171D01*
X58188Y-44250D01*
X58145Y-44353D01*
X58145Y-44464D01*
X58150Y-44478D01*
X57734Y-44894D01*
X57015Y-44894D01*
X57010Y-44881D01*
X56931Y-44802D01*
X56828Y-44759D01*
X56717Y-44759D01*
X56614Y-44801D01*
X56535Y-44880D01*
X56492Y-44983D01*
X56492Y-45094D01*
X56534Y-45197D01*
X56613Y-45276D01*
X56716Y-45319D01*
X56827Y-45319D01*
X56930Y-45277D01*
X57009Y-45198D01*
X57014Y-45184D01*
X57790Y-45184D01*
X57795Y-45185D01*
X57795Y-45184D01*
X57850Y-45173D01*
X57851Y-45173D01*
X57898Y-45142D01*
X58355Y-44683D01*
X58369Y-44689D01*
X58480Y-44689D01*
X58583Y-44647D01*
X58662Y-44568D01*
X58705Y-44465D01*
X58705Y-44354D01*
X58663Y-44251D01*
X58614Y-44202D01*
X61186Y-45634D01*
X61190Y-45636D01*
X61205Y-45646D01*
X61244Y-45653D01*
X61260Y-45657D01*
X63937Y-45657D01*
X63950Y-45654D01*
X63970Y-45654D01*
X63983Y-45647D01*
X63992Y-45646D01*
X64003Y-45638D01*
X64022Y-45630D01*
X64029Y-45621D01*
X64040Y-45615D01*
X64049Y-45600D01*
X64060Y-45589D01*
X65873Y-42677D01*
X65881Y-42654D01*
X65882Y-42653D01*
X65882Y-42650D01*
X65892Y-42624D01*
X65891Y-42604D01*
X65893Y-42598D01*
X65893Y-41181D01*
X65888Y-41160D01*
X65888Y-41143D01*
X65883Y-41135D01*
X65882Y-41126D01*
X65865Y-41100D01*
X65861Y-41092D01*
X65858Y-41090D01*
X65851Y-41078D01*
X65828Y-41063D01*
X65819Y-41055D01*
X65694Y-40983D01*
X65697Y-40980D01*
X65702Y-40939D01*
X65691Y-40898D01*
X65671Y-40873D01*
X65704Y-40878D01*
X65744Y-40867D01*
X65777Y-40842D01*
X65786Y-40824D01*
X65862Y-40868D01*
X65862Y-40921D01*
X65904Y-41024D01*
X65983Y-41103D01*
X66086Y-41146D01*
X66197Y-41146D01*
X66300Y-41104D01*
X66379Y-41025D01*
X66422Y-40922D01*
X66422Y-40811D01*
X66380Y-40708D01*
X66301Y-40629D01*
X66198Y-40586D01*
X66087Y-40586D01*
X66008Y-40618D01*
X65931Y-40573D01*
X65947Y-40547D01*
X65952Y-40506D01*
X65941Y-40465D01*
X65921Y-40440D01*
X65954Y-40445D01*
X65994Y-40434D01*
X66027Y-40409D01*
X66048Y-40372D01*
X66197Y-40114D01*
X66202Y-40073D01*
X66191Y-40032D01*
X66171Y-40007D01*
X66204Y-40012D01*
X66244Y-40001D01*
X66277Y-39976D01*
X66298Y-39939D01*
X66447Y-39681D01*
X66452Y-39640D01*
X66452Y-43811D01*
X65132Y-46117D01*
X55792Y-46117D01*
X55792Y-43048D01*
X55792Y-42937D01*
X55750Y-42834D01*
X55671Y-42755D01*
X55568Y-42712D01*
X55457Y-42712D01*
X55354Y-42754D01*
X55275Y-42833D01*
X55232Y-42936D01*
X55232Y-43047D01*
X55274Y-43150D01*
X55353Y-43229D01*
X55367Y-43234D01*
X55367Y-44792D01*
X54694Y-45127D01*
X50455Y-45053D01*
X50145Y-44742D01*
X50145Y-43862D01*
X50288Y-43777D01*
X50344Y-43874D01*
X50378Y-43899D01*
X50418Y-43910D01*
X50449Y-43905D01*
X50429Y-43931D01*
X50419Y-43971D01*
X50424Y-44012D01*
X50445Y-44049D01*
X50594Y-44307D01*
X50628Y-44332D01*
X50668Y-44343D01*
X50709Y-44337D01*
X50745Y-44316D01*
X51040Y-44145D01*
X51047Y-44150D01*
X51058Y-44152D01*
X51071Y-44158D01*
X51087Y-44158D01*
X51102Y-44161D01*
X51882Y-44161D01*
X51888Y-44174D01*
X51967Y-44253D01*
X52070Y-44296D01*
X52181Y-44296D01*
X52284Y-44254D01*
X52363Y-44175D01*
X52406Y-44072D01*
X52406Y-43961D01*
X52364Y-43858D01*
X52285Y-43779D01*
X52182Y-43736D01*
X52071Y-43736D01*
X51968Y-43778D01*
X51889Y-43857D01*
X51883Y-43871D01*
X51516Y-43871D01*
X51563Y-43844D01*
X51589Y-43811D01*
X51599Y-43771D01*
X51594Y-43730D01*
X51573Y-43693D01*
X51424Y-43435D01*
X51390Y-43410D01*
X51350Y-43399D01*
X51318Y-43403D01*
X51339Y-43378D01*
X51349Y-43338D01*
X51344Y-43297D01*
X51323Y-43260D01*
X51174Y-43002D01*
X51140Y-42977D01*
X51100Y-42966D01*
X51068Y-42970D01*
X51089Y-42945D01*
X51099Y-42905D01*
X51094Y-42864D01*
X51073Y-42827D01*
X50924Y-42569D01*
X50890Y-42544D01*
X50850Y-42533D01*
X50847Y-42533D01*
X50857Y-42521D01*
X50870Y-42474D01*
X50863Y-42424D01*
X50804Y-42322D01*
X50762Y-42311D01*
X50748Y-42319D01*
X50748Y-42225D01*
X50689Y-42123D01*
X50650Y-42092D01*
X50602Y-42080D01*
X50586Y-42081D01*
X50589Y-42079D01*
X50599Y-42039D01*
X50594Y-41998D01*
X50573Y-41961D01*
X50424Y-41703D01*
X50390Y-41678D01*
X50350Y-41667D01*
X50318Y-41671D01*
X50339Y-41646D01*
X50349Y-41606D01*
X50344Y-41565D01*
X50323Y-41528D01*
X50174Y-41270D01*
X50140Y-41245D01*
X50100Y-41234D01*
X50067Y-41238D01*
X50089Y-41212D01*
X50099Y-41172D01*
X50094Y-41131D01*
X50073Y-41094D01*
X49924Y-40836D01*
X49890Y-40811D01*
X49850Y-40800D01*
X49818Y-40804D01*
X49839Y-40779D01*
X49849Y-40739D01*
X49844Y-40698D01*
X49823Y-40661D01*
X49674Y-40403D01*
X49640Y-40378D01*
X49600Y-40367D01*
X49568Y-40371D01*
X49589Y-40346D01*
X49599Y-40306D01*
X49594Y-40265D01*
X49573Y-40228D01*
X49424Y-39970D01*
X49390Y-39945D01*
X49350Y-39934D01*
X49318Y-39938D01*
X49339Y-39913D01*
X49349Y-39873D01*
X49344Y-39832D01*
X49323Y-39795D01*
X49174Y-39537D01*
X49140Y-39512D01*
X49100Y-39501D01*
X49068Y-39505D01*
X49089Y-39480D01*
X49099Y-39440D01*
X49094Y-39399D01*
X49073Y-39362D01*
X48924Y-39104D01*
X48890Y-39079D01*
X48850Y-39068D01*
X48809Y-39074D01*
X48773Y-39095D01*
X47955Y-39567D01*
X47929Y-39600D01*
X47919Y-39640D01*
X47924Y-39681D01*
X47945Y-39718D01*
X48094Y-39976D01*
X48128Y-40001D01*
X48168Y-40012D01*
X48199Y-40007D01*
X48179Y-40033D01*
X48169Y-40073D01*
X48174Y-40114D01*
X48195Y-40151D01*
X48344Y-40409D01*
X48378Y-40434D01*
X48418Y-40445D01*
X48449Y-40440D01*
X48429Y-40466D01*
X48419Y-40506D01*
X48424Y-40547D01*
X48445Y-40584D01*
X48594Y-40842D01*
X48628Y-40867D01*
X48668Y-40878D01*
X48699Y-40873D01*
X48679Y-40899D01*
X48669Y-40939D01*
X48674Y-40980D01*
X48695Y-41017D01*
X48844Y-41275D01*
X48878Y-41300D01*
X48918Y-41311D01*
X48949Y-41306D01*
X48929Y-41332D01*
X48919Y-41372D01*
X48924Y-41413D01*
X48945Y-41450D01*
X49094Y-41708D01*
X49128Y-41733D01*
X49168Y-41744D01*
X49200Y-41739D01*
X49179Y-41766D01*
X49169Y-41806D01*
X49174Y-41847D01*
X49195Y-41884D01*
X49344Y-42142D01*
X49378Y-42167D01*
X49418Y-42178D01*
X49449Y-42173D01*
X49429Y-42199D01*
X49419Y-42239D01*
X49424Y-42280D01*
X49445Y-42317D01*
X49594Y-42575D01*
X49628Y-42600D01*
X49668Y-42611D01*
X49661Y-42623D01*
X49648Y-42670D01*
X49655Y-42720D01*
X49714Y-42822D01*
X49756Y-42833D01*
X50203Y-42575D01*
X50225Y-42563D01*
X50224Y-42562D01*
X50267Y-42537D01*
X50268Y-42538D01*
X50290Y-42525D01*
X50737Y-42267D01*
X50748Y-42225D01*
X50748Y-42319D01*
X50293Y-42581D01*
X50250Y-42606D01*
X49781Y-42877D01*
X49770Y-42919D01*
X49829Y-43021D01*
X49868Y-43052D01*
X49916Y-43064D01*
X49931Y-43062D01*
X49929Y-43065D01*
X49919Y-43105D01*
X49924Y-43146D01*
X49945Y-43183D01*
X50094Y-43441D01*
X50128Y-43466D01*
X50168Y-43477D01*
X50199Y-43472D01*
X50179Y-43498D01*
X50176Y-43507D01*
X49926Y-43655D01*
X49913Y-43666D01*
X49897Y-43677D01*
X49890Y-43687D01*
X49884Y-43693D01*
X49875Y-43710D01*
X49866Y-43725D01*
X49864Y-43732D01*
X49859Y-43744D01*
X49858Y-43763D01*
X49855Y-43780D01*
X49855Y-44798D01*
X49854Y-44803D01*
X49866Y-44859D01*
X49897Y-44906D01*
X50287Y-45295D01*
X50289Y-45298D01*
X50291Y-45299D01*
X50314Y-45315D01*
X50337Y-45330D01*
X50338Y-45331D01*
X50391Y-45342D01*
X50394Y-45343D01*
X50398Y-45342D01*
X54721Y-45418D01*
X54722Y-45417D01*
X54735Y-45419D01*
X54776Y-45408D01*
X54789Y-45405D01*
X55567Y-45016D01*
X55576Y-45012D01*
X55592Y-44999D01*
X55615Y-44985D01*
X55618Y-44980D01*
X55621Y-44978D01*
X55637Y-44950D01*
X55646Y-44937D01*
X55646Y-44935D01*
X55650Y-44929D01*
X55652Y-44903D01*
X55657Y-44882D01*
X55657Y-43235D01*
X55670Y-43230D01*
X55749Y-43151D01*
X55792Y-43048D01*
X55792Y-46117D01*
X49282Y-46117D01*
X45952Y-40301D01*
X46101Y-40451D01*
X46433Y-40589D01*
X46793Y-40589D01*
X47125Y-40452D01*
X47380Y-40198D01*
X47518Y-39866D01*
X47518Y-39506D01*
X47381Y-39174D01*
X47127Y-38919D01*
X46795Y-38781D01*
X46435Y-38781D01*
X46103Y-38918D01*
X45985Y-39034D01*
X51418Y-29511D01*
X62193Y-29511D01*
X62009Y-29587D01*
X61754Y-29841D01*
X61616Y-30173D01*
X61616Y-30533D01*
X61753Y-30865D01*
X62007Y-31120D01*
X62339Y-31258D01*
X62699Y-31258D01*
X63031Y-31121D01*
X63286Y-30867D01*
X63424Y-30535D01*
X63424Y-30233D01*
X68814Y-39686D01*
X68814Y-39686D01*
G37*
G54D16*
X68814Y-39686D02*
X66452Y-43811D01*
X66452Y-39640D01*
X66441Y-39599D01*
X66416Y-39567D01*
X66380Y-39546D01*
X66016Y-39336D01*
X66049Y-38605D01*
X66050Y-38590D01*
X66047Y-38575D01*
X66047Y-38548D01*
X66042Y-38539D01*
X66042Y-38534D01*
X66031Y-38515D01*
X66022Y-38497D01*
X66017Y-38493D01*
X66013Y-38485D01*
X65993Y-38471D01*
X65980Y-38459D01*
X65193Y-37986D01*
X65182Y-37982D01*
X65173Y-37976D01*
X65155Y-37972D01*
X65140Y-37967D01*
X65129Y-37967D01*
X65118Y-37965D01*
X56850Y-37965D01*
X56849Y-37965D01*
X56838Y-37967D01*
X56795Y-37976D01*
X56747Y-38007D01*
X56745Y-38009D01*
X56683Y-38071D01*
X56670Y-38066D01*
X56559Y-38066D01*
X56456Y-38108D01*
X56377Y-38187D01*
X56334Y-38290D01*
X56334Y-38401D01*
X56376Y-38504D01*
X56455Y-38583D01*
X56558Y-38626D01*
X56669Y-38626D01*
X56772Y-38584D01*
X56851Y-38505D01*
X56894Y-38402D01*
X56894Y-38291D01*
X56888Y-38276D01*
X56910Y-38255D01*
X65077Y-38255D01*
X65756Y-38663D01*
X65733Y-39172D01*
X65562Y-39074D01*
X65520Y-39068D01*
X65480Y-39079D01*
X65447Y-39104D01*
X65426Y-39141D01*
X65277Y-39399D01*
X65272Y-39440D01*
X65283Y-39481D01*
X65302Y-39505D01*
X65270Y-39501D01*
X65230Y-39512D01*
X65197Y-39537D01*
X65176Y-39574D01*
X65027Y-39832D01*
X65022Y-39873D01*
X65033Y-39914D01*
X65052Y-39938D01*
X65020Y-39934D01*
X64980Y-39945D01*
X64947Y-39970D01*
X64926Y-40007D01*
X64777Y-40265D01*
X64772Y-40306D01*
X64783Y-40347D01*
X64802Y-40371D01*
X64770Y-40367D01*
X64730Y-40378D01*
X64697Y-40403D01*
X64676Y-40440D01*
X64527Y-40698D01*
X64522Y-40739D01*
X64533Y-40780D01*
X64552Y-40804D01*
X64520Y-40800D01*
X64480Y-40811D01*
X64447Y-40836D01*
X64426Y-40873D01*
X64277Y-41131D01*
X64272Y-41172D01*
X64283Y-41213D01*
X64303Y-41238D01*
X64270Y-41234D01*
X64230Y-41245D01*
X64197Y-41270D01*
X64176Y-41307D01*
X64027Y-41565D01*
X64022Y-41606D01*
X64033Y-41647D01*
X64052Y-41671D01*
X64020Y-41667D01*
X63980Y-41678D01*
X63947Y-41703D01*
X63926Y-41740D01*
X63777Y-41998D01*
X63772Y-42039D01*
X63783Y-42080D01*
X63802Y-42104D01*
X63770Y-42100D01*
X63730Y-42111D01*
X63697Y-42136D01*
X63676Y-42173D01*
X63527Y-42431D01*
X63522Y-42472D01*
X63533Y-42513D01*
X63552Y-42537D01*
X63520Y-42533D01*
X63480Y-42544D01*
X63447Y-42569D01*
X63426Y-42606D01*
X63277Y-42864D01*
X63272Y-42905D01*
X63283Y-42946D01*
X63302Y-42970D01*
X63270Y-42966D01*
X63230Y-42977D01*
X63197Y-43002D01*
X63176Y-43039D01*
X63027Y-43297D01*
X63022Y-43338D01*
X63033Y-43379D01*
X63052Y-43403D01*
X63020Y-43399D01*
X62980Y-43410D01*
X62947Y-43435D01*
X62926Y-43472D01*
X62777Y-43730D01*
X62772Y-43771D01*
X62783Y-43812D01*
X62808Y-43844D01*
X62844Y-43865D01*
X63662Y-44337D01*
X63704Y-44343D01*
X63744Y-44332D01*
X63777Y-44307D01*
X63798Y-44270D01*
X63947Y-44012D01*
X63952Y-43971D01*
X63941Y-43930D01*
X63921Y-43905D01*
X63954Y-43910D01*
X63994Y-43899D01*
X64027Y-43874D01*
X64048Y-43837D01*
X64197Y-43579D01*
X64202Y-43538D01*
X64191Y-43497D01*
X64171Y-43472D01*
X64204Y-43477D01*
X64244Y-43466D01*
X64277Y-43441D01*
X64298Y-43404D01*
X64447Y-43146D01*
X64452Y-43105D01*
X64441Y-43064D01*
X64421Y-43039D01*
X64454Y-43044D01*
X64494Y-43033D01*
X64527Y-43008D01*
X64543Y-42978D01*
X64579Y-42997D01*
X64579Y-43343D01*
X63934Y-44422D01*
X63653Y-44422D01*
X59029Y-41720D01*
X62254Y-41720D01*
X62252Y-41739D01*
X62263Y-41780D01*
X62282Y-41804D01*
X62250Y-41800D01*
X62210Y-41811D01*
X62177Y-41836D01*
X62156Y-41873D01*
X62007Y-42131D01*
X62002Y-42172D01*
X62013Y-42213D01*
X62032Y-42237D01*
X62000Y-42233D01*
X61960Y-42244D01*
X61927Y-42269D01*
X61906Y-42306D01*
X61757Y-42564D01*
X61752Y-42605D01*
X61763Y-42646D01*
X61782Y-42670D01*
X61750Y-42666D01*
X61710Y-42677D01*
X61677Y-42702D01*
X61656Y-42739D01*
X61507Y-42997D01*
X61502Y-43038D01*
X61513Y-43079D01*
X61538Y-43111D01*
X61574Y-43132D01*
X62392Y-43604D01*
X62434Y-43610D01*
X62474Y-43599D01*
X62507Y-43574D01*
X62528Y-43537D01*
X62677Y-43279D01*
X62682Y-43238D01*
X62671Y-43197D01*
X62651Y-43172D01*
X62684Y-43177D01*
X62724Y-43166D01*
X62757Y-43141D01*
X62778Y-43104D01*
X62927Y-42846D01*
X62932Y-42805D01*
X62921Y-42764D01*
X62901Y-42739D01*
X62934Y-42744D01*
X62974Y-42733D01*
X63007Y-42708D01*
X63028Y-42671D01*
X63177Y-42413D01*
X63182Y-42372D01*
X63171Y-42331D01*
X63151Y-42306D01*
X63184Y-42311D01*
X63224Y-42300D01*
X63257Y-42275D01*
X63278Y-42238D01*
X63427Y-41980D01*
X63432Y-41939D01*
X63421Y-41898D01*
X63401Y-41873D01*
X63434Y-41878D01*
X63474Y-41867D01*
X63507Y-41842D01*
X63528Y-41805D01*
X63677Y-41547D01*
X63682Y-41506D01*
X63671Y-41465D01*
X63650Y-41439D01*
X63684Y-41444D01*
X63724Y-41433D01*
X63757Y-41408D01*
X63778Y-41371D01*
X63927Y-41113D01*
X63932Y-41072D01*
X63921Y-41031D01*
X63901Y-41006D01*
X63934Y-41011D01*
X63974Y-41000D01*
X64007Y-40975D01*
X64028Y-40938D01*
X64177Y-40680D01*
X64182Y-40639D01*
X64171Y-40598D01*
X64151Y-40573D01*
X64184Y-40578D01*
X64224Y-40567D01*
X64257Y-40542D01*
X64278Y-40505D01*
X64427Y-40247D01*
X64432Y-40206D01*
X64421Y-40165D01*
X64401Y-40140D01*
X64434Y-40145D01*
X64474Y-40134D01*
X64507Y-40109D01*
X64528Y-40072D01*
X64677Y-39814D01*
X64682Y-39773D01*
X64671Y-39732D01*
X64651Y-39707D01*
X64684Y-39712D01*
X64724Y-39701D01*
X64757Y-39676D01*
X64778Y-39639D01*
X64927Y-39381D01*
X64932Y-39340D01*
X64921Y-39299D01*
X64901Y-39274D01*
X64934Y-39279D01*
X64974Y-39268D01*
X65007Y-39243D01*
X65028Y-39206D01*
X65177Y-38948D01*
X65182Y-38907D01*
X65171Y-38866D01*
X65146Y-38834D01*
X65110Y-38813D01*
X64292Y-38341D01*
X64250Y-38335D01*
X64210Y-38346D01*
X64177Y-38371D01*
X64156Y-38408D01*
X64007Y-38666D01*
X64002Y-38707D01*
X64013Y-38748D01*
X64032Y-38772D01*
X64000Y-38768D01*
X63960Y-38779D01*
X63927Y-38804D01*
X63906Y-38841D01*
X63757Y-39099D01*
X63752Y-39140D01*
X63763Y-39181D01*
X63782Y-39205D01*
X63750Y-39201D01*
X63710Y-39212D01*
X63677Y-39237D01*
X63666Y-39255D01*
X63380Y-39088D01*
X63371Y-39085D01*
X63362Y-39079D01*
X63341Y-39074D01*
X63327Y-39070D01*
X63318Y-39070D01*
X63307Y-39068D01*
X63150Y-39068D01*
X58747Y-39068D01*
X58742Y-39055D01*
X58663Y-38976D01*
X58560Y-38933D01*
X58449Y-38933D01*
X58346Y-38975D01*
X58267Y-39054D01*
X58224Y-39157D01*
X58224Y-39268D01*
X58266Y-39371D01*
X58345Y-39450D01*
X58448Y-39493D01*
X58559Y-39493D01*
X58662Y-39451D01*
X58741Y-39372D01*
X58746Y-39358D01*
X63150Y-39358D01*
X63268Y-39358D01*
X63521Y-39506D01*
X63507Y-39532D01*
X63502Y-39573D01*
X63513Y-39614D01*
X63532Y-39638D01*
X63500Y-39634D01*
X63460Y-39645D01*
X63427Y-39669D01*
X63385Y-39642D01*
X63373Y-39637D01*
X63362Y-39630D01*
X63348Y-39627D01*
X63333Y-39621D01*
X63318Y-39621D01*
X63307Y-39619D01*
X63078Y-39619D01*
X63073Y-39606D01*
X62994Y-39527D01*
X62891Y-39484D01*
X62780Y-39484D01*
X62677Y-39526D01*
X62598Y-39605D01*
X62555Y-39708D01*
X62555Y-39819D01*
X62597Y-39922D01*
X62676Y-40001D01*
X62779Y-40044D01*
X62890Y-40044D01*
X62993Y-40002D01*
X63072Y-39923D01*
X63077Y-39909D01*
X63264Y-39909D01*
X63282Y-39920D01*
X63257Y-39965D01*
X63252Y-40006D01*
X63263Y-40047D01*
X63282Y-40071D01*
X63250Y-40067D01*
X63210Y-40078D01*
X63177Y-40103D01*
X63156Y-40140D01*
X63007Y-40398D01*
X63002Y-40439D01*
X63013Y-40480D01*
X63032Y-40504D01*
X63000Y-40500D01*
X62960Y-40511D01*
X62927Y-40536D01*
X62906Y-40573D01*
X62757Y-40831D01*
X62752Y-40872D01*
X62763Y-40913D01*
X62783Y-40938D01*
X62750Y-40934D01*
X62710Y-40945D01*
X62677Y-40970D01*
X62656Y-41007D01*
X62639Y-41036D01*
X58642Y-41036D01*
X55578Y-37971D01*
X55578Y-37638D01*
X55577Y-37637D01*
X55578Y-37637D01*
X55575Y-37626D01*
X55567Y-37583D01*
X55566Y-37582D01*
X55536Y-37535D01*
X55533Y-37533D01*
X55471Y-37471D01*
X55477Y-37458D01*
X55477Y-37347D01*
X55435Y-37244D01*
X55356Y-37165D01*
X55327Y-37153D01*
X57632Y-37153D01*
X57637Y-37154D01*
X57637Y-37153D01*
X57692Y-37142D01*
X57693Y-37142D01*
X57740Y-37111D01*
X58040Y-36809D01*
X58054Y-36815D01*
X58165Y-36815D01*
X58268Y-36773D01*
X58347Y-36694D01*
X58390Y-36591D01*
X58390Y-36480D01*
X58348Y-36377D01*
X58269Y-36298D01*
X58243Y-36287D01*
X58243Y-31811D01*
X58243Y-31690D01*
X58197Y-31578D01*
X58112Y-31493D01*
X58000Y-31446D01*
X57879Y-31446D01*
X57767Y-31492D01*
X57682Y-31577D01*
X57635Y-31689D01*
X57635Y-31810D01*
X57681Y-31922D01*
X57766Y-32007D01*
X57878Y-32054D01*
X57999Y-32054D01*
X58111Y-32008D01*
X58196Y-31923D01*
X58243Y-31811D01*
X58243Y-36287D01*
X58233Y-36282D01*
X58233Y-33836D01*
X58233Y-33725D01*
X58191Y-33622D01*
X58112Y-33543D01*
X58009Y-33500D01*
X57898Y-33500D01*
X57795Y-33542D01*
X57781Y-33556D01*
X56865Y-33556D01*
X56865Y-31811D01*
X56865Y-31690D01*
X56819Y-31578D01*
X56734Y-31493D01*
X56622Y-31446D01*
X56501Y-31446D01*
X56389Y-31492D01*
X56304Y-31577D01*
X56257Y-31689D01*
X56257Y-31810D01*
X56303Y-31922D01*
X56388Y-32007D01*
X56500Y-32054D01*
X56621Y-32054D01*
X56733Y-32008D01*
X56818Y-31923D01*
X56865Y-31811D01*
X56865Y-33556D01*
X52763Y-33556D01*
X52758Y-33543D01*
X52679Y-33464D01*
X52576Y-33421D01*
X52465Y-33421D01*
X52362Y-33463D01*
X52283Y-33542D01*
X52240Y-33645D01*
X52240Y-33756D01*
X52282Y-33859D01*
X52361Y-33938D01*
X52464Y-33981D01*
X52575Y-33981D01*
X52678Y-33939D01*
X52757Y-33860D01*
X52762Y-33846D01*
X57677Y-33846D01*
X57715Y-33938D01*
X57794Y-34017D01*
X57897Y-34060D01*
X58008Y-34060D01*
X58111Y-34018D01*
X58190Y-33939D01*
X58233Y-33836D01*
X58233Y-36282D01*
X58166Y-36255D01*
X58055Y-36255D01*
X57952Y-36297D01*
X57873Y-36376D01*
X57830Y-36479D01*
X57830Y-36590D01*
X57835Y-36603D01*
X57576Y-36863D01*
X54960Y-36863D01*
X54959Y-36863D01*
X54948Y-36865D01*
X54905Y-36874D01*
X54857Y-36905D01*
X54855Y-36907D01*
X54663Y-37099D01*
X54574Y-37099D01*
X54569Y-37086D01*
X54490Y-37007D01*
X54387Y-36964D01*
X54276Y-36964D01*
X54173Y-37006D01*
X54094Y-37085D01*
X54051Y-37188D01*
X54051Y-37299D01*
X54093Y-37402D01*
X54172Y-37481D01*
X54275Y-37524D01*
X54386Y-37524D01*
X54489Y-37482D01*
X54568Y-37403D01*
X54573Y-37389D01*
X54719Y-37389D01*
X54724Y-37390D01*
X54724Y-37389D01*
X54779Y-37378D01*
X54780Y-37378D01*
X54827Y-37347D01*
X55020Y-37153D01*
X55065Y-37153D01*
X55039Y-37164D01*
X54960Y-37243D01*
X54917Y-37346D01*
X54917Y-37457D01*
X54959Y-37560D01*
X55038Y-37639D01*
X55141Y-37682D01*
X55252Y-37682D01*
X55266Y-37676D01*
X55288Y-37698D01*
X55288Y-38027D01*
X55287Y-38032D01*
X55299Y-38088D01*
X55330Y-38135D01*
X55897Y-38701D01*
X55883Y-38696D01*
X55772Y-38696D01*
X55669Y-38738D01*
X55590Y-38817D01*
X55551Y-38910D01*
X54337Y-38910D01*
X54332Y-38897D01*
X54253Y-38818D01*
X54150Y-38775D01*
X54039Y-38775D01*
X53936Y-38817D01*
X53857Y-38896D01*
X53814Y-38999D01*
X53814Y-39110D01*
X53856Y-39213D01*
X53935Y-39292D01*
X54038Y-39335D01*
X54149Y-39335D01*
X54252Y-39293D01*
X54331Y-39214D01*
X54336Y-39200D01*
X55655Y-39200D01*
X55668Y-39213D01*
X55771Y-39256D01*
X55882Y-39256D01*
X55985Y-39214D01*
X56064Y-39135D01*
X56107Y-39032D01*
X56107Y-38921D01*
X56100Y-38905D01*
X58477Y-41281D01*
X58479Y-41284D01*
X58526Y-41314D01*
X58527Y-41315D01*
X58582Y-41326D01*
X62507Y-41326D01*
X62513Y-41347D01*
X62532Y-41371D01*
X62500Y-41367D01*
X62460Y-41378D01*
X62427Y-41403D01*
X62411Y-41430D01*
X56378Y-41430D01*
X54785Y-41430D01*
X53452Y-40096D01*
X53452Y-38747D01*
X53465Y-38742D01*
X53544Y-38663D01*
X53587Y-38560D01*
X53587Y-38449D01*
X53545Y-38346D01*
X53466Y-38267D01*
X53363Y-38224D01*
X53252Y-38224D01*
X53149Y-38266D01*
X53070Y-38345D01*
X53027Y-38448D01*
X53027Y-38559D01*
X53044Y-38602D01*
X53016Y-38558D01*
X53013Y-38556D01*
X52951Y-38494D01*
X52957Y-38481D01*
X52957Y-38370D01*
X52915Y-38267D01*
X52836Y-38188D01*
X52733Y-38145D01*
X52622Y-38145D01*
X52519Y-38187D01*
X52440Y-38266D01*
X52397Y-38369D01*
X52397Y-38480D01*
X52439Y-38583D01*
X52518Y-38662D01*
X52621Y-38705D01*
X52732Y-38705D01*
X52746Y-38699D01*
X52768Y-38721D01*
X52768Y-38842D01*
X52758Y-38818D01*
X52679Y-38739D01*
X52576Y-38696D01*
X52465Y-38696D01*
X52362Y-38738D01*
X52283Y-38817D01*
X52240Y-38920D01*
X52240Y-39031D01*
X52282Y-39134D01*
X52361Y-39213D01*
X52375Y-39218D01*
X52375Y-40152D01*
X52374Y-40157D01*
X52386Y-40213D01*
X52417Y-40260D01*
X53531Y-41374D01*
X53488Y-41374D01*
X53385Y-41416D01*
X53361Y-41439D01*
X53353Y-41437D01*
X53323Y-41433D01*
X53307Y-41430D01*
X53297Y-41430D01*
X51959Y-41430D01*
X51944Y-41403D01*
X51910Y-41378D01*
X51870Y-41367D01*
X51838Y-41371D01*
X51859Y-41346D01*
X51869Y-41306D01*
X51864Y-41265D01*
X51843Y-41228D01*
X51694Y-40970D01*
X51660Y-40945D01*
X51620Y-40934D01*
X51587Y-40938D01*
X51609Y-40912D01*
X51619Y-40872D01*
X51614Y-40831D01*
X51593Y-40794D01*
X51444Y-40536D01*
X51410Y-40511D01*
X51370Y-40500D01*
X51338Y-40504D01*
X51359Y-40479D01*
X51369Y-40439D01*
X51364Y-40398D01*
X51343Y-40361D01*
X51194Y-40103D01*
X51160Y-40078D01*
X51120Y-40067D01*
X51088Y-40071D01*
X51109Y-40046D01*
X51119Y-40006D01*
X51114Y-39965D01*
X51093Y-39928D01*
X50944Y-39670D01*
X50910Y-39645D01*
X50870Y-39634D01*
X50838Y-39638D01*
X50859Y-39613D01*
X50869Y-39573D01*
X50864Y-39532D01*
X50843Y-39495D01*
X50694Y-39237D01*
X50660Y-39212D01*
X50620Y-39201D01*
X50588Y-39205D01*
X50609Y-39180D01*
X50619Y-39140D01*
X50614Y-39099D01*
X50593Y-39062D01*
X50444Y-38804D01*
X50410Y-38779D01*
X50370Y-38768D01*
X50338Y-38772D01*
X50359Y-38747D01*
X50369Y-38707D01*
X50364Y-38666D01*
X50343Y-38629D01*
X50194Y-38371D01*
X50160Y-38346D01*
X50120Y-38335D01*
X50079Y-38341D01*
X50043Y-38362D01*
X49225Y-38834D01*
X49199Y-38867D01*
X49189Y-38907D01*
X49194Y-38948D01*
X49215Y-38985D01*
X49364Y-39243D01*
X49398Y-39268D01*
X49438Y-39279D01*
X49469Y-39274D01*
X49449Y-39300D01*
X49439Y-39340D01*
X49444Y-39381D01*
X49465Y-39418D01*
X49614Y-39676D01*
X49648Y-39701D01*
X49688Y-39712D01*
X49719Y-39707D01*
X49699Y-39733D01*
X49689Y-39773D01*
X49694Y-39814D01*
X49715Y-39851D01*
X49864Y-40109D01*
X49898Y-40134D01*
X49938Y-40145D01*
X49969Y-40140D01*
X49949Y-40166D01*
X49939Y-40206D01*
X49944Y-40247D01*
X49965Y-40284D01*
X50114Y-40542D01*
X50148Y-40567D01*
X50188Y-40578D01*
X50219Y-40573D01*
X50199Y-40599D01*
X50189Y-40639D01*
X50194Y-40680D01*
X50215Y-40717D01*
X50364Y-40975D01*
X50398Y-41000D01*
X50438Y-41011D01*
X50469Y-41006D01*
X50449Y-41032D01*
X50439Y-41072D01*
X50444Y-41113D01*
X50465Y-41150D01*
X50614Y-41408D01*
X50648Y-41433D01*
X50688Y-41444D01*
X50720Y-41439D01*
X50699Y-41466D01*
X50689Y-41506D01*
X50694Y-41547D01*
X50715Y-41584D01*
X50864Y-41842D01*
X50898Y-41867D01*
X50938Y-41878D01*
X50969Y-41873D01*
X50949Y-41899D01*
X50939Y-41939D01*
X50944Y-41980D01*
X50965Y-42017D01*
X51114Y-42275D01*
X51148Y-42300D01*
X51188Y-42311D01*
X51219Y-42306D01*
X51199Y-42332D01*
X51189Y-42372D01*
X51194Y-42413D01*
X51215Y-42450D01*
X51364Y-42708D01*
X51398Y-42733D01*
X51438Y-42744D01*
X51469Y-42739D01*
X51449Y-42765D01*
X51439Y-42805D01*
X51444Y-42846D01*
X51465Y-42883D01*
X51614Y-43141D01*
X51648Y-43166D01*
X51688Y-43177D01*
X51719Y-43172D01*
X51699Y-43198D01*
X51689Y-43238D01*
X51694Y-43279D01*
X51715Y-43316D01*
X51864Y-43574D01*
X51898Y-43599D01*
X51938Y-43610D01*
X51979Y-43604D01*
X52015Y-43583D01*
X52833Y-43111D01*
X52859Y-43078D01*
X52869Y-43038D01*
X52864Y-42997D01*
X52843Y-42960D01*
X52694Y-42702D01*
X52660Y-42677D01*
X52620Y-42666D01*
X52588Y-42670D01*
X52609Y-42645D01*
X52619Y-42605D01*
X52614Y-42564D01*
X52593Y-42527D01*
X52444Y-42269D01*
X52410Y-42244D01*
X52370Y-42233D01*
X52338Y-42237D01*
X52359Y-42212D01*
X52364Y-42192D01*
X53560Y-42192D01*
X53819Y-42450D01*
X53814Y-42464D01*
X53814Y-42575D01*
X53856Y-42678D01*
X53935Y-42757D01*
X54038Y-42800D01*
X54149Y-42800D01*
X54252Y-42758D01*
X54331Y-42679D01*
X54374Y-42576D01*
X54374Y-42465D01*
X54332Y-42362D01*
X54253Y-42283D01*
X54150Y-42240D01*
X54039Y-42240D01*
X54025Y-42245D01*
X53724Y-41944D01*
X53677Y-41913D01*
X53658Y-41909D01*
X53701Y-41892D01*
X53780Y-41813D01*
X53823Y-41710D01*
X53823Y-41665D01*
X54302Y-42144D01*
X54306Y-42150D01*
X54354Y-42181D01*
X54409Y-42192D01*
X58780Y-42192D01*
X63468Y-44931D01*
X63521Y-44950D01*
X63543Y-44948D01*
X63558Y-44948D01*
X64096Y-44949D01*
X64109Y-44946D01*
X64118Y-44946D01*
X63856Y-45367D01*
X61304Y-45367D01*
X59020Y-44095D01*
X59020Y-42969D01*
X59020Y-42858D01*
X58978Y-42755D01*
X58899Y-42676D01*
X58796Y-42633D01*
X58685Y-42633D01*
X58582Y-42675D01*
X58503Y-42754D01*
X58464Y-42847D01*
X56621Y-42847D01*
X56616Y-42834D01*
X56537Y-42755D01*
X56434Y-42712D01*
X56323Y-42712D01*
X56220Y-42754D01*
X56141Y-42833D01*
X56098Y-42936D01*
X56098Y-43047D01*
X56140Y-43150D01*
X56219Y-43229D01*
X56322Y-43272D01*
X56433Y-43272D01*
X56536Y-43230D01*
X56615Y-43151D01*
X56620Y-43137D01*
X58568Y-43137D01*
X58581Y-43150D01*
X58684Y-43193D01*
X58795Y-43193D01*
X58898Y-43151D01*
X58977Y-43072D01*
X59020Y-42969D01*
X59020Y-44095D01*
X58190Y-43633D01*
X58190Y-43589D01*
X58148Y-43486D01*
X58069Y-43407D01*
X57966Y-43364D01*
X57855Y-43364D01*
X57752Y-43406D01*
X57673Y-43485D01*
X57630Y-43588D01*
X57630Y-43699D01*
X57672Y-43802D01*
X57751Y-43881D01*
X57854Y-43924D01*
X57965Y-43924D01*
X58050Y-43888D01*
X58481Y-44129D01*
X58370Y-44129D01*
X58267Y-44171D01*
X58188Y-44250D01*
X58145Y-44353D01*
X58145Y-44464D01*
X58150Y-44478D01*
X57734Y-44894D01*
X57015Y-44894D01*
X57010Y-44881D01*
X56931Y-44802D01*
X56828Y-44759D01*
X56717Y-44759D01*
X56614Y-44801D01*
X56535Y-44880D01*
X56492Y-44983D01*
X56492Y-45094D01*
X56534Y-45197D01*
X56613Y-45276D01*
X56716Y-45319D01*
X56827Y-45319D01*
X56930Y-45277D01*
X57009Y-45198D01*
X57014Y-45184D01*
X57790Y-45184D01*
X57795Y-45185D01*
X57795Y-45184D01*
X57850Y-45173D01*
X57851Y-45173D01*
X57898Y-45142D01*
X58355Y-44683D01*
X58369Y-44689D01*
X58480Y-44689D01*
X58583Y-44647D01*
X58662Y-44568D01*
X58705Y-44465D01*
X58705Y-44354D01*
X58663Y-44251D01*
X58614Y-44202D01*
X61186Y-45634D01*
X61190Y-45636D01*
X61205Y-45646D01*
X61244Y-45653D01*
X61260Y-45657D01*
X63937Y-45657D01*
X63950Y-45654D01*
X63970Y-45654D01*
X63983Y-45647D01*
X63992Y-45646D01*
X64003Y-45638D01*
X64022Y-45630D01*
X64029Y-45621D01*
X64040Y-45615D01*
X64049Y-45600D01*
X64060Y-45589D01*
X65873Y-42677D01*
X65881Y-42654D01*
X65882Y-42653D01*
X65882Y-42650D01*
X65892Y-42624D01*
X65891Y-42604D01*
X65893Y-42598D01*
X65893Y-41181D01*
X65888Y-41160D01*
X65888Y-41143D01*
X65883Y-41135D01*
X65882Y-41126D01*
X65865Y-41100D01*
X65861Y-41092D01*
X65858Y-41090D01*
X65851Y-41078D01*
X65828Y-41063D01*
X65819Y-41055D01*
X65694Y-40983D01*
X65697Y-40980D01*
X65702Y-40939D01*
X65691Y-40898D01*
X65671Y-40873D01*
X65704Y-40878D01*
X65744Y-40867D01*
X65777Y-40842D01*
X65786Y-40824D01*
X65862Y-40868D01*
X65862Y-40921D01*
X65904Y-41024D01*
X65983Y-41103D01*
X66086Y-41146D01*
X66197Y-41146D01*
X66300Y-41104D01*
X66379Y-41025D01*
X66422Y-40922D01*
X66422Y-40811D01*
X66380Y-40708D01*
X66301Y-40629D01*
X66198Y-40586D01*
X66087Y-40586D01*
X66008Y-40618D01*
X65931Y-40573D01*
X65947Y-40547D01*
X65952Y-40506D01*
X65941Y-40465D01*
X65921Y-40440D01*
X65954Y-40445D01*
X65994Y-40434D01*
X66027Y-40409D01*
X66048Y-40372D01*
X66197Y-40114D01*
X66202Y-40073D01*
X66191Y-40032D01*
X66171Y-40007D01*
X66204Y-40012D01*
X66244Y-40001D01*
X66277Y-39976D01*
X66298Y-39939D01*
X66447Y-39681D01*
X66452Y-39640D01*
X66452Y-43811D01*
X65132Y-46117D01*
X55792Y-46117D01*
X55792Y-43048D01*
X55792Y-42937D01*
X55750Y-42834D01*
X55671Y-42755D01*
X55568Y-42712D01*
X55457Y-42712D01*
X55354Y-42754D01*
X55275Y-42833D01*
X55232Y-42936D01*
X55232Y-43047D01*
X55274Y-43150D01*
X55353Y-43229D01*
X55367Y-43234D01*
X55367Y-44792D01*
X54694Y-45127D01*
X50455Y-45053D01*
X50145Y-44742D01*
X50145Y-43862D01*
X50288Y-43777D01*
X50344Y-43874D01*
X50378Y-43899D01*
X50418Y-43910D01*
X50449Y-43905D01*
X50429Y-43931D01*
X50419Y-43971D01*
X50424Y-44012D01*
X50445Y-44049D01*
X50594Y-44307D01*
X50628Y-44332D01*
X50668Y-44343D01*
X50709Y-44337D01*
X50745Y-44316D01*
X51040Y-44145D01*
X51047Y-44150D01*
X51058Y-44152D01*
X51071Y-44158D01*
X51087Y-44158D01*
X51102Y-44161D01*
X51882Y-44161D01*
X51888Y-44174D01*
X51967Y-44253D01*
X52070Y-44296D01*
X52181Y-44296D01*
X52284Y-44254D01*
X52363Y-44175D01*
X52406Y-44072D01*
X52406Y-43961D01*
X52364Y-43858D01*
X52285Y-43779D01*
X52182Y-43736D01*
X52071Y-43736D01*
X51968Y-43778D01*
X51889Y-43857D01*
X51883Y-43871D01*
X51516Y-43871D01*
X51563Y-43844D01*
X51589Y-43811D01*
X51599Y-43771D01*
X51594Y-43730D01*
X51573Y-43693D01*
X51424Y-43435D01*
X51390Y-43410D01*
X51350Y-43399D01*
X51318Y-43403D01*
X51339Y-43378D01*
X51349Y-43338D01*
X51344Y-43297D01*
X51323Y-43260D01*
X51174Y-43002D01*
X51140Y-42977D01*
X51100Y-42966D01*
X51068Y-42970D01*
X51089Y-42945D01*
X51099Y-42905D01*
X51094Y-42864D01*
X51073Y-42827D01*
X50924Y-42569D01*
X50890Y-42544D01*
X50850Y-42533D01*
X50847Y-42533D01*
X50857Y-42521D01*
X50870Y-42474D01*
X50863Y-42424D01*
X50804Y-42322D01*
X50762Y-42311D01*
X50748Y-42319D01*
X50748Y-42225D01*
X50689Y-42123D01*
X50650Y-42092D01*
X50602Y-42080D01*
X50586Y-42081D01*
X50589Y-42079D01*
X50599Y-42039D01*
X50594Y-41998D01*
X50573Y-41961D01*
X50424Y-41703D01*
X50390Y-41678D01*
X50350Y-41667D01*
X50318Y-41671D01*
X50339Y-41646D01*
X50349Y-41606D01*
X50344Y-41565D01*
X50323Y-41528D01*
X50174Y-41270D01*
X50140Y-41245D01*
X50100Y-41234D01*
X50067Y-41238D01*
X50089Y-41212D01*
X50099Y-41172D01*
X50094Y-41131D01*
X50073Y-41094D01*
X49924Y-40836D01*
X49890Y-40811D01*
X49850Y-40800D01*
X49818Y-40804D01*
X49839Y-40779D01*
X49849Y-40739D01*
X49844Y-40698D01*
X49823Y-40661D01*
X49674Y-40403D01*
X49640Y-40378D01*
X49600Y-40367D01*
X49568Y-40371D01*
X49589Y-40346D01*
X49599Y-40306D01*
X49594Y-40265D01*
X49573Y-40228D01*
X49424Y-39970D01*
X49390Y-39945D01*
X49350Y-39934D01*
X49318Y-39938D01*
X49339Y-39913D01*
X49349Y-39873D01*
X49344Y-39832D01*
X49323Y-39795D01*
X49174Y-39537D01*
X49140Y-39512D01*
X49100Y-39501D01*
X49068Y-39505D01*
X49089Y-39480D01*
X49099Y-39440D01*
X49094Y-39399D01*
X49073Y-39362D01*
X48924Y-39104D01*
X48890Y-39079D01*
X48850Y-39068D01*
X48809Y-39074D01*
X48773Y-39095D01*
X47955Y-39567D01*
X47929Y-39600D01*
X47919Y-39640D01*
X47924Y-39681D01*
X47945Y-39718D01*
X48094Y-39976D01*
X48128Y-40001D01*
X48168Y-40012D01*
X48199Y-40007D01*
X48179Y-40033D01*
X48169Y-40073D01*
X48174Y-40114D01*
X48195Y-40151D01*
X48344Y-40409D01*
X48378Y-40434D01*
X48418Y-40445D01*
X48449Y-40440D01*
X48429Y-40466D01*
X48419Y-40506D01*
X48424Y-40547D01*
X48445Y-40584D01*
X48594Y-40842D01*
X48628Y-40867D01*
X48668Y-40878D01*
X48699Y-40873D01*
X48679Y-40899D01*
X48669Y-40939D01*
X48674Y-40980D01*
X48695Y-41017D01*
X48844Y-41275D01*
X48878Y-41300D01*
X48918Y-41311D01*
X48949Y-41306D01*
X48929Y-41332D01*
X48919Y-41372D01*
X48924Y-41413D01*
X48945Y-41450D01*
X49094Y-41708D01*
X49128Y-41733D01*
X49168Y-41744D01*
X49200Y-41739D01*
X49179Y-41766D01*
X49169Y-41806D01*
X49174Y-41847D01*
X49195Y-41884D01*
X49344Y-42142D01*
X49378Y-42167D01*
X49418Y-42178D01*
X49449Y-42173D01*
X49429Y-42199D01*
X49419Y-42239D01*
X49424Y-42280D01*
X49445Y-42317D01*
X49594Y-42575D01*
X49628Y-42600D01*
X49668Y-42611D01*
X49661Y-42623D01*
X49648Y-42670D01*
X49655Y-42720D01*
X49714Y-42822D01*
X49756Y-42833D01*
X50203Y-42575D01*
X50225Y-42563D01*
X50224Y-42562D01*
X50267Y-42537D01*
X50268Y-42538D01*
X50290Y-42525D01*
X50737Y-42267D01*
X50748Y-42225D01*
X50748Y-42319D01*
X50293Y-42581D01*
X50250Y-42606D01*
X49781Y-42877D01*
X49770Y-42919D01*
X49829Y-43021D01*
X49868Y-43052D01*
X49916Y-43064D01*
X49931Y-43062D01*
X49929Y-43065D01*
X49919Y-43105D01*
X49924Y-43146D01*
X49945Y-43183D01*
X50094Y-43441D01*
X50128Y-43466D01*
X50168Y-43477D01*
X50199Y-43472D01*
X50179Y-43498D01*
X50176Y-43507D01*
X49926Y-43655D01*
X49913Y-43666D01*
X49897Y-43677D01*
X49890Y-43687D01*
X49884Y-43693D01*
X49875Y-43710D01*
X49866Y-43725D01*
X49864Y-43732D01*
X49859Y-43744D01*
X49858Y-43763D01*
X49855Y-43780D01*
X49855Y-44798D01*
X49854Y-44803D01*
X49866Y-44859D01*
X49897Y-44906D01*
X50287Y-45295D01*
X50289Y-45298D01*
X50291Y-45299D01*
X50314Y-45315D01*
X50337Y-45330D01*
X50338Y-45331D01*
X50391Y-45342D01*
X50394Y-45343D01*
X50398Y-45342D01*
X54721Y-45418D01*
X54722Y-45417D01*
X54735Y-45419D01*
X54776Y-45408D01*
X54789Y-45405D01*
X55567Y-45016D01*
X55576Y-45012D01*
X55592Y-44999D01*
X55615Y-44985D01*
X55618Y-44980D01*
X55621Y-44978D01*
X55637Y-44950D01*
X55646Y-44937D01*
X55646Y-44935D01*
X55650Y-44929D01*
X55652Y-44903D01*
X55657Y-44882D01*
X55657Y-43235D01*
X55670Y-43230D01*
X55749Y-43151D01*
X55792Y-43048D01*
X55792Y-46117D01*
X49282Y-46117D01*
X45952Y-40301D01*
X46101Y-40451D01*
X46433Y-40589D01*
X46793Y-40589D01*
X47125Y-40452D01*
X47380Y-40198D01*
X47518Y-39866D01*
X47518Y-39506D01*
X47381Y-39174D01*
X47127Y-38919D01*
X46795Y-38781D01*
X46435Y-38781D01*
X46103Y-38918D01*
X45985Y-39034D01*
X51418Y-29511D01*
X62193Y-29511D01*
X62009Y-29587D01*
X61754Y-29841D01*
X61616Y-30173D01*
X61616Y-30533D01*
X61753Y-30865D01*
X62007Y-31120D01*
X62339Y-31258D01*
X62699Y-31258D01*
X63031Y-31121D01*
X63286Y-30867D01*
X63424Y-30535D01*
X63424Y-30233D01*
X68814Y-39686D01*
M02*
