G04 (created by PCBNEW-RS274X (2010-03-14)-final) date Fri 27 Jul 2012 11:32:34 MSK*
G01*
G70*
G90*
%MOIN*%
G04 Gerber Fmt 3.4, Leading zero omitted, Abs format*
%FSLAX34Y34*%
G04 APERTURE LIST*
%ADD10C,0.001000*%
%ADD11C,0.006300*%
%ADD12C,0.013100*%
%ADD13C,0.019700*%
%ADD14C,0.015000*%
%ADD15C,0.006000*%
%ADD16C,0.005000*%
%ADD17C,0.008000*%
%ADD18C,0.007000*%
%ADD19C,0.004200*%
G04 APERTURE END LIST*
G54D10*
G54D11*
X61505Y-46655D02*
X61636Y-47049D01*
X61767Y-46655D01*
X62049Y-47031D02*
X62011Y-47049D01*
X61936Y-47049D01*
X61899Y-47031D01*
X61880Y-46993D01*
X61880Y-46843D01*
X61899Y-46806D01*
X61936Y-46787D01*
X62011Y-46787D01*
X62049Y-46806D01*
X62068Y-46843D01*
X62068Y-46881D01*
X61880Y-46918D01*
X62237Y-47049D02*
X62237Y-46787D01*
X62237Y-46862D02*
X62256Y-46824D01*
X62274Y-46806D01*
X62312Y-46787D01*
X62349Y-46787D01*
X62462Y-47031D02*
X62500Y-47049D01*
X62575Y-47049D01*
X62612Y-47031D01*
X62631Y-46993D01*
X62631Y-46974D01*
X62612Y-46937D01*
X62575Y-46918D01*
X62518Y-46918D01*
X62481Y-46899D01*
X62462Y-46862D01*
X62462Y-46843D01*
X62481Y-46806D01*
X62518Y-46787D01*
X62575Y-46787D01*
X62612Y-46806D01*
X62800Y-47049D02*
X62800Y-46787D01*
X62800Y-46655D02*
X62781Y-46674D01*
X62800Y-46693D01*
X62819Y-46674D01*
X62800Y-46655D01*
X62800Y-46693D01*
X63044Y-47049D02*
X63007Y-47031D01*
X62988Y-47012D01*
X62969Y-46974D01*
X62969Y-46862D01*
X62988Y-46824D01*
X63007Y-46806D01*
X63044Y-46787D01*
X63100Y-46787D01*
X63138Y-46806D01*
X63157Y-46824D01*
X63175Y-46862D01*
X63175Y-46974D01*
X63157Y-47012D01*
X63138Y-47031D01*
X63100Y-47049D01*
X63044Y-47049D01*
X63344Y-46787D02*
X63344Y-47049D01*
X63344Y-46824D02*
X63363Y-46806D01*
X63400Y-46787D01*
X63456Y-46787D01*
X63494Y-46806D01*
X63513Y-46843D01*
X63513Y-47049D01*
X64206Y-47049D02*
X63981Y-47049D01*
X64094Y-47049D02*
X64094Y-46655D01*
X64056Y-46712D01*
X64019Y-46749D01*
X63981Y-46768D01*
G54D12*
X53345Y-48350D02*
X53345Y-48987D01*
X53383Y-49062D01*
X53420Y-49100D01*
X53495Y-49137D01*
X53645Y-49137D01*
X53720Y-49100D01*
X53758Y-49062D01*
X53795Y-48987D01*
X53795Y-48350D01*
X54132Y-49100D02*
X54244Y-49137D01*
X54432Y-49137D01*
X54507Y-49100D01*
X54544Y-49062D01*
X54582Y-48987D01*
X54582Y-48912D01*
X54544Y-48837D01*
X54507Y-48800D01*
X54432Y-48762D01*
X54282Y-48725D01*
X54207Y-48687D01*
X54169Y-48650D01*
X54132Y-48575D01*
X54132Y-48500D01*
X54169Y-48425D01*
X54207Y-48388D01*
X54282Y-48350D01*
X54469Y-48350D01*
X54582Y-48388D01*
X55182Y-48725D02*
X55294Y-48762D01*
X55332Y-48800D01*
X55369Y-48875D01*
X55369Y-48987D01*
X55332Y-49062D01*
X55294Y-49100D01*
X55219Y-49137D01*
X54919Y-49137D01*
X54919Y-48350D01*
X55182Y-48350D01*
X55257Y-48388D01*
X55294Y-48425D01*
X55332Y-48500D01*
X55332Y-48575D01*
X55294Y-48650D01*
X55257Y-48687D01*
X55182Y-48725D01*
X54919Y-48725D01*
X56306Y-49137D02*
X56306Y-48350D01*
X56681Y-48612D02*
X56681Y-49137D01*
X56681Y-48687D02*
X56719Y-48650D01*
X56794Y-48612D01*
X56906Y-48612D01*
X56981Y-48650D01*
X57019Y-48725D01*
X57019Y-49137D01*
X57281Y-48612D02*
X57581Y-48612D01*
X57393Y-48350D02*
X57393Y-49025D01*
X57431Y-49100D01*
X57506Y-49137D01*
X57581Y-49137D01*
X58143Y-49100D02*
X58068Y-49137D01*
X57918Y-49137D01*
X57843Y-49100D01*
X57806Y-49025D01*
X57806Y-48725D01*
X57843Y-48650D01*
X57918Y-48612D01*
X58068Y-48612D01*
X58143Y-48650D01*
X58181Y-48725D01*
X58181Y-48800D01*
X57806Y-48875D01*
X58518Y-49137D02*
X58518Y-48612D01*
X58518Y-48762D02*
X58556Y-48687D01*
X58593Y-48650D01*
X58668Y-48612D01*
X58743Y-48612D01*
X58893Y-48612D02*
X59193Y-48612D01*
X59005Y-49137D02*
X59005Y-48462D01*
X59043Y-48388D01*
X59118Y-48350D01*
X59193Y-48350D01*
X59793Y-49137D02*
X59793Y-48725D01*
X59755Y-48650D01*
X59680Y-48612D01*
X59530Y-48612D01*
X59455Y-48650D01*
X59793Y-49100D02*
X59718Y-49137D01*
X59530Y-49137D01*
X59455Y-49100D01*
X59418Y-49025D01*
X59418Y-48950D01*
X59455Y-48875D01*
X59530Y-48837D01*
X59718Y-48837D01*
X59793Y-48800D01*
X60505Y-49100D02*
X60430Y-49137D01*
X60280Y-49137D01*
X60205Y-49100D01*
X60167Y-49062D01*
X60130Y-48987D01*
X60130Y-48762D01*
X60167Y-48687D01*
X60205Y-48650D01*
X60280Y-48612D01*
X60430Y-48612D01*
X60505Y-48650D01*
X61142Y-49100D02*
X61067Y-49137D01*
X60917Y-49137D01*
X60842Y-49100D01*
X60805Y-49025D01*
X60805Y-48725D01*
X60842Y-48650D01*
X60917Y-48612D01*
X61067Y-48612D01*
X61142Y-48650D01*
X61180Y-48725D01*
X61180Y-48800D01*
X60805Y-48875D01*
G54D13*
X51953Y-47182D02*
X51559Y-47182D01*
X51559Y-47801D02*
X51559Y-46620D01*
X52122Y-46620D01*
X52740Y-47801D02*
X52627Y-47744D01*
X52571Y-47632D01*
X52571Y-46620D01*
X53640Y-47744D02*
X53528Y-47801D01*
X53303Y-47801D01*
X53190Y-47744D01*
X53134Y-47632D01*
X53134Y-47182D01*
X53190Y-47069D01*
X53303Y-47013D01*
X53528Y-47013D01*
X53640Y-47069D01*
X53696Y-47182D01*
X53696Y-47294D01*
X53134Y-47407D01*
X54090Y-47801D02*
X54708Y-47013D01*
X54090Y-47013D02*
X54708Y-47801D01*
X55158Y-47801D02*
X55158Y-47013D01*
X55158Y-46620D02*
X55102Y-46676D01*
X55158Y-46732D01*
X55214Y-46676D01*
X55158Y-46620D01*
X55158Y-46732D01*
X55720Y-47801D02*
X55720Y-46620D01*
X55720Y-47069D02*
X55833Y-47013D01*
X56058Y-47013D01*
X56170Y-47069D01*
X56226Y-47126D01*
X56283Y-47238D01*
X56283Y-47576D01*
X56226Y-47688D01*
X56170Y-47744D01*
X56058Y-47801D01*
X55833Y-47801D01*
X55720Y-47744D01*
X56789Y-47801D02*
X56789Y-47013D01*
X56789Y-46620D02*
X56733Y-46676D01*
X56789Y-46732D01*
X56845Y-46676D01*
X56789Y-46620D01*
X56789Y-46732D01*
X57182Y-47013D02*
X57632Y-47013D01*
X57351Y-46620D02*
X57351Y-47632D01*
X57407Y-47744D01*
X57520Y-47801D01*
X57632Y-47801D01*
X57914Y-47013D02*
X58195Y-47801D01*
X58476Y-47013D02*
X58195Y-47801D01*
X58082Y-48082D01*
X58026Y-48138D01*
X57914Y-48194D01*
G54D14*
X45400Y-39699D02*
X51305Y-29331D01*
X51305Y-50000D02*
X45400Y-39699D01*
X63116Y-50000D02*
X51305Y-50000D01*
X69022Y-39699D02*
X63116Y-50000D01*
X63116Y-29331D02*
X69022Y-39699D01*
X51305Y-29331D02*
X63116Y-29331D01*
G54D15*
X54091Y-34854D02*
X54012Y-34854D01*
X54091Y-34854D02*
X54091Y-34146D01*
X54091Y-34146D02*
X54012Y-34146D01*
X52909Y-34146D02*
X52988Y-34146D01*
X52909Y-34854D02*
X52988Y-34854D01*
X52909Y-34146D02*
X52909Y-34854D01*
G54D16*
X62339Y-40371D02*
X62439Y-40371D01*
X62439Y-40371D02*
X62439Y-39471D01*
X62439Y-39471D02*
X62339Y-39471D01*
X62339Y-40371D02*
X62339Y-39471D01*
X62339Y-39471D02*
X61689Y-39471D01*
X60989Y-40371D02*
X60339Y-40371D01*
X60339Y-40371D02*
X60339Y-39471D01*
X60339Y-39471D02*
X60989Y-39471D01*
X61689Y-40371D02*
X62339Y-40371D01*
X56200Y-34250D02*
X56200Y-34150D01*
X56200Y-34150D02*
X55300Y-34150D01*
X55300Y-34150D02*
X55300Y-34250D01*
X56200Y-34250D02*
X55300Y-34250D01*
X55300Y-34250D02*
X55300Y-34900D01*
X56200Y-35600D02*
X56200Y-36250D01*
X56200Y-36250D02*
X55300Y-36250D01*
X55300Y-36250D02*
X55300Y-35600D01*
X56200Y-34900D02*
X56200Y-34250D01*
X52950Y-35750D02*
X52950Y-35650D01*
X52950Y-35650D02*
X52050Y-35650D01*
X52050Y-35650D02*
X52050Y-35750D01*
X52950Y-35750D02*
X52050Y-35750D01*
X52050Y-35750D02*
X52050Y-36400D01*
X52950Y-37100D02*
X52950Y-37750D01*
X52950Y-37750D02*
X52050Y-37750D01*
X52050Y-37750D02*
X52050Y-37100D01*
X52950Y-36400D02*
X52950Y-35750D01*
G54D15*
X53950Y-33250D02*
X53700Y-33250D01*
X53050Y-33250D02*
X53300Y-33250D01*
X53050Y-32750D02*
X53050Y-33250D01*
X53950Y-32750D02*
X53950Y-33250D01*
X53050Y-32750D02*
X53300Y-32750D01*
X53950Y-32750D02*
X53700Y-32750D01*
X57500Y-43050D02*
X57500Y-43300D01*
X57500Y-43950D02*
X57500Y-43700D01*
X57000Y-43950D02*
X57500Y-43950D01*
X57000Y-43050D02*
X57500Y-43050D01*
X57000Y-43950D02*
X57000Y-43700D01*
X57000Y-43050D02*
X57000Y-43300D01*
X55000Y-41800D02*
X55000Y-42050D01*
X55000Y-42700D02*
X55000Y-42450D01*
X54500Y-42700D02*
X55000Y-42700D01*
X54500Y-41800D02*
X55000Y-41800D01*
X54500Y-42700D02*
X54500Y-42450D01*
X54500Y-41800D02*
X54500Y-42050D01*
X53950Y-40500D02*
X53700Y-40500D01*
X53050Y-40500D02*
X53300Y-40500D01*
X53050Y-40000D02*
X53050Y-40500D01*
X53950Y-40000D02*
X53950Y-40500D01*
X53050Y-40000D02*
X53300Y-40000D01*
X53950Y-40000D02*
X53700Y-40000D01*
X58360Y-35141D02*
X58360Y-35391D01*
X58360Y-36041D02*
X58360Y-35791D01*
X57860Y-36041D02*
X58360Y-36041D01*
X57860Y-35141D02*
X58360Y-35141D01*
X57860Y-36041D02*
X57860Y-35791D01*
X57860Y-35141D02*
X57860Y-35391D01*
X53050Y-32000D02*
X53300Y-32000D01*
X53950Y-32000D02*
X53700Y-32000D01*
X53950Y-32500D02*
X53950Y-32000D01*
X53050Y-32500D02*
X53050Y-32000D01*
X53950Y-32500D02*
X53700Y-32500D01*
X53050Y-32500D02*
X53300Y-32500D01*
X53750Y-36300D02*
X53750Y-36550D01*
X53750Y-37200D02*
X53750Y-36950D01*
X53250Y-37200D02*
X53750Y-37200D01*
X53250Y-36300D02*
X53750Y-36300D01*
X53250Y-37200D02*
X53250Y-36950D01*
X53250Y-36300D02*
X53250Y-36550D01*
X55000Y-35050D02*
X55000Y-35300D01*
X55000Y-35950D02*
X55000Y-35700D01*
X54500Y-35950D02*
X55000Y-35950D01*
X54500Y-35050D02*
X55000Y-35050D01*
X54500Y-35950D02*
X54500Y-35700D01*
X54500Y-35050D02*
X54500Y-35300D01*
X55750Y-44450D02*
X55750Y-44200D01*
X55750Y-43550D02*
X55750Y-43800D01*
X56250Y-43550D02*
X55750Y-43550D01*
X56250Y-44450D02*
X55750Y-44450D01*
X56250Y-43550D02*
X56250Y-43800D01*
X56250Y-44450D02*
X56250Y-44200D01*
X55000Y-44450D02*
X55000Y-44200D01*
X55000Y-43550D02*
X55000Y-43800D01*
X55500Y-43550D02*
X55000Y-43550D01*
X55500Y-44450D02*
X55000Y-44450D01*
X55500Y-43550D02*
X55500Y-43800D01*
X55500Y-44450D02*
X55500Y-44200D01*
X60450Y-43000D02*
X60200Y-43000D01*
X59550Y-43000D02*
X59800Y-43000D01*
X59550Y-42500D02*
X59550Y-43000D01*
X60450Y-42500D02*
X60450Y-43000D01*
X59550Y-42500D02*
X59800Y-42500D01*
X60450Y-42500D02*
X60200Y-42500D01*
X54250Y-44450D02*
X54250Y-44200D01*
X54250Y-43550D02*
X54250Y-43800D01*
X54750Y-43550D02*
X54250Y-43550D01*
X54750Y-44450D02*
X54250Y-44450D01*
X54750Y-43550D02*
X54750Y-43800D01*
X54750Y-44450D02*
X54750Y-44200D01*
X51750Y-36300D02*
X51750Y-36550D01*
X51750Y-37200D02*
X51750Y-36950D01*
X51250Y-37200D02*
X51750Y-37200D01*
X51250Y-36300D02*
X51750Y-36300D01*
X51250Y-37200D02*
X51250Y-36950D01*
X51250Y-36300D02*
X51250Y-36550D01*
X60450Y-43750D02*
X60200Y-43750D01*
X59550Y-43750D02*
X59800Y-43750D01*
X59550Y-43250D02*
X59550Y-43750D01*
X60450Y-43250D02*
X60450Y-43750D01*
X59550Y-43250D02*
X59800Y-43250D01*
X60450Y-43250D02*
X60200Y-43250D01*
X61450Y-34000D02*
X61200Y-34000D01*
X60550Y-34000D02*
X60800Y-34000D01*
X60550Y-33500D02*
X60550Y-34000D01*
X61450Y-33500D02*
X61450Y-34000D01*
X60550Y-33500D02*
X60800Y-33500D01*
X61450Y-33500D02*
X61200Y-33500D01*
X53500Y-44450D02*
X53500Y-44200D01*
X53500Y-43550D02*
X53500Y-43800D01*
X54000Y-43550D02*
X53500Y-43550D01*
X54000Y-44450D02*
X53500Y-44450D01*
X54000Y-43550D02*
X54000Y-43800D01*
X54000Y-44450D02*
X54000Y-44200D01*
X57000Y-35300D02*
X57000Y-35550D01*
X57000Y-36200D02*
X57000Y-35950D01*
X56500Y-36200D02*
X57000Y-36200D01*
X56500Y-35300D02*
X57000Y-35300D01*
X56500Y-36200D02*
X56500Y-35950D01*
X56500Y-35300D02*
X56500Y-35550D01*
X60450Y-44500D02*
X60200Y-44500D01*
X59550Y-44500D02*
X59800Y-44500D01*
X59550Y-44000D02*
X59550Y-44500D01*
X60450Y-44000D02*
X60450Y-44500D01*
X59550Y-44000D02*
X59800Y-44000D01*
X60450Y-44000D02*
X60200Y-44000D01*
X60450Y-45250D02*
X60200Y-45250D01*
X59550Y-45250D02*
X59800Y-45250D01*
X59550Y-44750D02*
X59550Y-45250D01*
X60450Y-44750D02*
X60450Y-45250D01*
X59550Y-44750D02*
X59800Y-44750D01*
X60450Y-44750D02*
X60200Y-44750D01*
X61450Y-38000D02*
X61200Y-38000D01*
X60550Y-38000D02*
X60800Y-38000D01*
X60550Y-37500D02*
X60550Y-38000D01*
X61450Y-37500D02*
X61450Y-38000D01*
X60550Y-37500D02*
X60800Y-37500D01*
X61450Y-37500D02*
X61200Y-37500D01*
X60250Y-41700D02*
X60250Y-41450D01*
X60250Y-40800D02*
X60250Y-41050D01*
X60750Y-40800D02*
X60250Y-40800D01*
X60750Y-41700D02*
X60250Y-41700D01*
X60750Y-40800D02*
X60750Y-41050D01*
X60750Y-41700D02*
X60750Y-41450D01*
G54D17*
X59537Y-37683D02*
X59532Y-37725D01*
X59520Y-37766D01*
X59500Y-37804D01*
X59473Y-37838D01*
X59440Y-37865D01*
X59402Y-37885D01*
X59361Y-37898D01*
X59318Y-37902D01*
X59276Y-37899D01*
X59235Y-37886D01*
X59197Y-37867D01*
X59164Y-37840D01*
X59136Y-37807D01*
X59115Y-37769D01*
X59102Y-37728D01*
X59098Y-37686D01*
X59101Y-37644D01*
X59113Y-37603D01*
X59133Y-37564D01*
X59159Y-37531D01*
X59192Y-37503D01*
X59229Y-37482D01*
X59270Y-37469D01*
X59313Y-37464D01*
X59355Y-37467D01*
X59396Y-37478D01*
X59434Y-37498D01*
X59468Y-37524D01*
X59496Y-37557D01*
X59517Y-37594D01*
X59531Y-37635D01*
X59536Y-37677D01*
X59537Y-37683D01*
X58825Y-37781D02*
X59219Y-38175D01*
X59219Y-41719D02*
X55281Y-41719D01*
X55281Y-41719D02*
X55281Y-37781D01*
X55281Y-37781D02*
X58825Y-37781D01*
X59219Y-41719D02*
X59219Y-38175D01*
G54D18*
X60750Y-37150D02*
X61100Y-37150D01*
X61100Y-37150D02*
X61100Y-36700D01*
G54D17*
X60350Y-36950D02*
X60150Y-36950D01*
X60350Y-34550D02*
X60150Y-34550D01*
X60959Y-36222D02*
X60959Y-35278D01*
X59541Y-35278D02*
X59541Y-36222D01*
G54D14*
X63420Y-30354D02*
X63402Y-30528D01*
X63352Y-30696D01*
X63269Y-30852D01*
X63158Y-30988D01*
X63023Y-31100D01*
X62868Y-31183D01*
X62700Y-31235D01*
X62526Y-31253D01*
X62352Y-31238D01*
X62183Y-31188D01*
X62028Y-31107D01*
X61891Y-30997D01*
X61778Y-30862D01*
X61693Y-30708D01*
X61640Y-30541D01*
X61621Y-30366D01*
X61635Y-30192D01*
X61684Y-30023D01*
X61764Y-29867D01*
X61873Y-29729D01*
X62007Y-29615D01*
X62160Y-29530D01*
X62327Y-29475D01*
X62502Y-29455D01*
X62676Y-29468D01*
X62845Y-29515D01*
X63002Y-29595D01*
X63140Y-29703D01*
X63255Y-29836D01*
X63342Y-29988D01*
X63397Y-30155D01*
X63419Y-30329D01*
X63420Y-30354D01*
X47514Y-39685D02*
X47496Y-39859D01*
X47446Y-40027D01*
X47363Y-40183D01*
X47252Y-40319D01*
X47117Y-40431D01*
X46962Y-40514D01*
X46794Y-40566D01*
X46620Y-40584D01*
X46446Y-40569D01*
X46277Y-40519D01*
X46122Y-40438D01*
X45985Y-40328D01*
X45872Y-40193D01*
X45787Y-40039D01*
X45734Y-39872D01*
X45715Y-39697D01*
X45729Y-39523D01*
X45778Y-39354D01*
X45858Y-39198D01*
X45967Y-39060D01*
X46101Y-38946D01*
X46254Y-38861D01*
X46421Y-38806D01*
X46596Y-38786D01*
X46770Y-38799D01*
X46939Y-38846D01*
X47096Y-38926D01*
X47234Y-39034D01*
X47349Y-39167D01*
X47436Y-39319D01*
X47491Y-39486D01*
X47513Y-39660D01*
X47514Y-39685D01*
X63420Y-49016D02*
X63402Y-49190D01*
X63352Y-49358D01*
X63269Y-49514D01*
X63158Y-49650D01*
X63023Y-49762D01*
X62868Y-49845D01*
X62700Y-49897D01*
X62526Y-49915D01*
X62352Y-49900D01*
X62183Y-49850D01*
X62028Y-49769D01*
X61891Y-49659D01*
X61778Y-49524D01*
X61693Y-49370D01*
X61640Y-49203D01*
X61621Y-49028D01*
X61635Y-48854D01*
X61684Y-48685D01*
X61764Y-48529D01*
X61873Y-48391D01*
X62007Y-48277D01*
X62160Y-48192D01*
X62327Y-48137D01*
X62502Y-48117D01*
X62676Y-48130D01*
X62845Y-48177D01*
X63002Y-48257D01*
X63140Y-48365D01*
X63255Y-48498D01*
X63342Y-48650D01*
X63397Y-48817D01*
X63419Y-48991D01*
X63420Y-49016D01*
G54D17*
X58864Y-29289D02*
X58864Y-30077D01*
X55675Y-30077D02*
X55675Y-29289D01*
X58864Y-29289D02*
X55675Y-29289D01*
X55675Y-31110D02*
X55675Y-32193D01*
X58864Y-32193D02*
X58864Y-31110D01*
X56350Y-33050D02*
X56050Y-33050D01*
X58500Y-33050D02*
X58150Y-33050D01*
G54D16*
X57750Y-29934D02*
X57500Y-31184D01*
X57500Y-31184D02*
X57000Y-31184D01*
X57000Y-31184D02*
X56750Y-29934D01*
X56000Y-30934D02*
X56125Y-29934D01*
X56125Y-29934D02*
X56375Y-29934D01*
X56375Y-29934D02*
X56500Y-30934D01*
X58500Y-30934D02*
X58375Y-29934D01*
X58375Y-29934D02*
X58125Y-29934D01*
X58125Y-29934D02*
X58000Y-30934D01*
G54D19*
X53310Y-35351D02*
X53310Y-35554D01*
X53321Y-35577D01*
X53333Y-35589D01*
X53357Y-35601D01*
X53405Y-35601D01*
X53429Y-35589D01*
X53440Y-35577D01*
X53452Y-35554D01*
X53452Y-35351D01*
X53560Y-35375D02*
X53572Y-35363D01*
X53595Y-35351D01*
X53655Y-35351D01*
X53679Y-35363D01*
X53691Y-35375D01*
X53702Y-35399D01*
X53702Y-35423D01*
X53691Y-35458D01*
X53548Y-35601D01*
X53702Y-35601D01*
X62754Y-39963D02*
X62766Y-39975D01*
X62778Y-40010D01*
X62778Y-40034D01*
X62766Y-40070D01*
X62742Y-40094D01*
X62719Y-40105D01*
X62671Y-40117D01*
X62635Y-40117D01*
X62588Y-40105D01*
X62564Y-40094D01*
X62540Y-40070D01*
X62528Y-40034D01*
X62528Y-40010D01*
X62540Y-39975D01*
X62552Y-39963D01*
X62552Y-39867D02*
X62540Y-39855D01*
X62528Y-39832D01*
X62528Y-39772D01*
X62540Y-39748D01*
X62552Y-39736D01*
X62576Y-39725D01*
X62600Y-39725D01*
X62635Y-39736D01*
X62778Y-39879D01*
X62778Y-39725D01*
X55708Y-36577D02*
X55696Y-36589D01*
X55661Y-36601D01*
X55637Y-36601D01*
X55601Y-36589D01*
X55577Y-36565D01*
X55566Y-36542D01*
X55554Y-36494D01*
X55554Y-36458D01*
X55566Y-36411D01*
X55577Y-36387D01*
X55601Y-36363D01*
X55637Y-36351D01*
X55661Y-36351D01*
X55696Y-36363D01*
X55708Y-36375D01*
X55923Y-36435D02*
X55923Y-36601D01*
X55863Y-36339D02*
X55804Y-36518D01*
X55958Y-36518D01*
X52458Y-38077D02*
X52446Y-38089D01*
X52411Y-38101D01*
X52387Y-38101D01*
X52351Y-38089D01*
X52327Y-38065D01*
X52316Y-38042D01*
X52304Y-37994D01*
X52304Y-37958D01*
X52316Y-37911D01*
X52327Y-37887D01*
X52351Y-37863D01*
X52387Y-37851D01*
X52411Y-37851D01*
X52446Y-37863D01*
X52458Y-37875D01*
X52542Y-37851D02*
X52708Y-37851D01*
X52601Y-38101D01*
X54327Y-33042D02*
X54339Y-33054D01*
X54351Y-33089D01*
X54351Y-33113D01*
X54339Y-33149D01*
X54315Y-33173D01*
X54292Y-33184D01*
X54244Y-33196D01*
X54208Y-33196D01*
X54161Y-33184D01*
X54137Y-33173D01*
X54113Y-33149D01*
X54101Y-33113D01*
X54101Y-33089D01*
X54113Y-33054D01*
X54125Y-33042D01*
X54351Y-32804D02*
X54351Y-32946D01*
X54351Y-32875D02*
X54101Y-32875D01*
X54137Y-32899D01*
X54161Y-32923D01*
X54173Y-32946D01*
X57208Y-44351D02*
X57125Y-44232D01*
X57066Y-44351D02*
X57066Y-44101D01*
X57161Y-44101D01*
X57185Y-44113D01*
X57196Y-44125D01*
X57208Y-44149D01*
X57208Y-44185D01*
X57196Y-44208D01*
X57185Y-44220D01*
X57161Y-44232D01*
X57066Y-44232D01*
X57435Y-44101D02*
X57316Y-44101D01*
X57304Y-44220D01*
X57316Y-44208D01*
X57339Y-44196D01*
X57399Y-44196D01*
X57423Y-44208D01*
X57435Y-44220D01*
X57446Y-44244D01*
X57446Y-44304D01*
X57435Y-44327D01*
X57423Y-44339D01*
X57399Y-44351D01*
X57339Y-44351D01*
X57316Y-44339D01*
X57304Y-44327D01*
X54708Y-43101D02*
X54625Y-42982D01*
X54566Y-43101D02*
X54566Y-42851D01*
X54661Y-42851D01*
X54685Y-42863D01*
X54696Y-42875D01*
X54708Y-42899D01*
X54708Y-42935D01*
X54696Y-42958D01*
X54685Y-42970D01*
X54661Y-42982D01*
X54566Y-42982D01*
X54923Y-42935D02*
X54923Y-43101D01*
X54863Y-42839D02*
X54804Y-43018D01*
X54958Y-43018D01*
X54351Y-40292D02*
X54232Y-40375D01*
X54351Y-40434D02*
X54101Y-40434D01*
X54101Y-40339D01*
X54113Y-40315D01*
X54125Y-40304D01*
X54149Y-40292D01*
X54185Y-40292D01*
X54208Y-40304D01*
X54220Y-40315D01*
X54232Y-40339D01*
X54232Y-40434D01*
X54101Y-40208D02*
X54101Y-40054D01*
X54196Y-40137D01*
X54196Y-40101D01*
X54208Y-40077D01*
X54220Y-40065D01*
X54244Y-40054D01*
X54304Y-40054D01*
X54327Y-40065D01*
X54339Y-40077D01*
X54351Y-40101D01*
X54351Y-40173D01*
X54339Y-40196D01*
X54327Y-40208D01*
X58619Y-35692D02*
X58536Y-35573D01*
X58477Y-35692D02*
X58477Y-35442D01*
X58572Y-35442D01*
X58596Y-35454D01*
X58607Y-35466D01*
X58619Y-35490D01*
X58619Y-35526D01*
X58607Y-35549D01*
X58596Y-35561D01*
X58572Y-35573D01*
X58477Y-35573D01*
X58715Y-35466D02*
X58727Y-35454D01*
X58750Y-35442D01*
X58810Y-35442D01*
X58834Y-35454D01*
X58846Y-35466D01*
X58857Y-35490D01*
X58857Y-35514D01*
X58846Y-35549D01*
X58703Y-35692D01*
X58857Y-35692D01*
X54351Y-32292D02*
X54232Y-32375D01*
X54351Y-32434D02*
X54101Y-32434D01*
X54101Y-32339D01*
X54113Y-32315D01*
X54125Y-32304D01*
X54149Y-32292D01*
X54185Y-32292D01*
X54208Y-32304D01*
X54220Y-32315D01*
X54232Y-32339D01*
X54232Y-32434D01*
X54351Y-32054D02*
X54351Y-32196D01*
X54351Y-32125D02*
X54101Y-32125D01*
X54137Y-32149D01*
X54161Y-32173D01*
X54173Y-32196D01*
X53459Y-37601D02*
X53340Y-37601D01*
X53340Y-37351D01*
X53530Y-37375D02*
X53542Y-37363D01*
X53565Y-37351D01*
X53625Y-37351D01*
X53649Y-37363D01*
X53661Y-37375D01*
X53672Y-37399D01*
X53672Y-37423D01*
X53661Y-37458D01*
X53518Y-37601D01*
X53672Y-37601D01*
X54709Y-36351D02*
X54590Y-36351D01*
X54590Y-36101D01*
X54922Y-36351D02*
X54780Y-36351D01*
X54851Y-36351D02*
X54851Y-36101D01*
X54827Y-36137D01*
X54803Y-36161D01*
X54780Y-36173D01*
X55839Y-44827D02*
X55827Y-44839D01*
X55792Y-44851D01*
X55768Y-44851D01*
X55732Y-44839D01*
X55708Y-44815D01*
X55697Y-44792D01*
X55685Y-44744D01*
X55685Y-44708D01*
X55697Y-44661D01*
X55708Y-44637D01*
X55732Y-44613D01*
X55768Y-44601D01*
X55792Y-44601D01*
X55827Y-44613D01*
X55839Y-44625D01*
X56077Y-44851D02*
X55935Y-44851D01*
X56006Y-44851D02*
X56006Y-44601D01*
X55982Y-44637D01*
X55958Y-44661D01*
X55935Y-44673D01*
X56161Y-44601D02*
X56327Y-44601D01*
X56220Y-44851D01*
X55089Y-44827D02*
X55077Y-44839D01*
X55042Y-44851D01*
X55018Y-44851D01*
X54982Y-44839D01*
X54958Y-44815D01*
X54947Y-44792D01*
X54935Y-44744D01*
X54935Y-44708D01*
X54947Y-44661D01*
X54958Y-44637D01*
X54982Y-44613D01*
X55018Y-44601D01*
X55042Y-44601D01*
X55077Y-44613D01*
X55089Y-44625D01*
X55327Y-44851D02*
X55185Y-44851D01*
X55256Y-44851D02*
X55256Y-44601D01*
X55232Y-44637D01*
X55208Y-44661D01*
X55185Y-44673D01*
X55542Y-44601D02*
X55494Y-44601D01*
X55470Y-44613D01*
X55458Y-44625D01*
X55435Y-44661D01*
X55423Y-44708D01*
X55423Y-44804D01*
X55435Y-44827D01*
X55446Y-44839D01*
X55470Y-44851D01*
X55518Y-44851D01*
X55542Y-44839D01*
X55554Y-44827D01*
X55565Y-44804D01*
X55565Y-44744D01*
X55554Y-44720D01*
X55542Y-44708D01*
X55518Y-44696D01*
X55470Y-44696D01*
X55446Y-44708D01*
X55435Y-44720D01*
X55423Y-44744D01*
X60827Y-42911D02*
X60839Y-42923D01*
X60851Y-42958D01*
X60851Y-42982D01*
X60839Y-43018D01*
X60815Y-43042D01*
X60792Y-43053D01*
X60744Y-43065D01*
X60708Y-43065D01*
X60661Y-43053D01*
X60637Y-43042D01*
X60613Y-43018D01*
X60601Y-42982D01*
X60601Y-42958D01*
X60613Y-42923D01*
X60625Y-42911D01*
X60851Y-42673D02*
X60851Y-42815D01*
X60851Y-42744D02*
X60601Y-42744D01*
X60637Y-42768D01*
X60661Y-42792D01*
X60673Y-42815D01*
X60601Y-42446D02*
X60601Y-42565D01*
X60720Y-42577D01*
X60708Y-42565D01*
X60696Y-42542D01*
X60696Y-42482D01*
X60708Y-42458D01*
X60720Y-42446D01*
X60744Y-42435D01*
X60804Y-42435D01*
X60827Y-42446D01*
X60839Y-42458D01*
X60851Y-42482D01*
X60851Y-42542D01*
X60839Y-42565D01*
X60827Y-42577D01*
X54339Y-44827D02*
X54327Y-44839D01*
X54292Y-44851D01*
X54268Y-44851D01*
X54232Y-44839D01*
X54208Y-44815D01*
X54197Y-44792D01*
X54185Y-44744D01*
X54185Y-44708D01*
X54197Y-44661D01*
X54208Y-44637D01*
X54232Y-44613D01*
X54268Y-44601D01*
X54292Y-44601D01*
X54327Y-44613D01*
X54339Y-44625D01*
X54577Y-44851D02*
X54435Y-44851D01*
X54506Y-44851D02*
X54506Y-44601D01*
X54482Y-44637D01*
X54458Y-44661D01*
X54435Y-44673D01*
X54792Y-44685D02*
X54792Y-44851D01*
X54732Y-44589D02*
X54673Y-44768D01*
X54827Y-44768D01*
X51339Y-37577D02*
X51327Y-37589D01*
X51292Y-37601D01*
X51268Y-37601D01*
X51232Y-37589D01*
X51208Y-37565D01*
X51197Y-37542D01*
X51185Y-37494D01*
X51185Y-37458D01*
X51197Y-37411D01*
X51208Y-37387D01*
X51232Y-37363D01*
X51268Y-37351D01*
X51292Y-37351D01*
X51327Y-37363D01*
X51339Y-37375D01*
X51577Y-37601D02*
X51435Y-37601D01*
X51506Y-37601D02*
X51506Y-37351D01*
X51482Y-37387D01*
X51458Y-37411D01*
X51435Y-37423D01*
X51661Y-37351D02*
X51815Y-37351D01*
X51732Y-37446D01*
X51768Y-37446D01*
X51792Y-37458D01*
X51804Y-37470D01*
X51815Y-37494D01*
X51815Y-37554D01*
X51804Y-37577D01*
X51792Y-37589D01*
X51768Y-37601D01*
X51696Y-37601D01*
X51673Y-37589D01*
X51661Y-37577D01*
X60827Y-43661D02*
X60839Y-43673D01*
X60851Y-43708D01*
X60851Y-43732D01*
X60839Y-43768D01*
X60815Y-43792D01*
X60792Y-43803D01*
X60744Y-43815D01*
X60708Y-43815D01*
X60661Y-43803D01*
X60637Y-43792D01*
X60613Y-43768D01*
X60601Y-43732D01*
X60601Y-43708D01*
X60613Y-43673D01*
X60625Y-43661D01*
X60851Y-43423D02*
X60851Y-43565D01*
X60851Y-43494D02*
X60601Y-43494D01*
X60637Y-43518D01*
X60661Y-43542D01*
X60673Y-43565D01*
X60625Y-43327D02*
X60613Y-43315D01*
X60601Y-43292D01*
X60601Y-43232D01*
X60613Y-43208D01*
X60625Y-43196D01*
X60649Y-43185D01*
X60673Y-43185D01*
X60708Y-43196D01*
X60851Y-43339D01*
X60851Y-43185D01*
X61827Y-33911D02*
X61839Y-33923D01*
X61851Y-33958D01*
X61851Y-33982D01*
X61839Y-34018D01*
X61815Y-34042D01*
X61792Y-34053D01*
X61744Y-34065D01*
X61708Y-34065D01*
X61661Y-34053D01*
X61637Y-34042D01*
X61613Y-34018D01*
X61601Y-33982D01*
X61601Y-33958D01*
X61613Y-33923D01*
X61625Y-33911D01*
X61851Y-33673D02*
X61851Y-33815D01*
X61851Y-33744D02*
X61601Y-33744D01*
X61637Y-33768D01*
X61661Y-33792D01*
X61673Y-33815D01*
X61851Y-33435D02*
X61851Y-33577D01*
X61851Y-33506D02*
X61601Y-33506D01*
X61637Y-33530D01*
X61661Y-33554D01*
X61673Y-33577D01*
X53589Y-44827D02*
X53577Y-44839D01*
X53542Y-44851D01*
X53518Y-44851D01*
X53482Y-44839D01*
X53458Y-44815D01*
X53447Y-44792D01*
X53435Y-44744D01*
X53435Y-44708D01*
X53447Y-44661D01*
X53458Y-44637D01*
X53482Y-44613D01*
X53518Y-44601D01*
X53542Y-44601D01*
X53577Y-44613D01*
X53589Y-44625D01*
X53827Y-44851D02*
X53685Y-44851D01*
X53756Y-44851D02*
X53756Y-44601D01*
X53732Y-44637D01*
X53708Y-44661D01*
X53685Y-44673D01*
X53982Y-44601D02*
X54006Y-44601D01*
X54030Y-44613D01*
X54042Y-44625D01*
X54054Y-44649D01*
X54065Y-44696D01*
X54065Y-44756D01*
X54054Y-44804D01*
X54042Y-44827D01*
X54030Y-44839D01*
X54006Y-44851D01*
X53982Y-44851D01*
X53958Y-44839D01*
X53946Y-44827D01*
X53935Y-44804D01*
X53923Y-44756D01*
X53923Y-44696D01*
X53935Y-44649D01*
X53946Y-44625D01*
X53958Y-44613D01*
X53982Y-44601D01*
X56708Y-36577D02*
X56696Y-36589D01*
X56661Y-36601D01*
X56637Y-36601D01*
X56601Y-36589D01*
X56577Y-36565D01*
X56566Y-36542D01*
X56554Y-36494D01*
X56554Y-36458D01*
X56566Y-36411D01*
X56577Y-36387D01*
X56601Y-36363D01*
X56637Y-36351D01*
X56661Y-36351D01*
X56696Y-36363D01*
X56708Y-36375D01*
X56827Y-36601D02*
X56875Y-36601D01*
X56899Y-36589D01*
X56911Y-36577D01*
X56935Y-36542D01*
X56946Y-36494D01*
X56946Y-36399D01*
X56935Y-36375D01*
X56923Y-36363D01*
X56899Y-36351D01*
X56851Y-36351D01*
X56827Y-36363D01*
X56816Y-36375D01*
X56804Y-36399D01*
X56804Y-36458D01*
X56816Y-36482D01*
X56827Y-36494D01*
X56851Y-36506D01*
X56899Y-36506D01*
X56923Y-36494D01*
X56935Y-36482D01*
X56946Y-36458D01*
X60827Y-44292D02*
X60839Y-44304D01*
X60851Y-44339D01*
X60851Y-44363D01*
X60839Y-44399D01*
X60815Y-44423D01*
X60792Y-44434D01*
X60744Y-44446D01*
X60708Y-44446D01*
X60661Y-44434D01*
X60637Y-44423D01*
X60613Y-44399D01*
X60601Y-44363D01*
X60601Y-44339D01*
X60613Y-44304D01*
X60625Y-44292D01*
X60708Y-44149D02*
X60696Y-44173D01*
X60685Y-44184D01*
X60661Y-44196D01*
X60649Y-44196D01*
X60625Y-44184D01*
X60613Y-44173D01*
X60601Y-44149D01*
X60601Y-44101D01*
X60613Y-44077D01*
X60625Y-44065D01*
X60649Y-44054D01*
X60661Y-44054D01*
X60685Y-44065D01*
X60696Y-44077D01*
X60708Y-44101D01*
X60708Y-44149D01*
X60720Y-44173D01*
X60732Y-44184D01*
X60756Y-44196D01*
X60804Y-44196D01*
X60827Y-44184D01*
X60839Y-44173D01*
X60851Y-44149D01*
X60851Y-44101D01*
X60839Y-44077D01*
X60827Y-44065D01*
X60804Y-44054D01*
X60756Y-44054D01*
X60732Y-44065D01*
X60720Y-44077D01*
X60708Y-44101D01*
X60827Y-45042D02*
X60839Y-45054D01*
X60851Y-45089D01*
X60851Y-45113D01*
X60839Y-45149D01*
X60815Y-45173D01*
X60792Y-45184D01*
X60744Y-45196D01*
X60708Y-45196D01*
X60661Y-45184D01*
X60637Y-45173D01*
X60613Y-45149D01*
X60601Y-45113D01*
X60601Y-45089D01*
X60613Y-45054D01*
X60625Y-45042D01*
X60601Y-44827D02*
X60601Y-44875D01*
X60613Y-44899D01*
X60625Y-44911D01*
X60661Y-44934D01*
X60708Y-44946D01*
X60804Y-44946D01*
X60827Y-44934D01*
X60839Y-44923D01*
X60851Y-44899D01*
X60851Y-44851D01*
X60839Y-44827D01*
X60827Y-44815D01*
X60804Y-44804D01*
X60744Y-44804D01*
X60720Y-44815D01*
X60708Y-44827D01*
X60696Y-44851D01*
X60696Y-44899D01*
X60708Y-44923D01*
X60720Y-44934D01*
X60744Y-44946D01*
X61827Y-37792D02*
X61839Y-37804D01*
X61851Y-37839D01*
X61851Y-37863D01*
X61839Y-37899D01*
X61815Y-37923D01*
X61792Y-37934D01*
X61744Y-37946D01*
X61708Y-37946D01*
X61661Y-37934D01*
X61637Y-37923D01*
X61613Y-37899D01*
X61601Y-37863D01*
X61601Y-37839D01*
X61613Y-37804D01*
X61625Y-37792D01*
X61601Y-37565D02*
X61601Y-37684D01*
X61720Y-37696D01*
X61708Y-37684D01*
X61696Y-37661D01*
X61696Y-37601D01*
X61708Y-37577D01*
X61720Y-37565D01*
X61744Y-37554D01*
X61804Y-37554D01*
X61827Y-37565D01*
X61839Y-37577D01*
X61851Y-37601D01*
X61851Y-37661D01*
X61839Y-37684D01*
X61827Y-37696D01*
X60458Y-42077D02*
X60446Y-42089D01*
X60411Y-42101D01*
X60387Y-42101D01*
X60351Y-42089D01*
X60327Y-42065D01*
X60316Y-42042D01*
X60304Y-41994D01*
X60304Y-41958D01*
X60316Y-41911D01*
X60327Y-41887D01*
X60351Y-41863D01*
X60387Y-41851D01*
X60411Y-41851D01*
X60446Y-41863D01*
X60458Y-41875D01*
X60542Y-41851D02*
X60696Y-41851D01*
X60613Y-41946D01*
X60649Y-41946D01*
X60673Y-41958D01*
X60685Y-41970D01*
X60696Y-41994D01*
X60696Y-42054D01*
X60685Y-42077D01*
X60673Y-42089D01*
X60649Y-42101D01*
X60577Y-42101D01*
X60554Y-42089D01*
X60542Y-42077D01*
X57601Y-39993D02*
X57351Y-39993D01*
X57577Y-39732D02*
X57589Y-39744D01*
X57601Y-39779D01*
X57601Y-39803D01*
X57589Y-39839D01*
X57565Y-39863D01*
X57542Y-39874D01*
X57494Y-39886D01*
X57458Y-39886D01*
X57411Y-39874D01*
X57387Y-39863D01*
X57363Y-39839D01*
X57351Y-39803D01*
X57351Y-39779D01*
X57363Y-39744D01*
X57375Y-39732D01*
X57601Y-39494D02*
X57601Y-39636D01*
X57601Y-39565D02*
X57351Y-39565D01*
X57387Y-39589D01*
X57411Y-39613D01*
X57423Y-39636D01*
X56970Y-40285D02*
X56970Y-40368D01*
X57101Y-40368D02*
X56851Y-40368D01*
X56851Y-40249D01*
X56851Y-40190D02*
X56851Y-40047D01*
X57101Y-40119D02*
X56851Y-40119D01*
X56875Y-39976D02*
X56863Y-39964D01*
X56851Y-39941D01*
X56851Y-39881D01*
X56863Y-39857D01*
X56875Y-39845D01*
X56899Y-39834D01*
X56923Y-39834D01*
X56958Y-39845D01*
X57101Y-39988D01*
X57101Y-39834D01*
X56875Y-39738D02*
X56863Y-39726D01*
X56851Y-39703D01*
X56851Y-39643D01*
X56863Y-39619D01*
X56875Y-39607D01*
X56899Y-39596D01*
X56923Y-39596D01*
X56958Y-39607D01*
X57101Y-39750D01*
X57101Y-39596D01*
X56851Y-39512D02*
X56851Y-39358D01*
X56946Y-39441D01*
X56946Y-39405D01*
X56958Y-39381D01*
X56970Y-39369D01*
X56994Y-39358D01*
X57054Y-39358D01*
X57077Y-39369D01*
X57089Y-39381D01*
X57101Y-39405D01*
X57101Y-39477D01*
X57089Y-39500D01*
X57077Y-39512D01*
X56875Y-39262D02*
X56863Y-39250D01*
X56851Y-39227D01*
X56851Y-39167D01*
X56863Y-39143D01*
X56875Y-39131D01*
X56899Y-39120D01*
X56923Y-39120D01*
X56958Y-39131D01*
X57101Y-39274D01*
X57101Y-39120D01*
X59101Y-35952D02*
X59351Y-35786D01*
X59101Y-35786D02*
X59351Y-35952D01*
X59351Y-35560D02*
X59351Y-35702D01*
X59351Y-35631D02*
X59101Y-35631D01*
X59137Y-35655D01*
X59161Y-35679D01*
X59173Y-35702D01*
X61601Y-36173D02*
X61601Y-36315D01*
X61601Y-36244D02*
X61351Y-36244D01*
X61387Y-36268D01*
X61411Y-36292D01*
X61423Y-36315D01*
X61375Y-36077D02*
X61363Y-36065D01*
X61351Y-36042D01*
X61351Y-35982D01*
X61363Y-35958D01*
X61375Y-35946D01*
X61399Y-35935D01*
X61423Y-35935D01*
X61458Y-35946D01*
X61601Y-36089D01*
X61601Y-35935D01*
X61601Y-35827D02*
X61351Y-35827D01*
X61530Y-35744D01*
X61351Y-35661D01*
X61601Y-35661D01*
X61601Y-35541D02*
X61351Y-35541D01*
X61470Y-35541D02*
X61470Y-35399D01*
X61601Y-35399D02*
X61351Y-35399D01*
X61435Y-35303D02*
X61435Y-35172D01*
X61601Y-35303D01*
X61601Y-35172D01*
M02*
